<?xml version="1.0" encoding="utf-8"?>
<!-- Generator: Adobe Illustrator 27.5.0, SVG Export Plug-In . SVG Version: 6.00 Build 0)  -->
<svg version="1.1" id="Layer_1" xmlns="http://www.w3.org/2000/svg" xmlns:xlink="http://www.w3.org/1999/xlink" x="0px" y="0px"
	 viewBox="0 0 900 900" style="enable-background:new 0 0 900 900;display:none;" xml:space="preserve">
<g id="XMLID_2007_" style="display:inline;">
	<circle id="XMLID_2006_" style="fill:#FFFFFF;" cx="443.248" cy="487.398" r="271.384"/>
	<g id="XMLID_6022_">
		<path id="XMLID_1990_" style="fill:#E1EFEE;" d="M450,190.15c-167.334,0-302.986,135.652-302.986,302.986
			S282.666,796.122,450,796.122c167.333,0,302.986-135.652,302.986-302.986S617.333,190.15,450,190.15z M450,753.643
			c-143.881,0-260.506-116.64-260.506-260.506S306.119,232.63,450,232.63c143.866,0,260.506,116.64,260.506,260.506
			S593.866,753.643,450,753.643z"/>
		<path id="XMLID_1987_" style="fill:#BDD6D4;" d="M450,210.875c-154.62,0-279.968,126.378-279.968,282.261
			S295.38,775.397,450,775.397s279.968-126.378,279.968-282.261S604.62,210.875,450,210.875z M450,753.643
			c-143.881,0-260.506-116.64-260.506-260.506S306.119,232.63,450,232.63c143.866,0,260.506,116.64,260.506,260.506
			S593.866,753.643,450,753.643z"/>
		<path id="XMLID_1984_" style="fill:none;stroke:#640917;stroke-width:2.6213;stroke-miterlimit:10;" d="M450,190.15
			c-167.334,0-302.986,135.652-302.986,302.986S282.667,796.122,450,796.122c167.333,0,302.986-135.652,302.986-302.986
			S617.333,190.15,450,190.15z M450,753.643c-143.881,0-260.506-116.64-260.506-260.506S306.119,232.63,450,232.63
			c143.866,0,260.506,116.64,260.506,260.506S593.866,753.643,450,753.643z"/>
		
			<line id="XMLID_1983_" style="fill:#DBAA94;stroke:#640917;stroke-width:7.8638;stroke-linecap:round;stroke-miterlimit:10;" x1="367.738" y1="576.164" x2="585.154" y2="364.655"/>
		
			<circle id="XMLID_1982_" style="fill:#640917;stroke:#640917;stroke-width:2.6213;stroke-linecap:round;stroke-miterlimit:10;" cx="452.915" cy="493.137" r="14.329"/>
		
			<ellipse id="XMLID_1981_" transform="matrix(0.8048 -0.5936 0.5936 0.8048 -275.1508 327.7959)" style="fill:#E25959;" cx="360.721" cy="582.167" rx="8.848" ry="8.848"/>
		<g id="XMLID_1944_">
			<g id="XMLID_1963_">
				<g id="XMLID_1964_">
					<g id="XMLID_1979_">
						<path id="XMLID_1980_" style="fill:#CDE0DF;" d="M538.084,290.878c-2.315,0-4.585-0.947-6.217-2.601
							c-1.653-1.632-2.601-3.902-2.601-6.217c0-2.336,0.947-4.607,2.601-6.238c1.632-1.653,3.902-2.58,6.217-2.58
							c2.336,0,4.607,0.927,6.238,2.58c1.653,1.631,2.58,3.902,2.58,6.238c0,2.315-0.927,4.585-2.58,6.217
							C542.691,289.931,540.42,290.878,538.084,290.878z"/>
					</g>
					<g id="XMLID_1977_">
						<path id="XMLID_1978_" style="fill:#CDE0DF;" d="M662.392,412.917c-2.314,0-4.586-0.926-6.216-2.579
							c-1.653-1.632-2.579-3.902-2.579-6.239c0-2.315,0.926-4.585,2.579-6.239c1.631-1.632,3.902-2.579,6.216-2.579
							c2.337,0,4.608,0.947,6.239,2.579c1.653,1.653,2.579,3.923,2.579,6.239c0,2.337-0.926,4.607-2.579,6.239
							C667,411.991,664.729,412.917,662.392,412.917z"/>
					</g>
					<g id="XMLID_1975_">
						<path id="XMLID_1976_" style="fill:#CDE0DF;" d="M664.002,587.134c-2.314,0-4.584-0.947-6.238-2.579
							c-1.632-1.653-2.58-3.923-2.58-6.239c0-2.337,0.948-4.607,2.58-6.239c1.631-1.631,3.901-2.579,6.238-2.579
							c2.315,0,4.585,0.948,6.239,2.579c1.632,1.653,2.579,3.924,2.579,6.239c0,2.315-0.947,4.585-2.579,6.239
							C668.587,586.187,666.317,587.134,664.002,587.134z"/>
					</g>
					<g id="XMLID_1973_">
						<path id="XMLID_1974_" style="fill:#640917;" d="M541.942,711.443c-2.315,0-4.585-0.948-6.239-2.579
							c-1.632-1.653-2.579-3.924-2.579-6.239c0-2.315,0.947-4.585,2.579-6.239c1.653-1.631,3.923-2.579,6.239-2.579
							c2.314,0,4.584,0.948,6.238,2.579c1.632,1.653,2.58,3.924,2.58,6.239c0,2.314-0.948,4.585-2.58,6.239
							C546.526,710.495,544.256,711.443,541.942,711.443z"/>
					</g>
					<g id="XMLID_1971_">
						<path id="XMLID_1972_" style="fill:#640917;" d="M367.747,713.03c-2.337,0-4.608-0.926-6.239-2.579
							c-1.653-1.631-2.579-3.902-2.579-6.239c0-2.314,0.926-4.584,2.579-6.238c1.631-1.632,3.902-2.58,6.239-2.58
							c2.314,0,4.584,0.948,6.216,2.58c1.653,1.653,2.602,3.923,2.602,6.238c0,2.337-0.948,4.608-2.602,6.239
							C372.331,712.104,370.061,713.03,367.747,713.03z"/>
					</g>
					<g id="XMLID_1969_">
						<path id="XMLID_1970_" style="fill:#CDE0DF;" d="M243.415,590.992c-2.314,0-4.584-0.947-6.216-2.6
							c-1.653-1.632-2.579-3.902-2.579-6.217c0-2.337,0.926-4.607,2.579-6.239c1.632-1.653,3.902-2.579,6.216-2.579
							c2.337,0,4.608,0.926,6.239,2.579c1.653,1.632,2.579,3.902,2.579,6.239c0,2.315-0.926,4.586-2.579,6.217
							C248.023,590.044,245.752,590.992,243.415,590.992z"/>
					</g>
					<g id="XMLID_1967_">
						<path id="XMLID_1968_" style="fill:#CDE0DF;" d="M241.829,416.775c-2.315,0-4.585-0.948-6.239-2.579
							c-1.631-1.653-2.579-3.924-2.579-6.239c0-2.315,0.948-4.585,2.579-6.239c1.653-1.632,3.923-2.579,6.239-2.579
							c2.314,0,4.607,0.947,6.239,2.579c1.631,1.653,2.579,3.923,2.579,6.239c0,2.314-0.948,4.585-2.579,6.239
							C246.414,415.827,244.143,416.775,241.829,416.775z"/>
					</g>
					<g id="XMLID_1965_">
						<path id="XMLID_1966_" style="fill:#CDE0DF;" d="M363.889,292.466c-2.315,0-4.585-0.948-6.239-2.579
							c-1.632-1.653-2.579-3.925-2.579-6.239c0-2.314,0.947-4.585,2.579-6.239c1.631-1.631,3.902-2.579,6.239-2.579
							c2.314,0,4.584,0.948,6.238,2.579c1.632,1.653,2.58,3.925,2.58,6.239c0,2.314-0.948,4.585-2.58,6.239
							C368.473,291.518,366.203,292.466,363.889,292.466z"/>
					</g>
				</g>
			</g>
			<g id="XMLID_1945_">
				<g id="XMLID_1946_">
					<g id="XMLID_1961_">
						<path id="XMLID_1962_" style="fill:#640917;" d="M452.926,274.323c-2.337,0-4.607-0.926-6.238-2.579
							c-1.653-1.632-2.58-3.902-2.58-6.239c0-2.314,0.927-4.585,2.58-6.239c1.631-1.631,3.901-2.579,6.238-2.579
							c2.315,0,4.585,0.948,6.217,2.579c1.653,1.653,2.579,3.924,2.579,6.239c0,2.337-0.926,4.607-2.579,6.239
							C457.511,273.398,455.241,274.323,452.926,274.323z"/>
					</g>
					<g id="XMLID_1959_">
						<path id="XMLID_1960_" style="fill:#CDE0DF;" d="M613.873,341.008c-2.315,0-4.607-0.948-6.239-2.602
							c-1.632-1.631-2.579-3.902-2.579-6.216c0-2.337,0.947-4.607,2.579-6.239c1.632-1.653,3.923-2.579,6.239-2.579
							c2.314,0,4.585,0.926,6.239,2.579c1.631,1.632,2.579,3.902,2.579,6.239c0,2.314-0.948,4.586-2.579,6.216
							C618.458,340.059,616.187,341.008,613.873,341.008z"/>
					</g>
					<g id="XMLID_1957_">
						<path id="XMLID_1958_" style="fill:#CDE0DF;" d="M680.535,501.954c-2.314,0-4.584-0.947-6.238-2.579
							c-1.632-1.653-2.58-3.923-2.58-6.239c0-2.314,0.948-4.584,2.58-6.238c1.653-1.632,3.924-2.58,6.238-2.58
							c2.315,0,4.585,0.948,6.239,2.58c1.632,1.653,2.579,3.923,2.579,6.238c0,2.315-0.947,4.585-2.579,6.239
							C685.12,501.007,682.85,501.954,680.535,501.954z"/>
					</g>
					<g id="XMLID_1955_">
						<path id="XMLID_1956_" style="fill:#CDE0DF;" d="M613.873,662.901c-2.315,0-4.585-0.926-6.239-2.579
							c-1.653-1.632-2.579-3.902-2.579-6.239c0-2.314,0.926-4.585,2.579-6.239c1.632-1.631,3.923-2.579,6.239-2.579
							c2.314,0,4.585,0.948,6.239,2.579c1.631,1.653,2.579,3.924,2.579,6.239c0,2.337-0.948,4.607-2.579,6.239
							C618.458,661.975,616.187,662.901,613.873,662.901z"/>
					</g>
					<g id="XMLID_1953_">
						<path id="XMLID_1954_" style="fill:#640917;" d="M452.926,729.586c-2.337,0-4.607-0.948-6.238-2.602
							c-1.653-1.631-2.58-3.902-2.58-6.216c0-2.337,0.927-4.607,2.58-6.239c1.631-1.653,3.901-2.579,6.238-2.579
							c2.315,0,4.585,0.926,6.217,2.579c1.653,1.632,2.579,3.902,2.579,6.239c0,2.314-0.926,4.586-2.579,6.216
							C457.511,728.637,455.241,729.586,452.926,729.586z"/>
					</g>
					<g id="XMLID_1951_">
						<path id="XMLID_1952_" style="fill:#CDE0DF;" d="M291.957,662.901c-2.314,0-4.584-0.926-6.238-2.579
							c-1.632-1.632-2.58-3.902-2.58-6.239c0-2.314,0.948-4.585,2.58-6.239c1.653-1.631,3.923-2.579,6.238-2.579
							c2.315,0,4.585,0.948,6.239,2.579c1.653,1.653,2.579,3.924,2.579,6.239c0,2.337-0.926,4.607-2.579,6.239
							C296.543,661.975,294.272,662.901,291.957,662.901z"/>
					</g>
					<g id="XMLID_1949_">
						<path id="XMLID_1950_" style="fill:#CDE0DF;" d="M225.295,501.954c-2.315,0-4.607-0.947-6.239-2.579
							c-1.631-1.653-2.579-3.923-2.579-6.239c0-2.314,0.948-4.584,2.579-6.238c1.653-1.632,3.923-2.58,6.239-2.58
							c2.314,0,4.585,0.948,6.239,2.58c1.631,1.631,2.579,3.923,2.579,6.238c0,2.315-0.948,4.585-2.579,6.239
							C229.881,501.007,227.609,501.954,225.295,501.954z"/>
					</g>
					<g id="XMLID_1947_">
						<path id="XMLID_1948_" style="fill:#CDE0DF;" d="M291.957,341.008c-2.314,0-4.584-0.948-6.238-2.602
							c-1.632-1.631-2.58-3.902-2.58-6.216c0-2.337,0.948-4.607,2.58-6.239c1.653-1.653,3.923-2.579,6.238-2.579
							c2.337,0,4.608,0.926,6.239,2.579c1.653,1.653,2.579,3.924,2.579,6.239c0,2.314-0.926,4.586-2.579,6.216
							C296.565,340.059,294.294,341.008,291.957,341.008z"/>
					</g>
				</g>
			</g>
		</g>
		<g id="XMLID_1942_">
			
				<line id="XMLID_1943_" style="fill:#DBAA94;stroke:#640917;stroke-width:7.8638;stroke-linecap:round;stroke-miterlimit:10;" x1="577.484" y1="554.188" x2="299.689" y2="432.388"/>
		</g>
		<g id="XMLID_1861_">
			<g id="XMLID_1929_">
				
					<path id="XMLID_1941_" style="fill:#E25959;stroke:#640917;stroke-width:2.6213;stroke-linecap:round;stroke-miterlimit:10;" d="
					M510.826,471.828v23.576h7.303v7.556H371.44c-10.69,0-19.354-8.654-19.354-19.344c0-5.34,2.163-10.184,5.667-13.677
					c3.504-3.504,8.337-5.667,13.687-5.667h146.689v7.556H510.826z"/>
				<path id="XMLID_1940_" style="fill:#CE3E3E;" d="M438.537,483.616v19.344H371.44c-10.69,0-19.354-7.749-19.354-17.322
					c0-0.69,0.042-1.361,0.137-2.022H438.537z"/>
				<path id="XMLID_1939_" style="fill:none;stroke:#640917;stroke-width:2.6213;stroke-linecap:round;stroke-miterlimit:10;" d="
					M510.826,471.828v23.576h7.303v7.556H371.44c-10.69,0-19.354-8.654-19.354-19.344c0-5.34,2.163-10.184,5.667-13.677
					c3.504-3.504,8.337-5.667,13.687-5.667h146.689v7.556H510.826z"/>
				
					<path id="XMLID_1938_" style="fill:#F27575;stroke:#640917;stroke-width:2.6213;stroke-linecap:round;stroke-miterlimit:10;" d="
					M575.2,471.828v23.576h3.525c2.087,0,3.778,1.691,3.778,3.778l0,0c0,2.086-1.691,3.778-3.778,3.778H436.301
					c-10.657,0-19.688-8.407-19.839-19.063c-0.077-5.451,2.1-10.403,5.665-13.958c3.504-3.504,8.337-5.667,13.688-5.667h142.911
					c2.087,0,3.778,1.691,3.778,3.778l0,0c0,2.087-1.691,3.778-3.778,3.778H575.2z"/>
				<path id="XMLID_1937_" style="fill:none;stroke:#640917;stroke-width:2.6213;stroke-linecap:round;stroke-miterlimit:10;" d="
					M392.02,502.96h-3.25c-10.69,0-19.354-8.654-19.354-19.344c0-5.34,2.163-10.184,5.667-13.677
					c3.504-3.504,8.337-5.667,13.687-5.667h2.723"/>
				<path id="XMLID_1936_" style="fill:none;stroke:#640917;stroke-width:2.6213;stroke-linecap:round;stroke-miterlimit:10;" d="
					M414.624,502.96h-3.25c-10.69,0-19.354-8.654-19.354-19.344c0-5.34,2.163-10.184,5.667-13.677
					c3.504-3.504,8.337-5.667,13.687-5.667h2.723"/>
				<path id="XMLID_1935_" style="fill:#F7F0ED;stroke:#640917;stroke-width:2.6213;stroke-miterlimit:10;" d="M575.2,495.401
					H433.434c-4.467,0-8.089-3.621-8.089-8.089v-7.391c0-4.467,3.621-8.089,8.089-8.089H575.2V495.401z"/>
				<path id="XMLID_1934_" style="fill:#F7F0ED;stroke:#640917;stroke-width:2.6213;stroke-miterlimit:10;" d="M411.375,502.96
					H388.77c-10.69,0-19.354-8.654-19.354-19.344c0-5.34,2.163-10.184,5.667-13.677c3.504-3.504,8.337-5.667,13.687-5.667h22.605
					c-5.351,0-10.184,2.163-13.688,5.667c-3.504,3.493-5.667,8.337-5.667,13.677C392.021,494.307,400.685,502.96,411.375,502.96z"/>
				<path id="XMLID_1933_" style="fill:#EAD9D3;" d="M411.373,502.96h-22.605c-10.69,0-19.355-8.654-19.355-19.344h22.605
					C392.018,494.307,400.682,502.96,411.373,502.96z"/>
				<path id="XMLID_1932_" style="fill:#EAD9D3;" d="M575.2,471.832v7.567H437.133c-3.25,0-6.205,1.319-8.337,3.451
					c-1.267,1.266-2.248,2.818-2.828,4.548c-0.401-1.182-0.622-2.459-0.622-3.778c0-3.261,1.319-6.205,3.451-8.337
					s5.086-3.451,8.337-3.451H575.2z"/>
				<path id="XMLID_1931_" style="fill:none;stroke:#640917;stroke-width:2.6213;stroke-linecap:round;stroke-miterlimit:10;" d="
					M411.375,502.96H388.77c-10.69,0-19.354-8.654-19.354-19.344c0-5.34,2.163-10.184,5.667-13.677
					c3.504-3.504,8.337-5.667,13.687-5.667h22.605c-5.351,0-10.184,2.163-13.688,5.667c-3.504,3.493-5.667,8.337-5.667,13.677
					C392.021,494.307,400.685,502.96,411.375,502.96z"/>
				<path id="XMLID_1930_" style="fill:none;stroke:#640917;stroke-width:2.6213;stroke-miterlimit:10;" d="M575.2,495.401H433.434
					c-4.467,0-8.089-3.621-8.089-8.089v-7.391c0-4.467,3.621-8.089,8.089-8.089H575.2V495.401z"/>
			</g>
			<g id="XMLID_1921_">
				<path id="XMLID_1928_" style="fill:#CDE0DF;" d="M496.623,764.995v23.576h7.303v7.556H357.237
					c-10.69,0-19.354-8.654-19.354-19.344c0-5.34,2.163-10.184,5.667-13.677c3.504-3.504,8.337-5.667,13.687-5.667h146.689v7.556
					H496.623z"/>
				<path id="XMLID_1927_" style="fill:#A5CECB;" d="M424.334,776.783v19.344h-67.097c-10.69,0-19.354-7.749-19.354-17.322
					c0-0.69,0.042-1.361,0.137-2.022H424.334z"/>
				<path id="XMLID_1926_" style="fill:none;stroke:#640917;stroke-width:2.6213;stroke-linecap:round;stroke-miterlimit:10;" d="
					M496.623,764.995v23.576h7.303v7.556H357.237c-10.69,0-19.354-8.654-19.354-19.344c0-5.34,2.163-10.184,5.667-13.677
					c3.504-3.504,8.337-5.667,13.687-5.667h146.689v7.556H496.623z"/>
				
					<path id="XMLID_1925_" style="fill:#E2F2F1;stroke:#640917;stroke-width:2.6213;stroke-linecap:round;stroke-miterlimit:10;" d="
					M560.997,764.995v23.576h3.525c2.087,0,3.778,1.691,3.778,3.778l0,0c0,2.087-1.691,3.778-3.778,3.778H422.098
					c-10.657,0-19.688-8.407-19.839-19.064c-0.077-5.451,2.1-10.403,5.665-13.957c3.504-3.504,8.337-5.667,13.688-5.667h142.911
					c2.087,0,3.778,1.691,3.778,3.778l0,0c0,2.086-1.691,3.778-3.778,3.778H560.997z"/>
				<path id="XMLID_1924_" style="fill:#F7F0ED;" d="M560.997,788.568H419.231c-4.467,0-8.089-3.621-8.089-8.089v-7.391
					c0-4.467,3.622-8.089,8.089-8.089h141.766V788.568z"/>
				<path id="XMLID_1923_" style="fill:#EAD9D3;" d="M560.997,764.999v7.567H422.93c-3.25,0-6.205,1.319-8.337,3.451
					c-1.267,1.266-2.248,2.818-2.828,4.548c-0.401-1.182-0.623-2.459-0.623-3.778c0-3.261,1.319-6.205,3.451-8.337
					c2.132-2.132,5.086-3.451,8.337-3.451H560.997z"/>
				<path id="XMLID_1922_" style="fill:none;stroke:#640917;stroke-width:2.6213;stroke-miterlimit:10;" d="M560.997,788.568
					H419.231c-4.467,0-8.089-3.621-8.089-8.089v-7.391c0-4.467,3.622-8.089,8.089-8.089h141.766V788.568z"/>
			</g>
			<g id="XMLID_1907_">
				
					<path id="XMLID_1920_" style="fill:#702130;stroke:#640917;stroke-width:2.6213;stroke-linecap:round;stroke-miterlimit:10;" d="
					M458.28,726.307v23.576h7.303v7.556H318.894c-10.69,0-19.354-8.654-19.354-19.344c0-5.34,2.163-10.184,5.667-13.677
					c3.504-3.504,8.337-5.667,13.687-5.667h146.689v7.556H458.28z"/>
				<path id="XMLID_1919_" style="fill:#630B18;" d="M452.915,738.095v19.344H318.894c-10.69,0-19.354-7.749-19.354-17.322
					c0-0.69,0.042-1.361,0.137-2.022H452.915z"/>
				<path id="XMLID_1918_" style="fill:none;stroke:#640917;stroke-width:2.6213;stroke-linecap:round;stroke-miterlimit:10;" d="
					M458.28,726.307v23.576h7.303v7.556H318.894c-10.69,0-19.354-8.654-19.354-19.344c0-5.34,2.163-10.184,5.667-13.677
					c3.504-3.504,8.337-5.667,13.687-5.667h146.689v7.556H458.28z"/>
				
					<path id="XMLID_1917_" style="fill:#82273D;stroke:#640917;stroke-width:2.6213;stroke-linecap:round;stroke-miterlimit:10;" d="
					M590.895,726.307v23.576h3.525c2.087,0,3.778,1.692,3.778,3.778l0,0c0,2.087-1.692,3.778-3.778,3.778H451.995
					c-10.657,0-19.688-8.407-19.839-19.063c-0.077-5.451,2.1-10.403,5.665-13.957c3.504-3.504,8.337-5.667,13.688-5.667h142.911
					c2.087,0,3.778,1.691,3.778,3.778l0,0c0,2.087-1.692,3.778-3.778,3.778H590.895z"/>
				<path id="XMLID_1916_" style="fill:#F7F0ED;stroke:#640917;stroke-width:2.6213;stroke-miterlimit:10;" d="M590.895,749.88
					H449.129c-4.467,0-8.089-3.622-8.089-8.089V734.4c0-4.467,3.621-8.089,8.089-8.089h141.766V749.88z"/>
				
					<path id="XMLID_1915_" style="fill:#82273D;stroke:#640917;stroke-width:2.6213;stroke-linecap:round;stroke-miterlimit:10;" d="
					M420.156,757.439h-22.605c-10.69,0-19.354-8.654-19.354-19.344c0-5.34,2.164-10.184,5.667-13.677
					c3.504-3.504,8.337-5.667,13.688-5.667h22.605c-5.351,0-10.184,2.163-13.688,5.667c-3.504,3.493-5.667,8.337-5.667,13.677
					C400.802,748.786,409.466,757.439,420.156,757.439z"/>
				<path id="XMLID_1914_" style="fill:#702130;" d="M420.154,757.439h-22.605c-10.69,0-19.355-8.654-19.355-19.344h22.605
					C400.799,748.786,409.464,757.439,420.154,757.439z"/>
				<path id="XMLID_1913_" style="fill:#EAD9D3;" d="M590.895,726.311v7.567H452.828c-3.25,0-6.205,1.319-8.337,3.451
					c-1.267,1.266-2.248,2.818-2.828,4.548c-0.401-1.182-0.622-2.459-0.622-3.778c0-3.261,1.319-6.205,3.451-8.337
					c2.132-2.132,5.086-3.451,8.337-3.451H590.895z"/>
				<path id="XMLID_1912_" style="fill:none;stroke:#640917;stroke-width:2.6213;stroke-linecap:round;stroke-miterlimit:10;" d="
					M420.154,757.439h-22.605c-10.69,0-19.354-8.654-19.354-19.344c0-5.34,2.163-10.184,5.667-13.677
					c3.504-3.504,8.337-5.667,13.687-5.667h22.605c-5.351,0-10.184,2.163-13.688,5.667c-3.504,3.493-5.667,8.337-5.667,13.677
					C400.799,748.786,409.464,757.439,420.154,757.439z"/>
				
					<path id="XMLID_1911_" style="fill:#82273D;stroke:#640917;stroke-width:2.6213;stroke-linecap:round;stroke-miterlimit:10;" d="
					M366.166,757.439h-22.605c-10.69,0-19.354-8.654-19.354-19.344c0-5.34,2.163-10.184,5.667-13.677
					c3.504-3.504,8.337-5.667,13.687-5.667h22.605c-5.351,0-10.184,2.163-13.688,5.667c-3.504,3.493-5.667,8.337-5.667,13.677
					C346.811,748.786,355.475,757.439,366.166,757.439z"/>
				<path id="XMLID_1910_" style="fill:#702130;" d="M366.164,757.439h-22.605c-10.69,0-19.355-8.654-19.355-19.344h22.605
					C346.809,748.786,355.473,757.439,366.164,757.439z"/>
				<path id="XMLID_1909_" style="fill:none;stroke:#640917;stroke-width:2.6213;stroke-linecap:round;stroke-miterlimit:10;" d="
					M366.164,757.439h-22.605c-10.69,0-19.354-8.654-19.354-19.344c0-5.34,2.163-10.184,5.667-13.677
					c3.504-3.504,8.337-5.667,13.687-5.667h22.605c-5.35,0-10.184,2.163-13.687,5.667c-3.504,3.493-5.667,8.337-5.667,13.677
					C346.809,748.786,355.473,757.439,366.164,757.439z"/>
				<path id="XMLID_1908_" style="fill:none;stroke:#640917;stroke-width:2.6213;stroke-miterlimit:10;" d="M590.895,749.88H449.129
					c-4.467,0-8.089-3.622-8.089-8.089V734.4c0-4.467,3.621-8.089,8.089-8.089h141.766V749.88z"/>
			</g>
			<path id="XMLID_1906_" style="fill:#CDE0DF;" d="M458.28,549.204v23.576h7.303v7.556H318.894
				c-10.69,0-19.354-8.654-19.354-19.344c0-5.34,2.163-10.184,5.667-13.677c3.504-3.504,8.337-5.667,13.687-5.667h146.689v7.556
				H458.28z"/>
			<path id="XMLID_1905_" style="fill:#A5CECB;" d="M452.915,560.992v19.344H318.894c-10.69,0-19.354-7.749-19.354-17.322
				c0-0.69,0.042-1.361,0.137-2.022H452.915z"/>
			<path id="XMLID_1904_" style="fill:none;stroke:#640917;stroke-width:2.6213;stroke-linecap:round;stroke-miterlimit:10;" d="
				M458.28,549.204v23.576h7.303v7.556H318.894c-10.69,0-19.354-8.654-19.354-19.344c0-5.34,2.163-10.184,5.667-13.677
				c3.504-3.504,8.337-5.667,13.687-5.667h146.689v7.556H458.28z"/>
			<path id="XMLID_1903_" style="fill:#E2F2F1;stroke:#640917;stroke-width:2.6213;stroke-linecap:round;stroke-miterlimit:10;" d="
				M590.895,549.204v23.576h3.525c2.087,0,3.778,1.691,3.778,3.778l0,0c0,2.087-1.692,3.778-3.778,3.778H451.995
				c-10.657,0-19.688-8.407-19.839-19.063c-0.077-5.451,2.1-10.403,5.665-13.957c3.504-3.504,8.337-5.667,13.688-5.667h142.911
				c2.087,0,3.778,1.691,3.778,3.778v0c0,2.086-1.692,3.778-3.778,3.778H590.895z"/>
			<path id="XMLID_1902_" style="fill:#F7F0ED;stroke:#640917;stroke-width:2.6213;stroke-miterlimit:10;" d="M590.895,572.776
				H449.129c-4.467,0-8.089-3.621-8.089-8.089v-7.391c0-4.467,3.621-8.089,8.089-8.089h141.766V572.776z"/>
			<path id="XMLID_1901_" style="fill:#F7F0ED;stroke:#640917;stroke-width:2.6213;stroke-miterlimit:10;" d="M420.156,580.336
				h-61.298c-10.69,0-19.354-8.654-19.354-19.344c0-5.34,2.163-10.184,5.667-13.677c3.504-3.504,8.337-5.667,13.687-5.667h61.298
				c-5.351,0-10.184,2.163-13.688,5.667c-3.504,3.493-5.667,8.337-5.667,13.677C400.802,571.682,409.466,580.336,420.156,580.336z"
				/>
			<path id="XMLID_1900_" style="fill:#EAD9D3;" d="M420.154,580.336h-61.295c-10.69,0-19.355-8.654-19.355-19.344h61.295
				C400.799,571.682,409.464,580.336,420.154,580.336z"/>
			<path id="XMLID_1899_" style="fill:#EAD9D3;" d="M590.895,549.208v7.567H452.828c-3.25,0-6.205,1.319-8.337,3.451
				c-1.267,1.266-2.248,2.818-2.828,4.548c-0.401-1.182-0.622-2.459-0.622-3.778c0-3.261,1.319-6.205,3.451-8.337
				c2.132-2.132,5.086-3.451,8.337-3.451H590.895z"/>
			<path id="XMLID_1898_" style="fill:none;stroke:#640917;stroke-width:2.6213;stroke-linecap:round;stroke-miterlimit:10;" d="
				M397.549,541.648h22.605c-5.351,0-10.184,2.163-13.688,5.667c-3.504,3.493-5.667,8.337-5.667,13.677
				c0,10.69,8.664,19.344,19.355,19.344h-22.605"/>
			<path id="XMLID_1897_" style="fill:none;stroke:#640917;stroke-width:2.6213;stroke-linecap:round;stroke-miterlimit:10;" d="
				M358.859,580.336c-10.69,0-19.354-8.654-19.354-19.344c0-5.34,2.163-10.184,5.667-13.677c3.504-3.504,8.337-5.667,13.687-5.667"
				/>
			<path id="XMLID_1896_" style="fill:none;stroke:#640917;stroke-width:2.6213;stroke-miterlimit:10;" d="M590.895,572.776H449.129
				c-4.467,0-8.089-3.621-8.089-8.089v-7.391c0-4.467,3.621-8.089,8.089-8.089h141.766V572.776z"/>
			<g id="XMLID_1888_">
				
					<path id="XMLID_1895_" style="fill:#F4891E;stroke:#640917;stroke-width:2.6213;stroke-linecap:round;stroke-miterlimit:10;" d="
					M474.374,637.756v23.576h7.303v7.556H334.987c-10.69,0-19.354-8.654-19.354-19.344c0-5.34,2.163-10.184,5.667-13.677
					c3.504-3.504,8.337-5.667,13.687-5.667h146.689v7.556H474.374z"/>
				<path id="XMLID_1894_" style="fill:#E07412;" d="M402.084,649.544v19.344h-67.097c-10.69,0-19.354-7.749-19.354-17.322
					c0-0.69,0.042-1.361,0.137-2.022H402.084z"/>
				<path id="XMLID_1893_" style="fill:none;stroke:#640917;stroke-width:2.6213;stroke-linecap:round;stroke-miterlimit:10;" d="
					M474.374,637.756v23.576h7.303v7.556H334.987c-10.69,0-19.354-8.654-19.354-19.344c0-5.34,2.163-10.184,5.667-13.677
					c3.504-3.504,8.337-5.667,13.687-5.667h146.689v7.556H474.374z"/>
				
					<path id="XMLID_1892_" style="fill:#FFA452;stroke:#640917;stroke-width:2.6213;stroke-linecap:round;stroke-miterlimit:10;" d="
					M538.748,637.756v23.576h3.525c2.086,0,3.778,1.692,3.778,3.778l0,0c0,2.087-1.692,3.778-3.778,3.778H399.848
					c-10.657,0-19.688-8.407-19.839-19.063c-0.077-5.451,2.1-10.403,5.665-13.957c3.504-3.504,8.337-5.667,13.687-5.667h142.911
					c2.086,0,3.778,1.691,3.778,3.778l0,0c0,2.087-1.692,3.778-3.778,3.778H538.748z"/>
				<path id="XMLID_1891_" style="fill:#F7F0ED;stroke:#640917;stroke-width:2.6213;stroke-miterlimit:10;" d="M538.748,661.328
					H396.982c-4.467,0-8.089-3.622-8.089-8.089v-7.391c0-4.467,3.621-8.089,8.089-8.089h141.766V661.328z"/>
				<path id="XMLID_1890_" style="fill:#EAD9D3;" d="M538.748,637.756v7.567H400.681c-3.25,0-6.205,1.319-8.337,3.451
					c-1.267,1.266-2.248,2.818-2.829,4.548c-0.401-1.182-0.622-2.459-0.622-3.778c0-3.261,1.319-6.205,3.451-8.337
					c2.132-2.132,5.086-3.451,8.337-3.451H538.748z"/>
				<path id="XMLID_1889_" style="fill:none;stroke:#640917;stroke-width:2.6213;stroke-miterlimit:10;" d="M538.748,661.328
					H396.982c-4.467,0-8.089-3.622-8.089-8.089v-7.391c0-4.467,3.621-8.089,8.089-8.089h141.766V661.328z"/>
			</g>
			<g id="XMLID_1879_">
				
					<path id="XMLID_1887_" style="fill:#F4891E;stroke:#640917;stroke-width:2.6213;stroke-linecap:round;stroke-miterlimit:10;" d="
					M482.069,510.516v23.576h7.303v7.556H342.682c-10.69,0-19.354-8.654-19.354-19.344c0-5.34,2.163-10.184,5.667-13.677
					c3.504-3.504,8.337-5.667,13.687-5.667h146.689v7.556H482.069z"/>
				<path id="XMLID_1886_" style="fill:#E07412;" d="M409.779,522.304v19.344h-67.097c-10.69,0-19.354-7.749-19.354-17.322
					c0-0.69,0.042-1.361,0.137-2.022H409.779z"/>
				<path id="XMLID_1885_" style="fill:none;stroke:#640917;stroke-width:2.6213;stroke-linecap:round;stroke-miterlimit:10;" d="
					M482.069,510.516v23.576h7.303v7.556H342.682c-10.69,0-19.354-8.654-19.354-19.344c0-5.34,2.163-10.184,5.667-13.677
					c3.504-3.504,8.337-5.667,13.687-5.667h146.689v7.556H482.069z"/>
				
					<path id="XMLID_1884_" style="fill:#FFA452;stroke:#640917;stroke-width:2.6213;stroke-linecap:round;stroke-miterlimit:10;" d="
					M546.443,510.516v23.576h3.525c2.087,0,3.778,1.692,3.778,3.778l0,0c0,2.086-1.692,3.778-3.778,3.778H407.543
					c-10.657,0-19.688-8.407-19.839-19.063c-0.077-5.451,2.1-10.403,5.665-13.957c3.504-3.504,8.337-5.667,13.688-5.667h142.911
					c2.087,0,3.778,1.691,3.778,3.778l0,0c0,2.087-1.692,3.778-3.778,3.778H546.443z"/>
				<path id="XMLID_1883_" style="fill:#F7F0ED;stroke:#640917;stroke-width:2.6213;stroke-miterlimit:10;" d="M546.443,534.089
					H404.677c-4.467,0-8.089-3.622-8.089-8.089v-7.391c0-4.467,3.622-8.089,8.089-8.089h141.766V534.089z"/>
				<path id="XMLID_1882_" style="fill:#EAD9D3;" d="M546.443,510.516v7.567H408.376c-3.25,0-6.205,1.319-8.337,3.451
					c-1.267,1.266-2.248,2.818-2.828,4.548c-0.401-1.182-0.622-2.459-0.622-3.778c0-3.261,1.319-6.205,3.451-8.337
					c2.132-2.132,5.087-3.451,8.337-3.451H546.443z"/>
				<path id="XMLID_1881_" style="fill:none;stroke:#640917;stroke-width:2.6213;stroke-miterlimit:10;" d="M546.443,534.089
					H404.677c-4.467,0-8.089-3.622-8.089-8.089v-7.391c0-4.467,3.622-8.089,8.089-8.089h141.766V534.089z"/>
				<path id="XMLID_1880_" style="fill:none;stroke:#640917;stroke-width:2.6213;stroke-linecap:round;stroke-miterlimit:10;" d="
					M380.859,541.648h-22.605c-10.69,0-19.354-8.654-19.354-19.344c0-5.34,2.163-10.184,5.667-13.677
					c3.504-3.504,8.337-5.667,13.688-5.667h22.605c-5.35,0-10.184,2.163-13.687,5.667c-3.504,3.493-5.667,8.337-5.667,13.677
					C361.504,532.995,370.168,541.648,380.859,541.648z"/>
			</g>
			<g id="XMLID_1871_">
				<g id="XMLID_1873_">
					
						<path id="XMLID_1878_" style="fill:#702130;stroke:#640917;stroke-width:2.6213;stroke-linecap:round;stroke-miterlimit:10;" d="
						M345.185,630.2h202.92c9.451,0,17.113-7.662,17.113-17.113V597.45c0-9.452-7.662-17.113-17.113-17.113h-202.92V630.2z"/>
					
						<path id="XMLID_1877_" style="fill:#82273D;stroke:#640917;stroke-width:2.6213;stroke-linecap:round;stroke-miterlimit:10;" d="
						M345.185,587.597v35.343h-3.673c-2.005,0-3.63,1.625-3.63,3.63l0,0c0,2.005,1.625,3.63,3.63,3.63h137.476
						c13.772,0,24.937-11.165,24.937-24.927v-0.01c0-13.761-11.165-24.927-24.937-24.927H341.513c-2.005,0-3.63,1.625-3.63,3.63l0,0
						c0,2.005,1.625,3.63,3.63,3.63H345.185z"/>
					<path id="XMLID_1876_" style="fill:#F7F0ED;" d="M345.185,622.945h137.722c6.701,0,12.133-5.432,12.133-12.133v-11.086
						c0-6.701-5.432-12.133-12.133-12.133H345.185V622.945z"/>
					<path id="XMLID_1875_" style="fill:#EAD9D3;" d="M345.185,587.591v7.25h132.178c4.886,0,9.297,1.984,12.495,5.182
						c2.385,2.385,4.094,5.445,4.812,8.865c0.243-1.171,0.37-2.375,0.37-3.62v-0.01c0-9.762-7.915-17.666-17.677-17.666H345.185z"/>
					<path id="XMLID_1874_" style="fill:none;stroke:#640917;stroke-width:2.6213;stroke-miterlimit:10;" d="M345.185,622.945
						h137.722c6.701,0,12.133-5.432,12.133-12.133v-11.086c0-6.701-5.432-12.133-12.133-12.133H345.185V622.945z"/>
				</g>
				<path id="XMLID_1872_" style="fill:#630B18;" d="M565.219,605.268c0,13.772-3.352,24.937-17.113,24.937h-69.117
					c13.772,0,24.937-11.165,24.937-24.927v-0.011H565.219z"/>
			</g>
			<g id="XMLID_1863_">
				
					<path id="XMLID_1870_" style="fill:#E25959;stroke:#640917;stroke-width:2.6213;stroke-linecap:round;stroke-miterlimit:10;" d="
					M557.916,718.752h-202.92c-9.452,0-17.113-7.662-17.113-17.114v-15.637c0-9.451,7.662-17.113,17.113-17.113h202.92V718.752z"/>
				<path id="XMLID_1869_" style="fill:#CE3E3E;" d="M336.892,693.82c0,13.772,11.165,24.937,24.927,24.937h61.303
					c-13.772,0-24.937-11.165-24.937-24.927v-0.01H336.892z"/>
				<path id="XMLID_1868_" style="fill:none;stroke:#640917;stroke-width:2.6213;stroke-linecap:round;stroke-miterlimit:10;" d="
					M557.916,718.752h-202.92c-9.452,0-17.113-7.662-17.113-17.114v-15.637c0-9.451,7.662-17.113,17.113-17.113h202.92V718.752z"/>
				
					<path id="XMLID_1867_" style="fill:#F27575;stroke:#640917;stroke-width:2.6213;stroke-linecap:round;stroke-miterlimit:10;" d="
					M557.916,676.148v35.343h3.672c2.005,0,3.63,1.625,3.63,3.63l0,0c0,2.005-1.625,3.63-3.63,3.63H424.112
					c-13.772,0-24.937-11.165-24.937-24.927v-0.011c0-13.761,11.165-24.927,24.937-24.927h137.476c2.005,0,3.63,1.625,3.63,3.63l0,0
					c0,2.005-1.625,3.63-3.63,3.63H557.916z"/>
				<path id="XMLID_1866_" style="fill:#F7F0ED;stroke:#640917;stroke-width:2.6213;stroke-miterlimit:10;" d="M557.916,711.496
					H420.194c-6.701,0-12.133-5.432-12.133-12.133v-11.086c0-6.701,5.432-12.133,12.133-12.133h137.722V711.496z"/>
				<path id="XMLID_1865_" style="fill:#EAD9D3;" d="M557.916,676.143v7.25H425.738c-4.886,0-9.297,1.984-12.495,5.182
					c-2.385,2.385-4.095,5.445-4.812,8.865c-0.243-1.171-0.37-2.375-0.37-3.62v-0.011c0-9.762,7.915-17.666,17.677-17.666H557.916z"
					/>
				<path id="XMLID_1864_" style="fill:none;stroke:#640917;stroke-width:2.6213;stroke-miterlimit:10;" d="M557.916,711.496
					H420.194c-6.701,0-12.133-5.432-12.133-12.133v-11.086c0-6.701,5.432-12.133,12.133-12.133h137.722V711.496z"/>
			</g>
			
				<line id="XMLID_1862_" style="fill:#F7F0ED;stroke:#640917;stroke-width:2.6213;stroke-miterlimit:10;" x1="260.077" y1="796.127" x2="648.434" y2="796.127"/>
		</g>
		<g id="XMLID_1859_">
			<path id="XMLID_1860_" style="fill:#FFEDD9;stroke:#640917;stroke-width:2.6213;stroke-linecap:round;stroke-miterlimit:10;" d="
				M462.683,285.508c-1.176,0-2.356-0.405-3.316-1.233c-2.124-1.833-2.36-5.04-0.529-7.164l22.174-25.706
				c4.793-5.556,7.433-12.658,7.433-19.996v-36.182c0-2.805,2.274-5.079,5.079-5.079s5.079,2.274,5.079,5.079v36.182
				c0,9.774-3.516,19.232-9.899,26.632l-22.174,25.706C465.527,284.91,464.109,285.508,462.683,285.508z"/>
		</g>
		<g id="XMLID_1857_">
			<path id="XMLID_1858_" style="fill:#FFFFFF;stroke:#640917;stroke-width:2.6213;stroke-linecap:round;stroke-miterlimit:10;" d="
				M485.963,263.168l-18.815,21.813c-1.292,1.497-3.115,2.265-4.948,2.265c-1.511,0-3.029-0.522-4.263-1.585
				c-2.731-2.356-3.035-6.48-0.68-9.212l18.638-21.608"/>
		</g>
		
			<line id="XMLID_1856_" style="fill:#FFFFFF;stroke:#640917;stroke-width:2.6213;stroke-linecap:round;stroke-miterlimit:10;" x1="475.895" y1="254.842" x2="485.963" y2="263.168"/>
		<g id="XMLID_1854_">
			<path id="XMLID_1855_" style="fill:#FFEDD9;stroke:#640917;stroke-width:2.6213;stroke-linecap:round;stroke-miterlimit:10;" d="
				M441.397,285.508c1.176,0,2.356-0.405,3.316-1.233c2.125-1.833,2.361-5.04,0.529-7.164l-22.174-25.706
				c-4.793-5.556-7.433-12.658-7.433-19.996v-36.182c0-2.805-2.274-5.079-5.079-5.079c-2.805,0-5.08,2.274-5.08,5.079v36.182
				c0,9.774,3.516,19.232,9.899,26.632l22.174,25.706C438.553,284.91,439.971,285.508,441.397,285.508z"/>
		</g>
		<g id="XMLID_1852_">
			<path id="XMLID_1853_" style="fill:#FFFFFF;stroke:#640917;stroke-width:2.6213;stroke-linecap:round;stroke-miterlimit:10;" d="
				M418.116,263.168l18.815,21.813c1.292,1.497,3.115,2.265,4.948,2.265c1.511,0,3.029-0.522,4.263-1.585
				c2.731-2.356,3.035-6.48,0.68-9.212l-18.638-21.608"/>
		</g>
		<path id="XMLID_1851_" style="fill:#FFFFFF;stroke:#640917;stroke-width:2.6213;stroke-linecap:round;stroke-miterlimit:10;" d="
			M498.096,205.022h-92.1c-2.02,0-3.657-1.637-3.657-3.657v-83.876c0-2.02,1.637-3.657,3.657-3.657h92.1
			c2.02,0,3.657,1.637,3.657,3.657v83.876C501.753,203.385,500.116,205.022,498.096,205.022z"/>
		
			<line id="XMLID_1850_" style="fill:#FFFFFF;stroke:#640917;stroke-width:2.6213;stroke-linecap:round;stroke-miterlimit:10;" x1="428.184" y1="254.842" x2="418.116" y2="263.168"/>
		<g id="XMLID_1848_">
			<path id="XMLID_1849_" style="fill:#FFEDD9;stroke:#640917;stroke-width:2.6213;stroke-linecap:round;stroke-miterlimit:10;" d="
				M415.635,210.054c0.791-0.519,1.313-1.413,1.313-2.429c0-1.603-1.3-2.903-2.903-2.903h-10.307c-0.909,0-1.648-0.739-1.648-1.648
				c0-1.603-1.3-2.903-2.903-2.903c-1.603,0-2.903,1.3-2.903,2.903c0,4.109,3.343,7.453,7.453,7.453h1.735"/>
		</g>
		
			<polyline id="XMLID_1847_" style="fill:#FFFFFF;stroke:#640917;stroke-width:2.6213;stroke-linecap:round;stroke-miterlimit:10;" points="
			472.78,277.755 472.78,334.33 432.875,334.33 432.892,279.569 		"/>
		<path id="XMLID_1846_" style="fill:#FF9F36;stroke:#640917;stroke-width:2.6213;stroke-linecap:round;stroke-miterlimit:10;" d="
			M483.49,464.272h26.173c1.63,0,2.951-1.321,2.951-2.951l0,0c0-1.329-0.889-2.495-2.171-2.846l-13.349-3.661h-15.52v7.543
			C481.574,463.415,482.432,464.272,483.49,464.272z"/>
		<polygon id="XMLID_1845_" style="fill:#F4891E;" points="481.574,457.767 507.863,457.767 497.909,454.814 481.574,454.814 		"/>
		<path id="XMLID_1844_" style="fill:none;stroke:#640917;stroke-width:2.6213;stroke-linecap:round;stroke-miterlimit:10;" d="
			M483.49,464.272h26.173c1.63,0,2.951-1.321,2.951-2.951l0,0c0-1.329-0.889-2.495-2.171-2.846l-13.349-3.661h-15.52v7.543
			C481.574,463.415,482.432,464.272,483.49,464.272z"/>
		<path id="XMLID_1843_" style="fill:#FF9F36;" d="M446.848,464.272h-26.173c-1.63,0-2.951-1.321-2.951-2.951l0,0
			c0-1.329,0.889-2.495,2.171-2.846l13.349-3.661h15.52v7.543C448.763,463.415,447.905,464.272,446.848,464.272z"/>
		<polygon id="XMLID_1842_" style="fill:#F4891E;" points="448.763,457.767 422.475,457.767 432.428,454.814 448.763,454.814 		"/>
		<path id="XMLID_1841_" style="fill:none;stroke:#640917;stroke-width:2.6213;stroke-linecap:round;stroke-miterlimit:10;" d="
			M446.848,464.272h-26.173c-1.63,0-2.951-1.321-2.951-2.951l0,0c0-1.329,0.889-2.495,2.171-2.846l13.349-3.661h15.52v7.543
			C448.763,463.415,447.905,464.272,446.848,464.272z"/>
		<path id="XMLID_1840_" style="fill:none;stroke:#CE3E3E;stroke-width:11.7957;stroke-linecap:round;stroke-miterlimit:10;" d="
			M507.793,103.873l-52.225,71.134c-2.35,3.2-7.159,3.111-9.388-0.174l-17.996-26.526"/>
		<path id="XMLID_1839_" style="fill:#FF9F36;stroke:#640917;stroke-width:2.6213;stroke-linecap:round;stroke-miterlimit:10;" d="
			M457.693,255.793h-11.868c-7.173,0-12.988-5.815-12.988-12.989v-17.496c0-5.864,4.754-10.618,10.619-10.618h27.226v28.115
			C470.681,249.978,464.866,255.793,457.693,255.793z"/>
		
			<polyline id="XMLID_1838_" style="fill:none;stroke:#640917;stroke-width:2.6213;stroke-linecap:round;stroke-miterlimit:10;" points="
			472.762,278.399 472.78,335.861 432.875,335.861 432.875,330.59 		"/>
		<path id="XMLID_1834_" style="fill:#630B18;stroke:#640917;stroke-width:2.6213;stroke-miterlimit:10;" d="M465.43,351.36h-25.205
			c-4.059,0-7.35-3.291-7.35-7.35v-8.149h39.906v8.149C472.78,348.07,469.49,351.36,465.43,351.36z"/>
		<rect id="XMLID_1833_" x="461.658" y="282.831" style="fill:#F7F0ED;" width="5.75" height="8.033"/>
		<polygon id="XMLID_1832_" style="fill:#E07412;" points="455.316,278.399 451.03,278.399 450,273.969 456.314,273.969 		"/>
		<path id="XMLID_1831_" style="fill:#FFEDD9;stroke:#640917;stroke-width:2.6213;stroke-linecap:round;stroke-miterlimit:10;" d="
			M461.066,260.159v7.06c0,3.728-3.022,6.75-6.749,6.75h-2.383c-3.728,0-6.75-3.022-6.75-6.75v-4.65L461.066,260.159z"/>
		<path id="XMLID_1830_" style="fill:#FCD3B6;stroke:#640917;stroke-width:2.6213;stroke-linecap:round;stroke-miterlimit:10;" d="
			M464.091,243.823c0-2.121,1.719-3.841,3.841-3.841c2.121,0,3.841,1.719,3.841,3.841c0,2.121-1.72,3.841-3.841,3.841
			c-0.692,0-1.341-0.183-1.902-0.503"/>
		<path id="XMLID_1829_" style="fill:#FCD3B6;stroke:#640917;stroke-width:2.6213;stroke-linecap:round;stroke-miterlimit:10;" d="
			M440.518,243.823c0-2.121-1.72-3.841-3.841-3.841c-2.121,0-3.841,1.719-3.841,3.841c0,2.121,1.72,3.841,3.841,3.841
			c0.692,0,1.341-0.183,1.902-0.503"/>
		<path id="XMLID_1826_" style="fill:#FCD3B6;" d="M461.066,260.771v5.922c0,0.2-0.008,0.395-0.025,0.591
			c-2.372,1.282-5.09,2.006-7.978,2.006h-2.743c-1.815,0-3.546-0.341-5.136-0.966c-0.021-0.004-0.037-0.012-0.058-0.021v-5.086
			l0.058-0.008L461.066,260.771z"/>
		<path id="XMLID_1825_" style="fill:none;stroke:#640917;stroke-width:2.6213;stroke-linecap:round;stroke-miterlimit:10;" d="
			M461.037,260.159v6.534v0.42c0,3.786-3.069,6.855-6.855,6.855h-2.173c-3.786,0-6.855-3.069-6.855-6.855v-4.545L461.037,260.159z"
			/>
		<path id="XMLID_1824_" style="fill:#FFEDD9;" d="M467.415,239.119l-0.003,10.71v0c0.001,8.49-6.881,15.374-15.371,15.374h0
			c-8.485,0-15.364-6.879-15.364-15.364v-11.307v-1.912c0-4.354,3.53-7.885,7.884-7.885l14.965-0.001
			c4.355,0,7.886,3.53,7.886,7.885v3.796"/>
		<path id="XMLID_1821_" style="fill:#FCD3B6;" d="M467.415,239.121l-0.004,10.711c0,0.004,0,0.004,0,0.008
			c0,8.485-6.884,15.365-15.369,15.365h-2.499c-0.163,0-0.33-0.004-0.493-0.008c8.234-0.288,14.826-7.055,14.826-15.357
			c0-0.004,0-0.004,0-0.008l0.004-10.711l-0.004,1.293v-3.797c0-4.343-3.512-7.87-7.855-7.885h3.505
			c4.354,0,7.885,3.531,7.885,7.885v3.797L467.415,239.121z"/>
		<path id="XMLID_1820_" style="fill:none;stroke:#640917;stroke-width:2.6213;stroke-linecap:round;stroke-miterlimit:10;" d="
			M467.415,239.033l-0.003,10.71v0.003c0.001,8.488-6.879,15.37-15.368,15.37h0c-8.487,0-15.368-6.88-15.368-15.368v-11.304v-1.912
			c0-4.355,3.53-7.885,7.884-7.885l14.965-0.001c4.355,0,7.886,3.53,7.886,7.885v3.796"/>
		<path id="XMLID_1819_" style="fill:none;stroke:#2E2F73;stroke-width:2.6213;stroke-linecap:round;stroke-miterlimit:10;" d="
			M433.595,240.44"/>
		<path id="XMLID_1818_" style="fill:none;stroke:#640917;stroke-width:2.6213;stroke-linecap:round;stroke-miterlimit:10;" d="
			M453.207,250.295c-1.282,0-2.321-1.039-2.321-2.321v-5.212"/>
		<path id="XMLID_1817_" style="fill:none;stroke:#640917;stroke-width:2.6213;stroke-linecap:round;stroke-miterlimit:10;" d="
			M456.548,242.125c0-0.931,0.754-1.685,1.685-1.685c0.931,0,1.685,0.754,1.685,1.685"/>
		<path id="XMLID_1816_" style="fill:none;stroke:#640917;stroke-width:2.6213;stroke-linecap:round;stroke-miterlimit:10;" d="
			M443.125,242.125c0-0.931,0.754-1.685,1.685-1.685s1.685,0.754,1.685,1.685"/>
		<path id="XMLID_1815_" style="fill:#FFF3E4;stroke:#640917;stroke-width:2.6213;stroke-linecap:round;stroke-miterlimit:10;" d="
			M470.306,245.921"/>
		<path id="XMLID_1814_" style="fill:#630B18;" d="M453.168,259.008h-2.244c-1.356,0-2.456-1.1-2.456-2.456v-1.752h7.156v1.752
			C455.624,257.909,454.524,259.008,453.168,259.008z"/>
		<polygon id="XMLID_1813_" style="fill:#F4891E;" points="457.842,313.947 453.173,317.558 448.408,314.02 451.03,278.399 
			455.316,278.399 		"/>
		<path id="XMLID_1812_" style="fill:#FFFFFF;stroke:#640917;stroke-width:2.6213;stroke-linecap:round;stroke-miterlimit:10;" d="
			M463.751,268.581c-0.983-0.213-2.038-0.255-2.908,0.152c-2.11,2.625-5.24,5.088-5.24,5.088l2.828,6.608l6.575-8.31
			c1-1.264,0.368-3.176-1.205-3.527C463.784,268.588,463.768,268.584,463.751,268.581"/>
		<path id="XMLID_1811_" style="fill:#FFFFFF;stroke:#640917;stroke-width:2.6213;stroke-linecap:round;stroke-miterlimit:10;" d="
			M449.346,277.104c0.704-1.645,1.405-3.283,1.405-3.283s-3.13-2.463-5.24-5.088c-0.917-0.43-2.041-0.36-3.068-0.116
			c-1.516,0.36-2.144,2.176-1.177,3.398l6.658,8.414C447.923,280.429,448.636,278.763,449.346,277.104z"/>
		
			<line id="XMLID_1810_" style="fill:#DBAA94;stroke:#640917;stroke-width:17.0383;stroke-miterlimit:10;" x1="463.752" y1="344.588" x2="490.117" y2="457.767"/>
		
			<line id="XMLID_1809_" style="fill:#DBAA94;stroke:#640917;stroke-width:17.0383;stroke-miterlimit:10;" x1="441.62" y1="454.814" x2="441.62" y2="344.588"/>
		<g id="XMLID_1807_">
			<path id="XMLID_1808_" style="fill:#FFEDD9;stroke:#640917;stroke-width:2.6213;stroke-linecap:round;stroke-miterlimit:10;" d="
				M488.7,210.203c-0.932-0.483-1.57-1.457-1.57-2.579c0-1.603,1.3-2.903,2.902-2.903h10.307c0.908,0,1.647-0.739,1.647-1.648
				c0-1.603,1.3-2.903,2.903-2.903c1.603,0,2.903,1.3,2.903,2.903c0,4.109-3.343,7.453-7.453,7.453h-1.737"/>
		</g>
	</g>
</g>
</svg>
