<?xml version="1.0" encoding="utf-8"?>
<!-- Generator: Adobe Illustrator 27.5.0, SVG Export Plug-In . SVG Version: 6.00 Build 0)  -->
<svg version="1.1" id="Layer_1" xmlns="http://www.w3.org/2000/svg" xmlns:xlink="http://www.w3.org/1999/xlink" x="0px" y="0px"
	 viewBox="0 0 443.362 443.362" style="enable-background:new 0 0 443.362 443.362;" xml:space="preserve">
<rect x="0" y="0" style="fill:#FFFFFF;" width="443.362" height="443.362"/>
<g>
	<path style="fill:#E6B89C;" d="M280.799,160.612c0,0-8.923-18.383-10.459-20.107c-1.536-1.724-0.071-4.659,2.134-2.918
		s4.194,5.699,4.194,5.699l-1.926-17.204c0,0-0.569-2.41,1.089-2.89c1.658-0.48,2.077,3.09,2.077,3.09l1.787,10.609l2.738-0.003
		l4.954,0.814l3.008-2.697c0,0,0,12.632-2.483,17.248c-1.668,3.1,0.225,9.213,0.225,9.213l-6.847-0.719L280.799,160.612z"/>
	<path style="opacity:0.49;fill:#1A1A1A;" d="M278.249,143.585c3.294,1.085,5.854,4.135,6.351,7.568
		c0.539-1.866,0.09-3.989-1.158-5.477C282.192,144.188,280.18,143.377,278.249,143.585z"/>
	<path style="opacity:0.49;fill:#1A1A1A;" d="M276.804,138.399c4.075-1.039,8.471-0.782,12.397,0.724
		c-2.438-1.682-5.6-1.768-8.562-1.775C279.274,137.344,277.746,137.411,276.804,138.399z"/>
	<path style="opacity:0.49;fill:#1A1A1A;" d="M278.843,143.543c0.465-0.008,0.93-0.015,1.394-0.023
		c0.783-0.013,1.569-0.026,2.343-0.149c0.763-0.12,1.505-0.346,2.243-0.57c-2.124-0.087-4.257,0.053-6.351,0.417
		c-0.072,0.077-0.025,0.213,0.064,0.27S278.738,143.544,278.843,143.543z"/>
	<path style="fill:#CC9C81;" d="M283.588,131.745l-1.329-0.265c-0.406-0.081-0.804,0.185-0.885,0.59l-2.135,10.701
		c-0.081,0.406,0.185,0.804,0.591,0.885l1.329,0.265c0.406,0.081,0.804-0.185,0.885-0.59l2.135-10.701
		C284.259,132.224,283.993,131.826,283.588,131.745z"/>
	<path style="fill:#F9E1C0;" d="M266.009,164.892c0,0,2.769,4.481,8.078,3.295l18.969-49.329c0,0-1.432-6.149-9.767-4.078
		L266.009,164.892z"/>
	<path style="fill:#CC9C81;" d="M288.466,132.923L288.466,132.923c-0.643-0.453-1.54-0.298-1.993,0.345l-5.051,7.163
		c-0.453,0.643-0.298,1.54,0.345,1.993l0,0c0.643,0.453,1.54,0.298,1.993-0.345l5.051-7.163
		C289.264,134.273,289.109,133.377,288.466,132.923z"/>
	<path style="fill:#9B152B;" d="M282.111,145.679c0,0,2.598,3.426,3.738,10.113l-1.44-1.947l-0.695,2.152
		c0,0-2.023-8.539-2.436-9.469L282.111,145.679z"/>
	<path style="fill:#BC1D30;" d="M282.144,145.554c0,0,5.59,1.654,12.206,8.042l-3.137-0.97l0.97,2.909c0,0-9.069-7.7-10.267-8.385
		L282.144,145.554z"/>
	<path style="fill:#CC9C81;" d="M290.786,135.301L290.786,135.301c-0.635-0.464-1.534-0.324-1.998,0.311l-4.359,5.967
		c-0.464,0.635-0.324,1.534,0.311,1.998l0,0c0.635,0.464,1.534,0.324,1.998-0.311l4.359-5.967
		C291.561,136.665,291.421,135.765,290.786,135.301z"/>
	<path style="fill:#FF404E;" d="M283.456,143.786c0,0-2.966-4.107-9.24-2.966l-1.711,5.247c0,0,7.016,1.369,8.898,2.909
		L283.456,143.786z"/>
	<path style="opacity:0.23;" d="M266.009,164.892c0,0,2.588,4.367,8.078,3.295C274.087,168.187,272.29,164.21,266.009,164.892z"/>
	<ellipse style="opacity:0.14;" cx="222.482" cy="415.287" rx="53.844" ry="7.529"/>
	<g>
		<path style="fill:#B3B3B3;" d="M131.168,140.271c-0.312,0-0.624-0.106-0.881-0.322l-3.142-2.645
			c-0.578-0.487-0.652-1.351-0.165-1.929c0.487-0.579,1.351-0.652,1.929-0.165l3.141,2.645c0.579,0.487,0.652,1.35,0.165,1.929
			C131.945,140.105,131.558,140.271,131.168,140.271z"/>
		<path style="fill:#B3B3B3;" d="M304.854,286.499c-0.311,0-0.624-0.106-0.881-0.322l-6.203-5.223
			c-0.578-0.487-0.652-1.351-0.166-1.929c0.487-0.579,1.351-0.652,1.929-0.166l6.203,5.223c0.578,0.487,0.652,1.351,0.166,1.929
			C305.632,286.334,305.244,286.499,304.854,286.499z M292.448,276.054c-0.311,0-0.624-0.106-0.881-0.322l-6.203-5.222
			c-0.578-0.487-0.652-1.351-0.165-1.929c0.488-0.578,1.35-0.652,1.929-0.166l6.203,5.222c0.578,0.487,0.652,1.351,0.166,1.929
			C293.225,275.888,292.837,276.054,292.448,276.054z M280.042,265.609c-0.311,0-0.624-0.106-0.881-0.322l-6.203-5.222
			c-0.578-0.487-0.652-1.351-0.165-1.929c0.487-0.578,1.351-0.652,1.929-0.166l6.203,5.222c0.578,0.487,0.652,1.351,0.165,1.929
			C280.819,265.444,280.432,265.609,280.042,265.609z M267.636,255.164c-0.311,0-0.624-0.106-0.881-0.322l-6.203-5.222
			c-0.578-0.487-0.652-1.351-0.165-1.929c0.487-0.578,1.351-0.652,1.929-0.166l6.203,5.222c0.578,0.487,0.652,1.351,0.165,1.929
			C268.413,254.998,268.026,255.164,267.636,255.164z M255.229,244.719c-0.311,0-0.624-0.106-0.881-0.322l-6.203-5.222
			c-0.579-0.487-0.652-1.351-0.166-1.929c0.488-0.579,1.351-0.652,1.929-0.166l6.203,5.222c0.578,0.487,0.652,1.351,0.165,1.929
			C256.006,244.554,255.619,244.719,255.229,244.719z M242.823,234.275c-0.311,0-0.624-0.106-0.881-0.322l-6.203-5.222
			c-0.578-0.487-0.652-1.351-0.165-1.929c0.487-0.578,1.351-0.652,1.929-0.166l6.203,5.222c0.578,0.487,0.652,1.351,0.165,1.929
			C243.6,234.109,243.213,234.275,242.823,234.275z M230.417,223.83c-0.311,0-0.624-0.106-0.881-0.322l-6.203-5.222
			c-0.578-0.487-0.652-1.35-0.165-1.929c0.487-0.578,1.35-0.653,1.929-0.165l6.203,5.222c0.579,0.487,0.652,1.351,0.166,1.929
			C231.194,223.664,230.807,223.83,230.417,223.83z M218.011,213.385c-0.311,0-0.624-0.106-0.881-0.322l-6.203-5.222
			c-0.579-0.487-0.652-1.351-0.165-1.929c0.487-0.579,1.351-0.652,1.929-0.165l6.203,5.222c0.579,0.487,0.652,1.351,0.165,1.929
			C218.788,213.219,218.401,213.385,218.011,213.385z M205.605,202.94c-0.312,0-0.624-0.106-0.881-0.322l-6.203-5.223
			c-0.579-0.487-0.652-1.35-0.165-1.929c0.487-0.579,1.35-0.652,1.929-0.165l6.203,5.223c0.579,0.487,0.652,1.35,0.165,1.929
			C206.382,202.775,205.995,202.94,205.605,202.94z M193.199,192.495c-0.311,0-0.624-0.106-0.881-0.322l-6.203-5.222
			c-0.578-0.487-0.652-1.35-0.165-1.929c0.487-0.579,1.351-0.652,1.929-0.165l6.203,5.222c0.579,0.487,0.652,1.35,0.165,1.929
			C193.976,192.329,193.589,192.495,193.199,192.495z M180.793,182.05c-0.311,0-0.624-0.106-0.881-0.322l-6.203-5.222
			c-0.579-0.487-0.652-1.35-0.165-1.929c0.486-0.578,1.35-0.653,1.929-0.165l6.203,5.222c0.578,0.487,0.652,1.35,0.165,1.929
			C181.57,181.885,181.182,182.05,180.793,182.05z M168.387,171.606c-0.311,0-0.624-0.106-0.881-0.322l-6.203-5.223
			c-0.578-0.487-0.652-1.351-0.165-1.929c0.487-0.579,1.351-0.652,1.929-0.166l6.203,5.223c0.578,0.487,0.652,1.351,0.165,1.929
			C169.164,171.44,168.776,171.606,168.387,171.606z M155.981,161.161c-0.311,0-0.624-0.106-0.881-0.322l-6.203-5.222
			c-0.578-0.487-0.652-1.35-0.165-1.929c0.487-0.579,1.351-0.652,1.929-0.165l6.203,5.222c0.578,0.487,0.652,1.35,0.165,1.929
			C156.758,160.995,156.371,161.161,155.981,161.161z M143.574,150.716c-0.311,0-0.624-0.106-0.881-0.322l-6.203-5.222
			c-0.579-0.487-0.652-1.35-0.165-1.929c0.487-0.578,1.35-0.652,1.929-0.165l6.203,5.222c0.578,0.487,0.652,1.35,0.165,1.929
			C144.351,150.55,143.964,150.716,143.574,150.716z"/>
		<path style="fill:#B3B3B3;" d="M314.199,294.367c-0.312,0-0.624-0.106-0.881-0.322l-3.142-2.645
			c-0.578-0.487-0.652-1.351-0.166-1.929c0.487-0.579,1.352-0.652,1.929-0.166l3.142,2.645c0.578,0.487,0.652,1.351,0.166,1.929
			C314.976,294.201,314.588,294.367,314.199,294.367z"/>
	</g>
	<g>
		<path style="fill:#B3B3B3;" d="M311.058,140.271c0.311,0,0.624-0.106,0.881-0.322l3.142-2.645
			c0.578-0.487,0.652-1.351,0.165-1.929c-0.487-0.579-1.35-0.652-1.929-0.165l-3.142,2.645c-0.579,0.487-0.652,1.35-0.165,1.929
			C310.281,140.105,310.669,140.271,311.058,140.271z"/>
		<path style="fill:#B3B3B3;" d="M136.324,286.012c-0.487-0.578-0.412-1.442,0.166-1.929l6.203-5.223
			c0.578-0.486,1.442-0.413,1.929,0.166c0.487,0.578,0.412,1.442-0.166,1.929l-6.203,5.223c-0.257,0.216-0.569,0.322-0.881,0.322
			C136.982,286.499,136.595,286.334,136.324,286.012z M148.731,275.567c-0.487-0.578-0.412-1.442,0.166-1.929l6.203-5.222
			c0.578-0.486,1.441-0.412,1.929,0.166c0.487,0.578,0.413,1.442-0.165,1.929l-6.203,5.222c-0.257,0.216-0.57,0.322-0.881,0.322
			C149.389,276.054,149.001,275.888,148.731,275.567z M161.137,265.122c-0.487-0.578-0.413-1.442,0.165-1.929l6.203-5.222
			c0.578-0.486,1.442-0.412,1.929,0.166c0.487,0.578,0.413,1.442-0.165,1.929l-6.203,5.222c-0.257,0.216-0.57,0.322-0.881,0.322
			C161.794,265.609,161.407,265.444,161.137,265.122z M173.543,254.677c-0.487-0.578-0.413-1.442,0.165-1.929l6.203-5.222
			c0.578-0.486,1.442-0.412,1.929,0.166c0.487,0.578,0.413,1.442-0.165,1.929l-6.203,5.222c-0.257,0.216-0.57,0.322-0.881,0.322
			C174.2,255.164,173.813,254.998,173.543,254.677z M185.949,244.232c-0.487-0.578-0.413-1.442,0.165-1.929l6.203-5.222
			c0.578-0.487,1.441-0.413,1.929,0.166c0.487,0.578,0.413,1.442-0.165,1.929l-6.203,5.222c-0.257,0.216-0.57,0.322-0.881,0.322
			C186.607,244.719,186.22,244.554,185.949,244.232z M198.355,233.788c-0.487-0.578-0.413-1.442,0.166-1.929l6.203-5.222
			c0.578-0.486,1.441-0.412,1.929,0.166c0.487,0.578,0.413,1.442-0.165,1.929l-6.203,5.222c-0.257,0.216-0.57,0.322-0.881,0.322
			C199.013,234.275,198.626,234.109,198.355,233.788z M210.761,223.342c-0.487-0.578-0.413-1.442,0.165-1.929l6.203-5.222
			c0.579-0.488,1.442-0.413,1.929,0.165c0.487,0.579,0.413,1.442-0.165,1.929l-6.203,5.222c-0.257,0.216-0.569,0.322-0.881,0.322
			C211.419,223.83,211.032,223.664,210.761,223.342z M223.167,212.898c-0.487-0.578-0.413-1.442,0.165-1.929l6.203-5.222
			c0.578-0.486,1.441-0.413,1.929,0.165c0.487,0.578,0.413,1.442-0.166,1.929l-6.203,5.222c-0.257,0.216-0.569,0.322-0.881,0.322
			C223.826,213.385,223.438,213.219,223.167,212.898z M235.574,202.453c-0.487-0.578-0.413-1.442,0.165-1.929l6.203-5.223
			c0.578-0.487,1.442-0.413,1.929,0.165c0.487,0.578,0.413,1.442-0.165,1.929l-6.203,5.223c-0.257,0.216-0.57,0.322-0.881,0.322
			C236.232,202.94,235.844,202.775,235.574,202.453z M247.98,192.008c-0.487-0.578-0.413-1.442,0.165-1.929l6.203-5.222
			c0.578-0.487,1.441-0.413,1.929,0.165c0.487,0.579,0.413,1.442-0.165,1.929l-6.203,5.222c-0.257,0.216-0.57,0.322-0.881,0.322
			C248.637,192.495,248.25,192.329,247.98,192.008z M260.386,181.563c-0.487-0.579-0.413-1.442,0.165-1.929l6.203-5.222
			c0.579-0.488,1.443-0.413,1.929,0.165c0.487,0.579,0.413,1.442-0.165,1.929l-6.203,5.222c-0.257,0.216-0.57,0.322-0.881,0.322
			C261.044,182.05,260.657,181.885,260.386,181.563z M272.792,171.118c-0.487-0.578-0.413-1.442,0.165-1.929l6.203-5.223
			c0.578-0.487,1.442-0.413,1.929,0.166c0.487,0.578,0.413,1.442-0.165,1.929l-6.203,5.223c-0.257,0.216-0.57,0.322-0.881,0.322
			C273.45,171.606,273.063,171.44,272.792,171.118z M285.198,160.673c-0.487-0.579-0.413-1.442,0.165-1.929l6.203-5.222
			c0.578-0.487,1.441-0.413,1.929,0.165c0.487,0.578,0.413,1.442-0.165,1.929l-6.203,5.222c-0.257,0.216-0.57,0.322-0.881,0.322
			C285.856,161.161,285.469,160.995,285.198,160.673z M297.604,150.228c-0.487-0.578-0.413-1.442,0.165-1.929l6.203-5.222
			c0.579-0.487,1.442-0.413,1.929,0.165c0.487,0.579,0.413,1.442-0.165,1.929l-6.203,5.222c-0.257,0.216-0.57,0.322-0.881,0.322
			C298.262,150.716,297.875,150.55,297.604,150.228z"/>
		<path style="fill:#B3B3B3;" d="M128.028,294.367c0.311,0,0.624-0.106,0.881-0.322l3.142-2.645
			c0.578-0.487,0.652-1.351,0.166-1.929c-0.487-0.579-1.352-0.652-1.929-0.166l-3.141,2.645c-0.578,0.487-0.652,1.351-0.166,1.929
			C127.25,294.201,127.638,294.367,128.028,294.367z"/>
	</g>
	<g>
		<path style="fill:#B3B3B3;" d="M210.929,82.899c-0.204-0.235-0.329-0.541-0.333-0.877l-0.057-4.106
			c-0.01-0.756,0.594-1.377,1.35-1.387c0.756-0.011,1.377,0.594,1.387,1.35l0.057,4.106c0.01,0.756-0.594,1.377-1.35,1.387
			C211.563,83.378,211.184,83.194,210.929,82.899z"/>
		<path style="fill:#B3B3B3;" d="M212.281,104.959c-0.756,0.01-1.36,0.632-1.35,1.387l0.09,6.536
			c0.924,0.091,1.833,0.245,2.744,0.481l-0.097-7.054C213.658,105.553,213.038,104.949,212.281,104.959z"/>
		<path style="fill:#B3B3B3;" d="M211.153,99.115c0.255,0.295,0.634,0.479,1.054,0.473c0.756-0.01,1.36-0.632,1.35-1.388
			l-0.112-8.108c-0.011-0.756-0.632-1.36-1.387-1.35c-0.756,0.011-1.361,0.632-1.35,1.388l0.112,8.108
			C210.824,98.574,210.949,98.88,211.153,99.115z"/>
	</g>
	<g>
		<path style="fill:#666666;" d="M240.361,393.46l-1.383,5.296c0,0,27.547,4.754,26.125,15.754h-36.045c0,0-3.162-7.64,2.371-15.213
			l3.32-8.779l5.059,2.553L240.361,393.46z"/>
		<path style="fill:#3A4142;" d="M238.977,398.756c0,0,27.547,4.754,26.125,15.754h-36.045c0,0-3.162-7.697,2.371-15.27
			L238.977,398.756z"/>
	</g>
	<g>
		<path style="fill:#808080;" d="M196.728,393.46l-1.383,5.296c0,0,27.547,4.754,26.124,15.754h-36.045c0,0-3.162-7.64,2.371-15.213
			l3.32-8.779l5.059,2.553L196.728,393.46z"/>
		<path style="fill:#3A4142;" d="M195.344,398.756c0,0,27.547,4.754,26.124,15.754h-36.045c0,0-3.162-7.697,2.371-15.27
			L195.344,398.756z"/>
	</g>
	<path style="fill:#736357;" d="M247.238,267.966c0,0,14.07,73.114-3.636,128.648l-15.256-0.902c0,0,12.726-28.038,9.248-80.146
		l-3.764-32.478c0,0-5.247-5.943-16.313,2.351c0,0,5.217,54.07-15.967,109.07h-16.125c0,0,21.817-40.734,17.074-125.838
		L247.238,267.966z"/>
	<path style="fill:#012D41;" d="M199.211,195.51h49.965c0,0,14.374,115.414,10.039,132.704l-68.674-1.574
		C190.541,326.64,211.074,282.51,199.211,195.51z"/>
	<polygon style="fill:#F0F0F1;" points="214.829,195.917 226.686,234.925 230.717,195.798 	"/>
	<rect x="218.505" y="182.4" style="fill:#CC9C81;" width="8.063" height="10.671"/>
	<g>
		<polygon style="fill:#BC1D30;" points="224.552,198.327 228.425,218.247 226.686,234.925 221.627,218.484 222.813,198.011 		"/>
		<path style="fill:#FF404E;" d="M219.572,196.114c0,0,2.371,4.189,4.585,4.031c2.213-0.158,4.031-4.189,4.031-4.189l-3.873-1.897
			L219.572,196.114z"/>
	</g>
	<polygon style="fill:#FCB03C;" points="227.313,242.087 212.957,195.51 216.094,195.51 226.058,228.542 229.555,195.51 
		232.407,195.51 	"/>
	<polygon style="fill:#012D41;" points="215.295,146.695 180.217,153.369 200.579,109.221 241.305,117.948 	"/>
	<path style="opacity:0.49;fill:#4B4B4C;" d="M223.722,193.693c0.632,0,7.173,2.016,7.173,2.016s-2.45,2.371-6.64-0.711
		c0,0-2.283,3.883-9.545,0.919C214.71,195.917,223.089,193.693,223.722,193.693z"/>
	<path style="fill:#F0F0F1;" d="M218.416,190.166c0,0,4.713,2.47,5.345,2.47c0.632,0,2.865-2.115,2.865-2.115l4.407,5.118
		c0,0-2.529,1.502-6.719-1.581c0,0-1.541,3.122-9.485,1.858C214.829,195.917,216.519,194.355,218.416,190.166z"/>
	<path style="fill:#E6B89C;" d="M211.554,172.817c0,0,1.907,9.486,7.728,10.279c5.821,0.793,16.746,1.597,22.56-1.063
		c5.815-2.66,3.939-6.891,3.939-6.891l-3.916-15.324c0,0-0.369-11.574-1.899-16.891c-1.53-5.317-3.649-12.11-5.042-13.519
		c-1.393-1.409-15.984-0.665-21.838,4.145c-5.854,4.81-11.892,4.409-11.344,6.883c0.548,2.475,8.585,26.976,8.585,26.976
		s-6.197-4.386-6.476,3.508C203.615,177.639,211.554,172.817,211.554,172.817z"/>
	<path style="fill:#1A1A1A;" d="M223.736,155.411c-0.338-1.175-1.564-1.853-2.739-1.515c-1.175,0.338-1.853,1.564-1.515,2.739
		c0.338,1.175,1.564,1.853,2.739,1.515S224.074,156.586,223.736,155.411z"/>
	<path style="fill:#1A1A1A;" d="M237.685,153.865c-0.278-0.965-1.285-1.522-2.25-1.244c-0.965,0.278-1.522,1.285-1.244,2.25
		c0.278,0.965,1.285,1.522,2.25,1.244C237.406,155.837,237.963,154.83,237.685,153.865z"/>
	<path style="opacity:0.49;fill:#1A1A1A;" d="M233.17,164.934c-0.996,0.287-2.143,0.302-3.207-0.188
		c-0.119-0.054-0.171-0.196-0.117-0.314c0.056-0.12,0.197-0.17,0.314-0.117c1.628,0.749,3.478,0.177,4.506-0.674
		c0.724-0.597,1.065-1.323,0.913-1.942c-0.415-1.696-3.45-1.38-3.481-1.377c-0.08,0.01-0.159-0.023-0.21-0.085
		c-0.051-0.063-0.067-0.146-0.043-0.223c1.864-5.792-0.946-7.456-1.066-7.525c-0.114-0.064-0.154-0.208-0.091-0.322
		c0.063-0.114,0.206-0.157,0.321-0.092c0.132,0.073,3.165,1.831,1.391,7.751c0.903-0.037,3.219,0.041,3.639,1.76
		c0.196,0.801-0.204,1.706-1.072,2.421C234.498,164.396,233.871,164.732,233.17,164.934z"/>
	<path style="fill:#42210B;" d="M215.386,150.214c0,0,4.818-0.901,7.054-4.249c0,0-0.173-1.484-1.448-1.908
		c-1.275-0.424-3.675,2.947-6.382,4.545C212.534,149.827,215.386,150.214,215.386,150.214z"/>
	<path style="fill:#42210B;" d="M238.85,147.516c0,0-5.062,0.807-5.974,0.499c-0.911-0.308-1.057-1.65-0.399-2.287
		c0,0,5.067-0.102,5.84,0.488C239.089,146.807,238.85,147.516,238.85,147.516z"/>
	<path style="fill:#FE938C;" d="M230.689,152.167c0,0,3.545,2.066,1.157,7.847c0,0,3.471-0.656,3.956,1.672
		c0.485,2.328-3.972,3.963-5.84,3.06C228.095,163.842,228.08,153.278,230.689,152.167z"/>
	<path style="opacity:0.49;fill:#1A1A1A;" d="M205.833,170.678c-0.251-0.726,0.225-1.544,0.888-1.931
		c0.823-0.481,1.935-0.423,2.689,0.16c0.754,0.583,1.089,1.661,0.777,2.561c-0.235-0.78-0.586-1.676-1.372-1.886
		c-0.234-0.063-0.48-0.053-0.722-0.035c-0.541,0.041-1.114,0.14-1.516,0.505C206.333,170.273,206.149,170.59,205.833,170.678z"/>
	<path style="opacity:0.43;fill:#FFFFFF;" d="M232.494,160.877c0.366-0.259,0.827-0.381,1.273-0.337
		c0.201,0.02,0.416,0.084,0.529,0.251c0.119,0.177,0.085,0.426-0.039,0.599c-0.124,0.173-0.32,0.281-0.521,0.354
		c-0.316,0.114-0.659,0.151-0.993,0.108c-0.151-0.02-0.305-0.058-0.423-0.154c-0.118-0.096-0.189-0.262-0.137-0.405
		c0.082-0.224,0.4-0.279,0.499-0.496c0.081,0.038,0.163,0.076,0.245,0.113"/>
	<path style="opacity:0.43;fill:#FFFFFF;" d="M222.256,154.912c-0.1-0.346-0.461-0.546-0.807-0.446
		c-0.346,0.1-0.546,0.461-0.446,0.807c0.1,0.346,0.461,0.546,0.807,0.446C222.155,155.619,222.355,155.258,222.256,154.912z"/>
	<path style="opacity:0.43;fill:#FFFFFF;" d="M237.099,153.684c-0.076-0.262-0.349-0.414-0.611-0.338
		c-0.262,0.075-0.414,0.349-0.338,0.611c0.076,0.262,0.349,0.414,0.611,0.338C237.023,154.22,237.174,153.946,237.099,153.684z"/>
	<path style="opacity:0.19;fill:#FFFFFF;" d="M213.02,406.937c0.034,0.383,0.105,0.762,0.212,1.127
		c-2.668-1.478-5.694-1.797-8.603-2.459c-2.909-0.662-5.928-1.815-7.802-4.438c0.889-0.033,1.774,0.132,2.65,0.31
		c3.769,0.766,7.496,1.796,11.155,3.083c1.968,0.692,4.089,1.616,5.087,3.671C214.849,407.724,213.946,407.291,213.02,406.937z"/>
	<path style="opacity:0.19;fill:#FFFFFF;" d="M256.653,406.937c0.034,0.383,0.105,0.762,0.212,1.127
		c-2.668-1.478-5.694-1.797-8.603-2.459c-2.909-0.662-5.928-1.815-7.802-4.438c0.889-0.033,1.774,0.132,2.65,0.31
		c3.769,0.766,7.496,1.796,11.155,3.083c1.968,0.692,4.089,1.616,5.087,3.671C258.482,407.724,257.579,407.291,256.653,406.937z"/>
	<g>
		<path style="opacity:0.49;fill:#1A1A1A;" d="M219.864,169.851c-0.016,0.006-0.034,0.01-0.052,0.013
			c-0.149,0.022-0.287-0.079-0.309-0.227c-0.149-0.976,0.011-1.673,0.475-2.072c0.674-0.582,1.693-0.267,1.736-0.254
			c0.143,0.045,0.223,0.197,0.179,0.339c-0.045,0.145-0.196,0.222-0.34,0.18c-0.008-0.003-0.783-0.238-1.223,0.148
			c-0.388,0.335-0.372,1.042-0.291,1.576C220.059,169.685,219.983,169.807,219.864,169.851z"/>
		<g>
			<path style="fill:#333333;" d="M221.71,169.055c0,0,11.014,3.513,18.288-2.866c0,0-1.301,7.126,0.256,8.528
				C240.254,174.716,224.997,181.641,221.71,169.055z"/>
			<path style="fill:#E6E6E6;" d="M239.396,174.91c0,0-2.136-2.449-2.284-2.339c0,0-8.658,1.035-11.259-0.37
				c0,0-0.959,1.057-1.355,1.709C224.497,173.91,228.287,178.893,239.396,174.91z"/>
			<path style="fill:#FFFFFF;" d="M237.622,168.056c0,0-0.035,4.559-0.271,4.529c0,0-10.589,3.294-14.929-3.091
				C222.421,169.494,231.149,172.036,237.622,168.056z"/>
		</g>
	</g>
	<path style="fill:#603813;" d="M235.072,119.062c-0.086,2.039-1.625,3.933-3.604,4.434c0.989-0.978,1.628-2.301,1.781-3.683
		c-1.944,2.319-5.045,3.241-7.962,4.047c-5.302,1.467-10.603,2.933-15.905,4.4c-1.807,0.5-3.632,1.007-5.279,1.905
		c-5.172,2.82-7.694,9.701-5.569,15.195c0.214,0.554,0.481,1.109,0.923,1.506c0.396,0.355,0.915,0.567,1.258,0.973
		c0.588,0.697,0.489,1.719,0.409,2.627c-0.484,5.55,1.122,11.549,4.418,16.041c1.816-0.56,3.804,0.571,5.371,1.027
		c-2.087-5.752-3.481-11.755-4.144-17.838c-0.108-0.993-0.193-2.022,0.126-2.969c0.475-1.408,1.759-2.384,3.076-3.074
		c2.803-1.468,5.978-2.022,9.013-2.918c3.035-0.896,6.119-2.267,7.958-4.842c0.116,1.247-0.237,2.531-0.974,3.544
		c3.38-0.917,6.602-2.414,9.483-4.406c2.518,1.876,3.772,5.495,4.592,8.161c3.417-3.036,4.161-8.606,2.749-12.953
		C241.381,125.892,238.284,122.315,235.072,119.062z"/>
	<path style="opacity:0.19;fill:#FFFFFF;" d="M219.284,130.532c0.97-0.636,1.725-1.594,2.115-2.687
		c-2.629,0.924-5.543,0.174-8.302,0.563c-2.548,0.359-4.898,1.703-6.722,3.517c-1.824,1.815-3.152,4.081-4.134,6.459
		c2.035-2.197,4.821-3.685,7.778-4.156c-0.173,0.815,0.93,1.257,1.762,1.277c5.657,0.133,10.747-3.466,14.602-7.608
		C224.086,128.948,221.711,129.829,219.284,130.532z"/>
	<path style="fill:#0B3F51;" d="M223.338,124.621c0,0-15.571,4.107-22.245,24.812l-6.331-5.305c0,0,3.765-20.02,24.469-22.929
		L223.338,124.621z"/>
	<g>
		<path style="fill:#FCB03C;" d="M182.497,169.838c-2.919-6.773,0.622-18.135,0.775-18.616l1.48-0.392
			c-0.036,0.113-3.714,12.163-0.997,18.466L182.497,169.838z"/>
		<path style="fill:#FCCD63;" d="M185.379,169.824c0-0.977-0.792-1.768-1.768-1.768s-1.768,0.792-1.768,1.768
			c0,0.977,0.792,1.768,1.768,1.768S185.379,170.801,185.379,169.824z"/>
		<path style="fill:#FCB03C;" d="M190.412,173.518c0,0-1.982-2.268-5.803-3.266c0,0-0.884-0.2-1.483,0.627
			c0,0,0.628,5.844,1.213,5.917C184.923,176.868,190.412,173.518,190.412,173.518z"/>
		<path style="fill:#FCCD63;" d="M190.412,173.518c-0.127-0.236-1.59,0.307-3.267,1.212c-1.677,0.905-2.934,1.83-2.807,2.066
			c0.127,0.236,1.59-0.307,3.267-1.212C189.283,174.679,190.539,173.754,190.412,173.518z"/>
	</g>
	<g>
		<path style="fill:#E6B89C;" d="M201.334,257.692l2.622-7.538l9.765-5.699c0,0,1.993-0.363,1.465,1.155
			c-0.528,1.518-1.004,1.353-1.004,1.353s1.346-0.412,1.523,0.002c0.178,0.414,0.413,1.552-0.779,2.194c0,0,1.054-0.103,1.252,0.846
			c0.198,0.949-7.519,5.072-7.519,5.072l-4.882,8.63c0,0-4.283,1.914-3.939-0.255C200.182,261.282,201.334,257.692,201.334,257.692z
			"/>
		<path style="fill:#E6B89C;" d="M186.63,269.102l13.638,0.493c0.776,0.044,1.508-0.358,1.886-1.037
			c1.448-2.6,2.83-8.679,2.633-8.288c-0.249,0.493-4.797,4.466-2.293-3.113c1.365-4.132,0.66-4.613,0.66-4.613
			s9.131-8.504,9.037-8.956c-0.094-0.451-0.297-1.676-1.86-1.222c-1.563,0.455-11.161,9.098-11.161,9.098s-1.222,1.605-1.801,4.848
			c-0.579,3.244-1.483,8.135-1.483,8.135l-7.983-1.391L186.63,269.102z"/>
	</g>
	<polygon style="fill:#F0F0F1;" points="189.848,261.303 193.066,261.987 192.496,270.882 186.63,269.102 	"/>
	<path style="fill:#012D41;" d="M199.296,195.206c0,0-44.19,19.457-46.217,39.226c-2.053,20.02,36.635,37.496,36.635,37.496
		l1.064-11.556c0,0-26.607-11.941-24.934-26.238c0.756-6.466,39.02-27.829,39.02-27.829L199.296,195.206z"/>
	<path style="fill:#012D41;" d="M279.292,225.921c-18.288,0-30.319-12.04-31.029-13.005l0.827-17.71
		c0.158,0.213,19.677,24.048,34.814,18.88c9.27-3.165,1.688-33.831-5.525-55.47l11.618-4.025c0.196,0.588,4.83,14.581,7.203,29.63
		c3.52,22.321,1.734,36.361-8.554,39.874C285.913,225.029,281.916,225.921,279.292,225.921z"/>
	<circle style="fill:#F16F61;" cx="114.721" cy="119.247" r="30.76"/>
	
		<ellipse transform="matrix(0.5742 -0.8187 0.8187 0.5742 32.8585 202.0862)" style="fill:#3D4A60;" cx="210.716" cy="69.453" rx="28.193" ry="28.193"/>
	<g>
		<path style="fill:#BC1D30;" d="M120.961,117.763c0-3.007-2.438-5.444-5.445-5.444c-3.007,0-5.444,2.438-5.444,5.444
			c0,3.007,2.438,5.444,5.444,5.444C118.523,123.207,120.961,120.77,120.961,117.763z"/>
		<path style="fill:#6693B2;" d="M115.351,142.157c-5.021,0-7.731-11.973-7.731-23.24c0-11.266,2.71-23.24,7.731-23.24
			s7.731,11.974,7.731,23.24C123.082,130.184,120.373,142.157,115.351,142.157z M115.351,97.282c-2.898,0-6.127,8.885-6.127,21.636
			c0,12.75,3.229,21.636,6.127,21.636s6.127-8.886,6.127-21.636C121.479,106.167,118.249,97.282,115.351,97.282z"/>
		<path style="fill:#6693B2;" d="M94.563,129.749c-2.447-4.385,6.688-12.586,16.525-18.077c9.837-5.491,21.613-8.96,24.061-4.575
			c2.447,4.385-6.687,12.586-16.525,18.077C108.787,130.664,97.011,134.134,94.563,129.749z M133.749,107.878
			c-1.412-2.531-10.745-1.02-21.879,5.194c-11.134,6.214-17.319,13.364-15.906,15.895c1.412,2.531,10.745,1.02,21.879-5.194
			C128.976,117.559,135.161,110.409,133.749,107.878z"/>
		<path style="fill:#6693B2;" d="M111.583,124.184c-9.837-5.491-18.972-13.692-16.525-18.077c2.447-4.385,14.223-0.915,24.061,4.575
			c9.838,5.491,18.972,13.692,16.525,18.077C133.197,133.144,121.421,129.674,111.583,124.184z M112.365,122.783
			c11.134,6.214,20.466,7.725,21.879,5.194c1.412-2.531-4.773-9.681-15.906-15.895c-11.134-6.214-20.466-7.725-21.879-5.194
			C95.046,109.419,101.231,116.569,112.365,122.783z"/>
		<path style="fill:#175A8B;" d="M113.371,100.604c0-1.458-1.182-2.64-2.64-2.64c-1.458,0-2.64,1.182-2.64,2.64
			s1.182,2.64,2.64,2.64C112.189,103.244,113.371,102.062,113.371,100.604z"/>
		<path style="fill:#175A8B;" d="M101.492,114.463c0-1.458-1.182-2.64-2.64-2.64c-1.458,0-2.64,1.182-2.64,2.64
			c0,1.458,1.182,2.64,2.64,2.64C100.311,117.103,101.492,115.921,101.492,114.463z"/>
		<path style="fill:#175A8B;" d="M136.139,111.493c0-1.458-1.182-2.64-2.64-2.64s-2.64,1.182-2.64,2.64
			c0,1.458,1.182,2.64,2.64,2.64S136.139,112.951,136.139,111.493z"/>
	</g>
	<circle style="fill:#90CDBC;" cx="114.721" cy="304.735" r="30.76"/>
	
		<ellipse transform="matrix(0.9873 -0.1587 0.1587 0.9873 -32.5477 14.2497)" style="fill:#FFBC40;" cx="72.969" cy="210.964" rx="30.76" ry="30.76"/>
	<g>
		<path style="fill:#BC1D30;" d="M106.737,312.602h-3.956l-1.146-3.585h-5.732l-1.135,3.585h-3.934l5.866-16.115h4.304
			L106.737,312.602z M100.803,306.23l-1.731-5.417c-0.128-0.404-0.217-0.888-0.27-1.45h-0.09c-0.038,0.472-0.131,0.94-0.281,1.405
			l-1.753,5.462H100.803z"/>
		<path style="fill:#FCB03C;" d="M108.748,312.602v-16.115h5.866c1.798,0,3.18,0.329,4.147,0.989c0.966,0.66,1.45,1.589,1.45,2.787
			c0,0.869-0.294,1.63-0.882,2.281s-1.339,1.105-2.253,1.359v0.046c1.146,0.142,2.062,0.565,2.748,1.27
			c0.686,0.704,1.028,1.562,1.028,2.573c0,1.476-0.528,2.646-1.585,3.512c-1.056,0.866-2.499,1.298-4.327,1.298H108.748z
			 M112.378,299.161v3.821h1.596c0.749,0,1.339-0.182,1.77-0.546c0.431-0.363,0.646-0.863,0.646-1.5
			c0-1.184-0.884-1.776-2.652-1.776H112.378z M112.378,305.68v4.248h1.967c0.839,0,1.496-0.194,1.972-0.584s0.714-0.922,0.714-1.595
			c0-0.644-0.234-1.15-0.702-1.517c-0.468-0.367-1.122-0.551-1.961-0.551H112.378z"/>
		<path style="fill:#175A8B;" d="M135.057,312.03c-1.176,0.569-2.712,0.854-4.608,0.854c-2.472,0-4.417-0.727-5.833-2.18
			c-1.416-1.454-2.124-3.39-2.124-5.81c0-2.577,0.796-4.668,2.388-6.271c1.592-1.603,3.658-2.405,6.198-2.405
			c1.573,0,2.9,0.199,3.978,0.596v3.495c-1.079-0.644-2.308-0.967-3.686-0.967c-1.513,0-2.734,0.476-3.664,1.428
			c-0.929,0.951-1.394,2.24-1.394,3.865c0,1.559,0.438,2.801,1.315,3.726c0.877,0.925,2.056,1.388,3.54,1.388
			c1.416,0,2.712-0.344,3.888-1.033V312.03z"/>
	</g>
	<circle style="fill:#F39C35;" cx="328.271" cy="119.247" r="30.76"/>
	<g>
		<defs>
			<circle id="SVGID_1_" cx="210.333" cy="69.009" r="19.336"/>
		</defs>
		<clipPath id="SVGID_00000115504564989986602390000016003306335886028713_">
			<use xlink:href="#SVGID_1_"  style="overflow:visible;"/>
		</clipPath>
		
			<circle style="clip-path:url(#SVGID_00000115504564989986602390000016003306335886028713_);fill:#F39C35;" cx="210.333" cy="69.009" r="19.336"/>
		
			<rect x="189.181" y="68.51" style="clip-path:url(#SVGID_00000115504564989986602390000016003306335886028713_);fill:#333333;" width="44" height="2"/>
		
			<rect x="209.181" y="48.51" style="clip-path:url(#SVGID_00000115504564989986602390000016003306335886028713_);fill:#333333;" width="2" height="43"/>
		<path style="clip-path:url(#SVGID_00000115504564989986602390000016003306335886028713_);fill:#333333;" d="M193.814,50.394
			c-0.354,0.609-0.708,1.208-1.077,1.792c5.539,3.014,9.307,8.888,9.307,15.626c0,7.465-4.627,13.865-11.162,16.495
			c1.15-0.202,2.34,0.077,3.062,0.848c6.074-3.403,10.191-9.9,10.191-17.343C204.135,60.315,199.96,53.776,193.814,50.394z"/>
		<path style="clip-path:url(#SVGID_00000115504564989986602390000016003306335886028713_);fill:#333333;" d="M226.733,83.295
			c0.208-0.334,0.424-0.664,0.641-0.994c-4.532-3.225-7.497-8.516-7.497-14.489c0-6.231,3.225-11.719,8.09-14.894
			c-0.607-0.423-1.203-0.856-1.777-1.318c-5.08,3.603-8.404,9.525-8.404,16.212c0,6.709,3.346,12.647,8.452,16.246
			C226.402,83.802,226.569,83.55,226.733,83.295z"/>
	</g>
	<g>
		<rect x="314.04" y="104.4" style="fill:#666666;" width="29.926" height="19.695"/>
		<rect x="315.831" y="106.191" style="fill:#C1F0F4;" width="26.217" height="16.114"/>
		<g>
			<polygon style="fill:#CCCCCC;" points="343.903,124.117 314.2,124.117 303.704,130.022 351.828,130.086 			"/>
			<rect x="303.704" y="130.014" style="fill:#7F7F7F;" width="48.14" height="1.115"/>
			<polygon style="fill:#666666;" points="341.591,124.726 316.568,124.774 310.624,128.727 346.36,128.578 			"/>
			<g>
				<polygon style="fill:#CCCCCC;" points="344.504,127.51 313.181,127.51 313.181,126.51 343.807,126.51 				"/>
				<polygon style="fill:#CCCCCC;" points="345.181,128.51 311.302,128.51 311.977,127.51 345.181,127.51 				"/>
			</g>
			<g>
				<polygon style="fill:#CCCCCC;" points="344.127,129.082 339.634,124.556 339.861,124.447 344.354,128.972 				"/>
				<polygon style="fill:#CCCCCC;" points="341.828,129.418 338.047,124.588 338.289,124.496 342.071,129.326 				"/>
				<polygon style="fill:#CCCCCC;" points="339.434,129.746 336.555,124.623 336.813,124.553 339.691,129.676 				"/>
				<polygon style="fill:#CCCCCC;" points="336.71,129.242 335.131,124.69 335.399,124.645 336.979,129.197 				"/>
			</g>
			<g>
				<polygon style="fill:#CCCCCC;" points="314.089,129.082 313.862,128.972 318.355,124.447 318.582,124.556 				"/>
				<polygon style="fill:#CCCCCC;" points="316.388,129.418 316.145,129.326 319.927,124.496 320.169,124.588 				"/>
				<polygon style="fill:#CCCCCC;" points="318.782,129.746 318.524,129.676 321.403,124.553 321.661,124.623 				"/>
				<polygon style="fill:#CCCCCC;" points="321.506,129.242 321.237,129.197 322.816,124.645 323.085,124.69 				"/>
			</g>
			<polygon style="fill:#CCCCCC;" points="328.803,128.003 328.825,125.51 327.555,125.51 327.44,127.985 325.472,127.74 
				325.864,124.759 324.822,124.656 324.286,127.493 324.012,127.455 324.582,124.406 326.166,124.48 325.775,127.346 
				327.171,127.885 327.286,125.51 329.104,125.51 329.081,127.899 330.638,127.602 330.363,124.618 332.276,124.517 
				332.603,127.392 334.233,127.353 333.563,124.654 333.836,124.618 334.56,127.526 332.348,127.558 332.021,124.651 
				330.658,124.677 330.933,127.74 			"/>
		</g>
		<path style="opacity:0.52;fill:#FFFFFF;" d="M334.929,121.51c-0.209,0-0.38-0.389-0.384-0.598c-0.003-0.212,0.166-0.497,0.378-0.5
			l5.074-0.135l-0.166-12.945c-0.003-0.212,0.167-0.4,0.379-0.402c0.202-0.001,0.386,0.16,0.388,0.372l0.171,13.297
			c0.003,0.212-0.166,0.604-0.378,0.608l-5.457,0.304C334.933,121.51,334.931,121.51,334.929,121.51z"/>
		<rect x="324.591" y="122.321" style="fill:#666666;" width="9.608" height="0.703"/>
		<rect x="320.17" y="107.054" style="fill:#F7FBFC;" width="16.489" height="15.241"/>
		<rect x="321.216" y="108.841" style="fill:#CCCCCC;" width="14.567" height="0.438"/>
		<rect x="321.182" y="109.819" style="fill:#CCCCCC;" width="14.567" height="0.438"/>
		<rect x="321.182" y="110.965" style="fill:#CCCCCC;" width="14.567" height="0.438"/>
		<rect x="321.148" y="111.943" style="fill:#CCCCCC;" width="14.567" height="0.438"/>
		<rect x="321.148" y="112.988" style="fill:#CCCCCC;" width="14.567" height="0.438"/>
		<rect x="321.115" y="113.966" style="fill:#CCCCCC;" width="14.567" height="0.438"/>
		<rect x="321.148" y="115.618" style="fill:#CCCCCC;" width="14.567" height="0.438"/>
		<rect x="321.115" y="116.596" style="fill:#CCCCCC;" width="14.567" height="0.438"/>
		<rect x="321.115" y="117.743" style="fill:#CCCCCC;" width="14.567" height="0.438"/>
		<rect x="321.081" y="118.721" style="fill:#CCCCCC;" width="14.567" height="0.438"/>
		<rect x="321.081" y="119.766" style="fill:#CCCCCC;" width="14.567" height="0.438"/>
		<rect x="321.047" y="120.744" style="fill:#CCCCCC;" width="14.567" height="0.438"/>
	</g>
	<g>
		<path style="fill:#DAECF3;" d="M74.757,202.962c-0.402,0.526-0.805,1.052-1.207,1.579c-0.285,0.507-0.617,0.998-0.975,1.472
			c4.815,0.309,8.637,4.279,8.637,9.118c0,5.04-4.145,9.139-9.24,9.139c-2.715,0-5.159-1.164-6.851-3.014
			c-0.328,0.004-0.657,0.001-0.985-0.007c-1.026,0.015-2.052,0.031-3.077,0.08c2.173,3.75,6.249,6.283,10.914,6.283
			c6.938,0,12.582-5.599,12.582-12.481C84.554,209.198,80.358,204.223,74.757,202.962z"/>
		
			<rect x="71.163" y="187.516" transform="matrix(0.8507 0.5257 -0.5257 0.8507 116.6303 -8.3512)" style="fill:#B2CED6;" width="3.704" height="27.211"/>
		<path style="fill:#DAECF3;" d="M76.44,196.546l-0.825-0.51c-1.071-0.662-2.476-0.33-3.138,0.741l-6.617,10.708
			c-0.662,1.071-0.33,2.476,0.741,3.138l0.825,0.51c1.071,0.662,2.476,0.33,3.138-0.741l6.617-10.708
			C77.842,198.613,77.511,197.208,76.44,196.546z"/>
		<rect x="57.524" y="219.879" style="fill:#012D41;" width="11.821" height="1.717"/>
		
			<rect x="77.594" y="189.26" transform="matrix(0.8507 0.5257 -0.5257 0.8507 111.7164 -13.6803)" style="fill:#012D41;" width="4.691" height="1.109"/>
		<path style="fill:#E8F7FC;" d="M79.313,229.612c0,0-2.56-7.342-4.782-6.803c-2.223,0.539-2.088,6.601-2.088,6.601L79.313,229.612z
			"/>
		<path style="fill:#E8F7FC;" d="M77.831,205.162c0-1.6-1.297-2.896-2.896-2.896c-1.6,0-2.896,1.297-2.896,2.896
			c0,1.6,1.297,2.896,2.896,2.896C76.534,208.059,77.831,206.762,77.831,205.162z"/>
		<path style="fill:#012D41;" d="M76.282,205.095c0-0.744-0.603-1.347-1.347-1.347c-0.744,0-1.347,0.603-1.347,1.347
			c0,0.744,0.603,1.347,1.347,1.347C75.679,206.442,76.282,205.839,76.282,205.095z"/>
		<rect x="59.545" y="229.275" style="fill:#012D41;" width="24.449" height="2.627"/>
		<path style="fill:#012D41;" d="M76.282,225.571c0-0.707-0.573-1.28-1.28-1.28s-1.28,0.573-1.28,1.28c0,0.707,0.573,1.28,1.28,1.28
			S76.282,226.277,76.282,225.571z"/>
	</g>
	<circle style="fill:#F16F61;" cx="328.956" cy="304.735" r="30.76"/>
	
		<ellipse transform="matrix(0.8437 -0.5369 0.5369 0.8437 -55.5196 231.2713)" style="fill:#90CDBC;" cx="369.339" cy="210.964" rx="30.76" ry="30.76"/>
	<g>
		<path style="fill:#DAECF3;" d="M360.163,199.51h-6.45c-0.54,0-1.884-0.141-1.841,0.885c0.041,0.984,1.31,0.885,1.31,0.885v26.636
			c0,1.875,1.125,3.409,3,3.409c1.875,0,3-1.534,3-3.409v-26.406c0,0,1.611,0.004,1.611-1.145
			C360.792,199.827,360.702,199.51,360.163,199.51z"/>
		<path style="fill:#DAECF3;" d="M390.849,221.073l-14.154-15.777l-0.982-19.11c0.506-0.071,0.905,0.2,0.905-0.324
			c0-0.574-0.469-0.352-1.043-0.352h-6.798c-0.574,0-1.043,0.426-1.043,1c0,0.574,0.469,1,1.043,1h0.048l0.377,18.511
			l-13.077,15.948c-0.512,0.761,0.043,1.621,0.96,1.605l32.979-0.62C390.989,222.939,391.466,221.762,390.849,221.073z"/>
		<g>
			<path style="fill:#F27CE1;" d="M382.544,211.816c-1.469-0.033-17.054-0.198-18.174-0.241l-8.245,10.187
				c-0.512,0.761,0.043,1.725,0.96,1.71l32.979-0.568c0.925-0.016,1.403-1.141,0.785-1.829L382.544,211.816z"/>
			<g>
				<path style="fill:#FFCAFA;" d="M366.729,213.775c0-0.587-0.476-1.062-1.062-1.062c-0.587,0-1.062,0.476-1.062,1.062
					c0,0.587,0.476,1.062,1.062,1.062C366.254,214.837,366.729,214.361,366.729,213.775z"/>
				<path style="fill:#FFCAFA;" d="M367.849,217.116c0-0.384-0.311-0.695-0.695-0.695c-0.384,0-0.695,0.311-0.695,0.695
					s0.311,0.695,0.695,0.695C367.538,217.811,367.849,217.5,367.849,217.116z"/>
				<path style="fill:#FFCAFA;" d="M364.763,217.89c0-0.3-0.243-0.542-0.543-0.542c-0.3,0-0.543,0.243-0.543,0.542
					c0,0.3,0.243,0.543,0.543,0.543C364.52,218.433,364.763,218.19,364.763,217.89z"/>
				<path style="fill:#FFCAFA;" d="M366.617,220.672c0-0.3-0.243-0.543-0.543-0.543c-0.3,0-0.543,0.243-0.543,0.543
					c0,0.3,0.243,0.542,0.543,0.542C366.374,221.214,366.617,220.971,366.617,220.672z"/>
				<path style="fill:#FFCAFA;" d="M362.094,220.264c0-0.587-0.476-1.062-1.062-1.062c-0.587,0-1.062,0.476-1.062,1.062
					c0,0.587,0.476,1.062,1.062,1.062C361.618,221.326,362.094,220.851,362.094,220.264z"/>
				<path style="fill:#FFCAFA;" d="M376.791,220.377c0.577,0.106,1.13-0.277,1.236-0.854c0.105-0.577-0.277-1.13-0.854-1.236
					s-1.13,0.277-1.236,0.854C375.832,219.718,376.214,220.271,376.791,220.377z"/>
				<path style="fill:#FFCAFA;" d="M373.303,220.878c0.378,0.069,0.74-0.181,0.809-0.559c0.069-0.378-0.181-0.74-0.559-0.809
					c-0.378-0.069-0.74,0.181-0.809,0.559C372.675,220.447,372.925,220.809,373.303,220.878z"/>
				<path style="fill:#FFCAFA;" d="M374.426,216.849c0.517,0.095,1.013-0.248,1.108-0.765c0.095-0.517-0.248-1.013-0.765-1.108
					c-0.517-0.095-1.013,0.248-1.108,0.765S373.909,216.754,374.426,216.849z"/>
				<path style="fill:#FFCAFA;" d="M370.027,219.026c0.295,0.054,0.578-0.141,0.631-0.436c0.054-0.295-0.141-0.577-0.436-0.631
					c-0.295-0.054-0.578,0.141-0.631,0.436C369.537,218.689,369.733,218.972,370.027,219.026z"/>
				<path style="fill:#FFCAFA;" d="M371.242,214.65c0.577,0.105,1.13-0.277,1.236-0.854c0.105-0.577-0.277-1.131-0.854-1.236
					c-0.577-0.105-1.13,0.277-1.236,0.854C370.282,213.991,370.665,214.544,371.242,214.65z"/>
				<path style="fill:#FFCAFA;" d="M383.744,219.937c0.415,0.415,1.087,0.415,1.502,0s0.415-1.087,0-1.502
					c-0.415-0.415-1.087-0.415-1.502,0C383.329,218.849,383.329,219.522,383.744,219.937z"/>
				<path style="fill:#FFCAFA;" d="M380.589,218.366c0.272,0.271,0.712,0.271,0.983,0c0.272-0.272,0.271-0.712,0-0.983
					c-0.272-0.271-0.712-0.271-0.983,0C380.317,217.655,380.318,218.095,380.589,218.366z"/>
				<path style="fill:#FFCAFA;" d="M382.224,215.636c0.212,0.212,0.555,0.212,0.767,0c0.212-0.212,0.212-0.555,0-0.767
					c-0.212-0.212-0.555-0.212-0.767,0C382.012,215.081,382.012,215.424,382.224,215.636z"/>
				<path style="fill:#FFCAFA;" d="M378.946,214.981c0.212,0.212,0.555,0.212,0.767,0c0.212-0.212,0.212-0.555,0-0.767
					c-0.212-0.212-0.556-0.212-0.767,0C378.734,214.426,378.734,214.769,378.946,214.981z"/>
			</g>
		</g>
		<path style="fill:#FFFFFF;" d="M371.088,186.874h-0.076c-0.19,0-0.345,0.155-0.345,0.345v17.472c0,0.19,0.155,0.345,0.345,0.345
			h0.076c0.19,0,0.345-0.155,0.345-0.345v-17.472C371.433,187.029,371.278,186.874,371.088,186.874z"/>
		<path style="fill:#FFFFFF;" d="M370.109,207.455l-0.084-0.063c-0.211-0.157-0.513-0.112-0.67,0.099l-8.6,11.594
			c-0.157,0.211-0.112,0.513,0.099,0.67l0.085,0.063c0.211,0.157,0.513,0.112,0.669-0.099l8.6-11.594
			C370.366,207.913,370.321,207.612,370.109,207.455z"/>
		<path style="fill:#BDE55C;" d="M353.331,207.376v20.541c0,1.875,1.37,3.409,3.245,3.409c1.875,0,3.245-1.534,3.245-3.409v-20.362
			C357.657,207.516,355.493,207.455,353.331,207.376z"/>
		<path style="fill:#FFFFFF;" d="M354.981,204.148h-0.076c-0.19,0-0.345,0.155-0.345,0.345v17.472c0,0.19,0.155,0.345,0.345,0.345
			h0.076c0.19,0,0.345-0.155,0.345-0.345v-17.472C355.325,204.303,355.17,204.148,354.981,204.148z"/>
	</g>
	<g>
		<g>
			<polygon style="fill:#699334;" points="327.625,290.507 348.181,290.707 348.181,316.958 327.403,315.358 			"/>
			<g>
				<path style="fill:#B9D3DB;" d="M327.181,315.358v-22.401c0,0,5-5.867,19,0.8v22.001
					C346.181,315.758,332.181,309.891,327.181,315.358z"/>
				<path style="fill:#DAECF3;" d="M327.181,312.958v-22.401c0,0,5-5.867,19,0.8v22.001
					C346.181,313.358,332.181,307.491,327.181,312.958z"/>
			</g>
			<polygon style="fill:#699334;" points="327.026,290.507 306.181,290.707 306.181,316.958 327.104,315.358 			"/>
			<g>
				<path style="fill:#B9D3DB;" d="M326.181,315.358v-22.401c0,0-4-5.867-18,0.8v22.001
					C308.181,315.758,320.181,309.891,326.181,315.358z"/>
				<path style="fill:#DAECF3;" d="M326.181,312.958v-22.401c0,0-4-5.867-18,0.8v22.001
					C308.181,313.358,320.181,307.491,326.181,312.958z"/>
			</g>
			<rect x="327.421" y="290.457" style="fill:#484946;" width="0.5" height="24.901"/>
			<path style="opacity:0.32;" d="M310.671,294.107c-0.237,0-0.462-0.142-0.556-0.375c-0.124-0.307,0.024-0.657,0.331-0.782
				c9.634-3.904,15.248-1.347,15.483-1.236c0.3,0.142,0.427,0.5,0.286,0.799c-0.141,0.299-0.498,0.428-0.797,0.287
				c-0.064-0.03-5.426-2.423-14.52,1.263C310.822,294.093,310.746,294.107,310.671,294.107z"/>
			<path style="opacity:0.32;" d="M311.071,297.307c-0.237,0-0.462-0.141-0.556-0.375c-0.125-0.307,0.024-0.657,0.331-0.782
				c9.634-3.904,15.248-1.347,15.482-1.236c0.3,0.142,0.427,0.5,0.286,0.799c-0.141,0.299-0.498,0.428-0.797,0.287
				c-0.064-0.03-5.426-2.423-14.52,1.263C311.222,297.293,311.146,297.307,311.071,297.307z"/>
			<path style="opacity:0.32;" d="M311.071,300.507c-0.237,0-0.462-0.141-0.556-0.375c-0.125-0.307,0.024-0.657,0.331-0.782
				c9.634-3.904,15.248-1.347,15.482-1.236c0.3,0.142,0.427,0.5,0.286,0.799c-0.141,0.299-0.498,0.428-0.797,0.287
				c-0.064-0.03-5.426-2.423-14.52,1.263C311.222,300.493,311.146,300.507,311.071,300.507z"/>
			<path style="opacity:0.32;" d="M310.671,306.907c-0.237,0-0.462-0.142-0.556-0.375c-0.124-0.307,0.024-0.657,0.331-0.782
				c9.634-3.904,15.248-1.347,15.483-1.236c0.3,0.142,0.427,0.5,0.286,0.799c-0.141,0.299-0.498,0.428-0.797,0.287
				c-0.064-0.03-5.426-2.423-14.52,1.263C310.822,306.893,310.746,306.907,310.671,306.907z"/>
			<path style="opacity:0.32;" d="M344.471,304.107c0.237,0,0.462-0.141,0.556-0.375c0.124-0.307-0.024-0.657-0.331-0.782
				c-9.634-3.904-15.248-1.347-15.482-1.236c-0.3,0.142-0.428,0.5-0.286,0.799c0.141,0.299,0.498,0.428,0.797,0.287
				c0.064-0.03,5.426-2.423,14.52,1.263C344.32,304.093,344.396,304.107,344.471,304.107z"/>
			<path style="opacity:0.32;" d="M344.071,307.307c0.237,0,0.462-0.141,0.556-0.375c0.124-0.307-0.024-0.657-0.331-0.782
				c-9.634-3.904-15.248-1.347-15.482-1.236c-0.3,0.142-0.428,0.5-0.286,0.799c0.141,0.299,0.498,0.428,0.797,0.287
				c0.064-0.03,5.426-2.423,14.52,1.263C343.92,307.293,343.996,307.307,344.071,307.307z"/>
			<path style="opacity:0.32;" d="M344.071,310.508c0.237,0,0.462-0.141,0.556-0.375c0.124-0.307-0.024-0.657-0.331-0.782
				c-9.634-3.904-15.248-1.347-15.482-1.236c-0.3,0.142-0.428,0.5-0.286,0.799c0.141,0.299,0.498,0.428,0.797,0.287
				c0.064-0.03,5.426-2.423,14.52,1.263C343.92,310.493,343.996,310.508,344.071,310.508z"/>
			<path style="fill:#8BB8C6;" d="M328.181,299.29c0,0,4-3.134,15,0.067v-7.6c0,0-11-3.734-15-0.4V299.29z"/>
		</g>
		<g>
			<path style="fill:#754C24;" d="M341.664,310.321l7.486,11.303c0.398,0.602,1.219,0.77,1.824,0.375l0,0
				c0.605-0.395,0.774-1.211,0.376-1.812l-7.486-11.303C343.846,308.939,343.068,309.772,341.664,310.321z"/>
			<path style="opacity:0.47;fill:#DAECF3;" d="M347.845,301.519c0.112-5.409-4.209-9.889-9.653-10.008
				c-5.444-0.118-9.948,4.17-10.061,9.579c-0.112,5.409,4.209,9.889,9.653,10.008C343.228,311.216,347.732,306.927,347.845,301.519z
				"/>
			<path style="fill:#A67C52;" d="M337.67,311.674c-5.728-0.125-10.292-4.856-10.174-10.548c0.118-5.691,4.875-10.22,10.604-10.096
				c5.728,0.125,10.292,4.856,10.174,10.548C348.155,307.27,343.398,311.799,337.67,311.674z M338.078,292.088
				c-5.142-0.112-9.412,3.953-9.518,9.062c-0.106,5.109,3.99,9.356,9.132,9.468c5.142,0.112,9.412-3.953,9.518-9.062
				S343.22,292.199,338.078,292.088z"/>
			<path style="opacity:0.61;fill:#FFFFFF;" d="M332.344,296.418c-0.109-0.002-0.219-0.034-0.318-0.098
				c-0.282-0.182-0.362-0.556-0.179-0.836c1.884-2.883,4.917-2.932,5.046-2.932c0.333-0.003,0.61,0.267,0.612,0.601
				c0.002,0.333-0.267,0.604-0.602,0.607l0,0c-0.102,0.001-2.518,0.06-4.036,2.383C332.748,296.325,332.547,296.422,332.344,296.418
				z"/>
			<path style="opacity:0.61;fill:#FFFFFF;" d="M333.269,308.596c-0.127-0.003-0.254-0.045-0.361-0.128
				c-3.132-2.435-3.565-5.465-3.377-7.578c0.201-2.255,1.125-3.927,1.164-3.997c0.163-0.291,0.533-0.396,0.827-0.233
				c0.293,0.162,0.399,0.529,0.236,0.821l0,0c-0.136,0.244-3.263,6.026,1.898,10.037c0.265,0.206,0.311,0.585,0.105,0.848
				C333.638,308.52,333.454,308.6,333.269,308.596z"/>
		</g>
	</g>
</g>
</svg>
