<svg width="187" height="60" viewBox="0 0 187 60" fill="none" xmlns="http://www.w3.org/2000/svg">
<path fill-rule="evenodd" clip-rule="evenodd" d="M11.0397 0.586914H175.687C179.346 0.586914 180.67 0.996779 182.008 1.75796C183.329 2.50683 184.409 3.66469 185.107 5.08079C185.817 6.51531 186.2 7.9352 186.2 11.8435V47.8824C186.2 51.7907 185.817 53.2106 185.107 54.6451C184.409 56.0612 183.329 57.2191 182.008 57.9679C180.67 58.7291 179.346 59.139 175.701 59.139H11.026C7.38084 59.139 6.05656 58.7291 4.71862 57.9679C3.39787 57.2191 2.31799 56.0612 1.61953 54.6451C0.90961 53.2106 0.527344 51.7907 0.527344 47.8824V11.8435C0.527344 7.9352 0.90961 6.51531 1.61953 5.08079C2.31799 3.66469 3.39787 2.50683 4.71862 1.75796C6.05656 0.996779 7.38084 0.586914 11.026 0.586914H11.0397Z" fill="black"/>
<path d="M41.9625 29.9071C41.9898 27.1698 43.3278 24.6521 45.4985 23.2176C44.8184 22.1776 43.9212 21.3224 42.8782 20.72C41.8353 20.1177 40.6755 19.785 39.4914 19.7483C36.9794 19.4556 34.5356 21.3585 33.2523 21.3585C31.9417 21.3585 29.9621 19.7776 27.8323 19.8215C26.4544 19.8697 25.1116 20.2994 23.9345 21.069C22.7575 21.8385 21.7862 22.9216 21.1153 24.2129C18.2074 29.6144 20.3781 37.5335 23.1632 41.8957C24.5557 44.0182 26.1667 46.4042 28.3101 46.3163C30.3853 46.2285 31.1771 44.8965 33.6755 44.8965C36.1739 44.8965 36.8975 46.3163 39.0682 46.2724C41.3072 46.2285 42.7134 44.1206 44.065 41.9689C45.0616 40.4465 45.8398 38.7631 46.3449 36.9919C45.0464 36.4027 43.9384 35.4167 43.1591 34.1568C42.3798 32.8969 41.9636 31.4189 41.9625 29.9071ZM37.8532 16.8793C39.0739 15.3114 39.6763 13.2949 39.5324 11.2583C37.662 11.4779 35.9418 12.4293 34.7131 13.9371C34.1083 14.6742 33.6451 15.532 33.3499 16.4614C33.0547 17.3908 32.9334 18.3734 32.9929 19.3531C33.925 19.3631 34.847 19.1456 35.689 18.717C36.5311 18.2884 37.2711 17.66 37.8532 16.8793Z" fill="white"/>
<path d="M70.5638 39.5826H64.1062L62.5498 44.501H59.8193L65.9356 26.3206H68.7889L74.9052 44.501H72.1201L70.5638 39.5826ZM64.7751 37.3137H69.8948L67.3691 29.336H67.3008L64.7751 37.3137ZM88.1207 37.87C88.1207 41.9833 86.0729 44.6327 82.9601 44.6327C82.1745 44.6776 81.3929 44.4845 80.7048 44.0755C80.0167 43.6665 79.4499 43.0581 79.0692 42.3199H79.0146V48.8778H76.4752V31.239H78.9327V33.4347H78.9736C79.3716 32.6975 79.9489 32.0902 80.6438 31.6777C81.3388 31.2651 82.1253 31.0629 82.9192 31.0926C86.0592 31.0926 88.1207 33.7567 88.1207 37.87ZM85.5131 37.87C85.5131 35.1912 84.2161 33.42 82.2365 33.42C80.3116 33.42 79.0009 35.2205 79.0009 37.87C79.0009 40.5341 80.3116 42.3346 82.2502 42.3346C84.2161 42.3346 85.5131 40.578 85.5131 37.87ZM101.718 37.87C101.718 41.9833 99.6706 44.6327 96.5715 44.6327C95.7859 44.6776 95.0043 44.4845 94.3162 44.0755C93.6282 43.6665 93.0613 43.0581 92.6806 42.3199H92.6123V48.8778H90.0867V31.239H92.5441V33.4347H92.585C92.9819 32.6998 93.557 32.0939 94.2494 31.6815C94.9417 31.2691 95.7253 31.0656 96.5169 31.0926C99.657 31.0926 101.718 33.7567 101.718 37.87ZM99.1245 37.87C99.1245 35.1912 97.8275 33.42 95.848 33.42C93.9093 33.42 92.6123 35.2205 92.6123 37.87C92.6123 40.5341 93.9093 42.3346 95.848 42.3346C97.8275 42.3346 99.1245 40.578 99.1245 37.87ZM110.715 39.4362C110.907 41.2367 112.531 42.4224 114.77 42.4224C116.914 42.4224 118.456 41.2367 118.456 39.6119C118.456 38.192 117.514 37.3576 115.316 36.7721L113.132 36.2012C110.005 35.3961 108.572 33.8445 108.572 31.3121C108.572 28.165 111.111 26.0132 114.729 26.0132C118.32 26.0132 120.777 28.165 120.859 31.3121H118.292C118.142 29.497 116.736 28.3845 114.702 28.3845C112.654 28.3845 111.261 29.497 111.261 31.1219C111.261 32.3954 112.149 33.1712 114.333 33.7421L116.204 34.2251C119.685 35.1034 121.119 36.6111 121.119 39.2606C121.119 42.6712 118.593 44.7938 114.579 44.7938C110.825 44.7938 108.285 42.7152 108.121 39.4362H110.715ZM126.607 28.1064V31.239H128.955V33.3907H126.607V40.7097C126.607 41.8369 127.071 42.3638 128.109 42.3638C128.382 42.3638 128.655 42.3346 128.928 42.3053V44.4424C128.477 44.5449 127.999 44.5888 127.535 44.5742C125.023 44.5742 124.054 43.5495 124.054 40.9879V33.3907H122.252V31.239H124.054V28.1064H126.607ZM130.307 37.87C130.307 33.6981 132.6 31.0779 136.177 31.0779C139.754 31.0779 142.048 33.7128 142.048 37.87C142.048 42.0564 139.768 44.662 136.177 44.662C132.587 44.662 130.307 42.0564 130.307 37.87ZM139.454 37.87C139.454 35.0156 138.225 33.3322 136.177 33.3322C134.129 33.3322 132.901 35.0156 132.901 37.87C132.901 40.739 134.129 42.4078 136.177 42.4078C138.225 42.4078 139.454 40.739 139.454 37.87ZM144.136 31.239H146.553V33.4932H146.607C146.949 32.044 148.191 31.0487 149.584 31.1072C149.87 31.1072 150.171 31.1365 150.457 31.2097V33.7567C150.087 33.6312 149.699 33.5719 149.311 33.581C148.941 33.5634 148.571 33.6322 148.229 33.7829C147.886 33.9335 147.578 34.1623 147.326 34.4534C147.074 34.7445 146.884 35.0909 146.769 35.4685C146.655 35.8462 146.618 36.246 146.662 36.6404V44.501H144.136V31.239ZM162.144 40.6073C161.803 43.0079 159.618 44.662 156.819 44.662C153.229 44.662 151.004 42.0711 151.004 37.9285C151.004 33.7713 153.243 31.0779 156.724 31.0779C160.137 31.0779 162.294 33.5957 162.294 37.6211V38.5433H153.557V38.719C153.518 39.2067 153.576 39.6977 153.727 40.1595C153.878 40.6213 154.119 41.0433 154.434 41.3976C154.749 41.7519 155.131 42.0304 155.554 42.2147C155.977 42.3989 156.432 42.4847 156.888 42.4663C158.116 42.5834 159.277 41.8369 159.741 40.6073H162.144ZM153.57 36.655H159.755C159.777 36.2164 159.715 35.7776 159.572 35.3659C159.43 34.9542 159.209 34.5786 158.924 34.2626C158.64 33.9465 158.298 33.6969 157.919 33.5292C157.54 33.3616 157.133 33.2795 156.724 33.2883C155.891 33.2883 155.092 33.643 154.504 34.2744C153.915 34.9058 153.584 35.7621 153.584 36.655H153.57Z" fill="white"/>
<path d="M64.4611 12.634C64.9928 12.5947 65.5261 12.6823 66.0224 12.8906C66.5187 13.0989 66.9658 13.4225 67.3314 13.8384C67.6971 14.2542 67.9721 14.7517 68.1368 15.2953C68.3015 15.8388 68.3517 16.4147 68.2838 16.9815C68.2838 19.7627 66.8776 21.3729 64.4611 21.3729H61.5122V12.634H64.4611ZM62.7819 20.1286H64.3109C64.6902 20.1522 65.0696 20.0851 65.4218 19.9323C65.774 19.7795 66.0901 19.5448 66.3474 19.2451C66.6047 18.9454 66.7968 18.5882 66.9097 18.1993C67.0226 17.8104 67.0536 17.3994 67.0005 16.9961C67.0536 16.5928 67.0226 16.1818 66.9097 15.7929C66.7968 15.404 66.6047 15.0468 66.3474 14.7471C66.0901 14.4474 65.774 14.2127 65.4218 14.0599C65.0696 13.9071 64.6902 13.8401 64.3109 13.8636H62.7819V20.1286ZM69.7173 18.0647C69.69 17.6382 69.7448 17.2104 69.8782 16.8076C70.0116 16.4048 70.2209 16.0357 70.4929 15.7233C70.765 15.4109 71.0941 15.1618 71.4597 14.9915C71.8254 14.8212 72.2198 14.7333 72.6184 14.7333C73.0171 14.7333 73.4115 14.8212 73.7771 14.9915C74.1427 15.1618 74.4718 15.4109 74.7439 15.7233C75.016 16.0357 75.2252 16.4048 75.3586 16.8076C75.4921 17.2104 75.5468 17.6382 75.5195 18.0647C75.5468 18.4911 75.4921 18.919 75.3586 19.3218C75.2252 19.7246 75.016 20.0936 74.7439 20.4061C74.4718 20.7185 74.1427 20.9676 73.7771 21.1379C73.4115 21.3082 73.0171 21.3961 72.6184 21.3961C72.2198 21.3961 71.8254 21.3082 71.4597 21.1379C71.0941 20.9676 70.765 20.7185 70.4929 20.4061C70.2209 20.0936 70.0116 19.7246 69.8782 19.3218C69.7448 18.919 69.69 18.4911 69.7173 18.0647ZM74.2635 18.0647C74.2635 16.6448 73.6765 15.8104 72.6252 15.8104C71.5604 15.8104 70.9733 16.6448 70.9733 18.0647C70.9733 19.5138 71.5604 20.3336 72.6116 20.3336C73.6765 20.3336 74.2635 19.4992 74.2635 18.0647ZM83.2195 21.3729H81.9635L80.6938 16.5131H80.5982L79.3286 21.3729H78.0998L76.3933 14.7858H77.622L78.7142 19.8066H78.8098L80.0794 14.7711H81.2399L82.5096 19.8066H82.6051L83.6973 14.7711H84.9124L83.2195 21.3729ZM86.3322 14.7858H87.5063V15.8251H87.6019C87.9159 15.0492 88.6531 14.5808 89.4313 14.654C89.7302 14.6285 90.0307 14.6756 90.3103 14.7919C90.5899 14.9082 90.8414 15.0906 91.0461 15.3256C91.2508 15.5605 91.4034 15.842 91.4926 16.149C91.5817 16.4559 91.6052 16.7805 91.5611 17.0986V21.3729H90.3324V17.4206C90.3324 16.3667 89.9228 15.8397 89.0217 15.8397C88.8181 15.8278 88.6144 15.8635 88.4249 15.9445C88.2355 16.0254 88.0647 16.1495 87.9244 16.3083C87.7841 16.467 87.6777 16.6566 87.6126 16.8638C87.5475 17.0711 87.5252 17.291 87.5473 17.5084V21.3729H86.3322V14.7858ZM93.4997 12.2095H94.7011V21.3729H93.4861L93.4997 12.2095ZM96.394 18.0647C96.3667 17.6382 96.4215 17.2104 96.5549 16.8076C96.6884 16.4048 96.8976 16.0357 97.1697 15.7233C97.4417 15.4109 97.7708 15.1618 98.1365 14.9915C98.5021 14.8212 98.8965 14.7333 99.2952 14.7333C99.6938 14.7333 100.088 14.8212 100.454 14.9915C100.819 15.1618 101.149 15.4109 101.421 15.7233C101.693 16.0357 101.902 16.4048 102.035 16.8076C102.169 17.2104 102.224 17.6382 102.196 18.0647C102.224 18.4911 102.169 18.919 102.035 19.3218C101.902 19.7246 101.693 20.0936 101.421 20.4061C101.149 20.7185 100.819 20.9676 100.454 21.1379C100.088 21.3082 99.6938 21.3961 99.2952 21.3961C98.8965 21.3961 98.5021 21.3082 98.1365 21.1379C97.7708 20.9676 97.4417 20.7185 97.1697 20.4061C96.8976 20.0936 96.6884 19.7246 96.5549 19.3218C96.4215 18.919 96.3667 18.4911 96.394 18.0647ZM100.94 18.0647C100.94 16.6448 100.34 15.8104 99.302 15.8104C98.2371 15.8104 97.65 16.6448 97.65 18.0647C97.65 19.5138 98.2371 20.3336 99.2883 20.3336C100.34 20.3336 100.94 19.4992 100.94 18.0647ZM103.466 19.4992C103.466 18.3282 104.285 17.6402 105.76 17.5377L107.425 17.4352V16.8644C107.425 16.1764 106.988 15.7812 106.155 15.7812C105.473 15.7812 105.009 16.0446 104.886 16.5131H103.698C103.835 15.3713 104.818 14.654 106.21 14.654C107.753 14.654 108.627 15.4738 108.627 16.8644V21.3729H107.452V20.436H107.357C106.961 21.124 106.265 21.5193 105.514 21.4753C105.256 21.504 104.995 21.4743 104.748 21.3881C104.501 21.3019 104.274 21.1611 104.081 20.9749C103.888 20.7887 103.733 20.5611 103.627 20.3069C103.521 20.0527 103.466 19.7776 103.466 19.4992ZM107.425 18.943V18.3867L105.923 18.4892C105.077 18.5477 104.695 18.8698 104.695 19.4407C104.695 20.0262 105.172 20.3775 105.828 20.3775C106.021 20.3996 106.217 20.3798 106.403 20.319C106.589 20.2583 106.762 20.158 106.911 20.0241C107.06 19.8902 107.182 19.7255 107.271 19.5397C107.359 19.3539 107.412 19.151 107.425 18.943ZM110.224 18.0647C110.224 15.9861 111.22 14.6687 112.777 14.6687C113.555 14.6247 114.292 15.0785 114.661 15.8251H114.743V12.2095H115.972V21.3729H114.797V20.3336H114.702C114.306 21.0655 113.569 21.5046 112.777 21.4753C111.207 21.4753 110.224 20.1579 110.224 18.0647ZM111.48 18.0647C111.48 19.4699 112.094 20.3043 113.118 20.3043C114.142 20.3043 114.77 19.4553 114.77 18.0793C114.77 16.7033 114.128 15.8397 113.118 15.8397C112.094 15.8397 111.48 16.6887 111.48 18.0647ZM120.982 18.0647C120.955 17.6382 121.009 17.2104 121.143 16.8076C121.276 16.4048 121.486 16.0357 121.758 15.7233C122.03 15.4109 122.359 15.1618 122.724 14.9915C123.09 14.8212 123.484 14.7333 123.883 14.7333C124.282 14.7333 124.676 14.8212 125.042 14.9915C125.407 15.1618 125.736 15.4109 126.009 15.7233C126.281 16.0357 126.49 16.4048 126.623 16.8076C126.757 17.2104 126.812 17.6382 126.784 18.0647C126.812 18.4911 126.757 18.919 126.623 19.3218C126.49 19.7246 126.281 20.0936 126.009 20.4061C125.736 20.7185 125.407 20.9676 125.042 21.1379C124.676 21.3082 124.282 21.3961 123.883 21.3961C123.484 21.3961 123.09 21.3082 122.724 21.1379C122.359 20.9676 122.03 20.7185 121.758 20.4061C121.486 20.0936 121.276 19.7246 121.143 19.3218C121.009 18.919 120.955 18.4911 120.982 18.0647ZM125.528 18.0647C125.528 16.6448 124.927 15.8104 123.89 15.8104C122.825 15.8104 122.238 16.6448 122.238 18.0647C122.238 19.5138 122.825 20.3336 123.876 20.3336C124.927 20.3336 125.528 19.4992 125.528 18.0647ZM128.409 14.7858H129.569V15.8251H129.665C129.979 15.0492 130.716 14.5808 131.508 14.654C131.806 14.6308 132.105 14.6797 132.383 14.797C132.66 14.9143 132.91 15.097 133.113 15.3317C133.316 15.5664 133.468 15.847 133.556 16.1528C133.645 16.4586 133.668 16.7818 133.624 17.0986V21.3729H132.423V17.4206C132.423 16.3667 131.986 15.8397 131.085 15.8397C130.882 15.83 130.68 15.8674 130.492 15.9492C130.304 16.0311 130.135 16.1556 129.997 16.3141C129.858 16.4726 129.753 16.6614 129.688 16.8675C129.624 17.0737 129.602 17.2923 129.624 17.5084V21.3729H128.395V14.7858H128.409ZM140.491 13.1317V14.815H141.815V15.8983H140.491V19.2943C140.491 19.9823 140.751 20.2897 141.351 20.2897L141.815 20.2604V21.3436C141.597 21.3875 141.379 21.4021 141.16 21.4021C139.795 21.4021 139.276 20.8898 139.276 19.6309V15.8983H138.293V14.815H139.276V13.1317H140.491ZM143.467 12.2095H144.682V15.8397H144.778C145.106 15.0639 145.857 14.5808 146.648 14.6687C146.945 14.6509 147.242 14.7035 147.517 14.8226C147.792 14.9417 148.04 15.1245 148.242 15.3579C148.444 15.5914 148.596 15.8697 148.686 16.1731C148.776 16.4764 148.803 16.7974 148.765 17.1132V21.3582H147.549V17.4352C147.549 16.3813 147.085 15.8543 146.239 15.8543C146.03 15.8341 145.819 15.8634 145.622 15.9401C145.424 16.0169 145.245 16.1391 145.097 16.2983C144.948 16.4575 144.834 16.6497 144.762 16.8613C144.691 17.073 144.664 17.2989 144.682 17.5231V21.3729H143.467V12.2095ZM155.836 19.587C155.67 20.1881 155.313 20.7077 154.827 21.0554C154.34 21.4031 153.756 21.5569 153.174 21.49C152.77 21.5001 152.369 21.4163 151.998 21.2442C151.627 21.0721 151.295 20.8159 151.025 20.4932C150.755 20.1704 150.554 19.7889 150.434 19.3747C150.315 18.9605 150.281 18.5236 150.335 18.094C150.282 17.6622 150.316 17.2234 150.435 16.8071C150.554 16.3908 150.755 16.0067 151.024 15.6806C151.293 15.3546 151.624 15.0943 151.995 14.9172C152.366 14.7401 152.768 14.6503 153.174 14.654C154.881 14.654 155.905 15.8983 155.905 17.9769V18.416H151.577V18.5038C151.558 18.7458 151.586 18.9894 151.66 19.219C151.734 19.4485 151.852 19.6589 152.006 19.8368C152.161 20.0146 152.348 20.1558 152.556 20.2515C152.764 20.3471 152.989 20.395 153.215 20.3921C153.802 20.4653 154.376 20.1433 154.676 19.587H155.836ZM151.577 17.4645H154.676C154.691 17.2441 154.663 17.0227 154.595 16.8144C154.526 16.6061 154.417 16.4154 154.276 16.2544C154.135 16.0934 153.964 15.9656 153.774 15.8791C153.585 15.7926 153.38 15.7492 153.174 15.7519C152.963 15.7479 152.754 15.7895 152.559 15.8742C152.363 15.9588 152.186 16.0848 152.037 16.2447C151.887 16.4045 151.77 16.5949 151.691 16.8045C151.612 17.014 151.573 17.2385 151.577 17.4645Z" fill="white"/>
</svg>
