<svg width="186" height="59" viewBox="0 0 186 59" fill="none" xmlns="http://www.w3.org/2000/svg">
<path fill-rule="evenodd" clip-rule="evenodd" d="M10.568 0.00512695H175.216C178.874 0.00512695 180.199 0.414991 181.537 1.17617C182.857 1.92505 183.937 3.0829 184.636 4.499C185.346 5.93352 185.728 7.35341 185.728 11.2618V47.3006C185.728 51.2089 185.346 52.6288 184.636 54.0633C183.937 55.4794 182.857 56.6373 181.537 57.3862C180.199 58.1473 178.874 58.5572 175.229 58.5572H10.5543C6.90916 58.5572 5.58488 58.1473 4.24694 57.3862C2.92619 56.6373 1.84631 55.4794 1.14785 54.0633C0.437931 52.6288 0.0556641 51.2089 0.0556641 47.3006V11.2618C0.0556641 7.35341 0.437931 5.93352 1.14785 4.499C1.84631 3.0829 2.92619 1.92505 4.24694 1.17617C5.58488 0.414991 6.90916 0.00512695 10.5543 0.00512695H10.568Z" fill="black"/>
<path fill-rule="evenodd" clip-rule="evenodd" d="M21.5713 43.5826L21.7351 43.6265C21.6797 43.6156 21.625 43.6009 21.5713 43.5826ZM44.9168 26.8953C45.5312 27.2612 45.9134 27.7443 46.0363 28.242L46.0636 28.4323C46.009 28.9885 45.6131 29.5447 44.9032 29.9692L23.3324 43.0995C22.8955 43.3777 22.4723 43.4948 22.1037 43.4948C21.7214 43.4948 21.3938 43.363 21.1207 43.1142L21.0388 43.0264C20.681 42.5636 20.5004 41.9723 20.5337 41.3723V15.4922C20.5337 14.7018 20.7521 14.1016 21.1207 13.7357C21.3938 13.4868 21.7214 13.3551 22.1037 13.3551C22.4723 13.3551 22.8955 13.4868 23.3324 13.7503L44.9032 26.8953H44.9168ZM147.419 42.9824H149.958V24.6849H147.419V42.9824ZM170.355 31.272L167.433 39.2058H167.351L164.32 31.272H161.576L166.123 42.3676L163.529 48.5303H166.191L173.195 31.272H170.355ZM155.911 40.9038C155.078 40.9038 153.917 40.4647 153.917 39.3522C153.917 37.9323 155.365 37.3907 156.607 37.3907C157.74 37.3907 158.259 37.6542 158.941 38.0055C158.849 38.8001 158.491 39.5317 157.933 40.0647C157.376 40.5977 156.657 40.8958 155.911 40.9038ZM156.225 30.8768C154.368 30.8768 152.47 31.7551 151.678 33.6727L153.931 34.6973C154.422 33.6727 155.324 33.3506 156.252 33.3506C157.576 33.3506 158.914 34.185 158.941 35.6927V35.883C158.121 35.4175 157.207 35.1762 156.279 35.1804C153.849 35.1804 151.364 36.6149 151.364 39.2937C151.364 41.7528 153.371 43.3337 155.597 43.3337C157.317 43.3337 158.259 42.4994 158.86 41.5333H158.941V42.9532H161.399V35.9269C161.399 32.6919 159.133 30.8768 156.211 30.8768H156.225ZM140.47 33.5116H136.852V27.2173H140.47C142.381 27.2173 143.473 28.9153 143.473 30.3645C143.473 31.7844 142.381 33.497 140.47 33.497V33.5116ZM140.415 24.6849H134.299V42.9824H136.852V36.044H140.402C143.228 36.044 145.999 33.8483 145.999 30.3645C145.999 26.8806 143.228 24.6849 140.402 24.6849H140.415ZM107.117 40.9038C105.37 40.9038 103.895 39.3229 103.895 37.1565C103.895 34.9608 105.37 33.3506 107.117 33.3506C108.865 33.3506 110.23 34.9608 110.23 37.1565C110.23 39.3229 108.865 40.9038 107.117 40.9038ZM110.052 32.2967H109.957C109.569 31.8451 109.095 31.4874 108.568 31.2476C108.04 31.0078 107.471 30.8914 106.899 30.9061C105.396 30.967 103.974 31.6542 102.936 32.8214C101.899 33.9887 101.327 35.544 101.342 37.1565C101.331 38.7636 101.905 40.312 102.943 41.4714C103.981 42.6308 105.4 43.3096 106.899 43.363C107.474 43.3789 108.046 43.2601 108.574 43.0149C109.102 42.7697 109.574 42.4039 109.957 41.9431H110.052V42.8361C110.052 45.2221 108.865 46.4956 106.953 46.4956C106.314 46.4825 105.694 46.2651 105.171 45.8713C104.648 45.4775 104.246 44.9252 104.018 44.2852L101.806 45.266C102.223 46.3612 102.936 47.2978 103.853 47.9551C104.77 48.6125 105.85 48.9606 106.953 48.9548C109.943 48.9548 112.469 47.0518 112.469 42.4701V31.2867H110.052V32.3113V32.2967ZM114.23 42.9824H116.783V24.6849H114.23V42.9824ZM120.537 36.9369C120.51 36.4842 120.566 36.03 120.705 35.6011C120.843 35.1722 121.059 34.7772 121.341 34.4391C121.624 34.101 121.966 33.8267 122.348 33.6323C122.731 33.4379 123.145 33.3272 123.568 33.3067C124.592 33.3067 125.452 33.8483 125.725 34.6241L120.537 36.9516V36.9369ZM128.456 34.873C127.978 33.4824 126.503 30.9207 123.486 30.9207C120.496 30.9207 118.012 33.4238 118.012 37.1272C118.012 40.6257 120.469 43.363 123.773 43.363C126.435 43.363 127.978 41.6065 128.62 40.5964L126.64 39.1912C126.342 39.7187 125.92 40.154 125.418 40.4543C124.915 40.7545 124.348 40.9095 123.773 40.9038C122.476 40.9038 121.548 40.2744 120.961 39.0155L128.729 35.5756L128.456 34.873ZM66.6104 32.8237V35.4585H72.4946C72.4097 36.6959 71.9384 37.8665 71.1567 38.7813C70.5651 39.4276 69.8535 39.9335 69.068 40.2664C68.2825 40.5992 67.4406 40.7516 66.5968 40.7135C65.7412 40.7117 64.8944 40.5279 64.1055 40.1729C63.3166 39.8179 62.6011 39.2986 62.0006 38.6452C61.4 37.9918 60.9263 37.2171 60.6068 36.3661C60.2873 35.5151 60.1284 34.6046 60.1392 33.6873C60.1231 32.3252 60.4813 30.9882 61.1692 29.843C61.857 28.6977 62.844 27.7949 64.0072 27.247C65.1703 26.6992 66.4582 26.5305 67.7101 26.7621C68.9621 26.9937 70.1228 27.6153 71.0475 28.5494L72.7813 26.6903C71.9676 25.8274 71.0015 25.1473 69.9395 24.6899C68.8775 24.2324 67.7411 24.0068 66.5968 24.0262C64.1943 24.0259 61.8881 25.0391 60.1766 26.8468C58.4651 28.6545 57.4856 31.1117 57.4497 33.6873C57.4856 36.263 58.4651 38.7201 60.1766 40.5278C61.8881 42.3355 64.1943 43.3487 66.5968 43.3484C69.2863 43.3484 71.3069 42.4116 72.8905 40.6404C74.3259 38.9587 75.0903 36.7415 75.0203 34.4631C75.0203 33.8483 74.9793 33.2921 74.8838 32.8237H66.5968H66.6104ZM81.7236 40.9038C79.9625 40.9038 78.447 39.3522 78.447 37.1272C78.447 34.8876 79.9625 33.3653 81.7236 33.3653C83.4984 33.3653 85.0002 34.8876 85.0002 37.1272C85.0002 39.3522 83.4984 40.9038 81.7236 40.9038ZM81.7236 30.9061C80.9568 30.8923 80.1953 31.0436 79.484 31.351C78.7727 31.6584 78.1262 32.1157 77.5826 32.6957C77.0391 33.2758 76.6096 33.9668 76.3195 34.728C76.0295 35.4892 75.8848 36.305 75.894 37.1272C75.883 37.9507 76.0263 38.7681 76.3155 39.531C76.6047 40.2938 77.0339 40.9867 77.5777 41.5683C78.1214 42.1499 78.7686 42.6085 79.4808 42.9168C80.193 43.2251 80.9557 43.3768 81.7236 43.363C82.4916 43.3768 83.2543 43.2251 83.9665 42.9168C84.6787 42.6085 85.3258 42.1499 85.8696 41.5683C86.4133 40.9867 86.8425 40.2938 87.1317 39.531C87.4209 38.7681 87.5643 37.9507 87.5532 37.1272C87.5624 36.305 87.4177 35.4892 87.1277 34.728C86.8377 33.9668 86.4082 33.2758 85.8646 32.6957C85.3211 32.1157 84.6745 31.6584 83.9632 31.351C83.252 31.0436 82.4904 30.8923 81.7236 30.9061ZM94.4476 40.9038C92.6728 40.9038 91.1711 39.3522 91.1711 37.1272C91.1711 34.8876 92.6728 33.3653 94.4476 33.3653C96.1951 33.3653 97.7242 34.8876 97.7242 37.1272C97.7242 39.3522 96.1951 40.9038 94.4476 40.9038ZM94.4476 30.9061C93.6808 30.8923 92.9193 31.0436 92.208 31.351C91.4967 31.6584 90.8502 32.1157 90.3066 32.6957C89.7631 33.2758 89.3336 33.9668 89.0435 34.728C88.7535 35.4892 88.6088 36.305 88.6181 37.1272C88.607 37.9507 88.7503 38.7681 89.0395 39.531C89.3287 40.2938 89.7579 40.9867 90.3017 41.5683C90.8454 42.1499 91.4926 42.6085 92.2048 42.9168C92.917 43.2251 93.6797 43.3768 94.4476 43.363C95.2156 43.3768 95.9783 43.2251 96.6905 42.9168C97.4027 42.6085 98.0499 42.1499 98.5936 41.5683C99.1373 40.9867 99.5665 40.2938 99.8557 39.531C100.145 38.7681 100.288 37.9507 100.277 37.1272C100.286 36.305 100.142 35.4892 99.8517 34.728C99.5617 33.9668 99.1322 33.2758 98.5886 32.6957C98.0451 32.1157 97.3985 31.6584 96.6873 31.351C95.976 31.0436 95.2144 30.8923 94.4476 30.9061Z" fill="white"/>
<path fill-rule="evenodd" clip-rule="evenodd" d="M64.9728 14.8335C64.9728 15.9314 64.6724 16.8096 64.0581 17.4683C63.3754 18.2442 62.4607 18.6394 61.3549 18.6394C60.29 18.6394 59.3753 18.2442 58.6244 17.4537C58.2636 17.0724 57.9793 16.616 57.7891 16.1125C57.599 15.609 57.5069 15.0692 57.5186 14.5261C57.5186 13.3551 57.8872 12.3597 58.6381 11.5692C59.3753 10.7788 60.2763 10.3835 61.3549 10.3835C61.8737 10.3835 62.3788 10.5006 62.8566 10.7202C63.3481 10.9398 63.7304 11.2325 64.0171 11.5985L63.3618 12.2865C63.1155 11.9773 62.8068 11.7322 62.4591 11.5699C62.1114 11.4076 61.7338 11.3323 61.3549 11.3497C60.5767 11.3497 59.9077 11.6424 59.3343 12.2279C58.7746 12.8135 58.4879 13.5746 58.4879 14.5115C58.4879 15.4483 58.7609 16.2095 59.3343 16.795C59.9077 17.3805 60.563 17.6733 61.3549 17.6733C62.174 17.6733 62.8566 17.3805 63.4027 16.795C63.7577 16.3998 63.9761 15.8728 64.0308 15.1848H61.3549V14.2333H64.9182C64.9591 14.4383 64.9728 14.6432 64.9728 14.8189" fill="white"/>
<path fill-rule="evenodd" clip-rule="evenodd" d="M64.9722 14.8335H64.8493C64.8493 15.9167 64.549 16.7364 63.9756 17.3805C63.293 18.127 62.4329 18.5076 61.3543 18.5076C60.3168 18.5076 59.443 18.127 58.7194 17.3658C58.3654 16.9958 58.0868 16.5511 57.9012 16.0598C57.7156 15.5685 57.6269 15.0413 57.6409 14.5114C57.6409 13.3697 57.9959 12.4328 58.7331 11.657C59.0746 11.2856 59.4832 10.9928 59.9339 10.7964C60.3846 10.6001 60.868 10.5044 61.3543 10.5153C61.8595 10.5153 62.351 10.6177 62.8151 10.8373C63.2793 11.0569 63.6343 11.335 63.921 11.6863L64.0166 11.5985L63.921 11.5106L63.2793 12.1986L63.3612 12.2865L63.4568 12.2133C62.9517 11.5546 62.2281 11.2179 61.3543 11.2179C60.5352 11.2179 59.8389 11.5253 59.2519 12.1401C58.6648 12.7402 58.3645 13.5453 58.3645 14.5114C58.3645 15.4775 58.6648 16.268 59.2519 16.8828C59.8389 17.4976 60.5488 17.805 61.3543 17.805C62.2008 17.805 62.9244 17.4976 63.4978 16.8828C63.88 16.4729 64.0985 15.902 64.1531 15.1994V15.053H61.4909V14.3651H64.9313V14.2333L64.8084 14.2626C64.8493 14.4529 64.863 14.6432 64.863 14.8335H65.1087C65.1087 14.6285 65.0951 14.4236 65.0541 14.2187L65.0405 14.1016H61.2178V15.3165H64.0166V15.1848H63.88C63.8391 15.8435 63.6343 16.3412 63.3066 16.6925C62.7742 17.2634 62.1325 17.5415 61.3407 17.5415C60.5898 17.5415 59.9481 17.2487 59.402 16.6925C58.856 16.1363 58.5829 15.419 58.5829 14.5114C58.5829 13.6039 58.856 12.9013 59.402 12.3157C59.9481 11.7595 60.5898 11.4814 61.3407 11.4814C62.1598 11.4814 62.7878 11.7741 63.252 12.3743L63.3476 12.4914L64.0848 11.6863L64.1667 11.6131L64.0985 11.5106C63.7714 11.106 63.3597 10.79 62.8971 10.5884C62.4091 10.3662 61.8845 10.2517 61.3543 10.2518C60.2621 10.2518 59.3065 10.6616 58.5556 11.4814C58.18 11.872 57.8831 12.3413 57.6835 12.86C57.4839 13.3787 57.3858 13.9358 57.3951 14.4968C57.3951 15.6971 57.7774 16.7218 58.5556 17.5415C58.9207 17.9372 59.3572 18.2489 59.8383 18.4578C60.3195 18.6667 60.8353 18.7683 61.3543 18.7565C62.4875 18.7565 63.4295 18.3466 64.1394 17.5415L64.0575 17.4537L64.1394 17.5561C64.7811 16.8682 65.0951 15.946 65.0951 14.8188H64.9722V14.8335ZM70.638 11.5253H67.2795V14.043H70.3103V14.9798H67.2795V17.4976H70.638V18.4637H66.3375V10.5592H70.638V11.5253Z" fill="white"/>
<path fill-rule="evenodd" clip-rule="evenodd" d="M70.6387 11.5253V11.3936H67.1573V14.1748H70.1882V14.8482H67.1573V17.6294H70.5158V18.332H66.4611V10.691H70.5158V11.5253H70.6387V11.3936V11.54H70.7616V10.4275H66.2153V18.5955H70.7616V17.3659H67.4031V15.1117H70.4339V13.9113H67.4031V11.6571H70.7616V11.5253H70.6251H70.6387ZM74.6252 18.4638H73.6832V11.5253H71.6353V10.5592H76.6867V11.5253H74.6389V18.4638" fill="white"/>
<path fill-rule="evenodd" clip-rule="evenodd" d="M74.6244 18.4638V18.332H73.8053V11.3936H71.7574V10.691H76.5631V11.3936H74.5152V18.4638H74.6244V18.332V18.4784H74.761V11.6571H76.8088V10.4275H71.498V11.6571H73.5596V18.5955H74.7473V18.4638H74.6244ZM80.3584 18.4638H81.3141V10.5592H80.3584V18.4638Z" fill="white"/>
<path fill-rule="evenodd" clip-rule="evenodd" d="M80.3592 18.4638H80.4821V10.7056H81.1783V18.332H80.3592V18.4784H80.4821H80.3455V18.5955H81.4377V10.4275H80.2363V18.5955H80.3592V18.4638ZM85.5061 18.4638H84.5505V11.5253H82.5026V10.5592H87.554V11.5253H85.5061V18.4638Z" fill="white"/>
<path fill-rule="evenodd" clip-rule="evenodd" d="M85.5058 18.4638V18.3321H84.6866V11.3937H82.6251V10.6911H87.4308V11.3937H85.3829V18.4638H85.5058V18.3321V18.4785H85.6287V11.6572H87.6765V10.4276H82.3794V11.6572H84.4273V18.5956H85.6287V18.4638H85.4921H85.5058ZM92.4412 16.7805C92.9873 17.366 93.6699 17.6588 94.4481 17.6588C95.2399 17.6588 95.9089 17.366 96.455 16.7805C97.0011 16.195 97.2742 15.4338 97.2742 14.5116C97.2742 13.5894 97.0011 12.8428 96.455 12.2427C95.9089 11.6572 95.2399 11.3644 94.4481 11.3644C93.6563 11.3644 92.9873 11.6572 92.4412 12.2427C91.8951 12.8282 91.6221 13.5894 91.6221 14.5116C91.6221 15.4338 91.8951 16.195 92.4412 16.7805ZM97.1513 17.4392C96.4277 18.2443 95.5266 18.6395 94.4481 18.6395C93.3696 18.6395 92.4685 18.2443 91.7449 17.4392C91.3891 17.0546 91.1091 16.5973 90.9215 16.0943C90.7338 15.5914 90.6425 15.0531 90.6527 14.5116C90.6418 13.9712 90.732 13.434 90.9182 12.9317C91.1044 12.4294 91.3826 11.9722 91.7365 11.5873C92.0904 11.2024 92.5128 10.8976 92.9785 10.6908C93.4443 10.4841 93.944 10.3796 94.4481 10.3837C94.9522 10.3796 95.4519 10.4841 95.9177 10.6908C96.3834 10.8976 96.8058 11.2024 97.1597 11.5873C97.5136 11.9722 97.7919 12.4294 97.978 12.9317C98.1642 13.434 98.2544 13.9712 98.2435 14.5116C98.2435 15.668 97.8749 16.6487 97.1513 17.4392Z" fill="white"/>
<path fill-rule="evenodd" clip-rule="evenodd" d="M92.4415 16.7804L92.3596 16.8682C92.933 17.483 93.6293 17.805 94.4484 17.805C95.2676 17.805 95.9775 17.483 96.5372 16.8682C97.1106 16.2534 97.3973 15.463 97.3973 14.5261C97.3973 13.56 97.1106 12.7696 96.5372 12.1548C96.2681 11.8526 95.9436 11.6135 95.5842 11.4522C95.2247 11.291 94.838 11.2112 94.4484 11.2179C93.6293 11.2179 92.933 11.54 92.3596 12.1548C92.0752 12.465 91.8524 12.8337 91.7046 13.2387C91.5568 13.6438 91.487 14.0767 91.4995 14.5115C91.4995 15.463 91.7862 16.268 92.3596 16.8682L92.5371 16.6925C92.2736 16.4059 92.0675 16.0646 91.9313 15.6896C91.7952 15.3146 91.7319 14.9137 91.7452 14.5115C91.7452 13.6332 92.0183 12.9013 92.5371 12.3304C92.7843 12.0559 93.0816 11.8388 93.4104 11.6928C93.7392 11.5467 94.0925 11.4748 94.4484 11.4814C95.213 11.4814 95.841 11.7742 96.3598 12.3304C96.8922 12.9159 97.1516 13.6186 97.1516 14.5261C97.1516 15.4044 96.8785 16.1217 96.3598 16.6925C95.841 17.2634 95.213 17.5416 94.4484 17.5416C94.0925 17.5482 93.7392 17.4763 93.4104 17.3302C93.0816 17.1841 92.7843 16.9671 92.5371 16.6925L92.4415 16.7804ZM97.1516 17.4391L97.0697 17.3513C96.3598 18.1271 95.4997 18.5077 94.4484 18.5223C93.9616 18.5244 93.4793 18.4219 93.0301 18.2209C92.5808 18.0199 92.1736 17.7244 91.8326 17.3519C91.4916 16.9795 91.2236 16.5375 91.0444 16.0522C90.8653 15.5668 90.7786 15.0479 90.7896 14.5261C90.7768 14.0031 90.8621 13.4826 91.0404 12.9956C91.2187 12.5085 91.4864 12.0648 91.8276 11.6908C92.1688 11.3167 92.5766 11.0199 93.0268 10.818C93.477 10.6161 93.9604 10.5132 94.4484 10.5153C95.4997 10.5153 96.3598 10.8959 97.056 11.6863C97.766 12.4622 98.1209 13.399 98.1209 14.5115C98.1209 15.6386 97.7659 16.5754 97.0697 17.3513L97.2472 17.5416C97.9844 16.7218 98.3667 15.6972 98.3667 14.5115C98.3776 13.9538 98.2842 13.3994 98.0918 12.8812C97.8995 12.3629 97.6122 11.8912 97.2469 11.4941C96.8816 11.097 96.4457 10.7824 95.965 10.569C95.4843 10.3556 94.9686 10.2478 94.4484 10.2518C93.9293 10.2497 93.4151 10.359 92.936 10.5733C92.457 10.7876 92.0227 11.1024 91.6589 11.4994C91.295 11.8963 91.0089 12.3673 90.8174 12.8846C90.6259 13.4019 90.5329 13.955 90.5438 14.5115C90.5438 15.6972 90.9124 16.7072 91.6633 17.5416C92.4006 18.3613 93.3426 18.7711 94.4484 18.7711C95.5543 18.7711 96.4963 18.3613 97.2472 17.5416L97.1516 17.4391ZM99.5817 18.4637V10.5592H100.729L104.305 16.7072H104.346L104.305 15.1848V10.5592H105.261V18.4637H104.264L100.51 12.023H100.469L100.51 13.5454V18.4637H99.5681" fill="white"/>
<path fill-rule="evenodd" clip-rule="evenodd" d="M99.5813 18.4638H99.6906V10.7056H100.646L104.237 16.8536H104.469L104.428 15.1848V10.691H105.124V18.332H104.332L100.578 11.8913H100.346L100.387 13.5454V18.332H99.5677V18.4784H99.7042H99.5677V18.5955H100.633V13.5454L100.592 12.0084H100.469V12.1548H100.51V12.0084L100.414 12.0816L104.196 18.5955H105.37V10.4275H104.182V15.1848L104.223 16.7072H104.346V16.5755H104.305V16.7218L104.414 16.634L100.796 10.4275H99.4448V18.5955H99.5813V18.4638Z" fill="white"/>
</svg>
