<svg width="379" height="303" viewBox="0 0 379 303" fill="none" xmlns="http://www.w3.org/2000/svg">
<path d="M378.804 302.558C378.804 302.67 294.203 302.766 189.872 302.766C85.5414 302.766 0.924316 302.67 0.924316 302.558C0.924316 302.446 85.5013 302.342 189.872 302.342C294.243 302.342 378.804 302.438 378.804 302.558Z" fill="#263238"/>
<path d="M23.6646 35.8183L57.505 228.304L200.203 206.051L206.817 190.177L168.209 12.1941L34.4524 20.1193L23.6646 35.8183Z" fill="#E0E0E0"/>
<path opacity="0.3" d="M57.505 228.304L67.6427 212.876L33.8022 20.3823L23.6646 35.8182L57.505 228.304Z" fill="black"/>
<path d="M33.8018 20.383L67.6422 212.877L206.816 190.177L171.652 0.856934L33.8018 20.383Z" fill="#FAFAFA"/>
<path d="M33.8018 20.3902L171.628 0.696777H171.796V0.856236C181.661 53.7256 193.878 119.256 207.025 190.137L207.065 190.352L206.849 190.392L204.553 190.767L67.6743 213.091H67.4817V212.9C47.5755 99.212 34.0987 22.0805 33.8018 20.3902C34.0987 22.0885 47.7361 99.1881 67.8348 212.844L67.6101 212.693L204.481 190.368L206.776 189.993L206.6 190.24C193.452 119.352 181.3 53.8213 171.483 0.912047L171.676 1.04759L33.8018 20.3902Z" fill="#263238"/>
<path d="M145.388 111.542C147.114 98.6438 137.986 86.7977 125.001 85.0836C112.015 83.3694 100.09 92.4362 98.3639 105.335C96.6382 118.234 105.766 130.08 118.751 131.794C131.737 133.508 143.662 124.441 145.388 111.542Z" fill="#00A79D"/>
<path d="M110.994 114.616L109.918 107.831L133.573 104.108L134.584 110.486C134.584 110.486 133.139 115.972 123.571 117.471C114.004 118.969 110.994 114.616 110.994 114.616Z" fill="white"/>
<path d="M106.186 107.871L123.066 110.852L137.706 102.672L120.802 100.017L106.186 107.871Z" fill="white"/>
<path d="M153.414 42.0553L69.5409 55.221C68.5119 55.3825 67.8096 56.342 67.9722 57.3641L68.2553 59.144C68.4179 60.1661 69.3839 60.8637 70.4129 60.7022L154.286 47.5365C155.315 47.375 156.018 46.4154 155.855 45.3933L155.572 43.6135C155.409 42.5914 154.443 41.8937 153.414 42.0553Z" fill="#E0E0E0"/>
<path d="M140.146 55.9138L86.9549 64.2632C85.926 64.4247 85.2236 65.3843 85.3862 66.4064L85.6694 68.1862C85.832 69.2083 86.798 69.906 87.8269 69.7444L141.018 61.395C142.047 61.2335 142.749 60.2739 142.587 59.2518L142.303 57.472C142.141 56.4499 141.175 55.7522 140.146 55.9138Z" fill="#E0E0E0"/>
<path d="M159.304 174.019L106.113 182.368C105.084 182.53 104.382 183.489 104.544 184.511L104.828 186.291C104.99 187.313 105.956 188.011 106.985 187.849L160.176 179.5C161.205 179.338 161.907 178.379 161.745 177.357L161.462 175.577C161.299 174.555 160.333 173.857 159.304 174.019Z" fill="#E0E0E0"/>
<path d="M199.649 195.527L198.974 195.654L196.984 195.997L189.286 197.273L160.703 201.929L64.1424 217.516L63.9337 217.556V217.349C62.5852 209.735 61.1645 201.762 59.7197 193.637C51.9499 149.984 44.9506 110.486 39.8858 81.8706C37.3735 67.5669 35.3427 55.998 33.93 47.993C33.2397 44.0065 32.7019 40.889 32.3247 38.7761C32.1481 37.7237 32.0116 36.9264 31.9153 36.3842C31.819 35.8421 31.7949 35.5869 31.7949 35.5869C31.7949 35.5869 31.8591 35.866 31.9635 36.3842C32.0678 36.9025 32.2123 37.7317 32.405 38.7761C32.7902 40.889 33.3521 43.9905 34.0825 47.9771C35.5193 55.9501 37.5982 67.543 40.1667 81.8307C45.2637 110.438 52.3111 149.937 60.0889 193.581C61.5337 201.698 62.9464 209.679 64.3029 217.293L64.0541 217.118L160.647 201.666L189.246 197.137L196.952 195.933L198.95 195.63L199.649 195.527Z" fill="#263238"/>
<path d="M189.061 202.766L188.427 202.894L186.549 203.221L179.277 204.449L152.243 208.929L60.498 224.014H60.2894V223.815L55.0158 195.375C47.1577 152.321 40.0461 113.372 34.893 85.1635C32.3405 71.0671 30.2696 59.6496 28.8409 51.7563C28.1426 47.8176 27.5887 44.756 27.2355 42.667C27.059 41.6385 26.9145 40.8492 26.8262 40.2751C26.7379 39.701 26.6978 39.4778 26.6978 39.4778C26.6978 39.4778 26.762 39.7409 26.8663 40.2751L27.3238 42.667C27.7091 44.748 28.287 47.8017 29.0255 51.7324L35.206 85.1156C40.3912 113.324 47.551 152.273 55.4573 195.303C57.2392 205.054 58.989 214.598 60.6666 223.775L60.4258 223.608L152.179 208.666L179.228 204.305L186.509 203.149L188.395 202.862L189.061 202.766Z" fill="#263238"/>
<path d="M37.1643 101.899L34.0259 106.3L41.6432 151.659L46.1782 153.19L37.1643 101.899Z" fill="#263238"/>
<path d="M58.9 98.1218L37.1719 101.893L46.1924 153.18L67.9206 149.409L58.9 98.1218Z" fill="#263238"/>
<path d="M59.5916 96.1326L58.1762 96.378C57.3683 96.5181 56.8277 97.2822 56.9687 98.0846L66.0961 150.033C66.2371 150.836 67.0063 151.373 67.8142 151.233L69.2296 150.987C70.0375 150.847 70.5781 150.083 70.4371 149.281L61.3097 97.3321C61.1687 96.5296 60.3995 95.9926 59.5916 96.1326Z" fill="#263238"/>
<path d="M33.4087 139.006C31.0011 138.996 28.6782 138.121 26.8694 136.543C25.0605 134.964 23.8879 132.789 23.568 130.419C23.292 128.393 23.6545 126.333 24.6057 124.521C25.557 122.709 27.0501 121.234 28.8798 120.3C30.7094 119.365 32.7856 119.017 34.8228 119.303C36.8599 119.588 38.7579 120.494 40.2555 121.895L53.8205 114.241C54.0802 114.095 54.3714 114.013 54.6697 114.002C54.9679 113.991 55.2645 114.051 55.5344 114.178C55.8043 114.304 56.0396 114.493 56.2204 114.729C56.4013 114.965 56.5225 115.241 56.5737 115.533L59.7844 133.783C59.8372 134.074 59.819 134.372 59.7314 134.654C59.6437 134.936 59.4891 135.193 59.2806 135.403C59.0722 135.614 58.8159 135.771 58.5334 135.862C58.2508 135.954 57.9504 135.976 57.6573 135.928L42.3424 133.536C41.5133 135.184 40.2382 136.571 38.6603 137.54C37.0823 138.509 35.2638 139.022 33.4087 139.021V139.006ZM33.4087 120.819C33.0057 120.816 32.6031 120.846 32.2047 120.907C30.0454 121.255 28.1048 122.418 26.7874 124.153C25.47 125.888 24.8774 128.061 25.1332 130.219C25.3764 132.024 26.2108 133.699 27.5078 134.986C28.8048 136.273 30.4922 137.1 32.3094 137.339C34.1266 137.579 35.9727 137.217 37.5626 136.311C39.1525 135.405 40.3978 134.004 41.1063 132.324L41.3471 131.75L57.9141 134.405C57.9534 134.413 57.9942 134.411 58.0324 134.399C58.0705 134.386 58.1045 134.363 58.1309 134.333C58.1593 134.306 58.1807 134.272 58.1933 134.234C58.2059 134.197 58.2092 134.157 58.2031 134.118L54.9924 115.86C54.9847 115.82 54.9676 115.783 54.9425 115.751C54.9174 115.719 54.885 115.693 54.848 115.676C54.8119 115.658 54.772 115.649 54.7316 115.649C54.6911 115.649 54.6512 115.658 54.6152 115.676L39.9665 123.905L39.5331 123.45C38.7484 122.627 37.8024 121.971 36.7534 121.524C35.7043 121.077 34.5743 120.848 33.4328 120.851L33.4087 120.819Z" fill="#455A64"/>
<path d="M65.9967 149.354C65.9434 149.188 65.9058 149.017 65.8843 148.844C65.8121 148.461 65.7238 147.975 65.6034 147.377C65.3626 146.046 65.0254 144.188 64.6081 141.955C63.8054 137.339 62.6496 131.04 61.3974 124.08C60.1452 117.119 59.0777 110.805 58.275 106.172C57.8978 103.924 57.5928 102.082 57.376 100.743C57.2797 100.137 57.2075 99.6424 57.1513 99.2597C57.1137 99.0896 57.0975 98.9155 57.1031 98.7415C57.1577 98.9057 57.2006 99.0735 57.2316 99.2438C57.3118 99.6265 57.4162 100.113 57.5366 100.711C57.7934 102.042 58.1466 103.9 58.572 106.125C59.4309 110.693 60.5787 117.016 61.7827 124C62.9867 130.985 64.1104 137.323 64.8649 141.908C65.2502 144.204 65.5392 146.062 65.7318 147.345C65.8201 147.991 65.9004 148.485 65.9325 148.836C65.9753 149.006 65.9968 149.18 65.9967 149.354Z" fill="#455A64"/>
<path d="M45.7447 153.365C45.6971 153.194 45.6596 153.021 45.6324 152.847C45.5601 152.472 45.4718 151.986 45.3595 151.38C45.1106 150.048 44.7735 148.19 44.3561 145.966C43.5535 141.342 42.3976 135.043 41.1455 128.082C39.8933 121.122 38.8338 114.807 38.0231 110.183C37.6458 107.926 37.3408 106.085 37.1241 104.753C37.0278 104.139 36.9556 103.653 36.8994 103.27C36.8617 103.097 36.8455 102.921 36.8512 102.744C36.912 102.91 36.9577 103.08 36.9877 103.254C37.0599 103.637 37.1642 104.123 37.2846 104.721C37.5415 106.053 37.8947 107.91 38.3201 110.127C39.1789 114.704 40.3267 121.018 41.5307 128.011C42.7347 135.003 43.8585 141.326 44.621 145.91C44.9983 148.206 45.2953 150.064 45.4799 151.356C45.5682 152.002 45.6484 152.496 45.6805 152.839C45.7234 153.011 45.7449 153.188 45.7447 153.365Z" fill="#455A64"/>
<path d="M137.691 102.672C137.341 102.938 136.971 103.175 136.583 103.382L133.485 105.192C130.852 106.707 127.2 108.772 123.154 111.036L123.082 111.076H123.01H122.841C118.226 110.279 114.012 109.481 111.042 108.931L107.47 108.238C107.028 108.17 106.593 108.063 106.17 107.919C106.617 107.939 107.062 107.989 107.502 108.07L111.09 108.636C114.124 109.131 118.314 109.848 122.922 110.661H123.082H122.938C126.991 108.405 130.667 106.38 133.372 104.929L136.543 103.238C136.907 103.015 137.291 102.825 137.691 102.672Z" fill="#263238"/>
<path d="M87.2794 39.4706L86.8757 36.9891L98.5713 35.1115L98.975 37.593L94.6153 38.2929L96.5277 50.0471L93.5517 50.5249L91.6392 38.7707L87.2794 39.4706ZM102.814 49.038L100.497 34.8023L103.508 34.319L104.464 40.1926L110.576 39.2114L109.62 33.3378L112.624 32.8555L114.94 47.0912L111.936 47.5734L110.98 41.6929L104.868 42.6741L105.824 48.5547L102.814 49.038ZM117.423 46.6927L115.106 32.457L124.702 30.9166L125.106 33.3981L118.521 34.4552L119.073 37.8473L125.164 36.8694L125.568 39.3509L119.477 40.3288L120.03 43.7278L126.642 42.6663L127.046 45.1478L117.423 46.6927ZM99.6636 63.4445C99.5167 62.8927 99.2071 62.4955 98.7348 62.2527C98.2624 62.0099 97.6647 61.9466 96.9415 62.0627C96.4501 62.1416 96.0466 62.2777 95.7308 62.471C95.4142 62.6598 95.1852 62.8891 95.0436 63.1591C94.9067 63.4283 94.8631 63.7159 94.9128 64.0217C94.945 64.2781 95.0345 64.492 95.1813 64.6634C95.3328 64.834 95.5241 64.9721 95.7553 65.0776C95.9858 65.1785 96.2461 65.258 96.5361 65.316C96.8255 65.3694 97.1311 65.406 97.453 65.4256L98.7822 65.5261C99.426 65.5654 100.026 65.6592 100.583 65.8075C101.14 65.9559 101.636 66.1687 102.071 66.446C102.506 66.7232 102.866 67.0745 103.149 67.4998C103.437 67.9243 103.631 68.4328 103.732 69.0252C103.869 69.8971 103.77 70.6882 103.434 71.3984C103.101 72.1032 102.551 72.6979 101.783 73.1826C101.019 73.6618 100.058 73.9945 98.8988 74.1805C97.7492 74.3651 96.7193 74.3498 95.809 74.1345C94.9034 73.9185 94.1557 73.5036 93.5659 72.8898C92.98 72.2706 92.5921 71.4508 92.4023 70.4304L95.3158 69.9627C95.4259 70.4348 95.6275 70.8113 95.9205 71.0924C96.2175 71.3681 96.5831 71.5542 97.0175 71.6509C97.4557 71.7423 97.9344 71.7463 98.4535 71.6629C98.9635 71.581 99.3941 71.4358 99.7454 71.2273C100.101 71.018 100.362 70.7645 100.528 70.4669C100.693 70.1692 100.748 69.849 100.693 69.506C100.641 69.1863 100.502 68.9328 100.276 68.7455C100.055 68.5575 99.7518 68.416 99.3654 68.3211C98.9835 68.2255 98.5229 68.1568 97.9833 68.115L96.3694 67.9747C95.1213 67.8755 94.099 67.5713 93.3027 67.0619C92.5063 66.5526 92.0248 65.7716 91.8583 64.7189C91.7135 63.8578 91.8204 63.0679 92.1792 62.3493C92.5425 61.6301 93.1028 61.0242 93.8598 60.5318C94.6169 60.0393 95.5146 59.7098 96.553 59.5431C97.6099 59.3734 98.5618 59.406 99.4086 59.641C100.26 59.8752 100.958 60.279 101.504 60.8524C102.049 61.4259 102.397 62.1355 102.549 62.9813L99.6636 63.4445ZM107.114 58.0474L109.43 72.2831L106.419 72.7664L104.103 58.5307L107.114 58.0474ZM117.982 60.5037C117.835 59.9519 117.526 59.5546 117.053 59.3119C116.581 59.0691 115.983 59.0058 115.26 59.1219C114.769 59.2008 114.365 59.3369 114.049 59.5302C113.733 59.7189 113.504 59.9483 113.362 60.2183C113.225 60.4875 113.182 60.7751 113.232 61.0809C113.264 61.3373 113.353 61.5511 113.5 61.7225C113.651 61.8932 113.843 62.0313 114.074 62.1368C114.304 62.2377 114.565 62.3172 114.855 62.3752C115.144 62.4286 115.45 62.4651 115.772 62.4848L117.101 62.5852C117.745 62.6245 118.345 62.7184 118.902 62.8667C119.459 63.0151 119.955 63.2279 120.39 63.5051C120.825 63.7824 121.184 64.1337 121.468 64.5589C121.755 64.9835 121.95 65.4919 122.051 66.0844C122.188 66.9563 122.089 67.7474 121.752 68.4575C121.42 69.1624 120.87 69.7571 120.102 70.2417C119.338 70.721 118.376 71.0537 117.218 71.2397C116.068 71.4243 115.038 71.4089 114.128 71.1937C113.222 70.9777 112.474 70.5628 111.885 69.9489C111.299 69.3298 110.911 68.51 110.721 67.4896L113.634 67.0218C113.745 67.4939 113.946 67.8705 114.239 68.1516C114.536 68.4272 114.902 68.6134 115.336 68.7101C115.774 68.8014 116.253 68.8054 116.772 68.7221C117.282 68.6402 117.713 68.495 118.064 68.2864C118.42 68.0771 118.681 67.8237 118.847 67.526C119.012 67.2284 119.067 66.9081 119.011 66.5652C118.959 66.2455 118.821 65.992 118.595 65.8047C118.374 65.6166 118.071 65.4752 117.684 65.3803C117.302 65.2847 116.842 65.216 116.302 65.1742L114.688 65.0339C113.44 64.9347 112.418 64.6304 111.621 64.1211C110.825 63.6118 110.344 62.8308 110.177 61.7781C110.032 60.9169 110.139 60.1271 110.498 59.4085C110.861 58.6892 111.421 58.0834 112.179 57.5909C112.936 57.0985 113.833 56.769 114.872 56.6023C115.929 56.4326 116.88 56.4652 117.727 56.7002C118.579 56.9344 119.277 57.3382 119.822 57.9116C120.368 58.485 120.716 59.1946 120.868 60.0404L117.982 60.5037Z" fill="#263238"/>
<path d="M149.876 195.63H218.311V231.302H149.876C146.118 231.302 142.515 229.819 139.858 227.18C137.201 224.541 135.708 220.962 135.708 217.229V209.695C135.708 205.963 137.201 202.383 139.858 199.744C142.515 197.105 146.118 195.622 149.876 195.622V195.63Z" fill="#00A79D"/>
<path d="M200.419 195.63H344.779C345.403 195.63 346.001 195.876 346.442 196.315C346.883 196.753 347.131 197.347 347.131 197.966V199.218C347.131 199.838 346.883 200.432 346.442 200.87C346.001 201.308 345.403 201.554 344.779 201.554H200.419V195.63Z" fill="#00A79D"/>
<path d="M200.419 225.386H344.779C345.088 225.386 345.394 225.446 345.679 225.564C345.964 225.681 346.224 225.853 346.442 226.07C346.66 226.287 346.834 226.544 346.952 226.828C347.07 227.111 347.131 227.415 347.131 227.722V228.974C347.131 229.593 346.883 230.187 346.442 230.626C346.001 231.064 345.403 231.31 344.779 231.31H200.419V225.386Z" fill="#00A79D"/>
<path d="M342.741 225.386H216.795C215.219 225.386 213.659 225.078 212.204 224.478C210.748 223.879 209.426 223.001 208.312 221.894C207.199 220.787 206.315 219.473 205.713 218.027C205.111 216.581 204.802 215.031 204.803 213.466C204.803 210.307 206.066 207.277 208.315 205.043C210.564 202.809 213.614 201.554 216.795 201.554H342.741C341.072 205.308 340.211 209.367 340.211 213.47C340.211 217.574 341.072 221.632 342.741 225.386Z" fill="#F5F5F5"/>
<path opacity="0.3" d="M204.802 231.31H150.157C146.325 231.31 142.65 229.798 139.94 227.106C137.231 224.415 135.708 220.765 135.708 216.958V209.87C135.708 206.094 137.219 202.472 139.907 199.801C142.596 197.131 146.242 195.63 150.044 195.63H206.159C193.163 203.46 194.135 222.197 204.802 231.31Z" fill="black"/>
<path d="M327.442 214.575C327.442 214.695 301.588 214.792 269.707 214.792C237.825 214.792 211.971 214.695 211.971 214.575C211.971 214.455 237.817 214.359 269.707 214.359C301.596 214.359 327.442 214.455 327.442 214.575Z" fill="#263238"/>
<path d="M339.321 219.869C339.321 219.989 313.467 220.086 281.585 220.086C249.703 220.086 223.849 219.989 223.849 219.869C223.849 219.749 249.695 219.661 281.585 219.661C313.475 219.661 339.321 219.757 339.321 219.869Z" fill="#263238"/>
<path d="M335.822 207.065C335.822 207.185 309.968 207.281 278.086 207.281C246.204 207.281 220.342 207.185 220.342 207.065C220.342 206.945 246.188 206.848 278.086 206.848C309.984 206.848 335.822 206.961 335.822 207.065Z" fill="#263238"/>
<path d="M198.477 228.807C198.477 228.927 186.373 229.024 171.452 229.024C156.53 229.024 144.426 228.927 144.426 228.807C144.426 228.687 156.522 228.591 171.452 228.591C186.381 228.591 198.477 228.687 198.477 228.807Z" fill="#263238"/>
<path d="M198.477 198.597C198.477 198.717 186.373 198.814 171.452 198.814C156.53 198.814 144.426 198.717 144.426 198.597C144.426 198.477 156.522 198.381 171.452 198.381C186.381 198.381 198.477 198.477 198.477 198.597Z" fill="#263238"/>
<path d="M119.663 256.345H211.882V302.286H119.663C115.906 302.286 112.302 300.803 109.646 298.164C106.989 295.525 105.496 291.946 105.496 288.214V270.418C105.496 266.685 106.989 263.106 109.646 260.467C112.302 257.828 115.906 256.345 119.663 256.345Z" fill="#00A79D"/>
<path d="M188.838 256.345H375.402C376.025 256.345 376.624 256.591 377.065 257.029C377.506 257.468 377.754 258.062 377.754 258.681V261.639C377.754 262.259 377.506 262.853 377.065 263.291C376.624 263.729 376.025 263.975 375.402 263.975H188.838V256.345Z" fill="#00A79D"/>
<path d="M188.838 294.664H375.402C376.025 294.664 376.624 294.91 377.065 295.348C377.506 295.786 377.754 296.38 377.754 297V299.958C377.754 300.577 377.506 301.172 377.065 301.61C376.624 302.048 376.025 302.294 375.402 302.294H188.838V294.664Z" fill="#00A79D"/>
<path d="M372.118 294.664H209.931C205.835 294.662 201.906 293.044 199.011 290.165C196.115 287.287 194.488 283.385 194.488 279.316C194.488 277.301 194.887 275.306 195.663 273.445C196.439 271.584 197.577 269.893 199.011 268.468C200.445 267.044 202.148 265.914 204.021 265.143C205.895 264.372 207.903 263.975 209.931 263.975H372.118C369.967 268.809 368.855 274.035 368.855 279.32C368.855 284.604 369.967 289.83 372.118 294.664Z" fill="#F5F5F5"/>
<path opacity="0.3" d="M194.471 302.286H119.478C117.643 302.286 115.825 301.927 114.129 301.229C112.433 300.53 110.892 299.507 109.594 298.217C108.296 296.928 107.267 295.396 106.565 293.711C105.864 292.026 105.503 290.22 105.504 288.397V270.744C105.504 266.938 107.026 263.288 109.736 260.596C112.445 257.905 116.12 256.393 119.952 256.393H196.205C179.486 266.423 180.738 290.558 194.471 302.286Z" fill="black"/>
<path d="M352.413 280.744C352.413 280.864 319.119 280.96 278.062 280.96C237.006 280.96 203.703 280.864 203.703 280.744C203.703 280.624 236.99 280.527 278.062 280.527C319.135 280.527 352.413 280.624 352.413 280.744Z" fill="#263238"/>
<path d="M367.72 287.561C367.72 287.681 334.425 287.777 293.361 287.777C252.296 287.777 219.001 287.681 219.001 287.561C219.001 287.44 252.288 287.352 293.361 287.352C334.433 287.352 367.72 287.488 367.72 287.561Z" fill="#263238"/>
<path d="M363.241 274.413C363.241 274.533 329.954 274.629 288.89 274.629C247.825 274.629 214.531 274.533 214.531 274.413C214.531 274.293 247.817 274.197 288.89 274.197C329.962 274.197 363.241 274.293 363.241 274.413Z" fill="#263238"/>
<path d="M186.325 299.066C186.325 299.186 170.745 299.282 151.521 299.282C132.297 299.282 116.717 299.186 116.717 299.066C116.717 298.946 132.297 298.858 151.521 298.858C170.745 298.858 186.325 298.954 186.325 299.066Z" fill="#263238"/>
<path d="M186.325 260.165C186.325 260.277 170.745 260.373 151.521 260.373C132.297 260.373 116.717 260.277 116.717 260.165C116.717 260.053 132.297 259.949 151.521 259.949C170.745 259.949 186.325 260.045 186.325 260.165Z" fill="#263238"/>
<path d="M163.521 230.209H239.502V256.52H163.521C160.754 256.52 158.1 255.428 156.143 253.485C154.186 251.541 153.086 248.904 153.086 246.155V240.574C153.086 237.825 154.186 235.189 156.143 233.245C158.1 231.301 160.754 230.209 163.521 230.209Z" fill="#455A64"/>
<path d="M220.783 230.209H371.813C372.467 230.209 373.093 230.467 373.555 230.926C374.018 231.385 374.277 232.008 374.277 232.657V233.965C374.277 234.614 374.018 235.236 373.555 235.695C373.093 236.154 372.467 236.412 371.813 236.412H220.783V230.217V230.209Z" fill="#455A64"/>
<path d="M220.783 250.318H371.813C372.467 250.318 373.093 250.576 373.555 251.035C374.018 251.494 374.277 252.116 374.277 252.765V254.073C374.277 254.722 374.018 255.345 373.555 255.804C373.093 256.263 372.467 256.521 371.813 256.521H220.783V250.326V250.318Z" fill="#455A64"/>
<path d="M369.662 250.318H232.406C230.549 250.318 228.768 249.585 227.454 248.282C226.14 246.978 225.401 245.21 225.399 243.365C225.399 241.519 226.137 239.749 227.451 238.443C228.765 237.138 230.548 236.405 232.406 236.405H369.662C366.152 241.045 366.152 245.683 369.662 250.318Z" fill="#F5F5F5"/>
<path opacity="0.3" d="M225.359 256.512H163.554C162.173 256.512 160.806 256.242 159.531 255.717C158.256 255.192 157.097 254.423 156.121 253.453C155.146 252.483 154.372 251.331 153.844 250.064C153.317 248.797 153.046 247.439 153.047 246.068V240.869C153.046 239.47 153.322 238.084 153.861 236.79C154.399 235.497 155.189 234.322 156.185 233.332C157.181 232.342 158.363 231.557 159.665 231.021C160.966 230.485 162.362 230.209 163.771 230.209H226.788C213.183 235.982 214.202 249.799 225.359 256.512Z" fill="black"/>
<path d="M353.681 242.266C353.681 242.386 326.631 242.482 293.272 242.482C259.914 242.482 232.864 242.386 232.864 242.266C232.864 242.145 259.906 242.057 293.272 242.057C326.639 242.057 353.681 242.153 353.681 242.266Z" fill="#263238"/>
<path d="M366.113 246.029C366.113 246.149 339.063 246.245 305.705 246.245C272.346 246.245 245.296 246.149 245.296 246.029C245.296 245.909 272.338 245.813 305.705 245.813C339.071 245.813 366.113 245.893 366.113 246.029Z" fill="#263238"/>
<path d="M218.76 253.898C218.76 254.019 206.102 254.115 190.483 254.115C174.863 254.115 162.205 254.019 162.205 253.898C162.205 253.778 174.863 253.682 190.483 253.682C206.102 253.682 218.76 253.778 218.76 253.898Z" fill="#263238"/>
<path d="M218.76 233.312C218.76 233.432 206.102 233.52 190.483 233.52C174.863 233.52 162.205 233.432 162.205 233.312C162.205 233.192 174.863 233.096 190.483 233.096C206.102 233.096 218.76 233.192 218.76 233.312Z" fill="#263238"/>
<path d="M372.471 230.211C372.471 230.331 326.02 230.427 268.742 230.427C211.464 230.427 164.981 230.331 164.981 230.211C164.981 230.09 211.416 229.994 268.718 229.994C326.02 229.994 372.471 230.082 372.471 230.211Z" fill="#263238"/>
<path d="M289.178 206.673V220.961L294.163 217.787L299.717 220.961V206.673H289.178Z" fill="#00A79D"/>
<path d="M339.834 64.8559L314.734 85.6257L276.56 160.541L300.359 171.225L337.49 97.7527L339.834 64.8559Z" fill="#00A79D"/>
<g opacity="0.7">
<path d="M337.49 97.7289C337.199 97.8004 336.896 97.804 336.603 97.7396C336.311 97.6752 336.037 97.5445 335.804 97.3576C335.571 97.1708 335.384 96.9329 335.259 96.6626C335.134 96.3923 335.073 96.0969 335.082 95.7994C334.29 96.7149 333.229 97.3609 332.049 97.6464C330.868 97.932 329.627 97.8428 328.5 97.3913C327.374 96.9399 326.417 96.1489 325.767 95.1297C325.116 94.1105 324.803 92.9143 324.872 91.7092C323.814 92.2749 322.624 92.551 321.424 92.5092C320.223 92.4675 319.055 92.1094 318.04 91.4717C317.025 90.8339 316.198 89.9395 315.646 88.88C315.093 87.8205 314.834 86.6341 314.895 85.4424L339.778 64.832L337.49 97.7289Z" fill="white"/>
</g>
<path d="M329.736 73.2117C329.736 73.2117 330.122 79.4148 338.871 78.3304L339.834 64.856L329.736 73.2117Z" fill="#00A79D"/>
<path opacity="0.3" d="M324.904 91.7332L288.102 165.317L276.56 160.533L314.734 85.586L314.927 85.4265C314.87 86.4255 315.046 87.4242 315.441 88.3446C315.968 89.5531 316.824 90.5914 317.913 91.3425C319.25 92.2496 320.873 92.6435 322.48 92.4508C323.325 92.3603 324.147 92.1171 324.904 91.7332Z" fill="black"/>
<path opacity="0.3" d="M335.146 95.8235L297.341 169.853L300.391 171.225L337.49 97.729C336.987 97.8199 336.467 97.7218 336.033 97.4536C335.598 97.1855 335.279 96.7664 335.138 96.2779C335.126 96.1266 335.129 95.9743 335.146 95.8235Z" fill="black"/>
<path d="M324.712 84.5893C324.633 84.6807 324.588 84.7959 324.583 84.9161C324.585 85.0903 324.651 85.2578 324.77 85.386C324.888 85.5142 325.051 85.594 325.226 85.6098C325.795 85.6348 326.357 85.4783 326.831 85.1633C327.13 84.9888 327.368 84.7272 327.513 84.4138C327.593 84.2442 327.628 84.0572 327.616 83.8704C327.603 83.6836 327.543 83.503 327.441 83.3455C327.308 83.1823 327.143 83.049 326.954 82.9541C326.766 82.8593 326.56 82.8052 326.349 82.7953C325.885 82.755 325.417 82.7819 324.961 82.875C323.939 83.044 322.963 83.4214 322.095 83.9833C321.863 84.1249 321.664 84.3142 321.512 84.5383C321.36 84.7624 321.258 85.0163 321.212 85.2829C321.2 85.5619 321.258 85.8396 321.379 86.0913C321.501 86.3431 321.684 86.5611 321.911 86.726C322.438 87.0272 323.021 87.2204 323.625 87.2943C324.228 87.3683 324.841 87.3214 325.426 87.1566C326.588 86.914 327.659 86.3587 328.524 85.5515C329.389 84.7443 330.014 83.7163 330.33 82.58C330.385 82.3287 330.379 82.0684 330.315 81.8195C330.251 81.5705 330.13 81.3396 329.961 81.1449C329.621 80.783 329.196 80.5093 328.725 80.3476C327.877 80.0391 326.987 79.8616 326.084 79.8214C324.769 79.7525 323.453 79.9478 322.216 80.3954C321.782 80.5549 321.413 80.7064 321.228 80.81C321.044 80.9137 320.891 80.9695 320.891 80.9695C321.301 80.711 321.737 80.4946 322.191 80.3237C323.432 79.8521 324.757 79.6377 326.084 79.6938C327.004 79.7246 327.914 79.8967 328.781 80.2041C329.277 80.3735 329.724 80.6609 330.082 81.0412C330.271 81.2569 330.407 81.5132 330.479 81.7898C330.551 82.0665 330.558 82.3561 330.499 82.6359C330.084 84.1157 329.167 85.4075 327.903 86.2925C326.64 87.1774 325.106 87.601 323.564 87.4914C322.932 87.459 322.322 87.2488 321.806 86.8855C321.548 86.7084 321.339 86.4694 321.199 86.1906C321.058 85.9118 320.991 85.6023 321.003 85.2909C321.053 84.9998 321.165 84.7227 321.331 84.4779C321.497 84.2332 321.714 84.0265 321.967 83.8717C322.857 83.2984 323.857 82.9156 324.904 82.7475C325.378 82.6591 325.862 82.6376 326.341 82.6837C326.569 82.6973 326.792 82.7591 326.994 82.865C327.196 82.9708 327.373 83.1183 327.513 83.2976C327.624 83.4738 327.689 83.6749 327.702 83.8825C327.714 84.09 327.674 84.2974 327.585 84.4856C327.43 84.8195 327.175 85.0978 326.855 85.2829C326.366 85.5957 325.789 85.7439 325.209 85.7055C325.021 85.6874 324.847 85.5992 324.722 85.4586C324.597 85.318 324.53 85.1356 324.535 84.948C324.575 84.653 324.712 84.5813 324.712 84.5893Z" fill="white"/>
<path d="M338.18 84.1745C338.18 84.1745 337.811 84.1187 337.153 84.1745C336.215 84.2356 335.299 84.4794 334.456 84.8921C333.216 85.5237 332.052 86.2942 330.988 87.1883C329.693 88.3206 328.218 89.2313 326.622 89.8832C324.976 90.4453 323.2 90.5119 321.517 90.0746C320.146 89.7152 318.886 89.025 317.849 88.0654C317.146 87.4032 316.562 86.6266 316.123 85.7691C315.956 85.4684 315.816 85.1536 315.706 84.8283C315.751 84.9024 315.792 84.9796 315.826 85.0595C315.898 85.219 316.019 85.4502 316.179 85.7372C316.649 86.5433 317.242 87.2722 317.937 87.8979C318.967 88.8288 320.209 89.4965 321.557 89.8434C323.212 90.2564 324.951 90.1844 326.566 89.6361C328.141 88.993 329.599 88.0989 330.884 86.989C331.959 86.0906 333.139 85.3249 334.4 84.7087C335.257 84.2952 336.192 84.0644 337.145 84.031C337.495 84.0349 337.843 84.0831 338.18 84.1745Z" fill="white"/>
<path d="M338.036 91.6456C337.576 91.1821 336.964 90.899 336.311 90.8482C334.724 90.8343 333.146 91.0656 331.631 91.5339C330.096 91.9449 328.602 92.4947 327.168 93.1764C326.614 93.4395 326.181 93.6707 325.876 93.8222C325.726 93.9169 325.568 93.997 325.402 94.0614C325.542 93.9528 325.69 93.8542 325.844 93.7664C326.133 93.591 326.566 93.3358 327.112 93.0648C328.538 92.3412 330.036 91.7692 331.583 91.3585C332.433 91.1273 333.296 90.9463 334.167 90.8164C334.88 90.687 335.606 90.6575 336.327 90.7287C336.818 90.7808 337.285 90.9686 337.675 91.2708C337.813 91.3778 337.935 91.504 338.036 91.6456Z" fill="white"/>
<path d="M327.617 96.9318C327.861 96.6796 328.13 96.4525 328.419 96.254C329.135 95.7321 329.957 95.3728 330.827 95.2016C331.263 95.1133 331.713 95.1226 332.145 95.2288C332.577 95.335 332.98 95.5354 333.324 95.8155C333.528 95.9881 333.7 96.1961 333.829 96.4294C333.878 96.5133 333.91 96.6051 333.926 96.7005C333.74 96.402 333.51 96.1332 333.243 95.9032C332.904 95.6489 332.513 95.4696 332.098 95.3775C331.682 95.2854 331.252 95.2825 330.835 95.369C329.999 95.5437 329.206 95.8796 328.5 96.3577C328.217 96.5659 327.922 96.7576 327.617 96.9318Z" fill="white"/>
<path d="M338.838 79.6703C338.803 79.7095 338.762 79.7443 338.718 79.7739C338.638 79.8298 338.517 79.9175 338.349 80.0211C338.153 80.1585 337.932 80.256 337.699 80.3081C337.383 80.3638 337.058 80.3447 336.751 80.2523C336.069 80.1008 335.307 79.758 334.448 79.455C333.517 79.1409 332.561 78.9036 331.59 78.7454C329.812 78.4891 328.017 78.3692 326.221 78.3866H324.615C324.415 78.4068 324.213 78.4068 324.013 78.3866L324.615 78.3388L326.221 78.283C328.024 78.2265 329.829 78.3306 331.614 78.5939C332.599 78.7484 333.566 78.994 334.504 79.3274C335.371 79.6304 336.109 79.9812 336.784 80.1248C337.035 80.215 337.304 80.2469 337.57 80.2179C337.835 80.1888 338.091 80.0997 338.317 79.9573C338.486 79.8531 338.66 79.7573 338.838 79.6703Z" fill="white"/>
<path d="M365.439 147.378V212.685C365.455 212.81 365.517 212.926 365.613 213.009C365.709 213.093 365.832 213.139 365.96 213.139C366.088 213.139 366.211 213.093 366.307 213.009C366.403 212.926 366.465 212.81 366.481 212.685V147.378C366.465 147.252 366.403 147.137 366.307 147.053C366.211 146.97 366.088 146.924 365.96 146.924C365.832 146.924 365.709 146.97 365.613 147.053C365.517 147.137 365.455 147.252 365.439 147.378Z" fill="#00A79D"/>
<path d="M369.661 198.294C369.661 199.022 369.444 199.734 369.036 200.34C368.629 200.946 368.05 201.418 367.372 201.697C366.694 201.976 365.949 202.049 365.229 201.906C364.51 201.764 363.849 201.413 363.331 200.898C362.812 200.383 362.459 199.727 362.316 199.012C362.173 198.298 362.246 197.557 362.527 196.884C362.808 196.211 363.283 195.636 363.893 195.231C364.503 194.826 365.22 194.61 365.953 194.61C366.936 194.61 367.88 194.998 368.575 195.689C369.271 196.38 369.661 197.317 369.661 198.294Z" fill="#00A79D"/>
<path d="M364.925 200.199C364.925 200.199 362.22 202.886 361.41 210.755C360.599 218.625 360.422 222.555 360.422 222.555L367.711 223.002V217.373C367.711 217.636 369.155 221.575 369.155 221.575L374.919 219.693C374.919 219.693 372.872 198.772 364.925 200.199Z" fill="#00A79D"/>
<path d="M327.015 152.719H203.244V197.042H327.015V152.719Z" fill="#263238"/>
<path d="M370.489 145.098H158.785V152.728H370.489V145.098Z" fill="#263238"/>
<path opacity="0.3" d="M203.244 184.468C203.244 184.468 240.841 171.073 265.13 166.13C289.418 161.187 327.015 162.829 327.015 162.829V152.743H203.244V184.468Z" fill="black"/>
<path opacity="0.3" d="M235.36 145.098H158.785V152.728H235.36V145.098Z" fill="black"/>
<path d="M368.955 152.744C368.955 152.864 321.879 152.96 263.806 152.96C205.733 152.96 158.656 152.864 158.656 152.744C158.656 152.624 205.717 152.536 263.806 152.536C321.895 152.536 368.955 152.608 368.955 152.744Z" fill="#455A64"/>
<path d="M235.24 152.784C234.949 150.208 234.949 147.609 235.24 145.034C235.52 147.61 235.52 150.208 235.24 152.784Z" fill="#455A64"/>
<path d="M252.891 197.05C252.778 197.05 252.681 188.399 252.681 177.731C252.681 167.063 252.778 158.42 252.891 158.42C253.004 158.42 253.108 167.063 253.108 177.731C253.108 188.399 253.012 197.05 252.891 197.05Z" fill="#455A64"/>
<path d="M73.839 251.482L88.0703 245.773L98.9384 217.572L113.427 224.987C113.427 224.987 112.03 227.77 109.036 234.667C107.872 237.322 104.043 244.744 102.486 248.356C101.045 251.696 98.6715 254.555 95.646 256.597C92.6205 258.638 89.0697 259.777 85.4135 259.877L72.0571 260.22L73.839 251.482Z" fill="#FFBF9D"/>
<path d="M66.7681 246.028L64.649 243.78C64.2373 243.512 63.7526 243.375 63.2604 243.389L56.4538 243.597C55.8184 243.657 55.2049 243.86 54.6588 244.188C54.1127 244.517 53.6481 244.963 53.2993 245.494L50.8191 249.68C50.8191 249.68 49.1576 252.542 49.3663 253.244C49.4592 253.535 49.6575 253.782 49.9228 253.937C50.1881 254.091 50.5017 254.143 50.8031 254.081C50.8031 254.081 51.0439 255.405 51.4853 255.676C51.7409 255.804 52.0198 255.879 52.3054 255.896C52.591 255.914 52.8772 255.874 53.1468 255.779C53.2639 256.031 53.4544 256.241 53.6935 256.383C53.9325 256.525 54.2091 256.593 54.4873 256.577C54.6067 256.566 54.7248 256.544 54.8405 256.513C55.6431 256.266 56.0124 254.711 56.0124 254.711L59.4638 254.081C59.4638 254.081 64.4243 257.374 66.1741 259.527C67.9239 261.679 72.4991 260.037 72.4991 260.037L74.2088 251.904L66.7681 246.028Z" fill="#FFBF9D"/>
<path d="M61.7506 246.993C61.2664 247.142 60.7642 247.225 60.2576 247.24C59.3185 247.343 57.9941 247.383 56.4931 247.575L56.6536 247.455C56.3956 248.006 56.1006 248.538 55.7707 249.05C54.8642 250.478 53.762 251.774 52.4958 252.901C51.9984 253.397 51.4204 253.807 50.7861 254.113C50.7861 254.057 51.3881 253.578 52.2871 252.677C53.4676 251.512 54.5147 250.221 55.4095 248.826C55.7386 248.292 56.0356 247.766 56.2844 247.232L56.3326 247.128H56.4449C57.978 246.961 59.3024 246.977 60.2415 246.945C60.7449 246.909 61.2506 246.925 61.7506 246.993Z" fill="#FF9A6C"/>
<path d="M61.9041 250.222C61.5024 250.417 61.0659 250.531 60.6198 250.557C59.5112 250.709 58.3845 250.671 57.2887 250.445L57.5376 250.31C57.3932 250.727 57.2271 251.137 57.0399 251.538C56.4193 252.81 55.5487 253.946 54.4794 254.878C54.062 255.289 53.565 255.612 53.0186 255.827C53.4147 255.415 53.8327 255.023 54.2707 254.655C55.2602 253.699 56.075 252.579 56.6787 251.346C56.8643 250.965 57.0278 250.574 57.1683 250.174L57.2326 249.999H57.4091C58.8905 250.274 60.4025 250.349 61.9041 250.222Z" fill="#FF9A6C"/>
<path d="M70.5558 251.888L64.4796 249.082C63.6642 248.631 62.761 248.359 61.8308 248.285C60.8359 248.371 59.8759 248.691 59.0295 249.217L55.7546 250.892C55.578 250.987 55.3854 251.099 55.3292 251.282C55.273 251.466 55.4255 251.785 55.6101 251.968C56.4555 252.763 57.5618 253.226 58.7245 253.273C59.8872 253.32 61.0278 252.947 61.9352 252.223C62.3786 253.66 63.0712 255.009 63.9819 256.21C64.4477 256.812 65.0616 257.284 65.7646 257.581C66.4675 257.879 67.2358 257.991 67.9953 257.908" fill="#FFBF9D"/>
<path d="M67.9797 257.988C67.9292 258.012 67.875 258.029 67.8192 258.036C67.6563 258.076 67.4893 258.097 67.3215 258.099C66.6839 258.102 66.0554 257.948 65.4914 257.653C64.6179 257.199 63.877 256.529 63.3403 255.707C62.6742 254.652 62.1353 253.523 61.735 252.343L62.04 252.415C61.5524 252.821 60.9886 253.128 60.381 253.317C59.7734 253.506 59.1342 253.573 58.5002 253.515C57.811 253.468 57.1388 253.281 56.5256 252.965C56.2117 252.8 55.9181 252.599 55.6507 252.367C55.5059 252.248 55.3741 252.114 55.2574 251.968C55.1818 251.877 55.1274 251.77 55.0983 251.656C55.0691 251.542 55.0659 251.422 55.0889 251.306C55.115 251.211 55.1605 251.123 55.2227 251.046C55.2848 250.969 55.3622 250.906 55.4501 250.86C55.5946 250.772 55.715 250.716 55.8434 250.645L56.5979 250.262L58.0828 249.465C59.0053 248.928 59.9888 248.502 61.0126 248.197C61.9955 248.021 63.0093 248.175 63.8941 248.635C64.6968 249.002 65.4995 249.369 66.1416 249.696L69.3523 251.29C69.7557 251.471 70.1447 251.681 70.5161 251.92C70.0914 251.795 69.6779 251.635 69.28 251.442L65.9891 249.999L63.7256 248.994C62.9096 248.579 61.9771 248.447 61.0768 248.619C60.0892 248.926 59.141 249.346 58.2514 249.871L56.7745 250.668L56.02 251.059C55.7631 251.187 55.4902 251.314 55.4742 251.442C55.4581 251.569 55.6588 251.88 55.9076 252.08C56.1526 252.291 56.4221 252.473 56.7103 252.622C57.2716 252.911 57.8859 253.084 58.5163 253.132C59.689 253.246 60.8595 252.896 61.7751 252.159L61.9838 251.984L62.0721 252.239C62.4462 253.399 62.9497 254.515 63.5731 255.564C64.0644 256.36 64.7488 257.02 65.5637 257.485C66.3042 257.879 67.1426 258.053 67.9797 257.988Z" fill="#FF9A6C"/>
<path d="M149.571 172.891C149.627 168.363 150.373 163.85 150.165 159.337C149.956 154.824 148.792 150.096 145.613 146.851C142.435 143.606 136.888 142.378 133.196 144.97L132.394 148.829C133.854 166.29 133.662 184.03 135.123 201.491C135.315 203.787 137.185 205.868 138.237 207.917C139.288 209.966 141.399 211.664 143.711 211.521C146.737 211.337 148.72 208.292 149.659 205.421C153.11 195.048 149.434 183.838 149.571 172.891Z" fill="#263238"/>
<path d="M138.606 149.41C137.998 148.26 137.215 147.209 136.287 146.293C135.818 145.838 135.252 145.493 134.631 145.286C134.01 145.079 133.349 145.015 132.699 145.097C132.393 145.135 132.101 145.25 131.853 145.431C131.604 145.613 131.406 145.855 131.278 146.134C131.077 146.708 131.511 147.481 132.121 147.425L132.249 147.537C133.614 148.738 135.003 149.91 136.415 151.053C136.752 151.365 137.148 151.609 137.579 151.771C137.796 151.849 138.031 151.865 138.256 151.817C138.482 151.769 138.69 151.659 138.855 151.499C139.361 150.941 138.992 150.056 138.606 149.41Z" fill="#00A79D"/>
<path d="M141.184 153.859C136.641 148.342 130.54 145.161 123.364 145.089C119.351 145.017 117.641 145.886 114.728 146.636C111.81 147.336 109.232 149.028 107.44 151.42C105.377 154.33 103.643 157.591 103.25 161.139C102.735 164.764 102.561 168.429 102.728 172.086C102.896 175.761 104.085 179.318 106.163 182.363L115.506 183.958C120.667 184.133 125.901 184.301 130.934 183.161C135.966 182.02 140.847 179.302 143.535 174.924C147.276 168.801 145.719 159.369 141.184 153.859Z" fill="#263238"/>
<path d="M132.876 153.796L120.418 148.876L117.16 149.251C109.839 149.251 104.782 157.304 104.734 163.188C104.686 169.742 104.879 177.731 105.922 182.555C108.033 192.258 116.357 193.063 116.357 193.063C116.357 193.063 116.188 198.238 116.124 201.491L135.203 200.127L136.159 157.121C136.13 156.259 135.776 155.439 135.169 154.824C134.561 154.208 133.743 153.841 132.876 153.796Z" fill="#FFBF9D"/>
<path d="M120.57 180.282C120.493 179.786 120.236 179.336 119.848 179.015C119.495 178.712 119.051 178.534 118.585 178.506C118.12 178.479 117.658 178.604 117.271 178.863C116.87 179.171 116.558 179.578 116.368 180.045C116.177 180.512 116.115 181.02 116.188 181.518C116.402 181.817 116.679 182.067 116.998 182.252C117.318 182.436 117.674 182.55 118.042 182.587C118.157 182.595 118.272 182.595 118.387 182.587C118.982 182.599 119.559 182.378 119.992 181.973C120.21 181.752 120.375 181.486 120.476 181.193C120.576 180.9 120.608 180.589 120.57 180.282Z" fill="#FF9A6C"/>
<path d="M108.032 171.472C108.045 171.8 108.186 172.11 108.427 172.335C108.667 172.56 108.986 172.682 109.316 172.676C109.478 172.679 109.639 172.65 109.789 172.591C109.939 172.532 110.076 172.444 110.192 172.332C110.308 172.22 110.4 172.087 110.463 171.939C110.526 171.791 110.56 171.632 110.561 171.472C110.544 171.144 110.4 170.836 110.159 170.611C109.918 170.386 109.599 170.264 109.268 170.268C109.107 170.265 108.947 170.294 108.797 170.353C108.647 170.412 108.511 170.5 108.396 170.612C108.281 170.724 108.189 170.858 108.127 171.006C108.064 171.153 108.032 171.312 108.032 171.472Z" fill="#263238"/>
<path d="M106.965 166.465C107.125 166.616 108.048 165.867 109.373 165.795C110.697 165.723 111.781 166.345 111.909 166.17C112.038 165.994 111.797 165.803 111.347 165.516C110.736 165.143 110.024 164.968 109.309 165.014C108.602 165.049 107.924 165.305 107.374 165.747C107.005 166.09 106.876 166.393 106.965 166.465Z" fill="#263238"/>
<path d="M115.699 177.061C114.971 176.871 114.22 176.777 113.467 176.782C113.122 176.782 112.785 176.718 112.713 176.479C112.669 176.127 112.731 175.769 112.889 175.451C113.17 174.598 113.467 173.704 113.772 172.764C114.992 168.953 115.859 165.819 115.699 165.771C115.538 165.723 114.431 168.777 113.211 172.596L112.408 175.291C112.21 175.719 112.173 176.202 112.304 176.655C112.359 176.773 112.442 176.878 112.545 176.959C112.648 177.041 112.769 177.098 112.898 177.125C113.093 177.166 113.292 177.183 113.491 177.173C114.229 177.222 114.97 177.185 115.699 177.061Z" fill="#263238"/>
<path d="M116.34 193.055C120.984 192.873 125.486 191.412 129.343 188.837C129.343 188.837 126.205 195.814 116.292 195.439L116.34 193.055Z" fill="#FF9A6C"/>
<path d="M119.751 177.771C119.535 177.771 119.607 179.238 118.403 180.346C117.199 181.454 115.618 181.383 115.618 181.59C115.618 181.797 115.987 181.853 116.645 181.837C117.513 181.803 118.341 181.464 118.981 180.88C119.593 180.323 119.965 179.551 120.016 178.728C120.032 178.114 119.856 177.763 119.751 177.771Z" fill="#263238"/>
<path d="M107.423 161.737C107.672 162.048 108.699 161.777 109.919 161.809C111.139 161.841 112.167 162.104 112.424 161.809C112.536 161.657 112.384 161.346 111.942 161.011C111.345 160.626 110.647 160.424 109.935 160.429C109.224 160.41 108.521 160.596 107.913 160.963C107.471 161.266 107.319 161.577 107.423 161.737Z" fill="#263238"/>
<path d="M122.873 171.137C122.88 171.465 122.758 171.782 122.533 172.021C122.309 172.261 121.999 172.404 121.669 172.421C121.509 172.436 121.347 172.419 121.193 172.372C121.039 172.324 120.896 172.246 120.773 172.143C120.649 172.04 120.548 171.913 120.475 171.771C120.401 171.628 120.357 171.472 120.345 171.312C120.338 170.986 120.459 170.669 120.682 170.428C120.905 170.187 121.212 170.041 121.541 170.021C121.703 170.006 121.866 170.022 122.021 170.071C122.175 170.119 122.319 170.197 122.443 170.301C122.567 170.405 122.669 170.532 122.743 170.676C122.817 170.819 122.861 170.976 122.873 171.137Z" fill="#263238"/>
<path d="M125.362 165.944C125.209 166.113 124.238 165.424 122.874 165.448C121.509 165.472 120.53 166.177 120.377 166.009C120.225 165.84 120.458 165.64 120.891 165.312C121.471 164.895 122.167 164.668 122.882 164.663C123.59 164.647 124.284 164.858 124.864 165.264C125.29 165.576 125.442 165.872 125.362 165.944Z" fill="#263238"/>
<path d="M124.543 161.617C124.287 161.928 123.227 161.617 121.967 161.617C120.707 161.617 119.631 161.865 119.382 161.546C119.27 161.394 119.438 161.083 119.896 160.748C120.53 160.379 121.256 160.194 121.991 160.214C122.721 160.206 123.437 160.408 124.054 160.796C124.511 161.147 124.664 161.466 124.543 161.617Z" fill="#263238"/>
<path d="M134.48 173.561C134.48 172.835 135.195 171.073 135.917 170.922C137.836 170.515 141.327 170.475 141.632 175.355C142.05 182.028 135.211 181.064 135.211 180.872C135.211 180.681 134.601 176.08 134.48 173.561Z" fill="#FFBF9D"/>
<path d="M136.889 178.321C136.889 178.321 137.009 178.401 137.21 178.472C137.493 178.587 137.81 178.587 138.093 178.472C138.783 178.169 139.313 177.013 139.273 175.809C139.253 175.237 139.105 174.676 138.839 174.167C138.764 173.962 138.639 173.778 138.475 173.632C138.311 173.486 138.114 173.382 137.9 173.33C137.764 173.303 137.623 173.324 137.502 173.39C137.38 173.455 137.285 173.561 137.234 173.689C137.154 173.88 137.234 174.015 137.17 174.023C137.105 174.031 137.017 173.92 137.057 173.641C137.084 173.473 137.169 173.321 137.298 173.21C137.384 173.135 137.485 173.077 137.594 173.041C137.703 173.006 137.818 172.993 137.932 173.003C138.212 173.036 138.478 173.142 138.703 173.31C138.929 173.478 139.106 173.702 139.216 173.96C139.537 174.52 139.716 175.149 139.738 175.793C139.778 177.141 139.16 178.44 138.213 178.775C138.036 178.839 137.847 178.863 137.66 178.845C137.472 178.827 137.291 178.768 137.129 178.672C136.889 178.488 136.889 178.337 136.889 178.321Z" fill="#FF9A6C"/>
<path d="M136.174 170.938L134.481 172.676C127.112 165.668 112.712 148.127 113.523 149.172C116.882 147.932 120.5 147.55 124.046 148.063C129.528 148.988 139.915 151.715 139.754 158.133C139.594 164.552 136.174 170.938 136.174 170.938Z" fill="#263238"/>
<path d="M145.935 169.487C145.913 169.356 145.878 169.228 145.83 169.104C145.708 168.741 145.555 168.389 145.373 168.051C144.677 166.816 143.718 165.747 142.564 164.918C140.861 163.703 138.96 162.789 136.945 162.215C134.697 161.49 132.169 160.924 129.681 159.823C127.334 158.852 125.109 157.613 123.051 156.132C121.367 154.921 119.798 153.559 118.363 152.065C117.401 151.055 116.497 149.99 115.658 148.876L114.984 147.951C114.909 147.84 114.823 147.735 114.727 147.64C114.783 147.763 114.85 147.88 114.928 147.991C115.064 148.214 115.265 148.541 115.546 148.948C116.349 150.102 117.232 151.199 118.187 152.233C121.355 155.655 125.233 158.353 129.552 160.142C131.943 161.042 134.378 161.822 136.849 162.478C138.855 163.021 140.755 163.898 142.467 165.069C143.61 165.867 144.574 166.89 145.301 168.075C145.718 168.944 145.895 169.487 145.935 169.487Z" fill="#455A64"/>
<path d="M143.977 170.515C143.998 170.016 143.911 169.518 143.72 169.056C143.213 167.781 142.332 166.686 141.191 165.914C139.484 164.822 137.573 164.082 135.573 163.738C133.178 163.261 130.845 162.523 128.614 161.537C126.392 160.53 124.305 159.253 122.401 157.734C120.852 156.488 119.427 155.097 118.147 153.58C117.275 152.551 116.47 151.467 115.739 150.335L115.169 149.402C115.11 149.29 115.037 149.186 114.952 149.091C114.997 149.209 115.051 149.324 115.113 149.434L115.626 150.407C116.31 151.569 117.077 152.68 117.922 153.732C119.187 155.289 120.61 156.713 122.168 157.981C124.083 159.53 126.19 160.83 128.437 161.848C130.688 162.846 133.047 163.582 135.468 164.041C137.433 164.366 139.315 165.07 141.007 166.114C142.126 166.845 143.007 167.884 143.543 169.104C143.731 169.56 143.876 170.032 143.977 170.515Z" fill="#455A64"/>
<path d="M135.949 182.244C135.949 182.196 136.519 182.124 137.514 181.861C138.91 181.461 140.195 180.749 141.271 179.78C142.847 178.315 144.045 176.493 144.762 174.47C145.679 172.005 146.173 169.404 146.223 166.776C146.254 165.419 146.143 164.061 145.894 162.726C145.221 159.367 143.633 156.257 141.303 153.732C139.933 152.287 138.422 150.981 136.792 149.833C136.792 149.833 136.928 149.881 137.169 150.025C137.41 150.168 137.755 150.36 138.181 150.663C139.4 151.494 140.525 152.453 141.536 153.525C143.05 155.113 144.275 156.95 145.156 158.955C145.667 160.144 146.057 161.38 146.32 162.646C146.578 164.01 146.694 165.397 146.665 166.784C146.617 169.461 146.103 172.11 145.148 174.614C144.388 176.684 143.128 178.538 141.48 180.012C140.354 180.984 139.011 181.675 137.563 182.029C137.168 182.118 136.769 182.182 136.367 182.22C136.228 182.239 136.089 182.247 135.949 182.244Z" fill="#455A64"/>
<path d="M144.498 264.294L104.782 270.027C89.8607 274.221 74.1445 275.449 57.7139 274.013L117.488 301.712L141.488 302.079C141.488 302.079 148.792 302.079 150.069 295.748C151.345 289.417 152.766 270.139 152.766 270.139C152.766 270.139 148.022 266.056 144.498 264.294Z" fill="#263238"/>
<g opacity="0.3">
<path d="M144.377 280.902C145.034 284.853 145.271 288.862 145.083 292.862C146.303 291.532 147.202 289.943 147.711 288.216C148.22 286.489 148.326 284.67 148.021 282.896C147.676 280.95 146.857 278.806 147.885 277.107C148.575 275.967 150.397 274.66 150.132 273.36C150.132 273.36 148.527 273.36 147.09 273.304C145.926 273.256 143.51 273.185 143.51 273.185C144.55 275.665 144.775 278.408 144.152 281.022" fill="black"/>
</g>
<path d="M116.189 199.864L135.485 197.791L139.016 200.98L125.243 209.033L119.167 212.159L113.163 210.349L111.26 206.793L116.189 199.864Z" fill="#FFBF9D"/>
<path d="M90.1729 223.201C90.1729 223.201 96.225 211.672 97.7179 209.153C100.27 204.855 105.038 202.424 105.038 202.424L116.187 199.864C116.187 199.864 115.031 205.445 121.966 205.796C130.796 206.283 136.278 197.879 136.278 197.879C136.278 197.879 146.343 198.907 149.121 200.064C151.898 201.22 159.764 204.497 160.92 214.877L163.617 231.836L142.346 233.431L142.635 256.011L133.597 263.354C133.597 263.354 107.647 272.228 105.985 272.81C105.183 273.089 105.391 262.134 103.537 252.742L100.038 244.298C98.621 240.926 97.7827 237.341 97.5574 233.694C97.4209 231.302 97.4851 229.468 97.4851 229.468C97.4851 229.468 92.027 227.61 90.1729 223.201Z" fill="#455A64"/>
<path d="M106.933 263.96L142.595 253.332L142.346 233.447L160.503 232.075C160.503 232.075 159.058 242.377 158.841 247.655C158.536 255.253 154.828 265.873 152.42 268.122C150.012 270.37 106.01 272.826 106.01 272.826L106.933 263.96Z" fill="#FFBF9D"/>
<path d="M86.7056 270.211C86.8776 270.503 87.1508 270.723 87.4742 270.83C87.7977 270.937 88.1493 270.924 88.4635 270.793C89.2661 270.474 89.0494 268.863 89.0494 268.863L92.846 267.938C92.846 267.938 98.0874 270.761 100.07 272.722C102.053 274.684 106.411 272.634 106.411 272.634L107.318 264.366L99.749 258.554C99.749 258.554 100.215 258.905 99.6286 257.757C99.0426 256.609 96.8594 257.23 96.8594 257.23C96.4741 256.664 95.0052 256.569 95.0052 256.569L88.8487 257.757C88.224 257.877 87.6345 258.136 87.1233 258.512C86.6122 258.889 86.1924 259.375 85.8949 259.933L83.5913 264.263C83.5913 264.263 82.4354 267.34 82.7164 268.018C82.8375 268.299 83.0581 268.525 83.3364 268.654C83.6146 268.784 83.931 268.807 84.2254 268.72C84.2254 268.72 84.6829 270.649 85.2046 270.673C85.7318 270.608 86.2414 270.443 86.7056 270.187V270.211Z" fill="#FFBF9D"/>
<path d="M99.4603 263.354C99.4603 263.417 98.6577 263.401 97.3092 263.561C95.592 263.778 93.9125 264.226 92.3166 264.892C91.4404 265.264 90.595 265.704 89.7882 266.208C89.0738 266.678 88.3193 267.085 88.1187 267.651C88.0754 267.773 88.0644 267.904 88.0869 268.031C88.1094 268.158 88.1646 268.277 88.2471 268.377C88.374 268.542 88.547 268.667 88.7447 268.735C89.0819 268.839 89.2825 268.735 89.2986 268.735C89.3146 268.735 89.114 268.919 88.7046 268.847C88.4623 268.793 88.2432 268.665 88.0785 268.48C87.9604 268.354 87.8775 268.199 87.838 268.032C87.7986 267.864 87.8041 267.689 87.8538 267.524C87.9908 267.152 88.2368 266.83 88.5601 266.599C88.8812 266.352 89.2183 266.104 89.5956 265.857C91.895 264.361 94.5368 263.465 97.2771 263.25C98.0057 263.167 98.743 263.202 99.4603 263.354Z" fill="#FF9A6C"/>
<path d="M100.207 267.253C100.207 267.364 97.6701 267.46 94.5879 267.874C91.5057 268.289 89.0335 268.863 88.9692 268.752C89.4786 268.508 90.0185 268.334 90.5746 268.233C91.8754 267.908 93.1939 267.658 94.5237 267.484C95.8544 267.304 97.1944 267.201 98.537 267.173C99.0946 267.124 99.6563 267.15 100.207 267.253Z" fill="#FF9A6C"/>
<path d="M86.7296 270.051C86.6645 269.841 86.6214 269.624 86.6011 269.405C86.5184 268.805 86.4702 268.201 86.4567 267.595C86.4496 267.174 86.4765 266.753 86.5369 266.336C86.6113 265.844 86.7832 265.373 87.0426 264.948C87.5766 263.965 88.3024 263.098 89.1777 262.397C90.0435 261.694 91.0057 261.117 92.0352 260.683C92.8886 260.368 93.7786 260.162 94.684 260.069C95.4867 259.981 96.0646 259.957 96.498 259.933C96.7189 259.901 96.9434 259.901 97.1642 259.933C96.3703 260.113 95.5662 260.247 94.7562 260.332C93.8828 260.459 93.0266 260.684 92.2038 261.002C91.2162 261.439 90.2928 262.008 89.4586 262.692C88.6267 263.356 87.9248 264.167 87.3878 265.084C86.9593 265.839 86.7456 266.696 86.7697 267.563C86.7055 269.102 86.8179 270.051 86.7296 270.051Z" fill="#FF9A6C"/>
<path d="M94.8289 258.179C94.8289 258.243 93.9059 258.339 92.4209 258.618C90.936 258.897 88.7287 259.224 87.6049 261.281C86.4579 262.841 85.5316 264.549 84.8518 266.359C84.6399 267.129 84.5028 267.916 84.4424 268.711C84.3674 268.502 84.3374 268.279 84.3541 268.058C84.3396 267.457 84.4153 266.858 84.5789 266.28C85.1897 264.406 86.1004 262.643 87.2758 261.057C87.5882 260.577 87.9633 260.14 88.3915 259.758C88.8046 259.406 89.2813 259.135 89.7962 258.96C90.6402 258.67 91.5114 258.464 92.3968 258.346C93.1973 258.19 94.0144 258.134 94.8289 258.179Z" fill="#FF9A6C"/>
<path d="M98.5769 271.542C98.4379 271.47 98.3062 271.384 98.1836 271.287L97.0839 270.545C95.6982 269.639 94.2618 268.811 92.7817 268.066H92.8699L89.0814 269.014L89.2018 268.839C89.2379 269.152 89.2379 269.467 89.2018 269.78C89.1781 270.125 89.0524 270.455 88.8406 270.729C88.7089 270.866 88.5381 270.961 88.3509 271C88.1784 271.06 87.9954 271.084 87.8131 271.072C87.4362 271.045 87.0809 270.887 86.8098 270.625C86.7441 270.557 86.6824 270.485 86.6252 270.41V270.354L86.8499 270.418L86.7295 270.474C86.5735 270.555 86.4127 270.627 86.2479 270.689C86.08 270.754 85.9085 270.81 85.7342 270.856C85.6425 270.883 85.5484 270.902 85.4533 270.912C85.3315 270.932 85.2066 270.918 85.0921 270.872C84.9088 270.757 84.7637 270.59 84.6747 270.394C84.5857 270.229 84.508 270.059 84.4419 269.884C84.307 269.538 84.197 269.184 84.1129 268.823L84.3456 268.959C84.0898 269.037 83.8172 269.043 83.5581 268.977C83.2989 268.911 83.0631 268.775 82.8767 268.584C82.683 268.38 82.5691 268.114 82.5557 267.834C82.5551 267.583 82.5793 267.332 82.6279 267.085C82.8427 266.125 83.127 265.182 83.4787 264.263L84.7068 261.95L85.5095 260.491C85.7475 259.987 86.038 259.508 86.3764 259.064C86.7443 258.637 87.1946 258.287 87.7008 258.036C88.1944 257.81 88.7193 257.66 89.2579 257.589L95.0532 256.481H95.1014C95.4577 256.508 95.8101 256.572 96.1528 256.672C96.5167 256.752 96.8455 256.945 97.092 257.222L96.8672 257.175C97.173 257.006 97.5152 256.914 97.8646 256.906C98.2141 256.898 98.5603 256.973 98.8739 257.127C99.416 257.467 99.811 257.996 99.9816 258.61L99.9254 258.538L105.143 262.524L106.547 263.625C106.717 263.747 106.875 263.883 107.021 264.031C106.837 263.937 106.662 263.825 106.499 263.696L105.046 262.652L99.7488 258.777H99.7087V258.721C99.5592 258.187 99.2124 257.729 98.7374 257.438C98.4727 257.311 98.1812 257.25 97.8877 257.26C97.5942 257.27 97.3075 257.35 97.0518 257.493L96.9154 257.557L96.8271 257.446C96.623 257.236 96.3602 257.091 96.0726 257.031C95.7526 256.943 95.4245 256.887 95.0933 256.864H95.1415L89.3462 257.996C88.8403 258.061 88.3475 258.204 87.8854 258.418C87.4298 258.642 87.0254 258.957 86.6974 259.343C86.3813 259.768 86.1122 260.225 85.8948 260.707L85.0921 262.166C84.6667 262.963 84.2894 263.76 83.864 264.478C83.5329 265.378 83.2647 266.3 83.0614 267.237C83.0152 267.454 82.991 267.676 82.9891 267.898C82.9998 268.09 83.0796 268.271 83.2139 268.409C83.3519 268.546 83.5247 268.644 83.7141 268.691C83.9034 268.739 84.1022 268.735 84.2894 268.68L84.4821 268.632V268.815C84.5704 269.158 84.6747 269.509 84.7951 269.836C84.8832 270.135 85.0429 270.409 85.2607 270.633C85.313 270.649 85.3688 270.649 85.4212 270.633L85.654 270.585C85.8162 270.549 85.9747 270.499 86.1275 270.434C86.2801 270.378 86.4326 270.306 86.5851 270.234L86.6974 270.187L86.9302 270.25V270.29C86.9739 270.352 87.0222 270.411 87.0747 270.466C87.2243 270.624 87.4163 270.737 87.6282 270.79C87.8401 270.844 88.063 270.836 88.2707 270.769C88.3988 270.747 88.5168 270.685 88.6078 270.593C88.8907 270.112 88.9957 269.548 88.9048 268.999V268.855H89.0332L92.8378 267.962H92.886C94.3652 268.727 95.7894 269.593 97.1482 270.553C97.6217 270.896 97.9508 271.167 98.2157 271.351C98.3405 271.406 98.4613 271.47 98.5769 271.542Z" fill="#FF9A6C"/>
<path d="M80.0357 276.661C80.0357 276.661 54.8721 268.807 46.9739 266.296C33.3285 261.91 24.451 266.344 21.6417 271.175C17.9976 277.45 26.7386 289.689 30.1098 292.503C40.087 300.835 57.1918 301.959 57.1918 301.959L118.692 301.848L100.769 277.625L80.0357 276.661Z" fill="#263238"/>
<path d="M83.8084 287.999C73.5601 289.184 63.1765 287.779 53.6201 283.916C51.9897 283.184 50.3109 282.564 48.5954 282.059C46.8995 281.634 45.1414 281.51 43.4021 281.692C42.7118 281.709 42.0321 281.865 41.4033 282.148C40.7746 282.432 40.2096 282.838 39.742 283.342C38.5139 284.937 39.1399 287.233 39.8222 289.131C40.6249 291.363 41.4275 293.644 43.0329 295.43C44.8549 297.511 47.5037 298.706 50.1606 299.536C55.3538 301.13 60.836 301.633 66.2781 301.84L84.9642 300.827L83.8084 287.999Z" fill="#E0E0E0"/>
<path d="M47.7207 282.067C47.8435 282.216 47.9386 282.386 48.0016 282.569C48.2187 283.045 48.3854 283.542 48.4993 284.052C48.9027 285.748 48.8318 287.522 48.2943 289.182C47.7567 290.841 46.7729 292.323 45.4491 293.468C45.055 293.811 44.6306 294.118 44.1809 294.385C43.8518 294.568 43.6672 294.648 43.6512 294.624C43.6351 294.6 44.3254 294.162 45.2565 293.261C46.4781 292.1 47.3888 290.656 47.906 289.057C48.4232 287.459 48.5306 285.758 48.2183 284.108C47.9936 282.832 47.6565 282.09 47.7207 282.067Z" fill="#263238"/>
<path d="M144.266 275.13C142.805 271.016 142.564 264.972 133.55 262.07C124.536 259.168 117.729 264.733 113.098 266.663C108.467 268.592 83.1586 282.385 83.1586 282.385C83.1586 282.385 78.3908 290.829 79.7473 294.56C81.1038 298.292 87.2683 301.975 87.2683 301.975H115.578C122.883 301.975 136.448 301.728 136.448 301.728C138.264 298.771 139.891 295.703 141.32 292.543L141.561 291.331C141.585 290.367 145.718 279.244 144.266 275.13Z" fill="#263238"/>
<path d="M128.581 296.49C128.544 296.633 128.473 296.764 128.372 296.873C128.098 297.189 127.785 297.47 127.441 297.71C126.177 298.575 124.833 299.32 123.428 299.934C122.468 300.379 121.481 300.765 120.474 301.09C119.308 301.455 118.113 301.721 116.902 301.888C114.139 302.161 111.362 302.267 108.587 302.206C102.703 302.302 97.3493 302.525 93.4965 302.478C91.5621 302.478 89.9969 302.39 88.9213 302.278C88.5064 302.242 88.0937 302.184 87.6852 302.103C87.5404 302.086 87.3979 302.054 87.2598 302.007C87.2598 301.967 87.8537 302.071 88.9293 302.127C90.0049 302.183 91.5701 302.222 93.4965 302.206C97.3573 302.206 102.687 301.911 108.587 301.816C111.348 301.875 114.111 301.779 116.862 301.529C118.052 301.384 119.227 301.144 120.378 300.811C121.379 300.504 122.36 300.137 123.316 299.711C124.711 299.128 126.054 298.426 127.329 297.614C127.676 297.384 127.996 297.116 128.284 296.817C128.509 296.625 128.557 296.482 128.581 296.49Z" fill="#263238"/>
<path d="M87.2678 301.975L86.8906 301.776C86.6498 301.64 86.2966 301.417 85.8391 301.122C84.5079 300.259 83.261 299.274 82.1147 298.18C81.2843 297.389 80.5758 296.481 80.0117 295.485C79.4353 294.238 79.2886 292.837 79.5943 291.499C80.2826 288.293 81.4372 285.205 83.0217 282.33V282.29C87.6611 279.754 92.9828 276.876 98.7941 273.775C101.7 272.228 104.726 270.625 107.872 268.991C109.478 268.193 111.083 267.396 112.688 266.599C114.294 265.802 115.939 265.004 117.601 264.143C119.896 262.894 122.358 261.973 124.913 261.408C126.168 261.16 127.446 261.045 128.726 261.066C129.978 261.103 131.221 261.28 132.434 261.592C134.785 262.167 136.992 263.214 138.919 264.669C139.816 265.407 140.609 266.259 141.279 267.205C141.895 268.137 142.404 269.134 142.796 270.179C143.198 271.199 143.479 272.228 143.768 273.232C144.099 274.208 144.367 275.204 144.57 276.214C144.696 278.144 144.534 280.081 144.089 281.963C143.727 283.757 143.286 285.431 142.828 286.986C142.604 287.783 142.379 288.525 142.17 289.25C141.962 289.976 141.721 290.693 141.608 291.331C141.512 291.786 141.44 292.129 141.36 292.535C140.586 294.999 139.494 297.352 138.109 299.536C137.618 300.316 137.039 301.039 136.383 301.688L136.487 301.545C136.576 301.441 136.688 301.314 136.824 301.138C137.25 300.607 137.646 300.053 138.012 299.48C139.35 297.283 140.404 294.929 141.151 292.471C141.608 292.089 141.52 291.714 141.384 291.26C141.524 290.532 141.706 289.813 141.929 289.107L142.58 286.85C143.013 285.256 143.446 283.613 143.8 281.835C144.227 279.983 144.379 278.078 144.249 276.182C144.038 275.193 143.77 274.216 143.446 273.256C143.149 272.252 142.861 271.231 142.467 270.235C142.084 269.215 141.586 268.241 140.982 267.332C140.331 266.418 139.559 265.595 138.687 264.885C135.8 262.736 132.322 261.512 128.718 261.376C127.467 261.356 126.218 261.471 124.993 261.719C122.468 262.276 120.036 263.186 117.769 264.422C116.164 265.219 114.558 266.176 112.833 266.886C111.107 267.595 109.622 268.441 108.017 269.278C104.878 270.872 101.844 272.467 98.9386 274.062L83.1421 282.521L83.1983 282.457C81.6184 285.299 80.4587 288.352 79.7549 291.523C79.4382 292.816 79.5653 294.177 80.1161 295.39C80.6564 296.377 81.3438 297.277 82.1548 298.061C83.2805 299.163 84.5027 300.163 85.807 301.05L86.8344 301.736C87.1233 301.888 87.2678 301.975 87.2678 301.975Z" fill="#263238"/>
<path d="M133.34 291.538C133.34 291.538 141.776 292.543 141.03 296.641C140.283 300.739 137.522 302.119 137.522 302.119L114.598 302.166C114.598 302.166 128.284 301.226 133.34 291.538Z" fill="#E0E0E0"/>
<path d="M134.159 289.553C134.157 289.952 134.07 290.347 133.902 290.709C133.592 291.626 133.131 292.486 132.538 293.253C131.738 294.371 130.62 295.227 129.327 295.709C130.392 294.915 131.368 294.012 132.241 293.014C132.977 291.916 133.618 290.758 134.159 289.553Z" fill="#263238"/>
<path d="M131.269 291.156C131.283 292.184 131.005 293.195 130.467 294.074C130.055 295.006 129.425 295.826 128.629 296.466C128.54 296.394 129.367 295.334 130.114 293.875C130.86 292.416 131.125 291.14 131.269 291.156Z" fill="#263238"/>
<path d="M141.993 300.979C141.929 300.979 142.475 299.91 143.133 298.148C144.861 293.547 145.432 288.595 144.795 283.725C144.546 281.867 144.257 280.727 144.321 280.711C144.448 280.963 144.54 281.232 144.594 281.508C144.792 282.23 144.95 282.962 145.068 283.701C145.871 288.614 145.293 293.652 143.398 298.26C143.112 298.939 142.788 299.602 142.427 300.245C142.312 300.506 142.167 300.752 141.993 300.979Z" fill="#455A64"/>
<g opacity="0.3">
<path d="M137.226 289.33C137.162 288.78 136.945 288.126 136.423 288.015C135.749 287.879 135.291 288.644 135.027 289.266C132.073 295.94 122.529 301.146 115.217 301.84C118.763 301.832 122.303 301.544 125.804 300.979C128.789 300.535 131.588 299.263 133.879 297.311C135.018 296.327 135.913 295.094 136.493 293.71C137.074 292.326 137.325 290.827 137.226 289.33Z" fill="black"/>
</g>
<path d="M81.3755 280.249C79.9777 279.859 78.6183 279.344 77.314 278.71C75.9584 278.2 74.6526 277.567 73.4131 276.82C74.8091 277.212 76.1681 277.724 77.4746 278.351C78.8306 278.864 80.1364 279.499 81.3755 280.249Z" fill="#263238"/>
<g opacity="0.2">
<path d="M89.5315 276.725C78.6152 274.652 67.6588 272.81 56.6623 271.199L48.4751 273.767C50.7707 278.008 55.3058 280.711 60.0175 281.827C64.7291 282.944 69.6495 282.68 74.4655 282.242C79.7791 281.756 85.2373 281.014 89.8606 278.367C90.2138 278.168 90.6151 277.865 90.567 277.458C90.5188 277.051 90.0051 276.812 89.5315 276.725Z" fill="black"/>
</g>
<path d="M35.8004 244.433L49.5581 274.651C49.8364 275.267 50.2869 275.791 50.8561 276.16C51.4253 276.529 52.0892 276.727 52.7688 276.732L92.9021 277.251L97.9589 274.548L90.0366 273.974L77.7076 244.585C77.5157 244.128 77.1928 243.737 76.7789 243.46C76.3651 243.184 75.8786 243.034 75.3799 243.03L36.9402 242.743C36.7351 242.736 36.5316 242.78 36.3488 242.873C36.1661 242.966 36.0102 243.103 35.896 243.273C35.7819 243.442 35.7131 243.638 35.6964 243.841C35.6797 244.044 35.7155 244.248 35.8004 244.433Z" fill="#E0E0E0"/>
<path d="M35.8008 244.434C35.7351 244.321 35.6941 244.196 35.6804 244.067C35.655 243.875 35.676 243.681 35.7416 243.499C35.8072 243.318 35.9156 243.154 36.0576 243.022C36.277 242.82 36.5614 242.702 36.8603 242.688H40.384L56.4775 242.743L67.6667 242.799L73.9194 242.839H75.5248C76.1193 242.882 76.6833 243.117 77.1301 243.509C77.5607 243.91 77.8788 244.416 78.0532 244.976L78.7113 246.57C82.219 254.918 86.0959 264.151 90.2055 273.91L90.0129 273.774L97.6623 274.333H97.9352L98.7379 274.388L98.0556 274.755L92.9988 277.458H92.9426H92.8864L62.4654 277.043L55.6748 276.948C54.5671 276.948 53.5076 276.948 52.408 276.884C51.8587 276.82 51.3304 276.636 50.8603 276.347C50.3901 276.058 49.9896 275.669 49.6869 275.21C47.897 271.47 46.404 268.034 44.9512 264.845L38.2248 249.903C37.4222 248.157 36.8443 246.794 36.4269 245.845C36.2262 245.398 36.0817 245.048 35.9693 244.792C35.857 244.537 35.8249 244.426 35.8249 244.426C35.8934 244.539 35.9551 244.656 36.0095 244.776L36.5071 245.813C36.9406 246.746 37.5667 248.101 38.3773 249.799L45.2321 264.693C46.6849 267.827 48.2421 271.351 49.9919 274.986C50.2643 275.401 50.6259 275.751 51.0506 276.01C51.4753 276.269 51.9526 276.431 52.4481 276.485C53.4755 276.533 54.5912 276.525 55.6588 276.541L62.4493 276.621L92.8704 276.988H92.758L97.8148 274.277L97.9111 274.699H97.6382L89.9888 274.149H89.8524L89.7962 274.03C85.7106 264.255 81.8417 255.022 78.3421 246.666L77.692 245.111C77.5488 244.604 77.2717 244.145 76.8893 243.78C76.5077 243.438 76.0215 243.233 75.5087 243.198H73.9034L67.6506 243.142L56.4694 243.03L40.3599 242.839H37.8396H36.8443C36.6853 242.845 36.5291 242.883 36.3854 242.951C36.2416 243.018 36.1133 243.114 36.0082 243.233C35.903 243.352 35.8233 243.49 35.7738 243.64C35.7244 243.791 35.7062 243.949 35.7205 244.107C35.7412 244.217 35.768 244.326 35.8008 244.434Z" fill="#263238"/>
<path d="M88.8256 277.195C88.7508 277.091 88.6888 276.979 88.641 276.86L88.1834 275.887C87.7821 274.979 87.2363 273.751 86.5781 272.268C85.2377 269.198 83.4156 264.956 81.4571 260.236C79.4986 255.516 77.7648 251.235 76.5688 248.117C75.9668 246.523 75.4933 245.287 75.1883 244.402C75.0438 243.995 74.9314 243.66 74.8351 243.381C74.7902 243.263 74.7579 243.14 74.7388 243.015C74.8122 243.118 74.8716 243.231 74.9154 243.349L75.3327 244.346C75.71 245.271 76.2157 246.507 76.8257 248.014C78.126 251.155 79.8839 255.397 81.8183 260.093C83.7527 264.789 85.5346 269.015 86.835 272.156L88.3359 275.824C88.4885 276.23 88.6169 276.557 88.7212 276.828C88.7769 276.944 88.8122 277.068 88.8256 277.195Z" fill="#263238"/>
<path d="M63.9418 259.08C63.9434 259.469 63.8287 259.849 63.6124 260.173C63.396 260.497 63.0877 260.749 62.7266 260.899C62.3654 261.048 61.9678 261.088 61.584 261.012C61.2002 260.937 60.8476 260.75 60.571 260.475C60.2944 260.2 60.1062 259.85 60.0302 259.469C59.9543 259.088 59.9941 258.693 60.1445 258.334C60.295 257.975 60.5493 257.669 60.8752 257.454C61.2012 257.239 61.584 257.125 61.9752 257.127C62.4968 257.127 62.997 257.333 63.3658 257.699C63.7346 258.065 63.9418 258.562 63.9418 259.08Z" fill="white"/>
<path d="M102.992 210.469C103.057 210.469 102.479 211.577 101.668 213.363C99.5461 218.025 98.16 222.984 97.5584 228.065C97.3176 230.018 97.2534 231.254 97.1812 231.254C97.1382 230.969 97.1382 230.679 97.1812 230.393C97.1812 229.843 97.1812 229.046 97.2935 228.057C97.7472 222.912 99.157 217.894 101.451 213.259C101.893 212.374 102.254 211.664 102.567 211.202C102.679 210.941 102.821 210.695 102.992 210.469Z" fill="#263238"/>
<path d="M163.617 231.836C163.474 231.88 163.325 231.904 163.175 231.908L161.899 232.028L157.131 232.426L140.829 233.646H140.621V233.439C140.484 231.286 140.34 229.014 140.195 226.686C139.962 222.619 139.762 218.713 139.697 215.212C139.49 212.059 140.212 208.915 141.776 206.163C142.85 204.307 144.434 202.794 146.344 201.802C146.859 201.545 147.396 201.334 147.949 201.172C148.141 201.112 148.337 201.064 148.535 201.028C148.535 201.092 147.732 201.26 146.408 201.945C144.567 202.972 143.048 204.484 142.017 206.314C140.53 209.038 139.864 212.13 140.099 215.22C140.179 218.736 140.388 222.611 140.621 226.678C140.765 229.006 140.901 231.278 141.038 233.423L140.813 233.232L157.131 232.163L161.947 231.884L163.224 231.836H163.617Z" fill="#263238"/>
<path d="M123.62 245.646C123.373 245.598 123.134 245.512 122.914 245.39C122.638 245.275 122.37 245.142 122.111 244.992C121.765 244.807 121.43 244.602 121.108 244.378C120.254 243.806 119.465 243.143 118.756 242.401C117.898 241.481 117.144 240.47 116.509 239.387C115.895 238.291 115.408 237.13 115.056 235.926C114.776 234.943 114.604 233.933 114.542 232.913C114.519 232.522 114.519 232.131 114.542 231.741C114.543 231.444 114.565 231.149 114.606 230.856C114.614 230.602 114.662 230.352 114.751 230.114C114.831 230.114 114.695 231.19 114.863 232.889C114.964 233.88 115.16 234.86 115.449 235.815C115.818 236.982 116.305 238.109 116.902 239.179C117.516 240.235 118.24 241.223 119.061 242.129C119.744 242.864 120.493 243.534 121.301 244.131C122.665 245.143 123.66 245.574 123.62 245.646Z" fill="#263238"/>
</svg>
