<svg width="30" height="37" viewBox="0 0 30 37" fill="none" xmlns="http://www.w3.org/2000/svg">
<path d="M14.7337 30.0642L3.07717 35.8865C2.1969 36.3644 1.09884 36.0454 0.606493 35.1687C0.462702 34.8931 0.386665 34.5868 0.384766 34.2754V21.2429C0.384766 22.535 1.1133 23.3326 3.02966 24.2259L14.7337 30.0642Z" fill="#AEAEAE"/>
<path d="M20.2611 0.218628C25.1232 0.218628 29.0668 2.13283 29.1143 7.02999V34.2754C29.1124 34.5817 29.0363 34.8828 28.8926 35.1528C28.6617 35.5931 28.2631 35.9199 27.7882 36.0583C27.3133 36.1967 26.803 36.1347 26.3744 35.8865L14.7337 30.0642L3.02966 24.2259C1.1133 23.3326 0.384766 22.535 0.384766 21.2429V7.02999C0.384766 2.13283 4.32835 0.218628 9.17468 0.218628H20.2611ZM21.4806 11.0658H7.97101C7.19254 11.0658 6.56146 11.7014 6.56146 12.4855C6.56146 13.2695 7.19254 13.9052 7.97101 13.9052H21.4806C22.259 13.9052 22.8901 13.2695 22.8901 12.4855C22.8901 11.7014 22.259 11.0658 21.4806 11.0658Z" fill="#AEAEAE"/>
</svg>
