<svg width="40" height="44" viewBox="0 0 40 44" fill="none" xmlns="http://www.w3.org/2000/svg">
<path d="M29.1884 35.3224C28.2024 35.3008 27.4093 34.482 27.4093 33.4909C27.3879 32.4997 28.181 31.683 29.167 31.6615H29.1884C30.1959 31.6615 31.0104 32.4803 31.0104 33.4909C31.0104 34.5036 30.1959 35.3224 29.1884 35.3224ZM20.443 27.3929C19.457 27.4382 18.6425 26.6603 18.5996 25.6713C18.5996 24.6801 19.3713 23.8613 20.3573 23.8161C21.3219 23.8161 22.1149 24.5724 22.1364 25.5399C22.1793 26.5332 21.4076 27.352 20.443 27.3929ZM20.443 35.2147C19.457 35.2599 18.6425 34.482 18.5996 33.4909C18.5996 32.4997 19.3713 31.683 20.3573 31.6378C21.3219 31.6378 22.1149 32.3941 22.1364 33.3637C22.1793 34.3549 21.4076 35.1737 20.443 35.2147ZM11.6333 27.3929C10.6473 27.4382 9.8328 26.6603 9.78993 25.6713C9.78993 24.6801 10.5616 23.8613 11.5476 23.8161C12.5122 23.8161 13.3052 24.5724 13.3267 25.5399C13.3695 26.5332 12.5979 27.352 11.6333 27.3929ZM11.6119 35.2147C10.6259 35.2599 9.81136 34.482 9.76849 33.4909C9.76849 32.4997 10.5401 31.683 11.5261 31.6378C12.4907 31.6378 13.2838 32.3941 13.3052 33.3637C13.3481 34.3549 12.5765 35.1737 11.6119 35.2147ZM27.4308 25.6497C27.4308 24.6586 28.2024 23.8613 29.1884 23.8398C30.153 23.8398 30.9247 24.6133 30.9675 25.5636C30.989 26.5547 30.2173 27.3735 29.2527 27.3929C28.2667 27.4145 27.4522 26.6603 27.4308 25.6713V25.6497ZM0.873047 16.2896V32.6936C0.873047 39.5026 5.20288 43.7474 11.9977 43.7474H28.7812C35.6403 43.7474 39.9273 39.5888 39.9273 32.825V16.2896H0.873047Z" fill="#E0E0E0"/>
<path d="M0.879883 16.29C0.907748 15.0252 1.01492 12.5149 1.21641 11.7069C2.24528 7.16256 5.73916 4.2752 10.7335 3.86365H30.0677C35.0191 4.29675 38.5559 7.2035 39.5847 11.7069C39.7841 12.4934 39.8912 15.0231 39.9191 16.29H0.879883Z" fill="#AEAEAE"/>
<path d="M12.3819 10.5436C13.3251 10.5436 14.0324 9.83468 14.0324 8.88444V2.31463C14.0324 1.36439 13.3251 0.65332 12.3819 0.65332C11.4388 0.65332 10.7314 1.36439 10.7314 2.31463V8.88444C10.7314 9.83468 11.4388 10.5436 12.3819 10.5436Z" fill="#E0E0E0"/>
<path d="M28.4171 10.5436C29.3388 10.5436 30.0676 9.83468 30.0676 8.88444V2.31463C30.0676 1.36439 29.3388 0.65332 28.4171 0.65332C27.4739 0.65332 26.7666 1.36439 26.7666 2.31463V8.88444C26.7666 9.83468 27.4739 10.5436 28.4171 10.5436Z" fill="#E0E0E0"/>
</svg>
