<svg width="34" height="34" viewBox="0 0 34 34" fill="none" xmlns="http://www.w3.org/2000/svg">
<path d="M6.83983 17.1945C6.56576 17.1945 6.23687 17.1397 6.01761 16.9753C5.30501 16.5916 4.42797 15.6049 4.42797 12.9738C4.42797 7.49225 1.46795 4.31297 1.46795 4.31297L0.974609 3.76482L3.55092 0.914429L3.98944 1.57221C4.04426 1.62703 5.41464 3.60037 7.55243 3.05222L7.82651 4.47742C5.68871 5.02557 4.15389 3.87445 3.38648 3.05222L2.83833 3.76482C3.77018 4.97075 5.74353 8.15003 5.74353 12.9738C5.74353 14.399 6.01761 15.3856 6.56576 15.6597C6.94946 15.879 7.55243 15.6597 8.10058 15.1116C9.52578 13.6864 10.5673 10.1782 10.5673 10.1782L11.7732 10.6167C11.7184 10.7812 10.6221 14.5634 8.92281 16.2079C8.21021 16.8656 7.49761 17.1945 6.83983 17.1945ZM27.9985 17.1945C28.2726 17.1945 28.6015 17.1397 28.8207 16.9753C29.5333 16.5916 30.4104 15.6049 30.4104 12.9738C30.4104 7.43743 33.3156 4.31297 33.3704 4.25815L33.8637 3.76482L31.2874 0.914429L30.8489 1.57221C30.7941 1.62703 29.4237 3.60037 27.2859 3.05222L27.0118 4.47742C29.1496 5.02557 30.6844 3.87445 31.4518 3.05222L32.1096 3.76482C31.1778 4.97075 29.2044 8.15003 29.2044 12.9738C29.2044 14.399 28.9303 15.3856 28.3822 15.6597C27.9985 15.879 27.3955 15.6597 26.8474 15.1116C25.4222 13.6864 24.3807 10.1782 24.3807 10.1782L23.1748 10.6167C23.2296 10.7812 24.3259 14.5634 26.0251 16.2079C26.6281 16.8656 27.3407 17.1945 27.9985 17.1945ZM15.7747 13.4671H19.1184V26.8968H15.7747V13.4671Z" fill="#F2B200"/>
<path d="M16.4336 13.4672H18.4069V26.8969H16.4336V13.4672Z" fill="#FFCE31"/>
<path d="M6.34766 0.914429C7.27951 9.35597 11.884 16.0982 17.4203 16.0982C22.9567 16.0982 27.5611 9.35597 28.493 0.914429H6.34766Z" fill="#F2B200"/>
<path d="M8.48535 0.914429C9.25276 9.4656 12.9802 16.2627 17.4202 16.2627C21.8603 16.2627 25.5877 9.4656 26.3551 0.914429H8.48535Z" fill="#FFCE31"/>
<path d="M25.9705 29.4184H8.86816C8.86816 29.4184 12.7052 24.485 17.4193 24.485C22.1334 24.485 25.9705 29.4184 25.9705 29.4184Z" fill="#F2B200"/>
<path d="M23.9425 29.4184H10.8965C10.8965 29.4184 13.8017 24.3754 17.4195 24.3754C21.0373 24.3754 23.9425 29.4184 23.9425 29.4184Z" fill="#FFCE31"/>
<path d="M6.34766 30.5146H28.493V33.8035H6.34766V30.5146Z" fill="#BC845E"/>
<path d="M8.86816 29.4183H26.0253V30.5146H8.86816V29.4183Z" fill="#916140"/>
<path d="M11.9375 31.3369H22.9005V32.9813H11.9375V31.3369Z" fill="#F2B200"/>
<path d="M6.34766 30.5146H7.44396V33.8035H6.34766V30.5146Z" fill="#CE9C7A"/>
<path d="M27.3965 30.5146H28.4928V33.8035H27.3965V30.5146Z" fill="#916140"/>
<path d="M12.4863 31.3369H22.3531V32.9813H12.4863V31.3369Z" fill="#FFCE31"/>
</svg>
