<svg width="50" height="50" viewBox="0 0 50 50" fill="none" xmlns="http://www.w3.org/2000/svg">
<path d="M17.9688 38.2812H14.8438C13.125 38.2812 11.7188 36.875 11.7188 35.1562V32.0312C11.7188 30.3125 13.125 28.9062 14.8438 28.9062H17.9688C19.6875 28.9062 21.0938 30.3125 21.0938 32.0312V35.1562C21.0938 36.875 19.6875 38.2812 17.9688 38.2812Z" fill="#F2F2F2"/>
<path d="M35.1562 38.2812H32.0312C30.3125 38.2812 28.9062 36.875 28.9062 35.1562V32.0312C28.9062 30.3125 30.3125 28.9062 32.0312 28.9062H35.1562C36.875 28.9062 38.2812 30.3125 38.2812 32.0312V35.1562C38.2812 36.875 36.875 38.2812 35.1562 38.2812Z" fill="#F7A9A0"/>
<path d="M17.9688 21.0938H14.8438C13.125 21.0938 11.7188 19.6875 11.7188 17.9688V14.8438C11.7188 13.125 13.125 11.7188 14.8438 11.7188H17.9688C19.6875 11.7188 21.0938 13.125 21.0938 14.8438V17.9688C21.0938 19.6875 19.6875 21.0938 17.9688 21.0938Z" fill="#FFDB41"/>
<path d="M35.1562 21.0938H32.0312C30.3125 21.0938 28.9062 19.6875 28.9062 17.9688V14.8438C28.9062 13.125 30.3125 11.7188 32.0312 11.7188H35.1562C36.875 11.7188 38.2812 13.125 38.2812 14.8438V17.9688C38.2812 19.6875 36.875 21.0938 35.1562 21.0938Z" fill="#00A79D"/>
<path d="M17.9688 10.1562H14.8438C12.2656 10.1562 10.1562 12.2656 10.1562 14.8438V17.9688C10.1562 20.5469 12.2656 22.6562 14.8438 22.6562H17.9688C20.5469 22.6562 22.6562 20.5469 22.6562 17.9688V14.8438C22.6562 12.2656 20.5469 10.1562 17.9688 10.1562ZM19.5312 17.9688C19.5312 18.8281 18.8281 19.5312 17.9688 19.5312H14.8438C13.9844 19.5312 13.2812 18.8281 13.2812 17.9688V14.8438C13.2812 13.9844 13.9844 13.2812 14.8438 13.2812H17.9688C18.8281 13.2812 19.5312 13.9844 19.5312 14.8438V17.9688Z" fill="url(#paint0_linear_771_2788)"/>
<path d="M35.1562 10.1562H32.0312C29.4531 10.1562 27.3438 12.2656 27.3438 14.8438V17.9688C27.3438 20.5469 29.4531 22.6562 32.0312 22.6562H35.1562C36.0156 22.6562 36.7188 21.9531 36.7188 21.0938C36.7188 20.2344 36.0156 19.5312 35.1562 19.5312H32.0312C31.1719 19.5312 30.4688 18.8281 30.4688 17.9688V14.8438C30.4688 13.9844 31.1719 13.2812 32.0312 13.2812H35.1562C36.0156 13.2812 36.7188 13.9844 36.7188 14.8438V16.4062C36.7188 17.2656 37.4219 17.9688 38.2812 17.9688C39.1406 17.9688 39.8438 17.2656 39.8438 16.4062V14.8438C39.8438 12.2656 37.7344 10.1562 35.1562 10.1562Z" fill="url(#paint1_linear_771_2788)"/>
<path d="M17.9688 27.3438H14.8438C12.2656 27.3438 10.1562 29.4531 10.1562 32.0312V35.1562C10.1562 37.7344 12.2656 39.8438 14.8438 39.8438H17.9688C20.5469 39.8438 22.6562 37.7344 22.6562 35.1562V32.0312C22.6562 29.4531 20.5469 27.3438 17.9688 27.3438ZM19.5312 35.1562C19.5312 36.0156 18.8281 36.7188 17.9688 36.7188H14.8438C13.9844 36.7188 13.2812 36.0156 13.2812 35.1562V32.0312C13.2812 31.1719 13.9844 30.4688 14.8438 30.4688H17.9688C18.8281 30.4688 19.5312 31.1719 19.5312 32.0312V35.1562Z" fill="url(#paint2_linear_771_2788)"/>
<path d="M35.1562 27.3438H32.0312C29.4531 27.3438 27.3438 29.4531 27.3438 32.0312V35.1562C27.3438 37.7344 29.4531 39.8438 32.0312 39.8438H35.1562C37.7344 39.8438 39.8438 37.7344 39.8438 35.1562V32.0312C39.8438 29.4531 37.7344 27.3438 35.1562 27.3438ZM36.7188 35.1562C36.7188 36.0156 36.0156 36.7188 35.1562 36.7188H32.0312C31.1719 36.7188 30.4688 36.0156 30.4688 35.1562V32.0312C30.4688 31.1719 31.1719 30.4688 32.0312 30.4688H35.1562C36.0156 30.4688 36.7188 31.1719 36.7188 32.0312V35.1562Z" fill="url(#paint3_linear_771_2788)"/>
<defs>
<linearGradient id="paint0_linear_771_2788" x1="10.1562" y1="16.4062" x2="22.6562" y2="16.4062" gradientUnits="userSpaceOnUse">
<stop offset="0.002" stop-color="#034A7A"/>
<stop offset="1" stop-color="#002F49"/>
</linearGradient>
<linearGradient id="paint1_linear_771_2788" x1="27.3438" y1="16.4062" x2="39.8438" y2="16.4062" gradientUnits="userSpaceOnUse">
<stop offset="0.002" stop-color="#034A7A"/>
<stop offset="1" stop-color="#002F49"/>
</linearGradient>
<linearGradient id="paint2_linear_771_2788" x1="10.1562" y1="33.5938" x2="22.6562" y2="33.5938" gradientUnits="userSpaceOnUse">
<stop offset="0.002" stop-color="#034A7A"/>
<stop offset="1" stop-color="#002F49"/>
</linearGradient>
<linearGradient id="paint3_linear_771_2788" x1="27.3438" y1="33.5938" x2="39.8438" y2="33.5938" gradientUnits="userSpaceOnUse">
<stop offset="0.002" stop-color="#034A7A"/>
<stop offset="1" stop-color="#002F49"/>
</linearGradient>
</defs>
</svg>
