<svg width="33" height="33" viewBox="0 0 33 33" fill="none" xmlns="http://www.w3.org/2000/svg">
<path d="M6.05913 10.0384H7.02875V11.9776H2.50385C2.24851 11.9776 2.0158 12.1296 1.91238 12.3623C1.80895 12.5982 1.8542 12.8697 2.0255 13.0604C3.64154 14.838 3.64154 17.5207 2.0255 19.2983C1.8542 19.489 1.80895 19.7605 1.91238 19.9964C2.0158 20.2291 2.24851 20.381 2.50385 20.381H26.7444C29.0618 20.381 30.9461 18.4967 30.9461 16.1793C30.9461 13.8619 29.0618 11.9776 26.7444 11.9776H13.4929V10.0384H30.2997C30.555 10.0384 30.7877 9.88649 30.8912 9.65379C30.9946 9.41784 30.9493 9.14635 30.778 8.95566C29.162 7.17802 29.162 4.4954 30.778 2.71775C30.9493 2.52706 30.9946 2.25557 30.8912 2.01963C30.8402 1.9053 30.7572 1.80817 30.6522 1.73993C30.5473 1.67168 30.4249 1.63525 30.2997 1.63501H6.05913C3.74173 1.63501 1.85743 3.51931 1.85743 5.83671C1.85743 8.1541 3.74173 10.0384 6.05913 10.0384ZM26.7444 13.2705C28.3475 13.2705 29.6533 14.5762 29.6533 16.1793C29.6533 17.7825 28.3475 19.0882 26.7444 19.0882H3.76759C4.26968 18.2009 4.53357 17.1988 4.53357 16.1793C4.53357 15.1599 4.26968 14.1577 3.76759 13.2705H7.02875V15.8561C7.02875 15.9762 7.06218 16.0939 7.12529 16.196C7.1884 16.2981 7.2787 16.3806 7.38608 16.4343C7.49345 16.488 7.61365 16.5107 7.73321 16.4999C7.85278 16.4892 7.96697 16.4453 8.06301 16.3733L10.2608 14.7249L12.4586 16.3733C12.5718 16.4573 12.7107 16.5026 12.8465 16.5026C13.0179 16.5026 13.1823 16.4344 13.3036 16.3132C13.4248 16.192 13.4929 16.0276 13.4929 15.8561V13.2705H26.7444ZM8.32158 14.5633V6.80633H12.2001V14.5633L10.6487 13.3998C10.5323 13.3125 10.3966 13.2705 10.2608 13.2705C10.1251 13.2705 9.98933 13.3125 9.87297 13.3998L8.32158 14.5633ZM6.05913 2.92784H29.0359C28.5338 3.8151 28.27 4.81723 28.27 5.83671C28.27 6.85619 28.5338 7.85831 29.0359 8.74557H13.4929V6.15991C13.4929 5.80439 13.202 5.5135 12.8465 5.5135H7.67516C7.31963 5.5135 7.02875 5.80439 7.02875 6.15991V8.74557H6.05913C4.45602 8.74557 3.15026 7.43982 3.15026 5.83671C3.15026 4.2336 4.45602 2.92784 6.05913 2.92784ZM30.8912 22.7049C30.8402 22.5906 30.7572 22.4934 30.6522 22.4252C30.5473 22.357 30.4249 22.3205 30.2997 22.3203H6.05913C3.74173 22.3203 1.85743 24.2046 1.85743 26.522C1.85743 28.8394 3.74173 30.7237 6.05913 30.7237H30.2997C30.555 30.7237 30.7877 30.5718 30.8912 30.3391C30.9946 30.1031 30.9493 29.8316 30.778 29.6409C29.162 27.8633 29.162 25.1807 30.778 23.403C30.9493 23.2123 30.9946 22.9408 30.8912 22.7049ZM29.0359 29.4308H6.05913C4.45602 29.4308 3.15026 28.1251 3.15026 26.522C3.15026 24.9189 4.45602 23.6131 6.05913 23.6131H29.0359C28.5338 24.5004 28.27 25.5025 28.27 26.522C28.27 27.5415 28.5338 28.5436 29.0359 29.4308Z" fill="url(#paint0_linear_878_2368)"/>
<defs>
<linearGradient id="paint0_linear_878_2368" x1="16.4018" y1="1.63501" x2="16.4018" y2="30.7237" gradientUnits="userSpaceOnUse">
<stop offset="0.328125" stop-color="#F7A9A0"/>
<stop offset="1" stop-color="#2D3B8E"/>
</linearGradient>
</defs>
</svg>
