<svg width="34" height="35" viewBox="0 0 34 35" fill="none" xmlns="http://www.w3.org/2000/svg">
<path d="M17.1351 5.03027C12.4918 5.03027 8.71825 8.80383 8.71825 13.4471V17.5013C8.71825 18.357 8.35352 19.6616 7.91864 20.391L6.30541 23.0704C5.30942 24.7257 5.9968 26.5634 7.82045 27.1806C13.8666 29.2007 20.3896 29.2007 26.4357 27.1806C28.1331 26.6195 28.8766 24.6135 27.9508 23.0704L26.3375 20.391C25.9167 19.6616 25.552 18.357 25.552 17.5013V13.4471C25.552 8.81786 21.7644 5.03027 17.1351 5.03027Z" stroke="#A5A5A5" stroke-width="2.02005" stroke-miterlimit="10" stroke-linecap="round"/>
<path d="M19.7304 5.43697C19.2956 5.31072 18.8467 5.21252 18.3837 5.15641C17.037 4.98807 15.7465 5.08627 14.54 5.43697C14.9469 4.39889 15.9569 3.66943 17.1352 3.66943C18.3136 3.66943 19.3236 4.39889 19.7304 5.43697Z" stroke="#A5A5A5" stroke-width="2.02005" stroke-miterlimit="10" stroke-linecap="round" stroke-linejoin="round"/>
<path d="M21.3436 27.6858C21.3436 30.0004 19.4498 31.8942 17.1352 31.8942C15.9849 31.8942 14.9187 31.4173 14.1612 30.6597C13.4037 29.9022 12.9268 28.8361 12.9268 27.6858" stroke="#A5A5A5" stroke-width="2.02005" stroke-miterlimit="10"/>
</svg>
