<svg width="41" height="41" viewBox="0 0 41 41" fill="none" xmlns="http://www.w3.org/2000/svg">
<path fill-rule="evenodd" clip-rule="evenodd" d="M39.9776 0.333544C39.9426 0.335251 39.9078 0.33971 39.8736 0.346877C36.1936 0.364211 32.8029 1.12554 29.7256 2.41221C29.7075 2.41811 29.6897 2.42479 29.6722 2.43221C29.6456 2.44554 29.6136 2.45221 29.5842 2.46421C29.5271 2.48866 29.4737 2.52097 29.4256 2.56021C29.1736 2.68021 28.8962 2.82288 28.6002 2.98421C28.5826 2.99146 28.5652 2.99947 28.5482 3.00821C28.5162 3.02421 28.4869 3.04421 28.4549 3.06021C28.3256 3.13088 28.2522 3.16821 28.1296 3.23754C23.7896 5.52154 20.1296 8.73888 17.1789 12.3495C16.6196 12.107 16.0297 11.9423 15.4256 11.8602C13.1776 11.5842 10.7309 12.3989 8.45758 13.9895C5.42558 16.1122 2.61891 19.6335 0.720242 24.0789C0.662623 24.2146 0.651628 24.3656 0.688979 24.5083C0.72633 24.6509 0.809919 24.7771 0.926664 24.8672C1.04341 24.9573 1.18672 25.0061 1.33418 25.0061C1.48163 25.006 1.6249 24.957 1.74158 24.8669C4.49224 22.7335 6.63224 21.5829 8.12824 21.3122C8.87758 21.1789 9.44824 21.2469 9.92558 21.4735C10.3376 21.6695 10.6989 22.0042 11.0296 22.5029C10.9442 22.7029 10.8389 22.9029 10.7562 23.1029C10.7063 23.2247 10.6936 23.3587 10.7197 23.4878C10.7458 23.6168 10.8096 23.7353 10.9029 23.8282L12.3349 25.2602C11.0909 27.1349 9.81091 29.2682 8.42558 31.6602C8.42424 31.6602 8.42024 31.6589 8.41758 31.6722C8.41247 31.6814 8.40758 31.6908 8.40291 31.7002C8.40015 31.7064 8.39748 31.7126 8.39491 31.7189C8.39308 31.7233 8.39131 31.7277 8.38958 31.7322C8.38174 31.7492 8.37462 31.7666 8.36824 31.7842C8.36642 31.7886 8.36464 31.7931 8.36291 31.7975C8.35784 31.8138 8.35339 31.8303 8.34958 31.8469C8.34404 31.8684 8.33959 31.8902 8.33624 31.9122C8.33453 31.9251 8.3332 31.938 8.33224 31.9509C8.33117 31.9597 8.33029 31.9686 8.32958 31.9775C8.32952 31.9824 8.32952 31.9873 8.32958 31.9922C8.32935 32.0145 8.33024 32.0367 8.33224 32.0589C8.3333 32.0767 8.33508 32.0945 8.33758 32.1122C8.33842 32.1167 8.33931 32.1211 8.34024 32.1255C8.34447 32.1476 8.34981 32.1694 8.35624 32.1909C8.362 32.2107 8.36867 32.2303 8.37624 32.2495C8.38265 32.2667 8.38977 32.2836 8.39758 32.3002C8.4061 32.3184 8.41544 32.3362 8.42558 32.3535C8.42647 32.3535 8.42735 32.3535 8.42824 32.3535C8.43086 32.358 8.43352 32.3625 8.43624 32.3669C8.44634 32.3815 8.45701 32.3958 8.46824 32.4095C8.47042 32.414 8.47264 32.4185 8.47491 32.4229C8.4868 32.4367 8.49926 32.4501 8.51224 32.4629C8.52298 32.4739 8.5341 32.4846 8.54558 32.4949C8.54994 32.5003 8.55438 32.5056 8.55891 32.5109C8.56241 32.5154 8.56596 32.5198 8.56958 32.5242C8.58295 32.535 8.59674 32.5452 8.61091 32.5549C8.61441 32.5594 8.61796 32.5638 8.62158 32.5682C8.6367 32.5791 8.65227 32.5893 8.66824 32.5989C8.68769 32.6106 8.70771 32.6212 8.72824 32.6309C8.73835 32.6356 8.74858 32.64 8.75891 32.6442C8.76858 32.6489 8.77836 32.6533 8.78824 32.6575C8.79269 32.6576 8.79713 32.6576 8.80158 32.6575C8.81874 32.6622 8.83609 32.6662 8.85358 32.6695C8.86896 32.6746 8.88453 32.679 8.90024 32.6829C8.91046 32.6831 8.92069 32.6831 8.93091 32.6829C8.94912 32.6836 8.96736 32.6836 8.98558 32.6829C8.98913 32.6829 8.99269 32.6829 8.99624 32.6829C9.04102 32.6829 9.08569 32.6785 9.12958 32.6695C9.15071 32.6652 9.17163 32.6599 9.19224 32.6535C9.21395 32.6471 9.23531 32.6395 9.25624 32.6309C9.28143 32.62 9.30592 32.6075 9.32958 32.5935C9.34558 32.5802 9.35624 32.5775 9.37091 32.5669C11.7496 31.1869 13.8762 29.9095 15.7442 28.6695L17.1269 30.0522C17.2199 30.1458 17.3386 30.2097 17.468 30.2359C17.5973 30.262 17.7315 30.2491 17.8536 30.1989C18.0482 30.1189 18.2456 30.0135 18.4416 29.9295C19.5136 30.6322 19.8949 31.4522 19.6576 32.8495C19.4002 34.3602 18.2669 36.5109 16.1349 39.2602C16.0447 39.3769 15.9958 39.5202 15.9957 39.6676C15.9957 39.8151 16.0445 39.9584 16.1346 40.0751C16.2246 40.1919 16.3509 40.2755 16.4935 40.3128C16.6362 40.3502 16.7872 40.3392 16.9229 40.2815C21.3682 38.3829 24.8896 35.5749 27.0122 32.5442C29.0376 29.6509 29.7762 26.4829 28.6389 23.7949C32.2296 20.8922 35.4389 17.3042 37.7256 13.0522C37.8189 12.8895 37.8749 12.7829 37.9749 12.6069C38.1856 12.2415 38.3682 11.8989 38.5202 11.5802C38.5426 11.5465 38.5617 11.5108 38.5776 11.4735C38.5776 11.4722 38.5776 11.4682 38.5802 11.4669C38.5909 11.4402 38.6136 11.4069 38.6242 11.3829C38.6452 11.3329 38.66 11.2805 38.6682 11.2269C39.9984 7.98199 40.677 4.50711 40.6656 1.00021C40.6656 0.912438 40.6482 0.825529 40.6146 0.744471C40.5809 0.663413 40.5316 0.589802 40.4694 0.527861C40.4072 0.46592 40.3334 0.41687 40.2522 0.383524C40.171 0.350178 40.084 0.333193 39.9962 0.333544C39.9954 0.333542 39.9945 0.333542 39.9936 0.333544C39.9882 0.33348 39.9829 0.33348 39.9776 0.333544ZM39.2589 1.74288C39.1852 4.51624 38.6559 7.25861 37.6922 9.86021L31.1816 3.35221C33.7662 2.37164 36.4959 1.82777 39.2589 1.74288ZM29.7336 3.90954L37.1442 11.3362C37.0856 11.4495 37.0149 11.5775 36.9496 11.7002C36.9487 11.7011 36.9478 11.702 36.9469 11.7029C36.924 11.7344 36.9039 11.7679 36.8869 11.8029C36.7722 12.0269 36.6442 12.2429 36.5256 12.4642C36.3976 12.6869 36.2509 12.9349 36.1629 13.1095C36.1501 13.1355 36.1389 13.1622 36.1296 13.1895C31.8602 20.5869 24.5616 25.8749 17.7296 28.7709L16.8589 27.8989C17.9762 27.1149 19.0189 26.3389 19.8816 25.5602C22.3869 23.3055 23.8069 20.9069 23.4909 18.1722C23.486 18.1232 23.4758 18.0749 23.4602 18.0282L23.4469 17.9975C23.3962 17.8507 23.2957 17.7262 23.1629 17.6455L23.1109 17.6149C23.0293 17.5649 22.9379 17.5331 22.8429 17.5215V17.5082C20.1069 17.1922 17.7056 18.6135 15.4496 21.1175C14.6696 21.9829 13.8909 23.0255 13.1056 24.1455L12.1842 23.2242C15.0776 16.4042 20.3536 9.22021 27.7442 4.96154C27.7735 4.9511 27.802 4.93863 27.8296 4.92421C28.3229 4.67488 29.1616 4.20421 29.7336 3.90954ZM28.0482 9.65888C27.2029 9.65888 26.3549 9.97888 25.7149 10.6189C25.0993 11.2388 24.7541 12.0771 24.7546 12.9508C24.7551 13.8244 25.1013 14.6623 25.7176 15.2815C26.3366 15.8969 27.174 16.2423 28.0469 16.2423C28.9198 16.2423 29.7572 15.8969 30.3762 15.2815C30.9921 14.6624 31.3381 13.8247 31.3386 12.9514C31.3391 12.0781 30.9941 11.2401 30.3789 10.6202C30.0728 10.3146 29.7093 10.0725 29.3093 9.9078C28.9093 9.74306 28.4808 9.65758 28.0482 9.65888ZM28.0482 10.9842C28.5496 10.9842 29.0509 11.1762 29.4362 11.5629C29.6195 11.7447 29.7649 11.961 29.864 12.1993C29.9632 12.4377 30.0141 12.6933 30.0138 12.9514C30.0136 13.2096 29.9622 13.4651 29.8626 13.7032C29.763 13.9414 29.6172 14.1574 29.4336 14.3389C29.2522 14.5222 29.0362 14.6678 28.7982 14.7671C28.5602 14.8664 28.3048 14.9176 28.0469 14.9176C27.789 14.9176 27.5336 14.8664 27.2956 14.7671C27.0576 14.6678 26.8416 14.5222 26.6602 14.3389C26.4766 14.1574 26.3308 13.9414 26.2312 13.7032C26.1316 13.4651 26.0802 13.2096 26.08 12.9514C26.0797 12.6933 26.1306 12.4377 26.2298 12.1993C26.3289 11.961 26.4743 11.7447 26.6576 11.5629C27.0442 11.1762 27.5469 10.9842 28.0482 10.9842ZM14.0669 13.1882C14.7949 13.1949 15.4776 13.3922 16.1522 13.6042C15.9349 13.9015 15.7229 14.2149 15.5096 14.5215L15.4629 14.5909C14.9429 15.3389 14.4322 16.1109 13.9416 16.9149C13.5282 17.5829 13.1509 18.2535 12.7816 18.9295L12.5869 19.2895C12.2309 19.9565 11.8925 20.6327 11.5722 21.3175C11.2309 20.9402 10.9429 20.4775 10.4989 20.2682C9.73358 19.9055 8.84558 19.8282 7.89224 20.0002C6.59624 20.2335 5.05758 21.0589 3.37358 22.1509C5.06024 19.1615 7.04824 16.6015 9.22024 15.0815C10.6096 14.1082 12.0016 13.4895 13.3216 13.2509C13.5749 13.2042 13.8242 13.1842 14.0669 13.1882ZM22.0429 18.9589C22.0256 20.8909 21.0962 22.6602 18.9896 24.5575C17.0962 26.2602 14.2482 28.0709 10.9762 30.0242C12.9269 26.7495 14.7362 23.8989 16.4389 22.0082C18.3389 19.9002 20.1096 18.9749 22.0429 18.9589ZM27.3976 24.8362C28.0509 26.9069 27.6442 29.3162 25.9202 31.7789C24.3976 33.9549 21.8309 35.9455 18.8349 37.6322C19.9282 35.9362 20.7496 34.3829 20.9722 33.0722C21.2309 31.5602 20.6229 30.3429 19.6216 29.3909C20.3303 29.0608 21.0302 28.7118 21.7202 28.3442L21.8216 28.2895C22.4402 27.9575 23.0589 27.6362 23.6736 27.2682C24.9551 26.5209 26.1981 25.7092 27.3976 24.8362ZM9.76158 28.0762L4.56158 33.2789L5.19224 33.9122L7.94958 31.1535C8.54532 30.1227 9.14845 29.0968 9.76158 28.0762ZM12.8736 31.2815C11.8976 31.8709 10.8669 32.4735 9.79624 33.0962L6.45491 36.4375L7.08691 37.0682L12.8736 31.2815ZM7.78558 32.5815L3.92824 36.4375L4.56158 37.0682L8.41758 33.2109C8.40158 33.2109 8.38424 33.1975 8.36824 33.1909C8.36329 33.1865 8.3584 33.1821 8.35358 33.1775L8.29091 33.1375L8.29891 33.1509C8.24388 33.117 8.19171 33.0786 8.14291 33.0362C8.1375 33.0314 8.13216 33.0265 8.12691 33.0215C8.11593 33.0121 8.10525 33.0023 8.09491 32.9922C8.09224 32.9922 8.08958 32.9922 8.08691 32.9922C8.08602 32.9922 8.08513 32.9922 8.08424 32.9922C8.08197 32.9878 8.07975 32.9833 8.07758 32.9789C8.06824 32.9655 8.05758 32.9655 8.04824 32.9522C8.04463 32.9478 8.04107 32.9434 8.03758 32.9389C8.02691 32.9255 8.01491 32.9202 8.00424 32.9069C7.98437 32.8853 7.96524 32.8631 7.94691 32.8402C7.94508 32.8358 7.94331 32.8313 7.94158 32.8269C7.91758 32.7962 7.90024 32.7642 7.87891 32.7322C7.84748 32.6927 7.82064 32.6498 7.79891 32.6042C7.79491 32.5909 7.78958 32.5882 7.78558 32.5815ZM3.92824 33.9122L3.29624 34.5415L3.92824 35.1749L4.55891 34.5415L3.92824 33.9122ZM3.29624 37.0682L2.66558 37.7002L3.29624 38.3309L3.92824 37.7002L3.29624 37.0682ZM5.82158 37.0682L5.19224 37.7002L5.82158 38.3309L6.45491 37.7002L5.82158 37.0682Z" fill="url(#paint0_linear_102_8718)"/>
<defs>
<linearGradient id="paint0_linear_102_8718" x1="20.6665" y1="0.333496" x2="20.6665" y2="40.3345" gradientUnits="userSpaceOnUse">
<stop offset="0.378125" stop-color="#F7A9A0"/>
<stop offset="1" stop-color="#2D3B8E"/>
</linearGradient>
</defs>
</svg>
