<svg width="33" height="33" viewBox="0 0 33 33" fill="none" xmlns="http://www.w3.org/2000/svg">
<path d="M16.7491 20.7497C18.9804 20.7497 20.7892 18.9409 20.7892 16.7096C20.7892 14.4783 18.9804 12.6695 16.7491 12.6695C14.5178 12.6695 12.709 14.4783 12.709 16.7096C12.709 18.9409 14.5178 20.7497 16.7491 20.7497Z" stroke="#AEAEAE" stroke-width="2.02005" stroke-miterlimit="10" stroke-linecap="round" stroke-linejoin="round"/>
<path d="M3.28223 17.8947V15.5245C3.28223 14.124 4.42692 12.9658 5.84095 12.9658C8.27847 12.9658 9.27503 11.242 8.04954 9.12773C7.34925 7.9157 7.76673 6.34007 8.99222 5.63978L11.322 4.30655C12.3859 3.6736 13.7595 4.05068 14.3925 5.11457L14.5406 5.37044C15.7526 7.48476 17.7458 7.48476 18.9713 5.37044L19.1194 5.11457C19.7523 4.05068 21.126 3.6736 22.1899 4.30655L24.5196 5.63978C25.7451 6.34007 26.1626 7.9157 25.4623 9.12773C24.2368 11.242 25.2334 12.9658 27.6709 12.9658C29.0715 12.9658 30.2296 14.1105 30.2296 15.5245V17.8947C30.2296 19.2953 29.085 20.4535 27.6709 20.4535C25.2334 20.4535 24.2368 22.1772 25.4623 24.2915C26.1626 25.517 25.7451 27.0792 24.5196 27.7795L22.1899 29.1127C21.126 29.7457 19.7523 29.3686 19.1194 28.3047L18.9713 28.0488C17.7592 25.9345 15.7661 25.9345 14.5406 28.0488L14.3925 28.3047C13.7595 29.3686 12.3859 29.7457 11.322 29.1127L8.99222 27.7795C7.76673 27.0792 7.34925 25.5036 8.04954 24.2915C9.27503 22.1772 8.27847 20.4535 5.84095 20.4535C4.42692 20.4535 3.28223 19.2953 3.28223 17.8947Z" stroke="#AEAEAE" stroke-width="2.02005" stroke-miterlimit="10" stroke-linecap="round" stroke-linejoin="round"/>
</svg>
