<svg width="37" height="34" viewBox="0 0 37 34" fill="none" xmlns="http://www.w3.org/2000/svg">
<path d="M0.220709 22.6257C-0.322138 18.634 2.21115 12.2356 3.41748 3.60651C3.65874 2.08028 11.8618 0.436646 15.722 0.436646C16.6871 0.436646 17.5315 4.83923 17.2902 6.36546C17.1093 7.48078 15.4807 7.18728 15.4807 7.18728C14.9379 8.6548 13.3094 8.06779 13.3094 8.06779C12.8268 9.30052 11.3792 8.7135 11.3792 8.7135C10.7761 9.88753 9.44911 9.30052 9.44911 9.30052C8.24278 14.4075 10.4745 13.9379 12.103 21.6278C12.103 21.6278 12.5856 21.5691 13.8522 19.0449C19.0394 8.88961 37.2549 12.1182 36.1692 23.0366C35.928 25.4433 38.5819 29.435 28.7503 32.4288C20.9695 34.7768 11.4395 30.2568 11.4395 30.2568C8.18247 31.2547 1.84925 31.196 1.6683 28.848C1.48735 26.089 0.522291 24.6802 0.220709 22.6257Z" fill="#FFDD67"/>
<path d="M35.4502 23.0365C35.6914 20.4537 34.9073 18.3404 33.4597 16.8142C34.3041 18.223 34.7264 19.9254 34.5454 21.9212C34.3041 24.3279 36.9581 28.3196 27.1265 31.3134C19.3457 33.6614 9.81572 29.1414 9.81572 29.1414C7.28243 29.9046 2.81902 30.022 0.949219 28.9066C1.19048 31.196 7.46338 31.2547 10.7205 30.2568C10.7205 30.2568 20.2504 34.7767 28.0313 32.4287C37.8025 29.4349 35.2089 25.4433 35.4502 23.0365ZM8.00623 9.24176C6.49832 15.2293 8.97129 14.9945 10.5998 22.5669L11.4443 21.6864C10.2379 14.0553 8.18718 14.9945 8.66971 9.35916C8.30781 9.35916 8.00623 9.24176 8.00623 9.24176Z" fill="#EBA352"/>
<path d="M15.7853 26.3239C20.7916 28.1436 28.3311 26.2652 32.6136 24.328C30.7438 28.7306 20.7916 31.0786 15.7853 26.3239ZM13.3124 2.08029C12.9505 1.43458 12.2267 1.49328 11.7441 1.66938C11.8045 0.96497 13.5536 0.43666 13.3124 2.08029Z" fill="#EBA352"/>
<path d="M16.9923 4.60444C16.8113 3.31301 16.3891 2.02159 15.605 0.964966C16.0272 2.08029 16.2685 3.25431 16.2685 4.42833C16.2685 4.95664 16.3891 6.83508 15.424 6.60027C14.8209 6.42417 14.8209 5.95456 14.6399 5.42625C14.3987 4.60443 13.9161 3.72392 13.9764 2.9021C13.7352 3.72392 14.0368 4.72184 14.0971 5.54365C14.1574 6.01326 14.5193 7.36339 13.8558 7.53949C13.4939 7.65689 13.0717 7.42209 12.7701 7.24599C12.6495 7.18728 12.5892 6.71768 12.5289 6.54157C12.2876 5.71976 11.8051 4.78054 11.8654 3.90002C11.6241 4.66314 11.8654 5.60235 11.9257 6.42417C11.986 6.89378 12.2273 8.0091 11.6241 8.24391C10.9003 8.59611 10.84 7.7743 10.7194 7.36339C10.4781 6.60027 10.1162 5.71976 10.1162 4.89794C9.87494 5.89586 10.1765 7.06988 10.1765 8.0678C10.1765 8.59611 9.03051 9.00702 8.60829 8.71351C7.94481 8.2439 7.82418 7.06988 7.70355 6.30677C7.8845 6.54157 8.18608 6.89378 8.54798 6.83508C8.2464 6.48287 8.06545 5.95456 7.8845 5.54365C7.70355 5.19145 7.28133 4.42833 6.7988 4.42833C6.85912 4.54573 7.28133 5.54365 7.22102 5.60235C7.04007 5.89586 6.85912 6.24807 6.61785 6.54157C6.4369 6.77638 5.89406 7.59819 5.47184 7.36339C4.98931 7.06988 4.86868 6.36547 4.74805 5.89586C4.80836 6.48287 4.74805 7.36339 5.35121 7.71559C5.89406 8.0678 6.55754 7.53949 6.91944 7.18728C7.04007 8.36131 7.58292 9.94624 9.09082 9.82883C9.39241 9.82883 9.7543 9.71143 10.0559 9.59403C10.2972 9.47663 10.5987 9.18312 10.84 9.30052C11.5035 9.47663 12.167 9.35923 12.6495 8.88962C12.8908 8.65481 12.8304 8.53741 13.132 8.59611C13.4939 8.65481 13.8558 8.71351 14.1574 8.59611C14.459 8.53741 14.7002 8.36131 14.8812 8.1265C15.0018 8.0091 15.0621 7.8917 15.1225 7.71559C15.2431 7.48079 15.3637 7.59819 15.605 7.59819C17.1732 7.59819 17.1129 5.66106 16.9923 4.60444Z" fill="#EBA352"/>
<path d="M15.4868 1.25846C15.1249 0.61275 14.4011 0.671451 13.9186 0.847554C13.9789 0.201842 15.7884 -0.326468 15.4868 1.25846ZM11.5662 2.96079C11.2043 2.31508 10.4806 2.37378 9.99802 2.54989C10.0583 1.84547 11.8075 1.31716 11.5662 2.96079ZM9.51549 3.90001C9.15359 3.2543 8.4298 3.313 7.94727 3.4891C8.00758 2.78469 9.81707 2.25638 9.51549 3.90001Z" fill="#EBA352"/>
</svg>
