<svg width="67" height="78" viewBox="0 0 67 78" fill="none" xmlns="http://www.w3.org/2000/svg">
<path d="M66.3052 67.1147C46.9357 81.7305 19.9187 81.6136 0.681641 66.8307L14.7811 60.3536C15.4526 60.0442 16.097 59.6814 16.708 59.2688C16.8934 59.1439 17.0788 59.0133 17.2556 58.877C18.7901 57.7263 20.0532 56.2647 20.9587 54.592C21.6432 53.3067 22.0979 51.916 22.3031 50.4802C22.4446 49.5486 22.5163 48.6081 22.5175 47.6662C22.5175 46.0419 22.4277 44.4177 22.4103 42.7906C22.3987 41.8895 22.3891 40.9893 22.3813 40.0901L22.9609 40.374L24.4676 41.1379L25.1659 41.2543L33.2442 42.6003L42.2614 44.1053L42.5338 53.1921L42.6236 56.1623L42.667 57.6048V57.6985L46.1731 59.0956L66.3052 67.1147Z" fill="#DE8276"/>
<path d="M42.6085 57.1334C41.6126 57.3014 40.588 57.1458 39.6907 56.6905L22.401 42.8388C22.3807 42.1971 22.3634 42.8701 22.3547 42.2283C22.3431 41.3272 22.3334 40.427 22.3257 39.5278L22.9052 39.8118L24.4119 40.5756L25.1102 40.6921L33.1886 42.038L42.2057 43.543L42.4781 52.6298L42.5679 55.6L42.6114 57.0426V57.1363L42.6085 57.1334Z" fill="#A76962"/>
<path d="M51.5334 32.4431C51.0829 32.9049 50.5891 33.3241 50.0585 33.6954C47.0451 35.8336 43.0233 36.535 39.5868 37.6879C38.1381 38.1734 22.4276 42.5493 22.4276 43.5006C22.4276 43.2933 20.889 41.7968 18.9505 39.9794C12.2646 33.704 10.0357 24.1288 13.2829 15.6326C16.4441 7.49142 26.5218 1.88034 34.9623 0.582636C38.9812 -0.0335604 43.7506 -0.377154 47.4624 1.51119C49.3602 2.4795 50.9394 3.89079 52.3882 5.45541C52.8402 5.94951 53.2787 6.45401 53.7037 6.96893C53.8862 7.18474 54.0659 7.40055 54.2426 7.6192C60.8403 15.7405 58.502 25.2674 51.5334 32.4431Z" fill="url(#paint0_linear_878_1847)"/>
<path d="M51.5333 32.4428C51.0828 32.9045 50.589 33.3238 50.0584 33.695C49.9347 33.4838 49.8235 33.2657 49.7252 33.0419C48.9603 31.3382 48.5662 29.4896 48.2765 27.6467C47.8252 24.9647 47.5167 22.2615 47.3521 19.5481C47.0885 15.1921 45.1906 13.0312 48.9661 9.63499C50.3248 8.41469 51.9428 7.50498 53.7036 6.97144C53.8861 7.18725 54.0657 7.40306 54.2425 7.62171C60.8402 15.7402 58.5019 25.2671 51.5333 32.4428Z" fill="url(#paint1_linear_878_1847)"/>
<ellipse cx="19.5303" cy="32.145" rx="4.92582" ry="4.82734" fill="#E18477"/>
<ellipse cx="21.0951" cy="32.1449" rx="4.41006" ry="4.32189" fill="#A76962"/>
<path d="M21.4627 27.5674C21.7032 30.6512 21.6945 34.4165 21.7785 35.5183C21.9968 38.2803 22.2132 41.0413 22.4276 43.8014L41.6789 54.822C44.4419 55.8341 47.5374 54.6234 48.83 52.025C51.6001 46.465 56.0449 37.6849 55.4596 34.4194C54.5903 29.592 52.2723 27.8882 52.2723 27.8882L53.2372 22.2261C54.2136 16.4702 52.1999 11.0209 45.3385 10.3905C43.8897 10.2599 42.2758 10.5297 41.4152 11.6627C39.0972 14.7181 40.4329 18.4778 36.953 21.3174C32.7284 24.7334 23.3027 26.2242 21.0947 23.467C21.0947 23.467 21.2976 25.4178 21.4627 27.5674Z" fill="#DE8276"/>
<path d="M35.9092 39.6125C37.3014 41.1362 39.2099 42.1138 41.2812 42.3641" stroke="#00214E" stroke-width="1.3467"/>
<path d="M42.7533 26.207C42.7302 26.3064 46.6245 36.4666 46.6245 36.4666L41.4263 36.7136" stroke="#00214E" stroke-width="1.3467"/>
<path d="M30.4458 24.2364C33.1281 23.6928 35.8871 23.6159 38.5966 24.0093" stroke="#00214E" stroke-width="1.3467"/>
<path d="M47.5557 24.2734C49.2116 23.8953 50.9186 23.7793 52.6119 23.9298" stroke="#00214E" stroke-width="1.3467"/>
<path d="M66.3052 67.1144C46.9357 81.7303 19.9187 81.6134 0.681641 66.8305L14.7811 60.3533C15.4526 60.044 16.097 59.6812 16.708 59.2686C16.8934 59.1436 17.0788 59.013 17.2556 58.8767C18.7901 57.7261 20.0532 56.2645 20.9587 54.5917C21.6432 53.3065 22.0979 51.9158 22.3031 50.48C22.5077 50.6743 22.7224 50.8582 22.9464 51.0309C24.723 52.3184 26.6511 53.3919 28.6893 54.2283C29.6788 54.6328 30.6907 54.9826 31.7201 55.2761C34.8217 56.1624 38.0599 56.498 41.282 56.2671C41.7282 56.233 42.1774 56.1904 42.6236 56.1592L42.667 57.6017V57.6954L46.1731 59.0925L66.3052 67.1144Z" fill="#00214E"/>
<path d="M34.3938 27.428C36.1613 27.428 36.1613 30.0915 34.3938 30.1057H34.3127C32.5423 30.1057 32.5423 27.4422 34.3127 27.428H34.3909H34.3938Z" fill="#00214E"/>
<path d="M48.9206 27.0334C50.5606 27.0476 50.5606 29.5039 48.9206 29.5181H48.8452C47.2052 29.5181 47.2052 27.0476 48.8452 27.0334H48.9206Z" fill="#00214E"/>
<defs>
<linearGradient id="paint0_linear_878_1847" x1="11.7936" y1="43.5116" x2="58.1485" y2="43.5116" gradientUnits="userSpaceOnUse">
<stop stop-color="#16243F"/>
<stop offset="1" stop-color="#6878B1"/>
</linearGradient>
<linearGradient id="paint1_linear_878_1847" x1="39.0941" y1="24.5388" x2="58.4705" y2="30.1482" gradientUnits="userSpaceOnUse">
<stop stop-color="#16243F"/>
<stop offset="1" stop-color="#6878B1"/>
</linearGradient>
</defs>
</svg>
