<svg width="192" height="159" viewBox="0 0 192 159" fill="none" xmlns="http://www.w3.org/2000/svg">
<path d="M177.864 45.8789L181.2 40.4957L179.552 39.4689C179.319 39.3196 179.131 39.1081 179.011 38.8578C178.89 38.6076 178.841 38.3285 178.868 38.0516C178.895 37.7451 178.906 37.4373 178.9 37.1296C178.89 36.8486 178.957 36.5701 179.095 36.3255C179.232 36.0809 179.435 35.8797 179.68 35.7445L181.376 34.8265L178.4 29.2419L176.704 30.1599C176.465 30.2902 176.195 30.3513 175.924 30.3364C175.653 30.3214 175.391 30.2311 175.168 30.0753C174.894 29.8831 174.609 29.7057 174.316 29.5439C174.078 29.4118 173.88 29.2159 173.745 28.9779C173.61 28.7398 173.544 28.4689 173.552 28.195L173.612 26.2543L167.324 26.057L167.264 28.0058C167.255 28.2801 167.171 28.5466 167.021 28.7755C166.87 29.0045 166.66 29.1868 166.412 29.3023C166.264 29.3707 166.12 29.4472 165.976 29.5237C165.832 29.6002 165.688 29.6848 165.548 29.7693C165.316 29.9125 165.05 29.9882 164.778 29.9882C164.506 29.9882 164.24 29.9125 164.008 29.7693L162.36 28.7426L159.044 34.1259L160.696 35.1567C160.928 35.3065 161.114 35.5177 161.234 35.767C161.354 36.0163 161.403 36.2942 161.376 36.5699C161.349 36.8778 161.339 37.1869 161.344 37.496C161.354 37.7762 161.286 38.0536 161.148 38.2974C161.01 38.5412 160.808 38.7418 160.564 38.877L158.868 39.7951L161.84 45.3756L163.54 44.4616C163.787 44.3309 164.065 44.2718 164.343 44.291C164.622 44.3102 164.889 44.4069 165.116 44.5704C165.367 44.7464 165.628 44.9091 165.896 45.0576C166.142 45.185 166.347 45.3794 166.489 45.6186C166.63 45.8577 166.702 46.1321 166.696 46.4104L166.636 48.3672L172.928 48.5645L172.988 46.6198C173 46.3425 173.087 46.0738 173.241 45.8435C173.395 45.6132 173.609 45.4303 173.86 45.3152C174 45.2468 174.14 45.1783 174.28 45.1018C174.42 45.0253 174.552 44.9488 174.68 44.8723C174.916 44.7254 175.187 44.6476 175.464 44.6476C175.741 44.6476 176.013 44.7254 176.248 44.8723L177.864 45.8789ZM173.112 41.5224C172.237 42.1558 171.187 42.4973 170.109 42.4988C169.031 42.5004 167.98 42.1619 167.103 41.531C166.227 40.9001 165.568 40.0085 165.221 38.9815C164.874 37.9545 164.855 36.8437 165.167 35.8053C165.479 34.7669 166.107 33.8532 166.962 33.1924C167.816 32.5317 168.855 32.1572 169.933 32.1216C171.01 32.086 172.071 32.3911 172.967 32.994C173.863 33.5969 174.549 34.4673 174.928 35.4828C175.328 36.5504 175.366 37.7207 175.038 38.8126C174.709 39.9045 174.033 40.8569 173.112 41.5224Z" fill="#EBEBEB"/>
<path d="M13.0118 95.629C13.1788 95.7284 13.315 95.8725 13.4054 96.0452C13.4958 96.218 13.5368 96.4126 13.5238 96.6074C13.5238 96.7161 13.5238 96.8248 13.5238 96.9335C13.5238 97.0422 13.5238 97.155 13.5238 97.2637C13.5369 97.4575 13.4963 97.6512 13.4067 97.8232C13.317 97.9952 13.1817 98.1388 13.0158 98.2381L11.8398 98.9306L14.0438 102.776L15.1998 102.095C15.3686 101.998 15.5611 101.95 15.7556 101.957C15.95 101.964 16.1386 102.026 16.2998 102.136C16.4832 102.256 16.6728 102.366 16.8678 102.466C17.041 102.553 17.1867 102.687 17.289 102.853C17.3914 103.018 17.4463 103.209 17.4478 103.404V104.761H21.8478V103.404C21.853 103.208 21.9123 103.017 22.0189 102.853C22.1256 102.689 22.2754 102.557 22.4518 102.474C22.6469 102.374 22.8365 102.264 23.0198 102.144C23.1811 102.034 23.3697 101.972 23.5641 101.965C23.7586 101.958 23.9511 102.006 24.1198 102.103L25.2918 102.784L27.4958 98.9387L26.3198 98.2542C26.1529 98.1558 26.0166 98.0124 25.9261 97.8403C25.8357 97.6682 25.7947 97.4741 25.8078 97.2798C25.8078 97.1711 25.8078 97.0624 25.8078 96.9537C25.8078 96.8449 25.8078 96.7362 25.8078 96.6275C25.791 96.4294 25.8302 96.2306 25.9208 96.0539C26.0114 95.8772 26.1497 95.7299 26.3198 95.629L27.4958 94.9485L25.2918 91.1033L24.1238 91.7838C23.9552 91.881 23.763 91.9291 23.5687 91.9227C23.3745 91.9163 23.1858 91.8556 23.0238 91.7475C22.8392 91.626 22.6482 91.5145 22.4518 91.4133C22.2787 91.3259 22.133 91.192 22.0306 91.0264C21.9283 90.8609 21.8734 90.6702 21.8718 90.4752V89.1183H17.4718V90.4752C17.4703 90.6702 17.4154 90.8609 17.313 91.0264C17.2107 91.192 17.065 91.3259 16.8918 91.4133C16.6955 91.5145 16.5045 91.626 16.3198 91.7475C16.1579 91.8556 15.9692 91.9163 15.775 91.9227C15.5807 91.9291 15.3885 91.881 15.2198 91.7838L14.0518 91.1033L11.8478 94.9485L13.0118 95.629ZM19.6678 93.2977C20.3799 93.2977 21.0759 93.5102 21.6679 93.9084C22.2599 94.3066 22.7213 94.8725 22.9938 95.5347C23.2663 96.1968 23.3376 96.9255 23.1987 97.6284C23.0598 98.3313 22.7169 98.977 22.2134 99.4838C21.71 99.9906 21.0685 100.336 20.3702 100.476C19.6718 100.615 18.948 100.544 18.2902 100.269C17.6324 99.9951 17.0701 99.5306 16.6746 98.9347C16.279 98.3388 16.0678 97.6381 16.0678 96.9214C16.071 95.9625 16.4517 95.0438 17.1265 94.3669C17.8013 93.6899 18.7151 93.3098 19.6678 93.3098V93.2977Z" fill="#EBEBEB"/>
<path d="M150.828 24.837L149.544 19.3087L147.852 19.7114C147.611 19.7661 147.359 19.7522 147.126 19.6711C146.892 19.5901 146.685 19.445 146.528 19.2524C146.353 19.0395 146.164 18.8378 145.964 18.6484C145.781 18.4762 145.649 18.2564 145.583 18.0133C145.517 17.7703 145.519 17.5135 145.588 17.2714L146.084 15.6085L140.684 13.9657L140.184 15.6326C140.116 15.8675 139.984 16.0786 139.803 16.2422C139.622 16.4058 139.4 16.5154 139.16 16.5587C138.865 16.6109 138.572 16.6795 138.284 16.764C138.05 16.8336 137.801 16.8358 137.566 16.7703C137.33 16.7049 137.118 16.5744 136.952 16.3936L135.752 15.1293L131.644 19.0148L132.844 20.2871C133.011 20.4667 133.126 20.6893 133.174 20.9303C133.223 21.1713 133.204 21.4211 133.12 21.6521C133.072 21.793 133.024 21.9299 132.98 22.0547C132.936 22.1795 132.9 22.3406 132.868 22.4815C132.81 22.7201 132.688 22.938 132.515 23.1113C132.343 23.2846 132.126 23.4066 131.888 23.464L130.196 23.8666L131.484 29.3948L133.18 28.9922C133.422 28.9384 133.674 28.9531 133.907 29.0349C134.141 29.1167 134.348 29.2622 134.504 29.4552C134.68 29.6662 134.867 29.8678 135.064 30.0592C135.247 30.2305 135.379 30.4496 135.446 30.692C135.512 30.9345 135.51 31.1907 135.44 31.4322L134.94 33.0951L140.34 34.7379L140.84 33.0709C140.915 32.8311 141.055 32.6169 141.243 32.452C141.432 32.2871 141.662 32.178 141.908 32.1368C142.178 32.088 142.445 32.0249 142.708 31.9476C142.944 31.8735 143.196 31.8671 143.436 31.9289C143.675 31.9908 143.893 32.1186 144.064 32.2979L145.264 33.5783L149.376 29.6888L148.176 28.4204C148.01 28.2363 147.897 28.0098 147.85 27.7656C147.803 27.5214 147.823 27.2688 147.908 27.0354C147.956 26.9025 148 26.7696 148.04 26.6327C148.08 26.4958 148.116 26.363 148.152 26.2301C148.207 25.9857 148.329 25.7616 148.503 25.5831C148.678 25.4045 148.898 25.2786 149.14 25.2195L150.828 24.837ZM145.076 25.1067C144.92 26.0655 144.469 26.9507 143.786 27.6381C143.104 28.3256 142.225 28.7807 141.273 28.9396C140.321 29.0985 139.343 28.9532 138.477 28.5241C137.611 28.095 136.9 27.4036 136.445 26.5471C135.989 25.6906 135.811 24.7119 135.937 23.7485C136.062 22.7851 136.484 21.8853 137.143 21.1756C137.802 20.4659 138.666 19.9819 139.612 19.7915C140.559 19.6011 141.541 19.7138 142.42 20.114C143.347 20.5357 144.11 21.2537 144.59 22.1565C145.071 23.0592 145.241 24.0963 145.076 25.1067Z" fill="#EBEBEB"/>
<path d="M71.196 36.4458C73.569 21.5662 63.5094 7.56754 48.7274 5.17888C33.9453 2.79023 20.0383 12.9161 17.6653 27.7958C15.2923 42.6754 25.3519 56.6741 40.134 59.0627C54.916 61.4514 68.823 51.3254 71.196 36.4458Z" fill="#EBEBEB"/>
<path d="M45.6726 58.7594C59.9569 58.7594 71.5366 47.1033 71.5366 32.7247C71.5366 18.3462 59.9569 6.69006 45.6726 6.69006C31.3883 6.69006 19.8086 18.3462 19.8086 32.7247C19.8086 47.1033 31.3883 58.7594 45.6726 58.7594Z" fill="#DBDBDB"/>
<path d="M45.6724 57.1165C59.0554 57.1165 69.9044 46.1959 69.9044 32.7247C69.9044 19.2534 59.0554 8.33276 45.6724 8.33276C32.2895 8.33276 21.4404 19.2534 21.4404 32.7247C21.4404 46.1959 32.2895 57.1165 45.6724 57.1165Z" fill="white"/>
<path opacity="0.5" d="M69.3562 27.5507C58.3202 34.2788 40.1842 45.3192 30.0482 51.3709C27.1825 48.939 24.9164 45.8709 23.4282 42.4081L56.9522 11.1351C60.0837 12.7955 62.8166 15.1252 64.9594 17.9609C67.1021 20.7966 68.6027 24.0697 69.3562 27.5507Z" fill="#EBEBEB"/>
<path opacity="0.5" d="M69.8851 33.5784C69.7971 36.2913 69.2562 38.97 68.2851 41.5023L38.0611 55.8926C36.7446 55.4532 35.4679 54.9009 34.2451 54.2418C43.3771 48.923 60.0571 39.2596 69.8851 33.5784Z" fill="#EBEBEB"/>
<path d="M45.9072 10.1044H45.4365V13.8006H45.9072V10.1044Z" fill="#C7C7C7"/>
<path d="M34.6384 13.013L34.2314 13.2495L36.07 16.455L36.477 16.2185L34.6384 13.013Z" fill="#C7C7C7"/>
<path d="M26.3249 21.2096L26.0903 21.6187L29.2731 23.4683L29.5077 23.0593L26.3249 21.2096Z" fill="#C7C7C7"/>
<path d="M26.8722 32.4912H23.2002V32.9639H26.8722V32.4912Z" fill="#C7C7C7"/>
<path d="M29.2741 41.9904L26.0913 43.8401L26.3259 44.2491L29.5087 42.3994L29.2741 41.9904Z" fill="#C7C7C7"/>
<path d="M36.0693 48.9966L34.2324 52.203L34.6395 52.4393L36.4764 49.2329L36.0693 48.9966Z" fill="#C7C7C7"/>
<path d="M45.9072 51.6487H45.4365V55.3449H45.9072V51.6487Z" fill="#C7C7C7"/>
<path d="M55.2737 48.9981L54.8667 49.2346L56.7053 52.4401L57.1123 52.2036L55.2737 48.9981Z" fill="#C7C7C7"/>
<path d="M62.0681 41.9806L61.8335 42.3896L65.0163 44.2393L65.2509 43.8303L62.0681 41.9806Z" fill="#C7C7C7"/>
<path d="M68.1447 32.4912H64.4727V32.9639H68.1447V32.4912Z" fill="#C7C7C7"/>
<path d="M65.0177 21.2154L61.835 23.0651L62.0696 23.4741L65.2523 21.6244L65.0177 21.2154Z" fill="#C7C7C7"/>
<path d="M56.7055 13.0121L54.8687 16.2185L55.2758 16.4548L57.1127 13.2484L56.7055 13.0121Z" fill="#C7C7C7"/>
<path d="M46.0255 11.7794L46.8218 34.3715L44.5249 34.3433L45.4013 11.7714L46.0255 11.7794Z" fill="#C7C7C7"/>
<path d="M60.0041 24.8491L44.9041 34.5487L43.8081 32.5154L59.7081 24.2935L60.0041 24.8491Z" fill="#A6A6A6"/>
<path d="M46.4654 32.7246C46.4654 32.8839 46.4182 33.0395 46.3298 33.172C46.2415 33.3044 46.1158 33.4076 45.9688 33.4686C45.8218 33.5295 45.66 33.5455 45.504 33.5144C45.3479 33.4833 45.2046 33.4066 45.0921 33.294C44.9796 33.1814 44.9029 33.0379 44.8719 32.8817C44.8409 32.7255 44.8568 32.5636 44.9177 32.4164C44.9786 32.2693 45.0817 32.1435 45.214 32.055C45.3463 31.9665 45.5018 31.9193 45.6609 31.9193C45.8743 31.9193 46.0789 32.0042 46.2298 32.1552C46.3807 32.3062 46.4654 32.511 46.4654 32.7246Z" fill="#C7C7C7"/>
<path d="M162.624 106.222C162.624 106.222 156.36 104.793 152.928 101.608C149.496 98.4233 147.6 92.7219 147.6 92.7219C149.98 93.1821 152.327 93.8036 154.624 94.5821C155.484 95.4721 156.201 96.4925 156.748 97.6059C156.8 96.8862 156.8 96.1635 156.748 95.4438C157.549 95.7927 158.298 96.2506 158.976 96.8047C161.82 99.3131 162.624 106.222 162.624 106.222Z" fill="#DBDBDB"/>
<path d="M151.488 95.4961C150.636 94.9002 149.768 94.3284 148.916 93.7285C148.905 93.7215 148.897 93.7104 148.894 93.6976C148.891 93.6847 148.893 93.6712 148.9 93.66C148.907 93.6488 148.918 93.6408 148.931 93.6378C148.943 93.6348 148.957 93.637 148.968 93.6439C150.568 94.6143 152.168 95.6571 153.712 96.7362C154.248 97.1147 154.776 97.5093 155.312 97.9119L155.204 97.7227C155.016 97.4086 154.804 97.0945 154.62 96.7845C154.226 96.1537 153.78 95.5571 153.288 95.0008C153.288 94.9807 153.288 94.9485 153.32 94.9686C153.808 95.5363 154.296 96.096 154.74 96.6959C154.952 96.9818 155.14 97.2798 155.336 97.5817C155.432 97.7388 155.528 97.8958 155.616 98.0569L155.712 98.2179C156.512 98.8581 157.312 99.5265 158.06 100.231C158.524 100.666 158.972 101.121 159.408 101.584C159.164 100.823 158.952 100.05 158.672 99.301C158.672 99.2957 158.674 99.2906 158.678 99.2868C158.682 99.283 158.687 99.2809 158.692 99.2809C158.697 99.2809 158.702 99.283 158.706 99.2868C158.71 99.2906 158.712 99.2957 158.712 99.301C158.984 100.106 159.284 100.879 159.512 101.689C159.992 102.212 160.448 102.752 160.88 103.299C160.875 103.264 160.869 103.229 160.86 103.195C160.788 102.901 160.716 102.603 160.636 102.309C160.484 101.737 160.316 101.169 160.124 100.614C159.764 99.4518 159.195 98.3666 158.444 97.4126C158.444 97.3925 158.444 97.3643 158.472 97.3844C159.647 98.8564 160.468 100.582 160.872 102.425C160.939 102.694 161.003 102.962 161.064 103.231C161.096 103.372 161.132 103.517 161.156 103.666C161.348 103.923 161.532 104.181 161.708 104.451C162.777 106.094 163.666 107.849 164.36 109.685C165.139 111.746 165.807 113.848 166.36 115.982C166.36 115.991 166.357 115.999 166.351 116.005C166.345 116.011 166.336 116.015 166.328 116.015C166.319 116.015 166.311 116.011 166.305 116.005C166.299 115.999 166.296 115.991 166.296 115.982C165.068 112.294 163.82 108.55 161.724 105.256C161.28 104.559 160.8 103.887 160.292 103.243C159.255 103.176 158.232 102.971 157.248 102.635C156.173 102.27 155.147 101.771 154.196 101.149C153.654 100.782 153.131 100.386 152.632 99.9613C152.608 99.9412 152.632 99.909 152.656 99.9291C153.531 100.638 154.497 101.226 155.528 101.677C156.541 102.144 157.6 102.502 158.688 102.744C159.148 102.844 159.62 102.921 160.088 102.985C159.508 102.266 158.891 101.578 158.24 100.924C158.028 100.71 157.812 100.521 157.592 100.304C156.862 99.79 156.088 99.3427 155.28 98.9668C154.252 98.4675 153.244 97.9401 152.228 97.4207C151.652 97.1268 151.084 96.8248 150.508 96.5429C150.484 96.5429 150.508 96.4946 150.528 96.5067C151.56 97.006 152.604 97.473 153.644 97.9522C154.62 98.4031 155.608 98.8581 156.548 99.3856L156.668 99.458C155.82 98.7132 154.94 98.0085 154.04 97.324C153.197 96.704 152.347 96.0947 151.488 95.4961Z" fill="#A6A6A6"/>
<path d="M151.845 98.7454C152.357 98.9709 152.873 99.1682 153.377 99.4058C153.881 99.6433 154.389 99.9373 154.881 100.211C154.886 100.214 154.89 100.218 154.891 100.223C154.893 100.229 154.892 100.234 154.889 100.239C154.887 100.244 154.882 100.248 154.877 100.249C154.872 100.251 154.866 100.25 154.861 100.247C154.361 100.006 153.857 99.7802 153.361 99.5306C152.865 99.2809 152.353 98.9991 151.833 98.7696C151.809 98.7736 151.821 98.7334 151.845 98.7454Z" fill="#A6A6A6"/>
<path d="M182.969 74.4542C181.812 75.9564 181.157 77.7886 181.097 79.6885C181.077 80.2522 181.165 81.0414 181.229 81.9675C179.665 82.8781 178.279 84.0694 177.141 85.4825C178.392 84.7518 179.829 84.4061 181.273 84.488C181.238 85.1211 181.158 85.7509 181.033 86.3724C180.122 86.371 179.219 86.5502 178.377 86.8998C179.202 86.8894 180.019 87.0526 180.777 87.3789C179.661 90.9544 176.341 94.6265 167.177 96.1847C166.208 91.8016 166.782 87.2158 168.801 83.2116C171.545 77.776 182.969 74.4542 182.969 74.4542Z" fill="#DBDBDB"/>
<path d="M164 111.485C164.156 109.959 164.356 108.433 164.592 106.919C165.056 103.879 165.673 100.865 166.44 97.8878C166.799 96.492 167.242 95.1192 167.764 93.7768C167.736 93.5309 167.724 93.2834 167.728 93.036C167.728 92.742 167.728 92.4481 167.728 92.1502C167.728 91.5623 167.764 90.9704 167.812 90.3826C167.906 89.2161 168.095 88.0593 168.376 86.9239C168.544 86.2676 168.736 85.6194 168.928 84.9711C168.928 84.9658 168.93 84.9606 168.934 84.9569C168.938 84.9531 168.943 84.951 168.948 84.951C168.954 84.951 168.959 84.9531 168.962 84.9569C168.966 84.9606 168.968 84.9658 168.968 84.9711C168.665 86.1045 168.439 87.2574 168.292 88.4217C168.13 89.5698 168.027 90.7256 167.984 91.8844C167.984 92.1985 167.984 92.5166 167.984 92.8346C167.984 92.9675 167.984 93.1044 167.984 93.2373C168.433 92.1328 168.949 91.0571 169.528 90.0162C170.458 88.367 171.506 86.7885 172.664 85.2932C172.666 85.119 172.691 84.9458 172.736 84.7778C172.78 84.5725 172.824 84.3752 172.872 84.1618C172.963 83.7404 173.067 83.3216 173.184 82.9056C173.412 82.0681 173.712 81.2628 173.984 80.4374C173.984 80.432 173.986 80.4269 173.99 80.4232C173.994 80.4194 173.999 80.4173 174.004 80.4173C174.01 80.4173 174.015 80.4194 174.018 80.4232C174.022 80.4269 174.024 80.432 174.024 80.4374C173.784 81.2427 173.624 82.1003 173.436 82.9297C173.344 83.3324 173.256 83.735 173.164 84.1658L173.032 84.7819C173.034 84.7979 173.034 84.8141 173.032 84.8302C173.404 84.3591 173.78 83.8961 174.168 83.4411C175.916 81.3755 177.836 79.467 179.768 77.5786C180.004 77.3451 180.248 77.1196 180.488 76.8901L180.516 76.9183C178.672 78.859 176.856 80.8159 175.136 82.8693C174.736 83.3565 174.336 83.8477 173.936 84.351C174.144 84.2061 174.336 84.0692 174.56 83.9484C175.092 83.5981 175.632 83.2559 176.188 82.9418C176.744 82.6277 177.304 82.3217 177.876 82.0359C178.448 81.75 179.076 81.5044 179.66 81.1742C179.684 81.1742 179.704 81.2024 179.68 81.2105C179.101 81.4797 178.542 81.7919 178.008 82.1446C177.452 82.4747 176.892 82.813 176.348 83.1633C175.804 83.5136 175.268 83.8437 174.748 84.194C174.3 84.4839 173.864 84.802 173.4 85.0718C172.317 86.4499 171.315 87.8912 170.4 89.3881C169.846 90.3278 169.34 91.2954 168.884 92.2871L169.212 92.1421L170.052 91.7677C170.592 91.5261 171.132 91.2925 171.672 91.055C172.7 90.604 173.744 90.1933 174.752 89.6981C175.321 89.4301 175.872 89.1248 176.4 88.7841C176.424 88.7841 176.444 88.8042 176.42 88.8203C174.544 90.1249 172.42 91.0429 170.356 91.969L169.456 92.3716C169.208 92.4803 168.96 92.6051 168.704 92.7018C168.089 94.0873 167.572 95.5148 167.156 96.9738C166.334 99.9105 165.667 102.889 165.156 105.896C164.632 108.908 164.276 111.936 164.004 114.988C163.968 115.366 163.932 115.745 163.892 116.127C163.892 116.159 163.88 116.19 163.857 116.213C163.835 116.235 163.804 116.248 163.772 116.248C163.741 116.248 163.71 116.235 163.687 116.213C163.665 116.19 163.652 116.159 163.652 116.127C163.684 114.553 163.844 113.023 164 111.485Z" fill="#A6A6A6"/>
<path d="M169.578 86.014C169.747 85.0759 169.98 84.1619 170.25 83.2439C170.25 83.2385 170.252 83.2334 170.256 83.2297C170.26 83.2259 170.265 83.2238 170.27 83.2238C170.275 83.2238 170.28 83.2259 170.284 83.2297C170.288 83.2334 170.29 83.2385 170.29 83.2439C170.057 84.1458 169.888 85.0638 169.723 85.9778C169.558 86.8918 169.397 87.8461 169.264 88.7963H169.24C169.301 87.8632 169.413 86.9344 169.578 86.014Z" fill="#A6A6A6"/>
<path d="M173.524 88.5587C174.164 88.1368 174.832 87.7601 175.524 87.4313C175.856 87.2541 176.196 87.089 176.532 86.924C176.868 86.7589 177.244 86.6139 177.588 86.4368C177.616 86.4368 177.636 86.4649 177.612 86.477C177.276 86.6461 176.956 86.8515 176.628 87.0327L175.6 87.5762C174.928 87.9386 174.272 88.3372 173.568 88.6311C173.559 88.6305 173.551 88.6279 173.544 88.6236C173.537 88.6193 173.531 88.6133 173.527 88.6063C173.523 88.5992 173.52 88.5912 173.52 88.5829C173.519 88.5746 173.52 88.5663 173.524 88.5587Z" fill="#A6A6A6"/>
<path opacity="0.1" d="M162.508 95.3029C162.508 95.3029 156.716 93.9098 154.056 89.9961C151.512 86.2596 150.692 79.8899 150.628 79.3302C150.732 79.8456 151.928 85.41 155.872 88.003C158.892 89.9921 161.812 91.6228 162.508 95.3029Z" fill="#A6A6A6"/>
<path d="M157.16 85.2247C158.191 86.1787 158.932 87.4073 159.297 88.7679C158.87 87.4406 158.133 86.2354 157.148 85.2529C157.112 85.2368 157.14 85.2045 157.16 85.2247Z" fill="#A6A6A6"/>
<path d="M162.508 95.303C162.508 95.303 156.716 93.9099 154.056 89.9962C151.512 86.2597 150.692 79.89 150.628 79.3303C150.627 79.3169 150.627 79.3034 150.628 79.29C150.628 79.29 153.408 83.2681 156.328 84.2828C159.248 85.2974 163.348 88.8044 162.508 95.303Z" fill="#DBDBDB"/>
<path d="M151.649 81.4843C152.168 82.5564 152.767 83.5875 153.441 84.5686C154.122 85.5005 154.93 86.3314 155.841 87.0367C156.641 87.6649 157.441 88.2447 158.241 88.8526L158.221 88.8245C158.073 88.599 157.913 88.3816 157.749 88.1722C157.417 87.7454 157.053 87.3427 156.689 86.9441C155.969 86.1388 155.233 85.3859 154.589 84.5283C154.229 84.0592 153.917 83.5547 153.657 83.0224C153.657 82.9983 153.685 82.9862 153.697 83.0224C154.637 84.9913 156.517 86.2435 157.853 87.9185C158.045 88.1544 158.224 88.4004 158.389 88.6553C158.522 88.8399 158.635 89.0384 158.725 89.2472C159.458 89.84 160.121 90.5155 160.701 91.2604C160.651 90.8782 160.573 90.5002 160.469 90.129C160.335 89.6093 160.128 89.1117 159.853 88.6513C159.853 88.6272 159.877 88.603 159.889 88.6272C160.172 89.088 160.399 89.5815 160.565 90.0968C160.687 90.5051 160.758 90.9271 160.777 91.353C161.063 91.7454 161.323 92.1556 161.557 92.5811L161.485 92.2066C161.373 91.6268 161.245 91.047 161.085 90.4713C160.813 89.3036 160.342 88.192 159.693 87.1857C159.693 87.1616 159.713 87.1414 159.729 87.1616C160.392 88.1566 160.912 89.241 161.273 90.3827C161.457 90.9544 161.605 91.5342 161.733 92.1221C161.797 92.4079 161.857 92.6978 161.909 92.9877C161.937 93.1367 161.969 93.2897 161.993 93.4427C162.568 94.7131 163.017 96.0375 163.333 97.3967C163.9 99.8265 164.311 102.29 164.565 104.773C164.867 107.372 165 109.988 164.965 112.604C164.965 112.93 164.941 113.257 164.925 113.587C164.925 113.671 164.793 113.683 164.789 113.587C164.733 112.29 164.701 110.998 164.625 109.701C164.549 108.405 164.437 107.116 164.297 105.828C164.037 103.294 163.637 100.776 163.097 98.2865C162.629 96.1525 162.021 94.0064 160.861 92.1382C160.286 91.2085 159.582 90.3665 158.769 89.6378C157.969 88.901 157.069 88.2608 156.213 87.5803C155.346 86.9183 154.56 86.1561 153.869 85.3094C153.16 84.3676 152.542 83.359 152.025 82.2977C151.889 82.0319 151.749 81.7702 151.625 81.4924C151.601 81.4843 151.637 81.4602 151.649 81.4843Z" fill="#A6A6A6"/>
<path d="M183.772 92.7219C183.772 92.7219 183.864 101.012 178.94 103.404C174.016 105.796 171.38 103.807 168.032 104.612C168.16 104.415 170.548 100.956 174.348 100.006C178.26 99.0192 182.588 96.1766 183.772 92.7219Z" fill="#DBDBDB"/>
<path opacity="0.1" d="M183.772 92.7219C183.772 92.7219 183.864 101.012 178.94 103.404C174.016 105.796 171.38 103.807 168.032 104.612C169.8 103.763 171.69 103.201 173.632 102.949C176.74 102.562 182.672 100.529 183.772 92.7219Z" fill="#A6A6A6"/>
<path d="M167.708 104.753C168.295 104.216 168.955 103.767 169.668 103.42C169.772 103.368 169.88 103.328 169.988 103.279C170.096 103.231 170.096 103.15 170.152 103.09C170.3 102.937 170.456 102.788 170.616 102.647C170.925 102.379 171.257 102.139 171.608 101.93C172.408 101.447 173.316 101.125 174.152 100.658C174.176 100.658 174.196 100.686 174.172 100.698C173.772 100.912 173.372 101.149 172.972 101.387C172.572 101.624 172.172 101.834 171.804 102.079C171.461 102.299 171.134 102.546 170.828 102.816C170.74 102.893 170.66 102.973 170.576 103.058C171.121 102.874 171.677 102.726 172.24 102.615C173.14 102.43 174.052 102.301 174.952 102.108C175.394 102.014 175.831 101.895 176.26 101.753C176.66 101.423 177.06 101.093 177.46 100.735C177.929 100.302 178.356 99.8261 178.736 99.3132C178.738 99.3108 178.74 99.3088 178.742 99.3072C178.745 99.3056 178.747 99.3045 178.75 99.3039C178.753 99.3034 178.756 99.3034 178.759 99.3039C178.761 99.3045 178.764 99.3056 178.766 99.3072C178.769 99.3088 178.771 99.3108 178.772 99.3132C178.774 99.3156 178.775 99.3182 178.776 99.321C178.776 99.3238 178.776 99.3267 178.776 99.3295C178.775 99.3323 178.774 99.335 178.772 99.3374C178.181 100.149 177.511 100.899 176.772 101.576C176.984 101.496 177.196 101.411 177.4 101.314C179.091 100.552 180.542 99.3373 181.596 97.8033C181.596 97.7792 181.648 97.8033 181.632 97.8235C180.738 99.1407 179.583 100.258 178.24 101.105C177.567 101.527 176.847 101.87 176.096 102.128C175.222 102.399 174.331 102.61 173.428 102.76C172.545 102.905 171.674 103.114 170.82 103.384C170.035 103.653 169.297 104.045 168.632 104.544C167.377 105.524 166.367 106.786 165.68 108.228C164.802 110.133 164.252 112.176 164.056 114.267C164.056 114.356 163.908 114.356 163.916 114.267C164.116 110.801 165.04 107.173 167.708 104.753Z" fill="#A6A6A6"/>
<path d="M173.424 102.071C173.681 101.684 174.028 101.368 174.436 101.149C174.901 100.902 175.309 100.56 175.637 100.146C175.637 100.122 175.689 100.146 175.673 100.167C175.376 100.546 175.016 100.871 174.608 101.125C174.161 101.366 173.767 101.694 173.448 102.091C173.44 102.091 173.412 102.071 173.424 102.071Z" fill="#A6A6A6"/>
<path d="M170.812 110.873L170.588 115.431L169.9 129.354H159.572L158.884 115.431L158.66 110.873H170.812Z" fill="#EBEBEB"/>
<path d="M170.812 110.873L170.588 115.431H158.884L158.66 110.873H170.812Z" fill="#DBDBDB"/>
<path d="M171.536 108.968H157.936V113.317H171.536V108.968Z" fill="#EBEBEB"/>
<path d="M96.0008 158.904C148.474 158.904 191.013 154.166 191.013 148.323C191.013 142.479 148.474 137.741 96.0008 137.741C43.5271 137.741 0.98877 142.479 0.98877 148.323C0.98877 154.166 43.5271 158.904 96.0008 158.904Z" fill="#EBEBEB"/>
<path d="M8.30371 129.355L30.2277 129.258L52.1517 129.222L95.9997 129.157L139.848 129.222L161.772 129.258L183.696 129.355L161.772 129.456L139.848 129.492L95.9997 129.557L52.1517 129.492L30.2277 129.456L8.30371 129.355Z" fill="#263238"/>
<path d="M162.165 45.9069H29.1646V135.462H162.165V45.9069Z" fill="#DBDBDB"/>
<path d="M161.197 46.998H30.1328V134.367H161.197V46.998Z" fill="#37474F"/>
<path d="M179.484 142.174H11.8398V148.318H179.484V142.174Z" fill="#C7C7C7"/>
<path d="M11.8398 142.174L29.1638 135.462H162.164L179.484 142.174H11.8398Z" fill="#DBDBDB"/>
<path d="M30.7119 139.794L41.8879 135.462H149.44L160.616 139.794H30.7119Z" fill="#37474F"/>
<path d="M153.788 53.6376H37.5361V127.731H153.788V53.6376Z" fill="white"/>
<path d="M153.792 53.6376H37.4404V56.4883H153.792V53.6376Z" fill="#A6A6A6"/>
<path d="M39.7001 55.0629C39.7001 55.2031 39.6586 55.3401 39.5808 55.4566C39.503 55.5731 39.3924 55.664 39.2631 55.7176C39.1337 55.7712 38.9913 55.7853 38.854 55.7579C38.7167 55.7306 38.5905 55.6631 38.4915 55.564C38.3925 55.4649 38.3251 55.3386 38.2978 55.2012C38.2705 55.0637 38.2845 54.9212 38.3381 54.7917C38.3917 54.6622 38.4824 54.5516 38.5988 54.4737C38.7152 54.3958 38.8521 54.3543 38.9921 54.3543C39.0853 54.3537 39.1776 54.3717 39.2637 54.4071C39.3498 54.4425 39.4281 54.4947 39.4939 54.5606C39.5598 54.6265 39.6119 54.7049 39.6473 54.7911C39.6827 54.8773 39.7006 54.9697 39.7001 55.0629Z" fill="#C7C7C7"/>
<path d="M41.8598 55.7715C42.2508 55.7715 42.5678 55.4543 42.5678 55.0629C42.5678 54.6715 42.2508 54.3542 41.8598 54.3542C41.4688 54.3542 41.1519 54.6715 41.1519 55.0629C41.1519 55.4543 41.4688 55.7715 41.8598 55.7715Z" fill="white"/>
<path d="M45.4359 55.0629C45.4359 55.2031 45.3944 55.3401 45.3166 55.4566C45.2388 55.5731 45.1283 55.664 44.9989 55.7176C44.8695 55.7712 44.7272 55.7853 44.5899 55.7579C44.4525 55.7306 44.3264 55.6631 44.2274 55.564C44.1284 55.4649 44.0609 55.3386 44.0336 55.2012C44.0063 55.0637 44.0203 54.9212 44.0739 54.7917C44.1275 54.6622 44.2182 54.5516 44.3347 54.4737C44.4511 54.3958 44.588 54.3543 44.728 54.3543C44.8211 54.3537 44.9134 54.3717 44.9995 54.4071C45.0857 54.4425 45.1639 54.4947 45.2298 54.5606C45.2956 54.6265 45.3477 54.7049 45.3831 54.7911C45.4185 54.8773 45.4365 54.9697 45.4359 55.0629Z" fill="#FFC727"/>
<path d="M63.4443 47.4576C59.2083 53.0945 58.9403 61.4413 58.9403 61.4413C58.9403 61.4413 55.3643 70.2993 57.3123 74.5552C57.8393 75.7671 58.6502 76.8325 59.6757 77.6599C60.7011 78.4874 61.9105 79.0523 63.2003 79.3064L62.4003 76.9147C62.4003 76.9147 64.4323 79.8459 69.9123 80.3653C75.3923 80.8847 82.1683 78.2353 85.5523 75.8557C87.5622 74.459 89.1775 72.5611 90.2403 70.3476L89.3763 74.1163C89.3763 74.1163 94.4963 73.1983 96.7723 67.2715C99.0483 61.3446 89.1723 54.6648 88.1723 53.0664C87.1723 51.4679 84.4883 39.1753 71.8043 43.1775C71.7963 43.1614 66.3603 43.5721 63.4443 47.4576Z" fill="#263238"/>
<path d="M61.2844 79.2536C59.7164 78.7664 58.2884 77.4377 57.3404 76.1251C56.3208 74.7466 55.7899 73.0638 55.8324 71.3458C55.9084 69.2842 56.7124 67.3596 57.4924 65.4833C58.2924 63.5426 59.2484 61.6542 60.0204 59.7055C60.0604 59.5967 59.9004 59.5363 59.8404 59.6249C58.8777 61.1528 58.0029 62.7351 57.2204 64.364C56.3963 65.8682 55.7493 67.4641 55.2924 69.1192C54.866 70.6447 54.8826 72.2614 55.3404 73.7777C55.7703 75.009 56.4942 76.1152 57.4484 76.9988C58.5724 78.0618 59.9004 78.6577 61.2324 79.3905C61.2414 79.3939 61.2509 79.3956 61.2604 79.3953C61.27 79.395 61.2794 79.3929 61.2881 79.3889C61.2969 79.385 61.3047 79.3794 61.3113 79.3724C61.3179 79.3654 61.323 79.3572 61.3264 79.3482C61.3298 79.3392 61.3315 79.3296 61.3312 79.32C61.3309 79.3104 61.3288 79.3009 61.3249 79.2921C61.321 79.2834 61.3154 79.2754 61.3085 79.2688C61.3015 79.2622 61.2934 79.257 61.2844 79.2536Z" fill="#263238"/>
<path d="M97.0608 61.4327C94.8568 57.0802 90.3608 54.761 87.3128 51.1292C85.6608 49.1603 84.2809 46.9176 82.2648 45.2909C82.2088 45.2506 82.1368 45.3433 82.1888 45.3875C83.8648 46.8733 84.9889 48.7818 86.2969 50.5695C87.6736 52.3319 89.2227 53.9506 90.9209 55.4012C93.9329 58.1391 97.5329 61.3723 97.5569 65.8054C97.5569 67.8548 96.7009 70.2344 94.7569 71.1645C94.6849 71.1967 94.7569 71.3215 94.8209 71.2773C95.5819 70.8367 96.2458 70.2445 96.7719 69.537C97.298 68.8295 97.6754 68.0215 97.8808 67.1623C98.3018 65.2153 98.0106 63.1809 97.0608 61.4327Z" fill="#263238"/>
<path d="M97.4238 62.6368C97.3166 60.8843 96.674 59.2079 95.5838 57.8373C94.4798 56.4885 92.9198 55.6268 91.3798 54.8819C89.5998 54.0243 87.7438 53.2392 86.4678 51.6608C86.4158 51.5924 86.3238 51.685 86.3758 51.7494C88.4118 54.3585 91.7118 55.2403 94.1558 57.33C96.9558 59.7217 97.5158 63.7038 96.2998 67.0698C95.5142 69.1259 94.2574 70.9662 92.6318 72.441C92.6038 72.4652 92.6318 72.5095 92.6718 72.4813C95.4558 70.0171 97.7198 66.5182 97.4238 62.6368Z" fill="#263238"/>
<path d="M75.2005 82.3661C79.4125 86.8193 101.056 107.885 110.504 105.92C121.956 103.541 135.256 96.5269 140.448 91.5422C143.36 88.7519 129.324 74.6314 126.396 76.8096C121.784 80.2482 110.672 85.9657 108.716 86.7709C106.76 87.5762 90.2125 78.9879 80.5645 75.6299C71.8765 72.586 72.2365 79.2295 75.2005 82.3661Z" fill="#F7A9A0"/>
<path d="M148.365 85.2087C145.825 88.6191 137.917 93.5434 135.565 93.9943C133.213 94.4453 124.437 81.1904 125.225 78.8349C126.013 76.4795 135.453 65.6727 139.625 64.5896C143.797 63.5065 151.001 81.6776 148.365 85.2087Z" fill="#F7A9A0"/>
<path d="M126.5 76.705C126.5 76.705 128 71.3701 127.7 66.4981C127.436 62.3993 126.584 56.3436 128.768 56.1181C133.252 55.6551 135.372 70.7581 135.372 70.7581C135.372 70.7581 135.24 77.5747 130.84 78.4082C128.068 78.9679 126.5 76.705 126.5 76.705Z" fill="#F7A9A0"/>
<path d="M133.525 67.557C133.301 69.8037 136.061 68.7851 136.061 68.7851C136.061 68.7851 132.461 71.2009 133.101 73.6167C133.741 75.9319 137.029 74.579 137.269 74.4864C137.077 74.6193 133.809 76.9425 134.721 79.2899C135.669 81.7299 138.721 79.8053 138.937 79.6926C138.793 79.8697 136.965 82.2815 138.061 83.9082C139.941 86.7025 144.789 80.6871 147.497 80.4938C147.497 80.4938 148.317 85.0839 148.365 85.2127C148.365 85.2127 153.093 79.5758 152.657 75.8997C152.601 75.3653 152.365 74.866 151.989 74.4845C151.613 74.1031 151.119 73.8623 150.589 73.8019C150.589 73.8019 152.313 72.1511 151.657 70.2789C151.317 69.3165 149.485 69.0105 149.485 69.0105C149.485 69.0105 150.813 67.6335 150.125 66.0028C149.577 64.7023 147.829 64.5976 147.829 64.5976C147.829 64.5976 148.489 62.677 147.505 61.5295C145.517 59.2063 134.001 62.7455 133.525 67.557Z" fill="#F7A9A0"/>
<path d="M147.552 64.5332C147.56 64.5332 147.569 64.5298 147.575 64.5237C147.581 64.5177 147.584 64.5095 147.584 64.501C147.584 64.4924 147.581 64.4842 147.575 64.4782C147.569 64.4721 147.56 64.4687 147.552 64.4688C143.484 64.7023 139.084 66.2162 135.908 68.8213C135.804 68.9099 135.908 69.1152 136.028 69.0427C139.808 66.9852 143.332 65.4673 147.552 64.5332Z" fill="#263238"/>
<path d="M149.537 68.9661C149.581 68.9661 149.565 68.8816 149.537 68.8816C145.345 69.1473 140.441 70.9874 137.137 74.4259C137.025 74.5427 137.041 74.7641 137.181 74.6393C139.525 72.5214 145.733 69.7875 149.537 68.9661Z" fill="#263238"/>
<path d="M138.801 80.0067C142.101 76.834 146.081 75.0422 150.429 73.7981C150.485 73.7981 150.457 73.7014 150.405 73.7014C148.113 73.7296 145.421 74.8127 143.401 75.8354C141.507 76.752 139.883 78.1494 138.689 79.89C138.629 79.9584 138.717 80.0752 138.801 80.0067Z" fill="#263238"/>
<path d="M136 68.7649C135.876 68.8656 136.164 68.938 136.04 69.0427C135.528 69.4937 132.68 72.4611 133.38 73.7496C133.948 74.7844 135.72 74.736 136.392 74.4502L138.088 73.7294L136.744 74.9977C136.145 75.5578 135.639 76.2118 135.248 76.9344C135.047 77.2589 134.916 77.6227 134.865 78.0017C134.814 78.3806 134.844 78.7662 134.952 79.1329C135.056 79.4701 135.271 79.7615 135.562 79.9591C135.853 80.1568 136.202 80.2487 136.552 80.22C137.337 80.1347 138.087 79.8492 138.732 79.3905L140.552 78.1826L139.22 79.9261C138.851 80.4067 138.544 80.9331 138.308 81.4923C138.063 82.0138 137.977 82.5966 138.06 83.1673C138.107 83.4223 138.224 83.6589 138.398 83.8503C138.572 84.0418 138.796 84.1803 139.044 84.2504C139.623 84.3235 140.211 84.2299 140.74 83.9806C141.887 83.4527 142.991 82.8362 144.044 82.1365C144.588 81.8024 145.136 81.4682 145.7 81.1581C146.246 80.8144 146.858 80.5907 147.496 80.5018C146.88 80.657 146.3 80.9304 145.788 81.3071C145.256 81.6534 144.74 82.0278 144.224 82.4063C143.196 83.1926 142.098 83.8814 140.944 84.4638C140.324 84.7945 139.622 84.9345 138.924 84.8664C138.549 84.7859 138.206 84.5971 137.936 84.3233C137.666 84.0494 137.481 83.7023 137.404 83.3243C137.283 82.6189 137.372 81.8932 137.66 81.2387C137.913 80.6111 138.246 80.0196 138.652 79.4791L139.148 80.0066C138.393 80.561 137.508 80.9079 136.58 81.0132C136.063 81.0516 135.549 80.9094 135.124 80.6105C134.717 80.3057 134.41 79.8849 134.244 79.4026C134.107 78.9388 134.069 78.4509 134.133 77.9713C134.198 77.4918 134.362 77.0313 134.616 76.6204C135.056 75.8305 135.623 75.1201 136.296 74.5186L136.648 75.0662C135.78 75.4044 133.804 75.6742 132.728 74.1804C131.6 72.0102 135.28 69.2239 136 68.7649Z" fill="#263238"/>
<path d="M136.06 68.785C135.603 68.8554 135.138 68.8554 134.68 68.785C134.497 68.7622 134.322 68.6905 134.175 68.5772C134.028 68.464 133.914 68.3133 133.844 68.1407C133.746 67.7414 133.764 67.3221 133.896 66.9328C134.02 66.4939 134.176 66.043 134.352 65.58C133.969 65.9036 133.657 66.304 133.436 66.7557C133.168 67.2477 133.103 67.8265 133.256 68.3662C133.368 68.6513 133.565 68.8946 133.82 69.0628C134.062 69.2085 134.338 69.2851 134.62 69.2842C135.141 69.2776 135.646 69.1025 136.06 68.785Z" fill="#263238"/>
<path d="M123.04 78.2793L139.3 96.7766C139.3 96.7766 115.164 108.671 107.3 106.843C99.4358 105.015 83.1998 92.6938 76.0998 83.8921C68.9998 75.0904 73.2998 72.6424 83.1918 75.9359C93.0838 79.2295 107.068 85.6597 108.488 85.5993C109.908 85.5389 123.04 78.2793 123.04 78.2793Z" fill="#3847FF"/>
<path d="M139.3 96.7765C139.3 96.7765 115.164 108.666 107.3 106.843C102.404 105.711 94.2681 100.505 87.1081 94.6063C87.0778 94.5881 87.0496 94.5665 87.0241 94.5419C82.7121 90.9825 78.7601 87.1816 76.0961 83.876C73.7881 81.0212 72.6881 78.8349 72.5841 77.2968C72.5583 77.0096 72.5785 76.72 72.6441 76.4392C73.1961 74.0234 77.1521 73.9187 83.1881 75.9279C93.0921 79.2174 107.064 85.6476 108.488 85.5912C109.912 85.5348 123.036 78.2793 123.036 78.2793L139.3 96.7765Z" fill="#3847FF"/>
<path d="M95.3281 94.9445C95.6319 94.8393 95.9587 94.8212 96.2721 94.8922C96.4432 94.9566 96.591 95.0713 96.6966 95.2214C96.8021 95.3714 96.8605 95.5499 96.8641 95.7337C96.8612 95.8557 96.8895 95.9764 96.9462 96.0843C97.0029 96.1922 97.0862 96.2836 97.1881 96.3497C97.3001 96.4244 97.43 96.4675 97.5641 96.4745C97.7161 96.5027 97.8641 96.5188 98.0161 96.5591C97.7098 96.6682 97.3778 96.6808 97.0641 96.5953C96.8982 96.524 96.757 96.4049 96.6581 96.253C96.5592 96.1012 96.507 95.9233 96.5081 95.7417C96.5047 95.6204 96.471 95.5019 96.4102 95.3971C96.3494 95.2922 96.2634 95.2045 96.1601 95.1418C96.039 95.0694 95.901 95.0305 95.7601 95.0291C95.6281 95.0009 95.4761 94.9848 95.3281 94.9445Z" fill="white"/>
<path d="M74.0764 77.9129C73.7695 78.0198 73.4379 78.0338 73.1231 77.9531C72.9884 77.8983 72.8692 77.8113 72.7759 77.6997C72.6827 77.5881 72.6182 77.4553 72.5881 77.3129C72.5621 77.0257 72.5825 76.7361 72.6484 76.4553C72.8159 76.6236 72.9124 76.8499 72.9179 77.0875C72.9162 77.2097 72.9455 77.3304 73.0032 77.4382C73.0609 77.546 73.1451 77.6373 73.2478 77.7035C73.3597 77.7765 73.4885 77.8195 73.6218 77.8283C73.7747 77.8565 73.9235 77.8726 74.0764 77.9129Z" fill="white"/>
<path d="M118.192 88.5707C118.498 88.4689 118.826 88.4522 119.14 88.5224C119.312 88.5861 119.46 88.7006 119.565 88.8509C119.67 89.0012 119.727 89.1801 119.728 89.3639C119.727 89.486 119.757 89.6064 119.814 89.7141C119.872 89.8217 119.955 89.9131 120.056 89.9799C120.169 90.0533 120.299 90.095 120.432 90.1007C120.58 90.1329 120.732 90.149 120.88 90.1893C120.575 90.2976 120.245 90.3102 119.932 90.2255C119.765 90.1541 119.623 90.0345 119.524 89.8819C119.424 89.7294 119.371 89.5505 119.372 89.3679C119.371 89.2472 119.338 89.1291 119.278 89.0247C119.217 88.9204 119.132 88.8334 119.028 88.772C118.908 88.6978 118.77 88.6587 118.628 88.6593C118.492 88.627 118.344 88.6109 118.192 88.5707Z" fill="white"/>
<path d="M134 95.2949C134.305 95.193 134.631 95.1763 134.944 95.2465C135.115 95.3098 135.263 95.4236 135.369 95.5731C135.474 95.7225 135.533 95.9006 135.536 96.084C135.533 96.2066 135.561 96.3278 135.618 96.4363C135.675 96.5448 135.758 96.637 135.86 96.7041C135.972 96.7775 136.102 96.8192 136.236 96.8249C136.388 96.8531 136.536 96.8732 136.688 96.9135C136.381 97.0189 136.05 97.0315 135.736 96.9497C135.569 96.8781 135.428 96.7584 135.329 96.6057C135.23 96.4531 135.178 96.2743 135.18 96.0921C135.177 95.9707 135.143 95.8522 135.082 95.7474C135.021 95.6426 134.935 95.5548 134.832 95.4921C134.71 95.4212 134.572 95.3837 134.432 95.3834C134.316 95.3512 134.164 95.3351 134 95.2949Z" fill="white"/>
<path d="M103.252 99.6554C103.558 99.5536 103.885 99.5369 104.2 99.6071C104.374 99.671 104.525 99.787 104.632 99.9395C104.74 100.092 104.798 100.274 104.8 100.461C104.797 100.583 104.826 100.703 104.883 100.811C104.939 100.919 105.022 101.01 105.124 101.077C105.236 101.15 105.366 101.192 105.5 101.197C105.652 101.23 105.8 101.246 105.952 101.286C105.645 101.394 105.314 101.406 105 101.322C104.833 101.251 104.692 101.131 104.593 100.978C104.494 100.826 104.442 100.647 104.444 100.465C104.441 100.344 104.407 100.226 104.346 100.122C104.285 100.018 104.199 99.9305 104.096 99.8688C103.976 99.7946 103.837 99.7555 103.696 99.7561C103.552 99.7238 103.4 99.7037 103.252 99.6554Z" fill="white"/>
<path d="M85.9082 77.5343C86.2141 77.4325 86.5416 77.4158 86.8562 77.486C87.0268 77.5506 87.1741 77.6655 87.279 77.8156C87.3839 77.9656 87.4414 78.144 87.4442 78.3275C87.4432 78.4496 87.4727 78.57 87.53 78.6777C87.5874 78.7853 87.6706 78.8767 87.7722 78.9435C87.8842 79.0182 88.014 79.0613 88.1482 79.0684C88.2962 79.0965 88.4482 79.1126 88.6002 79.1529C88.2939 79.262 87.9618 79.2747 87.6482 79.1891C87.4823 79.1178 87.3411 78.9987 87.2422 78.8469C87.1432 78.695 87.0911 78.5171 87.0922 78.3356C87.0895 78.2141 87.0561 78.0953 86.9952 77.9903C86.9344 77.8854 86.848 77.7977 86.7442 77.7356C86.6231 77.6632 86.4851 77.6244 86.3442 77.6229C86.2122 77.5947 86.0602 77.5746 85.9082 77.5343Z" fill="white"/>
<path d="M123.385 98.7856C123.243 99.0773 123.025 99.3235 122.753 99.4967C122.587 99.5734 122.402 99.5978 122.222 99.5668C122.042 99.5358 121.876 99.4508 121.745 99.323C121.66 99.2352 121.555 99.1703 121.439 99.1343C121.323 99.0983 121.2 99.0923 121.081 99.1169C120.949 99.1451 120.828 99.2078 120.729 99.2987C120.601 99.3836 120.485 99.4805 120.349 99.5573C120.521 99.3109 120.649 99.0079 120.997 98.8543C121.165 98.786 121.349 98.7695 121.526 98.8069C121.703 98.8442 121.866 98.9339 121.993 99.0644C122.079 99.1485 122.186 99.209 122.302 99.2401C122.418 99.2712 122.54 99.2719 122.657 99.2422C122.787 99.2081 122.907 99.1414 123.005 99.0482C123.133 98.9594 123.253 98.8503 123.385 98.7856Z" fill="white"/>
<path d="M104.377 91.2C104.235 91.4926 104.015 91.7391 103.741 91.911C103.576 91.9873 103.391 92.0116 103.212 91.9806C103.033 91.9496 102.867 91.8648 102.737 91.7373C102.652 91.6495 102.547 91.5846 102.431 91.5486C102.315 91.5126 102.192 91.5066 102.073 91.5312C101.942 91.5594 101.82 91.6221 101.721 91.713C101.593 91.7979 101.473 91.8948 101.341 91.9716C101.513 91.7252 101.641 91.4222 101.985 91.2686C102.153 91.2003 102.337 91.1838 102.514 91.2212C102.692 91.2586 102.854 91.3482 102.981 91.4787C103.068 91.5625 103.176 91.6227 103.292 91.6538C103.409 91.6849 103.532 91.6858 103.649 91.6565C103.779 91.6224 103.899 91.5557 103.997 91.4626C104.125 91.3898 104.241 91.2969 104.377 91.2Z" fill="white"/>
<path d="M113.62 95.3552C113.478 95.6461 113.259 95.892 112.988 96.0663C112.822 96.143 112.637 96.167 112.457 96.1353C112.277 96.1036 112.111 96.0175 111.98 95.8885C111.896 95.8005 111.791 95.7357 111.674 95.7003C111.558 95.665 111.435 95.6602 111.316 95.6865C111.185 95.713 111.063 95.7759 110.964 95.8683C110.836 95.9532 110.72 96.0501 110.564 96.1269C110.736 95.8804 110.864 95.5774 111.212 95.4239C111.38 95.3561 111.564 95.3395 111.741 95.3761C111.918 95.4128 112.081 95.501 112.208 95.6299C112.294 95.7151 112.401 95.7762 112.517 95.8073C112.634 95.8385 112.756 95.8386 112.872 95.8077C113.004 95.7743 113.125 95.7076 113.224 95.6138C113.368 95.5289 113.488 95.432 113.62 95.3552Z" fill="white"/>
<path d="M125.577 81.6775C125.433 81.9685 125.213 82.2143 124.941 82.3885C124.775 82.4652 124.59 82.4896 124.41 82.4586C124.23 82.4276 124.064 82.3427 123.933 82.2148C123.848 82.1267 123.743 82.0616 123.627 82.0256C123.511 81.9895 123.388 81.9838 123.269 82.0088C123.138 82.0387 123.017 82.1012 122.917 82.1906C122.793 82.2754 122.673 82.3724 122.517 82.4491C122.693 82.2027 122.817 81.8997 123.165 81.7462C123.333 81.6778 123.517 81.6613 123.694 81.6987C123.871 81.7361 124.034 81.8257 124.161 81.9563C124.247 82.04 124.354 82.1003 124.47 82.1314C124.586 82.1624 124.708 82.1634 124.825 82.134C124.964 82.1023 125.093 82.0356 125.201 81.9401C125.325 81.8512 125.441 81.7583 125.577 81.6775Z" fill="white"/>
<path d="M79.966 80.7313C80.0677 81.0392 80.0844 81.3689 80.0143 81.6856C79.9497 81.8573 79.835 82.0056 79.685 82.1112C79.5351 82.2167 79.3569 82.2747 79.1736 82.2775C79.0516 82.2765 78.9313 82.3062 78.8238 82.3639C78.7162 82.4216 78.6249 82.5054 78.5582 82.6076C78.4836 82.7204 78.4405 82.8511 78.4335 82.9861C78.4053 83.1351 78.3892 83.2881 78.349 83.4411C78.24 83.1328 78.2274 82.7985 78.3128 82.4828C78.3841 82.3158 78.503 82.1736 78.6547 82.0741C78.8065 81.9745 78.9841 81.922 79.1656 81.9231C79.2868 81.9197 79.4052 81.8858 79.5099 81.8246C79.6146 81.7633 79.7023 81.6768 79.7649 81.5728C79.8372 81.4509 79.8761 81.312 79.8775 81.1702C79.9057 81.0252 79.9218 80.8722 79.966 80.7313Z" fill="white"/>
<path d="M128.217 92.2952C128.319 92.6031 128.336 92.9328 128.266 93.2494C128.202 93.4215 128.087 93.5701 127.937 93.6757C127.787 93.7813 127.608 93.8391 127.425 93.8413C127.303 93.8388 127.182 93.8678 127.074 93.9257C126.966 93.9835 126.875 94.0682 126.809 94.1715C126.736 94.2828 126.694 94.4123 126.689 94.5459C126.657 94.6989 126.641 94.8479 126.6 95.0009C126.492 94.6938 126.48 94.3611 126.564 94.0466C126.636 93.8786 126.755 93.7354 126.907 93.6351C127.06 93.5348 127.238 93.4819 127.421 93.483C127.542 93.4803 127.66 93.4467 127.764 93.3854C127.868 93.3241 127.955 93.2371 128.016 93.1327C128.087 93.0176 128.126 92.8855 128.129 92.7502C128.157 92.5971 128.177 92.4441 128.217 92.2952Z" fill="white"/>
<path d="M114.67 102.309C114.772 102.617 114.788 102.946 114.718 103.263C114.655 103.435 114.54 103.584 114.39 103.69C114.24 103.796 114.061 103.853 113.878 103.855C113.756 103.854 113.635 103.884 113.528 103.941C113.42 103.999 113.329 104.083 113.262 104.185C113.189 104.298 113.147 104.429 113.141 104.564C113.109 104.713 113.093 104.866 113.053 105.019C112.945 104.71 112.933 104.376 113.017 104.06C113.088 103.893 113.208 103.75 113.36 103.65C113.513 103.551 113.691 103.499 113.874 103.501C113.994 103.497 114.112 103.463 114.216 103.402C114.32 103.341 114.407 103.254 114.469 103.15C114.543 103.029 114.582 102.89 114.581 102.748C114.614 102.615 114.63 102.474 114.67 102.309Z" fill="white"/>
<path d="M112.301 85.3899C112.403 85.6978 112.42 86.0275 112.35 86.3441C112.286 86.5165 112.171 86.6654 112.021 86.7711C111.871 86.8768 111.692 86.9344 111.509 86.936C111.387 86.935 111.267 86.9647 111.159 87.0224C111.052 87.0801 110.96 87.164 110.893 87.2662C110.82 87.3793 110.778 87.51 110.773 87.6447C110.741 87.7937 110.725 87.9467 110.684 88.0956C110.576 87.7885 110.564 87.4558 110.648 87.1414C110.719 86.9733 110.839 86.8301 110.991 86.7299C111.144 86.6296 111.322 86.5766 111.505 86.5777C111.625 86.5758 111.744 86.543 111.848 86.4824C111.952 86.4217 112.039 86.3353 112.1 86.2314C112.174 86.1103 112.213 85.9708 112.213 85.8288C112.245 85.6919 112.261 85.563 112.301 85.3899Z" fill="white"/>
<path d="M96.6617 84.037C96.7652 84.3446 96.7819 84.6748 96.7099 84.9912C96.6465 85.163 96.5327 85.3114 96.3833 85.4171C96.234 85.5228 96.0561 85.5806 95.8733 85.5831C95.7507 85.5822 95.6299 85.6119 95.5217 85.6696C95.4135 85.7272 95.3214 85.811 95.2538 85.9133C95.1804 86.0264 95.1388 86.1571 95.1331 86.2918C95.105 86.4407 95.0849 86.5937 95.0446 86.7427C94.9391 86.4351 94.9266 86.1032 95.0084 85.7885C95.0802 85.6207 95.1998 85.4779 95.3521 85.3776C95.5045 85.2774 95.6829 85.2242 95.8652 85.2248C95.9864 85.2232 96.1051 85.1906 96.21 85.1299C96.315 85.0693 96.4026 84.9827 96.4646 84.8785C96.5355 84.7562 96.5729 84.6173 96.5732 84.4759C96.6053 84.3551 96.6214 84.19 96.6617 84.037Z" fill="white"/>
<path d="M87.1128 94.6225C87.0823 94.6043 87.0539 94.5827 87.0283 94.5581C87.0283 94.5058 87.0484 94.4534 87.0645 94.3971C87.0766 94.4776 87.0967 94.55 87.1128 94.6225Z" fill="white"/>
<path d="M85.5596 87.5387C85.7046 87.2484 85.9243 87.0028 86.1956 86.8277C86.3619 86.7521 86.5469 86.7286 86.7266 86.7603C86.9063 86.792 87.0724 86.8774 87.2036 87.0054C87.3367 87.1407 87.5167 87.2185 87.7055 87.2222C87.8944 87.226 88.0772 87.1555 88.2156 87.0256C88.3436 86.9408 88.4636 86.8479 88.6156 86.7671C88.4396 87.0135 88.3156 87.3165 87.9676 87.47C87.7998 87.5378 87.616 87.5544 87.439 87.5178C87.262 87.4812 87.0995 87.3929 86.9716 87.264C86.8847 87.1789 86.7777 87.1178 86.6606 87.0867C86.5436 87.0555 86.4207 87.0554 86.3036 87.0862C86.1726 87.1185 86.0525 87.1855 85.9556 87.2802C85.8116 87.365 85.6956 87.462 85.5596 87.5387Z" fill="white"/>
<path d="M134.4 98.9508C133.564 97.7227 132.476 96.6316 131.524 95.4921C130.572 94.3526 129.524 93.185 128.488 92.0455C126.488 89.831 124.432 87.6809 122.364 85.5389C121.164 84.2907 119.912 83.0949 118.692 81.8587C118.648 81.8145 118.572 81.8869 118.612 81.9353C120.584 84.2424 122.524 86.5616 124.544 88.8244C126.564 91.0872 128.544 93.2534 130.62 95.3794C131.212 95.9914 131.82 96.5873 132.428 97.1832C133.022 97.8345 133.653 98.4515 134.316 99.0313C134.36 99.0716 134.432 99.0031 134.4 98.9508Z" fill="#263238"/>
<path opacity="0.1" d="M115.964 105.953C112.452 106.879 109.336 107.326 107.304 106.859C102.408 105.727 94.272 100.521 87.112 94.6224C87.0817 94.6042 87.0535 94.5826 87.028 94.5579C82.716 90.9986 78.764 87.1977 76.1 83.892C73.792 81.0373 72.692 78.851 72.588 77.3129C72.5622 77.0256 72.5825 76.7361 72.648 76.4553C72.904 75.344 73.888 74.7199 75.448 74.5709L115.964 105.953Z" fill="black"/>
<path d="M91.2887 106.126L95.0767 127.731H49.7007C50.9927 106.609 63.1687 83.5056 68.5367 76.9224C71.2247 73.6248 76.5367 72.9202 80.5647 75.6098C81.5207 76.246 92.6527 92.7783 93.5647 95.1902C95.3807 99.9453 91.2887 106.126 91.2887 106.126Z" fill="#3847FF"/>
<path d="M76.2402 89.9921C76.5461 89.8903 76.8737 89.8736 77.1882 89.9437C77.3585 90.0089 77.5055 90.1238 77.6103 90.2738C77.7151 90.4238 77.7729 90.6019 77.7762 90.7853C77.774 90.9758 77.8461 91.1597 77.9769 91.2974C78.1078 91.4351 78.287 91.5158 78.4762 91.5221C78.6282 91.5543 78.7762 91.5704 78.9282 91.6107C78.6219 91.7198 78.2899 91.7324 77.9762 91.6469C77.8104 91.5755 77.6691 91.4565 77.5702 91.3046C77.4713 91.1528 77.4191 90.9749 77.4202 90.7933C77.4175 90.6718 77.3841 90.553 77.3233 90.4481C77.2624 90.3431 77.176 90.2555 77.0722 90.1934C76.9511 90.121 76.8131 90.0821 76.6722 90.0806C76.5402 90.0404 76.4002 90.0202 76.2402 89.9921Z" fill="white"/>
<path d="M79.2002 108.916C79.5061 108.814 79.8336 108.798 80.1482 108.868C80.3188 108.932 80.4661 109.047 80.571 109.197C80.6759 109.347 80.7334 109.526 80.7362 109.709C80.7352 109.831 80.7647 109.952 80.822 110.06C80.8794 110.167 80.9626 110.259 81.0642 110.325C81.1765 110.399 81.3064 110.441 81.4402 110.446C81.5882 110.478 81.7402 110.494 81.8882 110.535C81.5831 110.643 81.2526 110.656 80.9402 110.571C80.773 110.5 80.6308 110.381 80.5317 110.228C80.4326 110.075 80.3812 109.896 80.3842 109.713C80.3808 109.593 80.3471 109.475 80.2863 109.37C80.2254 109.266 80.1394 109.179 80.0362 109.117C79.9158 109.043 79.7773 109.004 79.6362 109.005C79.4882 108.993 79.3402 108.973 79.2002 108.916Z" fill="white"/>
<path d="M68.0684 96.2972C68.3735 96.1921 68.7016 96.174 69.0164 96.2449C69.1867 96.31 69.3337 96.425 69.4385 96.5749C69.5433 96.7249 69.601 96.9031 69.6044 97.0864C69.6022 97.2087 69.6313 97.3296 69.6887 97.4374C69.7461 97.5452 69.83 97.6365 69.9324 97.7024C70.0426 97.7777 70.1713 97.8209 70.3044 97.8273C70.4564 97.8554 70.6044 97.8716 70.7564 97.9118C70.4513 98.0201 70.1207 98.0327 69.8084 97.9481C69.6417 97.8773 69.4996 97.7585 69.4 97.6066C69.3003 97.4547 69.2476 97.2765 69.2484 97.0945C69.246 96.9729 69.2128 96.8539 69.1519 96.7489C69.091 96.6439 69.0044 96.5563 68.9004 96.4945C68.7851 96.4255 68.6544 96.3867 68.5204 96.3818C68.3684 96.3536 68.2204 96.3375 68.0684 96.2972Z" fill="white"/>
<path d="M62.0405 115.705C62.345 115.603 62.6713 115.586 62.9845 115.656C63.1561 115.719 63.3043 115.834 63.4094 115.984C63.5145 116.135 63.5714 116.314 63.5725 116.498C63.5715 116.62 63.6011 116.74 63.6584 116.848C63.7157 116.956 63.799 117.047 63.9005 117.114C64.0129 117.187 64.1427 117.229 64.2765 117.235C64.4245 117.267 64.5765 117.283 64.7285 117.323C64.4219 117.431 64.0903 117.443 63.7765 117.359C63.61 117.288 63.4683 117.168 63.3694 117.015C63.2704 116.863 63.2186 116.684 63.2205 116.502C63.2171 116.381 63.1835 116.263 63.1226 116.159C63.0618 116.055 62.9757 115.968 62.8725 115.906C62.7522 115.832 62.6137 115.793 62.4725 115.793C62.3405 115.761 62.1885 115.761 62.0405 115.705Z" fill="white"/>
<path d="M89.1729 125.13C89.4788 125.029 89.8063 125.012 90.1209 125.082C90.2915 125.147 90.4388 125.262 90.5437 125.412C90.6485 125.562 90.7061 125.74 90.7089 125.924C90.7079 126.046 90.7374 126.166 90.7947 126.274C90.852 126.381 90.9353 126.473 91.0369 126.54C91.1492 126.613 91.279 126.655 91.4129 126.66C91.5609 126.693 91.7129 126.709 91.8649 126.749C91.5583 126.857 91.2267 126.869 90.9129 126.785C90.7463 126.714 90.6047 126.594 90.5057 126.441C90.4067 126.289 90.3549 126.11 90.3569 125.928C90.3535 125.807 90.3198 125.689 90.2589 125.585C90.1981 125.48 90.1121 125.393 90.0089 125.332C89.8885 125.257 89.75 125.218 89.6089 125.219C89.4769 125.191 89.3249 125.171 89.1729 125.13Z" fill="white"/>
<path d="M52.0989 118.235C51.7906 118.343 51.4571 118.355 51.1416 118.271C51.075 118.246 51.0126 118.21 50.9565 118.166C50.9767 118.033 51.0048 117.903 51.033 117.762C51.0886 117.865 51.1687 117.952 51.2663 118.017C51.3792 118.09 51.5098 118.132 51.6444 118.138C51.7972 118.178 51.9461 118.178 52.0989 118.235Z" fill="white"/>
<path d="M71.3799 76.3025C71.685 76.1973 72.0131 76.1792 72.3279 76.2501C72.4982 76.3153 72.6452 76.4302 72.75 76.5802C72.8548 76.7302 72.9126 76.9083 72.9159 77.0917C72.913 77.2137 72.9412 77.3344 72.998 77.4423C73.0547 77.5501 73.138 77.6415 73.2399 77.7077C73.3519 77.7824 73.4817 77.8255 73.6159 77.8325C73.7679 77.8607 73.9159 77.8768 74.0679 77.9171C73.7628 78.0253 73.4323 78.038 73.1199 77.9533C72.9529 77.883 72.8105 77.7643 72.7108 77.6123C72.6111 77.4603 72.5586 77.2819 72.5599 77.0997C72.5575 76.9781 72.5243 76.8592 72.4634 76.7542C72.4025 76.6492 72.3159 76.5616 72.2119 76.4998C72.0907 76.4274 71.9528 76.3885 71.8119 76.387C71.6799 76.3548 71.5279 76.3387 71.3799 76.3025Z" fill="white"/>
<path d="M87.5077 103.682C87.3652 103.972 87.1467 104.218 86.8757 104.393C86.7096 104.469 86.5243 104.493 86.3444 104.462C86.1644 104.43 85.9982 104.344 85.8677 104.215C85.7832 104.127 85.6779 104.062 85.5617 104.027C85.4455 103.991 85.3222 103.987 85.2037 104.013C85.0719 104.039 84.95 104.102 84.8517 104.195C84.7237 104.28 84.6077 104.377 84.4717 104.453C84.6437 104.207 84.7717 103.904 85.1197 103.75C85.2875 103.683 85.4712 103.666 85.6483 103.703C85.8253 103.739 85.9878 103.827 86.1157 103.956C86.2017 104.041 86.3081 104.103 86.4245 104.134C86.5408 104.165 86.6632 104.165 86.7797 104.134C86.9107 104.102 87.0308 104.035 87.1277 103.94C87.2557 103.839 87.3757 103.742 87.5077 103.682Z" fill="white"/>
<path d="M58.3524 97.618C58.2065 97.9084 57.9856 98.1539 57.7128 98.3291C57.5989 98.3801 57.4755 98.4065 57.3508 98.4065C57.226 98.4065 57.1027 98.3801 56.9888 98.3291C57.033 98.22 57.0732 98.1109 57.1215 98.0019C57.2747 98.0783 57.4493 98.0996 57.6163 98.0625C57.7485 98.0263 57.87 97.9583 57.9703 97.8645C58.099 97.7877 58.2196 97.6948 58.3524 97.618Z" fill="white"/>
<path d="M58.3441 110.651C58.2014 110.943 57.9812 111.19 57.7081 111.363C57.5429 111.439 57.3587 111.463 57.1796 111.432C57.0005 111.401 56.8348 111.316 56.7041 111.189C56.6194 111.101 56.5142 111.036 56.3982 111C56.2821 110.964 56.159 110.958 56.0401 110.983C55.9089 111.011 55.7875 111.074 55.6881 111.165C55.5601 111.249 55.4401 111.346 55.3081 111.423C55.4801 111.177 55.6081 110.874 55.9521 110.72C56.1201 110.652 56.3044 110.635 56.4816 110.673C56.6589 110.71 56.8212 110.8 56.9481 110.93C57.0358 111.014 57.1429 111.074 57.2596 111.105C57.3763 111.136 57.4989 111.137 57.6161 111.108C57.7468 111.073 57.8665 111.005 57.9641 110.91C58.0921 110.825 58.2081 110.732 58.3441 110.651Z" fill="white"/>
<path d="M70.9238 123.814C70.7797 124.105 70.5598 124.351 70.2878 124.525C70.1217 124.602 69.9364 124.626 69.7565 124.594C69.5766 124.562 69.4104 124.476 69.2798 124.347C69.1953 124.259 69.09 124.194 68.9738 124.159C68.8576 124.124 68.7343 124.119 68.6158 124.145C68.4844 124.173 68.3627 124.235 68.2638 124.327C68.1398 124.412 68.0198 124.509 67.8838 124.586C68.0598 124.339 68.1838 124.036 68.5318 123.883C68.6996 123.815 68.8833 123.798 69.0604 123.835C69.2374 123.871 69.3999 123.96 69.5278 124.089C69.614 124.173 69.7204 124.234 69.8367 124.265C69.953 124.297 70.0753 124.297 70.1918 124.266C70.3235 124.233 70.4447 124.166 70.5438 124.072C70.6678 123.996 70.7998 123.899 70.9238 123.814Z" fill="white"/>
<path d="M71.868 107.841C71.723 108.131 71.5033 108.377 71.232 108.552C71.0664 108.628 70.882 108.652 70.7029 108.62C70.5237 108.588 70.3583 108.503 70.228 108.374C70.0938 108.24 69.9137 108.163 69.7248 108.158C69.5359 108.154 69.3524 108.222 69.212 108.35C69.084 108.439 68.964 108.532 68.832 108.613C69.004 108.366 69.128 108.063 69.476 107.91C69.6435 107.84 69.8278 107.822 70.0053 107.859C70.1828 107.896 70.3453 107.985 70.472 108.116C70.5597 108.2 70.6668 108.26 70.7835 108.291C70.9003 108.322 71.0229 108.323 71.14 108.294C71.2703 108.26 71.39 108.193 71.488 108.1C71.6 108.011 71.732 107.918 71.868 107.841Z" fill="white"/>
<path d="M82.5317 121.116C82.3853 121.406 82.1659 121.651 81.8957 121.827C81.7296 121.904 81.5443 121.928 81.3644 121.896C81.1844 121.864 81.0182 121.778 80.8877 121.649C80.8032 121.561 80.6979 121.497 80.5817 121.461C80.4655 121.426 80.3422 121.421 80.2237 121.447C80.0919 121.474 79.97 121.537 79.8717 121.629C79.7437 121.714 79.6277 121.807 79.4717 121.888C79.6437 121.641 79.7717 121.338 80.1197 121.185C80.2875 121.117 80.4712 121.1 80.6483 121.137C80.8253 121.174 80.9878 121.262 81.1157 121.391C81.2017 121.476 81.3081 121.537 81.4245 121.568C81.5408 121.599 81.6632 121.599 81.7797 121.569C81.9114 121.535 82.0326 121.468 82.1317 121.375C82.2757 121.29 82.3997 121.193 82.5317 121.116Z" fill="white"/>
<path d="M79.966 80.7313C80.0677 81.0392 80.0844 81.3689 80.0143 81.6856C79.9497 81.8573 79.835 82.0056 79.685 82.1112C79.5351 82.2167 79.3569 82.2747 79.1736 82.2775C79.0516 82.2765 78.9313 82.3062 78.8238 82.3639C78.7162 82.4216 78.6249 82.5054 78.5582 82.6076C78.4836 82.7204 78.4405 82.8511 78.4335 82.9861C78.4053 83.1351 78.3892 83.2881 78.349 83.4411C78.24 83.1328 78.2274 82.7985 78.3128 82.4828C78.3841 82.3158 78.503 82.1736 78.6547 82.0741C78.8065 81.9745 78.9841 81.922 79.1656 81.9231C79.2868 81.9197 79.4052 81.8858 79.5099 81.8246C79.6146 81.7633 79.7023 81.6768 79.7649 81.5728C79.8372 81.4509 79.8761 81.312 79.8775 81.1702C79.9057 81.0252 79.9218 80.8722 79.966 80.7313Z" fill="white"/>
<path d="M88.81 114.513C88.9151 114.82 88.9332 115.15 88.8623 115.467C88.7973 115.638 88.6824 115.786 88.5326 115.892C88.3827 115.997 88.2048 116.055 88.0216 116.059C87.8995 116.057 87.7791 116.087 87.6715 116.145C87.5639 116.202 87.4726 116.286 87.4062 116.389C87.3316 116.502 87.2885 116.632 87.2815 116.767C87.2533 116.916 87.2372 117.069 87.197 117.218C87.0888 116.911 87.0762 116.579 87.1608 116.264C87.231 116.096 87.3496 115.953 87.5015 115.852C87.6533 115.752 87.8316 115.699 88.0136 115.7C88.1347 115.699 88.2535 115.666 88.3584 115.606C88.4633 115.545 88.551 115.458 88.6129 115.354C88.6852 115.232 88.7241 115.093 88.7255 114.952C88.7376 114.815 88.7537 114.666 88.81 114.513Z" fill="white"/>
<path d="M87.0738 94.3971C87.1773 94.7047 87.194 95.0349 87.122 95.3513C87.0582 95.5228 86.9442 95.6709 86.7949 95.7765C86.6457 95.8821 86.4681 95.9402 86.2854 95.9432C86.1627 95.9416 86.0416 95.9709 85.9333 96.0287C85.825 96.0864 85.733 96.1706 85.6659 96.2734C85.592 96.3862 85.5503 96.5171 85.5452 96.6519C85.5171 96.8009 85.497 96.9539 85.4567 97.1028C85.3513 96.7952 85.3387 96.4633 85.4205 96.1486C85.4919 95.9805 85.6113 95.8374 85.7638 95.7371C85.9162 95.6368 86.0949 95.5838 86.2773 95.5849C86.3988 95.5825 86.5176 95.5491 86.6225 95.4878C86.7274 95.4265 86.8149 95.3393 86.8767 95.2346C86.9442 95.1182 86.9816 94.9867 86.9853 94.8521C87.0175 94.6991 87.0335 94.5501 87.0738 94.3971Z" fill="white"/>
<path d="M77.9534 99.5629C78.0564 99.8704 78.0745 100.2 78.0057 100.517C77.9406 100.689 77.8258 100.837 77.6759 100.942C77.5261 101.048 77.3481 101.106 77.165 101.109C76.9744 101.11 76.7914 101.184 76.6537 101.316C76.516 101.447 76.4341 101.627 76.4248 101.818C76.3967 101.967 76.3766 102.12 76.3363 102.269C76.2295 101.961 76.2183 101.628 76.3042 101.314C76.3744 101.146 76.493 101.003 76.6448 100.903C76.7967 100.802 76.975 100.749 77.1569 100.751C77.2781 100.749 77.3968 100.716 77.5018 100.656C77.6067 100.595 77.6943 100.509 77.7563 100.404C77.8258 100.281 77.8645 100.143 77.8689 100.002C77.8971 99.8648 77.9132 99.7159 77.9534 99.5629Z" fill="white"/>
<path d="M57.6377 121.511C57.7394 121.819 57.7561 122.148 57.686 122.465C57.6219 122.637 57.5073 122.786 57.3572 122.891C57.2072 122.997 57.0287 123.055 56.8453 123.057C56.7232 123.055 56.6026 123.084 56.4949 123.142C56.3873 123.2 56.2961 123.284 56.2299 123.387C56.1565 123.498 56.1148 123.628 56.1092 123.761C56.081 123.914 56.0609 124.067 56.0207 124.216C55.9152 123.909 55.9026 123.577 55.9845 123.262C56.0559 123.094 56.1753 122.951 56.3277 122.851C56.4802 122.75 56.6589 122.697 56.8413 122.698C56.9627 122.696 57.0816 122.663 57.1865 122.601C57.2914 122.54 57.3789 122.453 57.4406 122.348C57.5082 122.232 57.5456 122.1 57.5492 121.966C57.5814 121.801 57.6096 121.664 57.6377 121.511Z" fill="white"/>
<path d="M64.1941 89.8632C64.2971 90.1707 64.3152 90.5004 64.2464 90.8174C64.1813 90.9888 64.0665 91.1368 63.9167 91.2423C63.7668 91.3478 63.5889 91.406 63.4057 91.4093C63.2152 91.4081 63.0317 91.4808 62.8937 91.6122C62.7556 91.7436 62.6739 91.9234 62.6656 92.1139C62.6374 92.2669 62.6173 92.4159 62.5771 92.5689C62.4702 92.2614 62.459 91.9287 62.5449 91.6146C62.6151 91.4466 62.7337 91.3033 62.8856 91.2029C63.0374 91.1025 63.2157 91.0496 63.3976 91.0509C63.5191 91.0486 63.6379 91.0152 63.7428 90.9539C63.8478 90.8925 63.9352 90.8054 63.997 90.7007C64.0646 90.5842 64.1019 90.4527 64.1056 90.3181C64.1378 90.1651 64.1539 90.0121 64.1941 89.8632Z" fill="white"/>
<path d="M64.1936 103.106C64.2966 103.414 64.3147 103.743 64.2459 104.06C64.1808 104.232 64.066 104.38 63.9162 104.485C63.7663 104.591 63.5884 104.649 63.4052 104.652C63.2147 104.651 63.0312 104.724 62.8932 104.855C62.7552 104.987 62.6734 105.166 62.6651 105.357C62.6369 105.51 62.6168 105.659 62.5766 105.812C62.4704 105.503 62.4592 105.169 62.5444 104.854C62.6148 104.686 62.7335 104.543 62.8855 104.443C63.0374 104.344 63.2155 104.292 63.3972 104.294C63.5184 104.29 63.6368 104.256 63.7415 104.195C63.8462 104.134 63.9339 104.048 63.9965 103.944C64.0674 103.821 64.1049 103.682 64.1051 103.541C64.1373 103.408 64.1534 103.255 64.1936 103.106Z" fill="white"/>
<path d="M74.7701 114.513C74.8718 114.821 74.8885 115.15 74.8184 115.467C74.7543 115.639 74.6396 115.788 74.4896 115.893C74.3396 115.999 74.1611 116.057 73.9777 116.059C73.8557 116.058 73.7354 116.088 73.6278 116.145C73.5203 116.203 73.429 116.287 73.3622 116.389C73.2889 116.502 73.2472 116.633 73.2416 116.767C73.2094 116.916 73.1933 117.069 73.1531 117.218C73.0449 116.911 73.0323 116.579 73.1169 116.264C73.1882 116.096 73.3077 115.953 73.4601 115.853C73.6126 115.752 73.7912 115.699 73.9736 115.7C74.0942 115.699 74.2122 115.666 74.3165 115.605C74.4207 115.545 74.5077 115.458 74.569 115.354C74.6424 115.233 74.6813 115.094 74.6816 114.952C74.7098 114.815 74.7299 114.666 74.7701 114.513Z" fill="white"/>
<path d="M85.5596 87.5387C85.7046 87.2484 85.9243 87.0028 86.1956 86.8277C86.3619 86.7521 86.5469 86.7286 86.7266 86.7603C86.9063 86.792 87.0724 86.8774 87.2036 87.0054C87.3367 87.1407 87.5167 87.2185 87.7055 87.2222C87.8944 87.226 88.0772 87.1555 88.2156 87.0256C88.3436 86.9408 88.4636 86.8479 88.6156 86.7671C88.4396 87.0135 88.3156 87.3165 87.9676 87.47C87.7998 87.5378 87.616 87.5544 87.439 87.5178C87.262 87.4812 87.0995 87.3929 86.9716 87.264C86.8847 87.1789 86.7777 87.1178 86.6606 87.0867C86.5436 87.0555 86.4207 87.0554 86.3036 87.0862C86.1726 87.1185 86.0525 87.1855 85.9556 87.2802C85.8116 87.365 85.6956 87.462 85.5596 87.5387Z" fill="white"/>
<path d="M69.4043 86.1857C69.5482 85.8946 69.7681 85.6487 70.0403 85.4747C70.2057 85.3978 70.3904 85.3736 70.5698 85.4053C70.7491 85.4371 70.9147 85.5233 71.0443 85.6524C71.1288 85.7405 71.2341 85.8053 71.3503 85.8406C71.4665 85.876 71.5898 85.8807 71.7083 85.8545C71.8401 85.828 71.9619 85.7651 72.0603 85.6726C72.1883 85.5878 72.3083 85.4949 72.4403 85.4141C72.2683 85.6605 72.1403 85.9635 71.7963 86.1171C71.6285 86.1848 71.4447 86.2015 71.2677 86.1648C71.0907 86.1282 70.9282 86.04 70.8003 85.911C70.7133 85.8262 70.6062 85.7654 70.4892 85.7343C70.3723 85.7031 70.2494 85.7028 70.1323 85.7333C70.0013 85.7656 69.8812 85.8325 69.7843 85.9272C69.6563 86.012 69.5403 86.109 69.4043 86.1857Z" fill="white"/>
<path d="M66.2723 78.988C60.2403 84.0008 38.5683 102.567 39.8723 109.158C41.1843 115.834 46.2043 121.237 50.0643 117.492C53.2643 114.42 67.3923 91.6188 69.9563 85.5228C72.4003 79.7168 72.2003 74.0597 66.2723 78.988Z" fill="#F7A9A0"/>
<path d="M39.3218 107.305C39.3218 111.928 42.3978 120.641 48.3698 119.018C52.2818 117.959 68.5058 91.0388 71.1218 84.6529C74.1498 77.2565 71.5218 74.3494 65.9218 78.71C60.3218 83.0706 39.3298 100.706 39.3218 107.305Z" fill="#3847FF"/>
<path d="M56.1746 87.9515C55.8677 88.0601 55.5354 88.0728 55.2212 87.9879C55.1733 87.9684 55.1274 87.9441 55.0845 87.9151C55.1633 87.8521 55.2385 87.7847 55.3097 87.7131L55.3459 87.7414C55.4577 87.8144 55.5868 87.8562 55.72 87.8626C55.8729 87.8949 56.0257 87.9151 56.1746 87.9515Z" fill="white"/>
<path d="M48.916 103.65C49.2219 103.548 49.5495 103.531 49.864 103.601C50.0352 103.665 50.1832 103.78 50.2882 103.93C50.3932 104.08 50.4504 104.259 50.452 104.443C50.451 104.565 50.4806 104.685 50.5379 104.793C50.5952 104.901 50.6784 104.992 50.78 105.059C50.8923 105.132 51.0222 105.174 51.156 105.18C51.304 105.212 51.456 105.228 51.604 105.268C51.2989 105.376 50.9684 105.389 50.656 105.304C50.4891 105.233 50.3468 105.113 50.2472 104.961C50.1476 104.808 50.095 104.629 50.096 104.447C50.0942 104.326 50.0616 104.208 50.0013 104.104C49.9411 103.999 49.8553 103.912 49.752 103.851C49.6313 103.777 49.4931 103.738 49.352 103.738C49.2 103.706 49.068 103.682 48.916 103.65Z" fill="white"/>
<path d="M50.8404 117.007C50.7519 117.104 50.6634 117.201 50.5749 117.29C50.555 117.191 50.5151 117.098 50.4576 117.016C50.4002 116.934 50.3264 116.865 50.2411 116.813C50.1188 116.742 49.9801 116.704 49.8388 116.704C49.69 116.676 49.5371 116.655 49.3843 116.615C49.6919 116.513 50.0213 116.496 50.3376 116.567C50.4466 116.602 50.5473 116.66 50.6337 116.735C50.72 116.811 50.7904 116.903 50.8404 117.007Z" fill="white"/>
<path d="M58.3441 97.618C58.2002 97.9092 57.9803 98.155 57.7081 98.3291C57.5427 98.406 57.358 98.4302 57.1786 98.3985C56.9993 98.3667 56.8337 98.2805 56.7041 98.1513C56.6196 98.0633 56.5143 97.9985 56.3981 97.9632C56.2819 97.9278 56.1587 97.9231 56.0401 97.9493C55.9083 97.9758 55.7865 98.0387 55.6881 98.1311C55.5601 98.216 55.4401 98.3089 55.3081 98.3897C55.4801 98.1433 55.6081 97.8402 55.9521 97.6867C56.1199 97.6189 56.3037 97.6023 56.4807 97.639C56.6577 97.6756 56.8202 97.7638 56.9481 97.8928C57.0351 97.9775 57.1422 98.0384 57.2592 98.0695C57.3761 98.1006 57.499 98.101 57.6161 98.0705C57.7471 98.0382 57.8672 97.9713 57.9641 97.8766C58.0921 97.7918 58.2081 97.6948 58.3441 97.618Z" fill="white"/>
<path d="M65.0981 79.926C65.1998 80.2326 65.2165 80.561 65.1463 80.8763C65.0839 81.0486 64.9703 81.1977 64.8207 81.3035C64.6712 81.4093 64.4928 81.4668 64.3097 81.4681C64.1871 81.4668 64.0661 81.4964 63.9578 81.5541C63.8496 81.6118 63.7576 81.6957 63.6902 81.7983C63.6169 81.9114 63.5752 82.0421 63.5695 82.1768C63.5414 82.3298 63.5213 82.4788 63.481 82.6318C63.3757 82.3227 63.3631 81.9896 63.4448 81.6735C63.5164 81.5059 63.636 81.3632 63.7885 81.2636C63.941 81.164 64.1195 81.1119 64.3016 81.1138C64.4228 81.1103 64.5412 81.0764 64.646 81.0152C64.7507 80.954 64.8384 80.8675 64.901 80.7635C64.9719 80.6412 65.0093 80.5023 65.0096 80.3609C65.0418 80.228 65.0579 80.075 65.0981 79.926Z" fill="white"/>
<path d="M64.1941 89.8632C64.2971 90.1707 64.3152 90.5004 64.2464 90.8174C64.1813 90.9888 64.0665 91.1368 63.9167 91.2423C63.7668 91.3478 63.5889 91.406 63.4057 91.4093C63.2152 91.4081 63.0317 91.4808 62.8937 91.6122C62.7556 91.7436 62.6739 91.9234 62.6656 92.1139C62.6374 92.2669 62.6173 92.4159 62.5771 92.5689C62.4702 92.2614 62.459 91.9287 62.5449 91.6146C62.6151 91.4466 62.7337 91.3033 62.8856 91.2029C63.0374 91.1025 63.2157 91.0496 63.3976 91.0509C63.5191 91.0486 63.6379 91.0152 63.7428 90.9539C63.8478 90.8925 63.9352 90.8054 63.997 90.7007C64.0646 90.5842 64.1019 90.4527 64.1056 90.3181C64.1378 90.1651 64.1539 90.0121 64.1941 89.8632Z" fill="white"/>
<path d="M45.2416 111.046C45.3433 111.354 45.36 111.684 45.2899 112C45.2265 112.172 45.1126 112.32 44.9633 112.426C44.8139 112.532 44.6361 112.59 44.4532 112.592C44.3306 112.591 44.2096 112.62 44.1014 112.678C43.9932 112.736 43.9011 112.82 43.8338 112.922C43.7604 113.035 43.7187 113.166 43.7131 113.301C43.6849 113.45 43.6648 113.603 43.6246 113.756C43.5193 113.447 43.5067 113.114 43.5884 112.798C43.66 112.63 43.7795 112.487 43.932 112.388C44.0845 112.288 44.2631 112.236 44.4452 112.238C44.5664 112.234 44.6848 112.2 44.7895 112.139C44.8942 112.078 44.9819 111.991 45.0445 111.888C45.1154 111.765 45.1529 111.626 45.1531 111.485C45.1853 111.352 45.2095 111.199 45.2416 111.046Z" fill="white"/>
<path d="M70.7756 85.4666C70.7313 85.5676 70.679 85.6767 70.6267 85.7858C70.4747 85.7097 70.3005 85.6911 70.136 85.7333C70.0043 85.7656 69.8835 85.8325 69.786 85.9272C69.6573 86.012 69.5407 86.109 69.3838 86.1858C69.5648 85.9353 69.6814 85.6444 70.0234 85.4747C70.1403 85.4174 70.2684 85.3869 70.3985 85.3855C70.5287 85.3842 70.6574 85.4119 70.7756 85.4666Z" fill="white"/>
<path d="M67.2601 93.9662C66.7201 94.7231 66.1241 95.4398 65.5481 96.1686L65.1481 96.692C65.5081 95.9968 65.8601 95.2962 66.2041 94.5902C66.7298 93.579 67.2012 92.54 67.6161 91.4778C67.6441 91.4094 67.5401 91.3772 67.5041 91.4335C66.9641 92.2871 66.5321 93.1971 66.0201 94.0668C65.5081 94.9365 65.0161 95.8183 64.5281 96.7001C63.5441 98.4596 62.5281 100.211 61.4921 101.934C59.4081 105.381 57.1881 108.751 54.8921 112.061C54.2481 112.987 53.6121 113.921 52.9361 114.827C52.2601 115.733 51.6241 116.715 50.9361 117.625C50.9121 117.657 50.9561 117.702 50.9841 117.67C51.6321 116.864 52.3001 116.111 52.9601 115.334C53.6201 114.557 54.1801 113.748 54.8001 112.943C56.0361 111.332 57.2001 109.689 58.3441 108.018C60.6246 104.655 62.7353 101.179 64.6681 97.602L64.8081 97.3282C65.1361 96.9779 65.4561 96.6155 65.7601 96.237C66.3321 95.5203 66.8281 94.7513 67.3281 93.9823C67.3441 93.9621 67.2841 93.9299 67.2601 93.9662Z" fill="#263238"/>
<path d="M79.7282 75.5855C79.7282 75.5855 81.0522 81.0453 79.4722 81.7983C76.5242 83.2035 71.2562 78.8389 70.9122 78.0577C70.8282 77.8564 70.3882 72.61 70.0602 68.5353C69.8442 65.9101 69.6602 63.7681 69.6602 63.7681L80.0002 67.8951L79.7682 75.0702L79.7282 75.5855Z" fill="#F7A9A0"/>
<path d="M80.0007 67.8951L79.7687 75.0702C77.7885 74.7267 75.9024 73.9673 74.2332 72.8414C72.564 71.7155 71.1491 70.2483 70.0807 68.5353C69.8647 65.9101 69.6807 63.7681 69.6807 63.7681L70.9727 64.2351L80.0007 67.8951Z" fill="#263238"/>
<path d="M81.8959 59.7377C82.0519 62.6729 84.2519 64.9358 86.8079 64.7948C89.3639 64.6539 91.3079 62.1656 91.1519 59.2344C90.9959 56.3032 88.7919 54.0363 86.2359 54.1773C83.6799 54.3182 81.7359 56.8065 81.8959 59.7377Z" fill="#455A64"/>
<path d="M80.4008 60.0074C80.5768 63.2688 83.0248 65.7853 85.8688 65.6443C88.7128 65.5034 90.8728 62.7171 90.7008 59.4558C90.5288 56.1944 88.0768 53.6739 85.2328 53.8188C82.3888 53.9638 80.2328 56.742 80.4008 60.0074Z" fill="#C7C7C7"/>
<path d="M89.0876 57.6037C90.0516 70.1661 82.6876 72.1672 79.9956 72.3726C77.5516 72.5618 69.1956 72.8879 66.9556 60.4907C64.7156 48.0934 70.2036 43.6724 75.7556 42.9436C81.3076 42.2149 88.1196 45.0374 89.0876 57.6037Z" fill="#F7A9A0"/>
<path d="M85.2007 55.3698C84.9143 55.333 84.6298 55.2818 84.3484 55.2162C84.0416 55.2027 83.7478 55.0877 83.512 54.889C83.4517 54.8104 83.4189 54.7137 83.4189 54.6143C83.4189 54.5148 83.4517 54.4181 83.512 54.3395C83.6497 54.1976 83.8227 54.0958 84.0128 54.0446C84.2029 53.9934 84.4031 53.9948 84.5925 54.0486C84.9935 54.0958 85.3628 54.2916 85.6289 54.5981C85.6859 54.6727 85.72 54.7626 85.7268 54.8566C85.7336 54.9506 85.7129 55.0445 85.6673 55.1267C85.6217 55.209 85.5532 55.2758 85.4702 55.319C85.3872 55.3622 85.2935 55.3799 85.2007 55.3698Z" fill="#263238"/>
<path d="M76.6369 56.0375C76.9193 55.9752 77.1984 55.8986 77.4732 55.808C77.7764 55.7649 78.0574 55.6236 78.2735 55.4054C78.3291 55.3242 78.3562 55.2266 78.3504 55.1281C78.3446 55.0296 78.3063 54.9359 78.2415 54.8618C78.0923 54.7331 77.9116 54.6468 77.7181 54.6121C77.5245 54.5774 77.3253 54.5955 77.1411 54.6645C76.7458 54.7462 76.3949 54.973 76.1567 55.3007C76.1051 55.3789 76.0774 55.4706 76.0772 55.5644C76.0769 55.6583 76.104 55.7501 76.1551 55.8286C76.2063 55.9071 76.2792 55.9687 76.3648 56.0058C76.4505 56.043 76.5451 56.054 76.6369 56.0375Z" fill="#263238"/>
<path d="M78.8042 59.0976C78.8042 59.0653 78.7439 59.1459 78.7479 59.1781C78.8485 60.0317 78.8243 61.0262 78.0762 61.3765C78.052 61.3765 78.0762 61.4288 78.0762 61.4248C79.0174 61.2074 79.0375 59.8867 78.8042 59.0976Z" fill="#263238"/>
<path d="M77.9703 58.2723C76.5866 58.2723 76.7234 61.0545 78.0065 61.0384C79.2897 61.0223 79.1288 58.2562 77.9703 58.2723Z" fill="#263238"/>
<path d="M77.4416 58.4454C77.2083 58.6151 76.983 58.9019 76.6934 58.9464C76.4038 58.9908 76.0901 58.7201 75.8567 58.4494C75.8326 58.4211 75.8125 58.4494 75.8125 58.4858C75.8125 59.015 76.0619 59.5524 76.617 59.6049C77.1721 59.6574 77.4858 59.1605 77.5904 58.6191C77.6105 58.5181 77.5341 58.3767 77.4416 58.4454Z" fill="#263238"/>
<path d="M83.7645 58.538C83.7645 58.5017 83.8329 58.5742 83.8329 58.6104C83.8329 59.468 83.9938 60.4505 84.7822 60.7001C84.8063 60.7001 84.8063 60.7525 84.7822 60.7484C83.8248 60.6558 83.6358 59.3513 83.7645 58.538Z" fill="#263238"/>
<path d="M84.4886 57.6077C85.8531 57.4467 86.0892 60.2088 84.8087 60.3577C83.5282 60.5067 83.3441 57.7446 84.4886 57.6077Z" fill="#263238"/>
<path d="M85.0728 57.7454C85.3021 57.8747 85.5394 58.1252 85.8008 58.1212C86.0623 58.1171 86.3036 57.7979 86.4766 57.4949C86.4766 57.4626 86.5168 57.4949 86.5209 57.5232C86.5772 58.0484 86.4485 58.614 85.9497 58.7595C85.4509 58.9049 85.117 58.4605 84.9521 57.9515C84.9199 57.8464 84.9803 57.6929 85.0728 57.7454Z" fill="#263238"/>
<path d="M79.577 65.737C79.7822 65.939 79.9793 66.2138 80.3011 66.238C80.6198 66.2301 80.9335 66.1558 81.2222 66.0198C81.2281 66.015 81.2356 66.0127 81.2431 66.0135C81.2507 66.0143 81.2576 66.018 81.2624 66.0239C81.2672 66.0298 81.2695 66.0373 81.2687 66.0449C81.268 66.0525 81.2643 66.0595 81.2584 66.0643C81.1365 66.2338 80.9711 66.3669 80.7799 66.4494C80.5886 66.532 80.3786 66.5608 80.1723 66.5329C79.9971 66.4899 79.8389 66.3947 79.7184 66.2599C79.5978 66.1252 79.5205 65.957 79.4966 65.7774C79.4805 65.7249 79.5489 65.7088 79.577 65.737Z" fill="#263238"/>
<path d="M82.9441 62.4233C82.9441 62.4233 83.2001 63.6916 83.2361 64.2955C83.2361 64.3519 83.0961 64.3882 82.8921 64.4123C82.8921 64.4123 82.8921 64.4123 82.8681 64.4123C82.3593 64.5393 81.8256 64.5222 81.3258 64.3631C80.826 64.2039 80.3797 63.9088 80.0361 63.5104C79.9921 63.454 80.0641 63.3896 80.1201 63.4218C80.9167 63.9002 81.8452 64.1077 82.7681 64.0137C82.8001 63.8446 82.2641 61.8556 82.3681 61.8435C82.836 61.8566 83.3001 61.9324 83.7481 62.069C83.3001 59.4115 82.4281 56.8346 82.0161 54.1974C82.0149 54.1784 82.0202 54.1597 82.0309 54.1441C82.0416 54.1286 82.0572 54.1171 82.0752 54.1115C82.0932 54.106 82.1125 54.1066 82.1301 54.1134C82.1476 54.1202 82.1624 54.1328 82.1721 54.149C83.2721 56.7702 83.8601 59.8142 84.3961 62.5481C84.4521 62.8863 83.2001 62.5119 82.9441 62.4233Z" fill="#263238"/>
<path d="M82.4762 64.1104C82.1995 64.5778 81.8084 64.966 81.3402 65.2378C81.0801 65.376 80.7838 65.4294 80.4922 65.3908C79.8522 65.3022 79.7722 64.7345 79.8282 64.2312C79.8597 63.9642 79.9228 63.702 80.0162 63.4501C80.7448 63.9297 81.6071 64.1612 82.4762 64.1104Z" fill="#263238"/>
<path d="M81.3488 65.2412C81.0872 65.3799 80.7892 65.4335 80.496 65.3948C79.8524 65.3059 79.772 64.7362 79.8283 64.2312C80.5 64.2231 81.208 64.5948 81.3488 65.2412Z" fill="#F392B9"/>
<path d="M67.1401 59.3644C68.5041 59.3644 72.2321 55.7728 72.6761 49.1736C72.6761 49.1736 71.8761 55.0722 71.3841 55.9178C70.8921 56.7633 73.4681 53.9046 73.9001 48.5817C73.9001 48.5817 76.7241 50.8606 79.1841 51.6941C81.6441 52.5276 83.1841 52.5839 83.3681 52.4108C83.5521 52.2377 79.9361 50.8848 79.0001 49.6769C79.0001 49.6769 85.4921 53.1315 88.5441 53.5221C88.8961 53.5664 88.0841 48.0985 83.5041 44.7405C78.9241 41.3825 72.8561 42.518 70.7401 44.3741C70.7401 44.3741 68.3401 44.5915 65.6001 47.9979C62.8601 51.4042 65.6721 59.3926 67.1401 59.3644Z" fill="#263238"/>
<path d="M69.0164 61.304C69.0164 61.304 66.3204 57.342 64.5364 58.3083C62.7524 59.2747 64.7565 64.9922 66.8325 65.7934C67.0916 65.914 67.3723 65.9807 67.6577 65.9895C67.9431 65.9982 68.2273 65.9488 68.4933 65.8443C68.7593 65.7398 69.0015 65.5822 69.2055 65.3811C69.4095 65.1801 69.5711 64.9395 69.6804 64.6741L69.0164 61.304Z" fill="#F7A9A0"/>
<path d="M65.1524 59.9349C65.1472 59.937 65.1427 59.9406 65.1396 59.9453C65.1364 59.95 65.1348 59.9555 65.1348 59.9611C65.1348 59.9667 65.1364 59.9722 65.1396 59.9769C65.1427 59.9816 65.1472 59.9852 65.1524 59.9873C66.6084 60.5993 67.3644 61.9683 67.8884 63.3856C67.4604 62.838 66.8684 62.532 66.1404 63.0473C66.1044 63.0755 66.1404 63.1359 66.1804 63.1238C66.4376 63.0451 66.7128 63.0481 66.9683 63.1324C67.2238 63.2167 67.4473 63.3782 67.6084 63.5949C67.8757 63.9608 68.1024 64.355 68.2844 64.7706C68.3524 64.9035 68.5884 64.8351 68.5404 64.6821V64.6498C68.5724 62.7735 67.1484 60.1403 65.1524 59.9349Z" fill="#263238"/>
<path d="M68.0049 65.2473C68.0024 65.3354 67.974 65.4207 67.9232 65.4924C67.8724 65.5642 67.8016 65.6192 67.7196 65.6504C67.6376 65.6817 67.5483 65.6878 67.4629 65.6679C67.3775 65.6481 67.2999 65.6032 67.2399 65.539C67.1799 65.4748 67.1403 65.3941 67.126 65.3072C67.1118 65.2203 67.1235 65.1312 67.1598 65.051C67.1961 64.9709 67.2552 64.9033 67.3298 64.857C67.4043 64.8107 67.4909 64.7876 67.5785 64.7908C67.6952 64.795 67.8054 64.8454 67.8853 64.9309C67.9652 65.0164 68.0081 65.1301 68.0049 65.2473Z" fill="white"/>
<path d="M66.8034 64.4416C66.8019 64.4783 66.7931 64.5142 66.7777 64.5474C66.7623 64.5807 66.7406 64.6105 66.7137 64.6353C66.6868 64.6601 66.6553 64.6792 66.621 64.6918C66.5867 64.7043 66.5503 64.7099 66.5138 64.7083C66.4775 64.7072 66.4418 64.699 66.4088 64.6839C66.3757 64.6689 66.3459 64.6474 66.3212 64.6207C66.2965 64.594 66.2774 64.5626 66.2648 64.5284C66.2523 64.4942 66.2467 64.4579 66.2483 64.4214C66.2494 64.3848 66.2576 64.3488 66.2725 64.3154C66.2874 64.2819 66.3087 64.2518 66.3353 64.2267C66.3618 64.2015 66.393 64.1819 66.4271 64.1688C66.4612 64.1558 66.4975 64.1497 66.5339 64.1508C66.6075 64.1549 66.6767 64.1875 66.7269 64.2417C66.7772 64.296 66.8046 64.3676 66.8034 64.4416Z" fill="white"/>
<path d="M64.6665 60.8059L63.8017 60.9877C63.7793 60.9924 63.7561 60.9926 63.7336 60.9882C63.711 60.9838 63.6896 60.975 63.6705 60.9622C63.6514 60.9494 63.635 60.9329 63.6223 60.9137C63.6097 60.8945 63.6009 60.873 63.5966 60.8504C63.587 60.8054 63.5956 60.7584 63.6205 60.7198C63.6454 60.6811 63.6845 60.654 63.7293 60.6443L64.5941 60.4625C64.6166 60.4578 64.6398 60.4576 64.6623 60.462C64.6848 60.4664 64.7063 60.4753 64.7254 60.488C64.7445 60.5008 64.7608 60.5173 64.7735 60.5365C64.7862 60.5557 64.795 60.5772 64.7993 60.5999C64.8088 60.6449 64.8002 60.6918 64.7753 60.7305C64.7505 60.7691 64.7113 60.7962 64.6665 60.8059Z" fill="#3847FF"/>
<path d="M64.5706 60.2503L63.6896 60.3028C63.6666 60.3044 63.6434 60.3014 63.6216 60.2939C63.5997 60.2864 63.5796 60.2746 63.5623 60.2592C63.5451 60.2438 63.5311 60.225 63.5212 60.204C63.5112 60.1831 63.5056 60.1603 63.5046 60.1371C63.5024 60.0907 63.5184 60.0451 63.5493 60.0104C63.5801 59.9756 63.6233 59.9544 63.6695 59.9513L64.5464 59.8988C64.5927 59.8954 64.6385 59.9105 64.6739 59.9407C64.7092 59.9709 64.7314 60.0139 64.7355 60.0604C64.7377 60.1073 64.7218 60.1533 64.6911 60.1887C64.6603 60.2241 64.6171 60.2461 64.5706 60.2503Z" fill="#3847FF"/>
<path d="M66.4288 58.2803C66.4288 58.2803 65.3728 51.9428 66.8808 48.2143C68.5608 44.0913 76.5808 40.6527 82.8568 44.2765C82.8568 44.2765 73.3208 42.368 69.4168 48.2465C67.7728 50.7228 68.5608 58.2159 68.5608 58.2159L66.4288 58.2803Z" fill="#C7C7C7"/>
<path d="M68.1967 67.3519C71.0273 67.0394 73.0351 64.1536 72.6813 60.9065C72.3274 57.6593 69.7459 55.2803 66.9153 55.5929C64.0847 55.9054 62.0769 58.7912 62.4308 62.0383C62.7846 65.2855 65.3661 67.6645 68.1967 67.3519Z" fill="#C7C7C7"/>
<path d="M71.1685 60.8892C71.4885 63.8084 69.6845 66.4014 67.1405 66.6832C64.5965 66.965 62.2725 64.827 61.9405 61.9079C61.6085 58.9888 63.4285 56.3917 65.9725 56.1139C68.5165 55.8361 70.8525 57.9701 71.1685 60.8892Z" fill="#455A64"/>
<path d="M77.9439 69.4695L73.7719 68.7206L69.8359 65.6243L70.3119 65.0123L74.0959 67.9919L78.0759 68.7045L77.9439 69.4695Z" fill="#C7C7C7"/>
<path d="M77.3965 68.9581C77.5085 67.7502 80.6965 67.4402 80.5285 69.2521C80.3605 71.0639 77.2845 70.158 77.3965 68.9581Z" fill="#37474F"/>
<path d="M79.7603 75.4286L78.7083 81.3071L70.5963 75.8312L69.1523 78.4323C69.1523 78.4323 77.9523 87.9789 77.8843 87.4756L79.1483 82.3419L83.0243 84.9269L81.0843 76.8096L79.7603 75.4286Z" fill="white"/>
<path d="M50.6006 116.9C46.8886 121.462 40.8486 116.252 40.1606 112.194C38.5406 102.663 40.6246 85.1846 43.3846 76.9023C44.2726 74.2368 61.8566 79.3181 61.9006 82.3178C61.9446 85.4665 58.1286 107.644 50.6006 116.9Z" fill="#F7A9A0"/>
<path d="M42.9126 81.6937C42.9126 81.6937 43.1766 72.9443 46.2686 67.1141C48.4046 63.0877 54.0246 54.8336 67.5646 54.2296C70.7646 54.0927 75.4486 56.1865 70.2846 58.3325C66.6166 59.8545 63.8366 59.7055 61.8606 60.9819C61.8606 60.9819 67.4926 64.356 67.5046 67.5973C67.5145 70.4337 67.3247 73.2674 66.9366 76.0768C66.4046 76.1238 65.8702 76.1359 65.3366 76.1131C65.3366 76.1131 65.2566 79.149 61.8886 82.2976L42.9126 81.6937Z" fill="#F7A9A0"/>
<path d="M48.916 63.5952C51.14 62.7457 55.884 61.0224 60.252 60.974C65.104 60.9177 74.464 62.1256 74.468 65.7292C74.468 68.3746 70.868 68.2296 70.868 68.2296C70.868 68.2296 74.632 69.5503 74.116 71.9379C73.644 74.1162 70.856 73.8343 70.856 73.8343C70.856 73.8343 73.004 75.0423 72.148 77.0555C71.12 79.4713 66.788 76.5683 63.648 78.1104C62.936 78.4405 48.916 63.5952 48.916 63.5952Z" fill="#F7A9A0"/>
<path d="M59.4562 66.1437C61.6802 65.6887 66.9882 65.9585 70.8082 68.1569C70.8962 68.2052 70.9042 68.2978 70.8082 68.2696C67.1187 67.1202 63.304 66.4265 59.4482 66.2041C59.4322 66.188 59.4322 66.1477 59.4562 66.1437Z" fill="#263238"/>
<path d="M59.6565 71.068C61.6125 70.8747 67.0725 71.3981 70.8565 73.7415C70.9405 73.7939 70.9445 73.8905 70.8565 73.8583C67.238 72.5206 63.4808 71.5994 59.6565 71.1123C59.6522 71.1104 59.6486 71.1073 59.646 71.1034C59.6435 71.0994 59.6421 71.0948 59.6421 71.0901C59.6421 71.0854 59.6435 71.0808 59.646 71.0769C59.6486 71.073 59.6522 71.0699 59.6565 71.068Z" fill="#263238"/>
<path d="M74.0484 64.1588C73.5204 63.5709 72.7724 63.3535 72.1164 62.9508C72.0804 62.9307 72.0484 62.9911 72.0844 63.0072C73.2404 63.4944 74.4524 64.646 74.2604 66.0109C74.0284 67.6537 72.0724 68.0724 70.7164 68.1086C70.6484 68.1086 70.6804 68.1851 70.7484 68.1972C72.2564 68.463 74.3844 67.9355 74.6644 66.1478C74.7178 65.791 74.69 65.4266 74.5833 65.0821C74.4766 64.7376 74.2938 64.4219 74.0484 64.1588Z" fill="#263238"/>
<path d="M70.5281 68.0562C70.4921 68.0562 70.4641 68.0964 70.5001 68.1125C72.5881 68.9178 73.8761 70.3794 73.9801 71.2088C74.055 71.6104 74.0066 72.0253 73.8416 72.3986C73.6766 72.7718 73.4026 73.0857 73.0561 73.2985C72.3311 73.7006 71.489 73.8345 70.6761 73.677C70.6081 73.677 70.5841 73.7656 70.6481 73.7777C71.6281 73.9588 73.5121 74.1803 74.1921 72.5899C74.7601 71.2612 74.1241 69.0547 70.5281 68.0562Z" fill="#263238"/>
<path d="M72.0695 74.7722C71.6528 74.1843 71.0483 73.758 70.3568 73.5643C70.3248 73.5643 70.3008 73.6086 70.3568 73.6207C71.5573 74.1079 72.5858 75.5534 72.2016 76.8942C72.1776 76.9787 72.3016 77.0029 72.3297 76.9264C72.4535 76.5713 72.4944 76.1923 72.4493 75.8188C72.4042 75.4452 72.2743 75.0872 72.0695 74.7722Z" fill="#263238"/>
<path d="M72.7249 56.1261C72.6288 55.5222 71.8725 54.9182 70.4199 54.6444C71.6204 54.9746 72.4968 55.6268 72.4888 56.2147C72.4808 56.8026 72.0486 57.4226 70.7761 58.1111C70.7401 58.1111 70.7761 58.1474 70.8041 58.1313C71.5564 57.781 72.8929 57.2092 72.7249 56.1261Z" fill="#263238"/>
<path d="M42.0012 78.3678L63.7612 85.7442C63.7612 85.7442 55.8332 110.325 52.0892 115.604C48.3452 120.882 43.1532 119.932 40.1572 113.385C37.1612 106.838 42.0012 78.3678 42.0012 78.3678Z" fill="#3847FF"/>
<path d="M53.4805 86.332C53.7864 86.2302 54.1139 86.2136 54.4285 86.2837C54.5991 86.3484 54.7464 86.4632 54.8513 86.6133C54.9561 86.7634 55.0137 86.9418 55.0165 87.1252C55.0155 87.2474 55.045 87.3678 55.1023 87.4754C55.1596 87.5831 55.2429 87.6745 55.3445 87.7413C55.4568 87.8147 55.5867 87.8564 55.7205 87.8621C55.8685 87.8943 56.0205 87.9104 56.1685 87.9506C55.8634 88.0589 55.5328 88.0715 55.2205 87.9869C55.0535 87.9154 54.9113 87.7959 54.8117 87.6433C54.712 87.4907 54.6594 87.3119 54.6605 87.1293C54.6586 87.0086 54.626 86.8904 54.5658 86.7861C54.5056 86.6817 54.4197 86.5947 54.3165 86.5333C54.1953 86.461 54.0573 86.4221 53.9165 86.4206C53.7805 86.3924 53.6325 86.3683 53.4805 86.332Z" fill="white"/>
<path d="M48.916 103.65C49.2219 103.548 49.5495 103.531 49.864 103.601C50.0352 103.665 50.1832 103.78 50.2882 103.93C50.3932 104.08 50.4504 104.259 50.452 104.443C50.451 104.565 50.4806 104.685 50.5379 104.793C50.5952 104.901 50.6784 104.992 50.78 105.059C50.8923 105.132 51.0222 105.174 51.156 105.18C51.304 105.212 51.456 105.228 51.604 105.268C51.2989 105.376 50.9684 105.389 50.656 105.304C50.4891 105.233 50.3468 105.113 50.2472 104.961C50.1476 104.808 50.095 104.629 50.096 104.447C50.0942 104.326 50.0616 104.208 50.0013 104.104C49.9411 103.999 49.8553 103.912 49.752 103.851C49.6313 103.777 49.4931 103.738 49.352 103.738C49.2 103.706 49.068 103.682 48.916 103.65Z" fill="white"/>
<path d="M50.8687 117.068C50.7721 117.164 50.6756 117.253 50.5791 117.338C50.565 117.23 50.527 117.127 50.4678 117.036C50.4086 116.945 50.3298 116.869 50.2372 116.813C50.1155 116.74 49.9764 116.703 49.8349 116.704C49.6861 116.676 49.5332 116.655 49.3804 116.615C49.688 116.513 50.0174 116.496 50.3337 116.567C50.4539 116.606 50.5641 116.671 50.6565 116.757C50.7489 116.844 50.8214 116.95 50.8687 117.068Z" fill="white"/>
<path d="M58.3441 97.618C58.2002 97.9092 57.9803 98.155 57.7081 98.3291C57.5427 98.406 57.358 98.4302 57.1786 98.3985C56.9993 98.3667 56.8337 98.2805 56.7041 98.1513C56.6196 98.0633 56.5143 97.9985 56.3981 97.9632C56.2819 97.9278 56.1587 97.9231 56.0401 97.9493C55.9083 97.9758 55.7865 98.0387 55.6881 98.1311C55.5601 98.216 55.4401 98.3089 55.3081 98.3897C55.4801 98.1433 55.6081 97.8402 55.9521 97.6867C56.1199 97.6189 56.3037 97.6023 56.4807 97.639C56.6577 97.6756 56.8202 97.7638 56.9481 97.8928C57.0351 97.9775 57.1422 98.0384 57.2592 98.0695C57.3761 98.1006 57.499 98.101 57.6161 98.0705C57.7471 98.0382 57.8672 97.9713 57.9641 97.8766C58.0921 97.7918 58.2081 97.6948 58.3441 97.618Z" fill="white"/>
<path d="M43.5283 99.1682C43.383 99.4584 43.1634 99.704 42.8923 99.8793C42.7261 99.956 42.5409 99.98 42.361 99.9483C42.181 99.9166 42.0148 99.8305 41.8843 99.7015C41.7998 99.6135 41.6945 99.5487 41.5783 99.5133C41.462 99.478 41.3388 99.4732 41.2203 99.4995C41.0885 99.5259 40.9666 99.5889 40.8683 99.6813C40.7443 99.7661 40.6243 99.8631 40.4683 99.9399C40.6443 99.6934 40.7683 99.3904 41.1163 99.2369C41.284 99.1691 41.4678 99.1525 41.6448 99.1891C41.8219 99.2257 41.9844 99.314 42.1123 99.4429C42.1985 99.5277 42.3049 99.5886 42.4212 99.6197C42.5375 99.6509 42.6598 99.6512 42.7763 99.6207C42.908 99.5873 43.0291 99.5205 43.1283 99.4268C43.2723 99.3419 43.3923 99.2531 43.5283 99.1682Z" fill="white"/>
<path d="M45.9486 83.0305C45.8059 83.3225 45.5857 83.5686 45.3126 83.7416C45.1473 83.8179 44.9631 83.8421 44.784 83.8111C44.605 83.7801 44.4393 83.6954 44.3086 83.5679C44.2239 83.48 44.1187 83.4151 44.0026 83.3791C43.8866 83.3431 43.7635 83.3372 43.6446 83.3618C43.5134 83.39 43.392 83.4527 43.2926 83.5436C43.1646 83.6285 43.0446 83.7254 42.8926 83.8022C43.0646 83.5557 43.1926 83.2527 43.5366 83.0992C43.7046 83.0308 43.8888 83.0143 44.0661 83.0517C44.2434 83.0891 44.4057 83.1787 44.5326 83.3093C44.6202 83.3931 44.7274 83.4533 44.8441 83.4844C44.9608 83.5154 45.0834 83.5163 45.2006 83.487C45.3309 83.453 45.4506 83.3863 45.5486 83.2931C45.6966 83.2042 45.8166 83.1113 45.9486 83.0305Z" fill="white"/>
<path d="M48.1296 91.2C48.2327 91.5075 48.2507 91.8372 48.1819 92.1542C48.1169 92.3256 48.002 92.4736 47.8522 92.5791C47.7024 92.6846 47.5244 92.7428 47.3412 92.7461C47.2189 92.7432 47.0979 92.7721 46.99 92.8299C46.8822 92.8878 46.7911 92.9727 46.7258 93.0763C46.6488 93.1863 46.6055 93.3164 46.6011 93.4507C46.573 93.6037 46.5528 93.7527 46.5126 93.9057C46.4058 93.5982 46.3946 93.2655 46.4804 92.9514C46.5507 92.7834 46.6693 92.6401 46.8211 92.5397C46.973 92.4393 47.1512 92.3864 47.3332 92.3877C47.4547 92.3854 47.5735 92.352 47.6784 92.2906C47.7833 92.2293 47.8708 92.1422 47.9325 92.0374C48.0003 91.9209 48.0389 91.7897 48.0452 91.6549C48.0733 91.518 48.0894 91.365 48.1296 91.2Z" fill="white"/>
<path d="M45.2416 111.046C45.3433 111.354 45.36 111.684 45.2899 112C45.2265 112.172 45.1126 112.32 44.9633 112.426C44.8139 112.532 44.6361 112.59 44.4532 112.592C44.3306 112.591 44.2096 112.62 44.1014 112.678C43.9932 112.736 43.9011 112.82 43.8338 112.922C43.7604 113.035 43.7187 113.166 43.7131 113.301C43.6849 113.45 43.6648 113.603 43.6246 113.756C43.5193 113.447 43.5067 113.114 43.5884 112.798C43.66 112.63 43.7795 112.487 43.932 112.388C44.0845 112.288 44.2631 112.236 44.4452 112.238C44.5664 112.234 44.6848 112.2 44.7895 112.139C44.8942 112.078 44.9819 111.991 45.0445 111.888C45.1154 111.765 45.1529 111.626 45.1531 111.485C45.1853 111.352 45.2095 111.199 45.2416 111.046Z" fill="white"/>
<path d="M61.332 89.8471C60.1486 89.3039 58.9376 88.8241 57.704 88.4096C56.464 87.9265 55.212 87.4997 53.96 87.0689C51.528 86.2273 49.076 85.4784 46.624 84.7376C45.196 84.3027 43.76 83.9323 42.332 83.5297C42.28 83.5297 42.26 83.6182 42.332 83.6384C44.788 84.5644 47.236 85.5267 49.712 86.3924C52.188 87.2581 54.58 88.0594 57.036 88.7881C57.736 88.9975 58.444 89.1908 59.148 89.38C59.8635 89.6179 60.5929 89.8115 61.332 89.9598C61.368 89.9679 61.384 89.8753 61.332 89.8471Z" fill="#263238"/>
<path d="M64.2001 85.8007C64.1401 85.6034 61.7281 84.9713 61.6041 84.9351C61.5681 84.9351 61.5521 84.9834 61.6041 84.9955C61.7201 85.0357 63.7641 85.8933 63.7561 85.9094C62.5561 89.1306 61.4601 92.3839 60.3081 95.6211C59.1561 98.8583 57.9761 102.104 56.8881 105.377C56.2761 107.209 56.3161 107.39 56.9641 105.812C57.6121 104.234 58.2761 102.937 58.8721 101.335C60.0721 98.1134 61.1961 94.84 62.3201 91.5786C62.9441 89.7305 64.2201 85.8652 64.2001 85.8007Z" fill="#263238"/>
<path d="M102.188 124.067H89.812C88.6128 124.066 87.4632 123.586 86.6156 122.732C85.7681 121.878 85.292 120.721 85.292 119.514C85.2915 118.916 85.408 118.323 85.6348 117.771C85.8617 117.218 86.1945 116.716 86.6142 116.292C87.0339 115.869 87.5324 115.533 88.081 115.304C88.6297 115.075 89.2179 114.956 89.812 114.956H102.188C103.387 114.957 104.537 115.437 105.384 116.291C106.232 117.145 106.708 118.302 106.708 119.51C106.709 120.108 106.592 120.7 106.365 121.253C106.138 121.805 105.805 122.308 105.386 122.731C104.966 123.154 104.468 123.49 103.919 123.719C103.37 123.949 102.782 124.067 102.188 124.067Z" fill="#455A64"/>
<path d="M92.5195 119.437C92.5252 119.292 92.5725 119.152 92.6555 119.034C92.6875 118.978 92.7275 118.925 92.7635 118.869L93.0035 118.632C93.0955 118.563 93.1835 118.495 93.2795 118.43C93.6596 118.187 94.0837 118.021 94.5275 117.943C95.5494 117.738 96.6016 117.738 97.6235 117.943C98.0618 118.019 98.4807 118.181 98.8555 118.422C98.9555 118.487 99.0475 118.559 99.1435 118.628L99.3715 118.861C99.4327 118.949 99.4888 119.04 99.5395 119.135C99.5782 119.232 99.6116 119.332 99.6395 119.433H99.5675H97.5995C97.5832 119.435 97.5666 119.432 97.5522 119.424C97.5377 119.416 97.5263 119.404 97.5195 119.389C97.4644 119.28 97.3817 119.188 97.2798 119.122C97.1779 119.057 97.0604 119.019 96.9395 119.014C96.3508 118.976 95.7602 118.976 95.1715 119.014C95.051 119.019 94.9338 119.056 94.832 119.121C94.7301 119.186 94.6471 119.277 94.5915 119.385C94.5879 119.399 94.5796 119.411 94.5679 119.42C94.5563 119.429 94.542 119.433 94.5275 119.433H92.5275L92.5195 119.437Z" fill="white"/>
<path d="M92.5153 120.595V119.896C92.5131 119.88 92.5131 119.864 92.5153 119.848H94.5161C94.5161 119.892 94.5161 119.945 94.5161 119.993C94.5161 120.191 94.5161 120.397 94.5161 120.587C94.5207 120.622 94.5172 120.658 94.506 120.691C94.4948 120.725 94.476 120.755 94.4513 120.78C94.4265 120.805 94.3964 120.824 94.3632 120.835C94.33 120.847 94.2947 120.85 94.26 120.845H92.7634C92.7299 120.849 92.6959 120.845 92.6641 120.834C92.6322 120.823 92.6033 120.805 92.5795 120.781C92.5556 120.757 92.5375 120.727 92.5263 120.695C92.5152 120.663 92.5114 120.629 92.5153 120.595Z" fill="white"/>
<path d="M97.6235 120.595C97.6235 120.34 97.6235 120.09 97.6435 119.835H99.6203C99.6203 119.835 99.6203 119.864 99.6203 119.88V120.595C99.6242 120.628 99.6205 120.662 99.6096 120.694C99.5987 120.725 99.5808 120.754 99.5573 120.778C99.5338 120.802 99.5054 120.82 99.474 120.831C99.4426 120.842 99.4092 120.845 99.3762 120.841H97.8636C97.8309 120.845 97.798 120.84 97.7671 120.829C97.7362 120.818 97.7083 120.8 97.6853 120.776C97.6622 120.752 97.6447 120.724 97.6341 120.693C97.6234 120.661 97.6198 120.628 97.6235 120.595Z" fill="white"/>
<path d="M180.153 53.6657C181.158 54.676 181.863 55.9492 182.189 57.3415C182.514 58.7338 182.446 60.1898 181.993 61.5453L177.573 57.1163L174.317 58.6745L172.765 61.956L177.165 66.4092C175.875 66.845 174.493 66.926 173.162 66.644C171.831 66.3619 170.598 65.727 169.593 64.8049C168.587 63.8827 167.844 62.7069 167.441 61.399C167.038 60.091 166.99 58.6985 167.301 57.3654C167.612 56.0323 168.271 54.807 169.21 53.8162C170.149 52.8255 171.334 52.1053 172.643 51.7301C173.951 51.355 175.335 51.3384 176.652 51.6823C177.969 52.0261 179.17 52.7178 180.133 53.6858L180.153 53.6657Z" fill="#EBEBEB"/>
<path d="M144.993 40.0084C143.987 38.9977 143.282 37.7246 142.957 36.3324C142.632 34.9402 142.7 33.4843 143.153 32.1287L147.573 36.5779L150.829 35.0156L152.381 31.7381L147.961 27.285C149.25 26.8492 150.632 26.7681 151.963 27.0502C153.295 27.3323 154.527 27.9672 155.533 28.8893C156.538 29.8114 157.281 30.9873 157.684 32.2952C158.087 33.6032 158.135 34.9957 157.824 36.3288C157.513 37.6619 156.854 38.8872 155.915 39.878C154.976 40.8687 153.791 41.5889 152.483 41.9641C151.174 42.3392 149.79 42.3557 148.473 42.0119C147.156 41.6681 145.955 40.9764 144.993 40.0084Z" fill="#EBEBEB"/>
<path d="M154.889 34.2626L150.081 39.1027L169.645 58.796L174.454 53.9559L154.889 34.2626Z" fill="#EBEBEB"/>
<path d="M97.3249 47.4002C96.5499 46.245 96.1324 44.8845 96.1249 43.4906C96.1249 38.5381 101.529 34.5238 108.189 34.5238C114.849 34.5238 120.249 38.5502 120.249 43.4906C120.249 48.431 114.849 52.4614 108.189 52.4614C105.229 52.5089 102.326 51.6434 99.8689 49.9811L95.7129 51.0441L97.3249 47.4002Z" fill="white"/>
<path d="M112.525 43.491C112.525 43.7406 112.597 43.9848 112.735 44.1927C112.872 44.4005 113.067 44.5627 113.296 44.6586C113.525 44.7544 113.777 44.7797 114.021 44.7312C114.264 44.6827 114.487 44.5626 114.663 44.3861C114.838 44.2096 114.957 43.9847 115.006 43.7399C115.054 43.495 115.029 43.2413 114.933 43.0109C114.838 42.7804 114.677 42.5836 114.47 42.4455C114.264 42.3073 114.021 42.234 113.773 42.2347C113.443 42.2358 113.126 42.3685 112.892 42.6039C112.658 42.8392 112.526 43.1581 112.525 43.491Z" fill="#263238"/>
<path d="M108.186 44.7514C108.877 44.7514 109.438 44.1871 109.438 43.4911C109.438 42.7951 108.877 42.2308 108.186 42.2308C107.494 42.2308 106.934 42.7951 106.934 43.4911C106.934 44.1871 107.494 44.7514 108.186 44.7514Z" fill="#263238"/>
<path d="M101.346 43.491C101.345 43.7406 101.418 43.9848 101.555 44.1927C101.692 44.4005 101.888 44.5627 102.117 44.6586C102.346 44.7544 102.598 44.7797 102.841 44.7312C103.084 44.6827 103.308 44.5626 103.483 44.3861C103.658 44.2096 103.778 43.9847 103.826 43.7399C103.874 43.495 103.849 43.2413 103.754 43.0109C103.658 42.7804 103.497 42.5836 103.291 42.4455C103.084 42.3073 102.842 42.234 102.594 42.2347C102.263 42.2358 101.946 42.3685 101.712 42.6039C101.479 42.8392 101.347 43.1581 101.346 43.491Z" fill="#263238"/>
</svg>
