<svg width="97" height="153" viewBox="0 0 97 153" fill="none" xmlns="http://www.w3.org/2000/svg">
<g clip-path="url(#clip0_114_195)">
<path d="M54.7978 70.7896C54.7978 68.4413 55.7119 66.1819 57.3513 64.4783L79.975 40.9675C89.3778 31.1866 88.0313 16.8397 77.7173 8.48031C75.7187 6.86151 73.1976 6 70.6132 6L26.3854 6.00695C23.801 6.00695 21.2827 6.86985 19.2869 8.48726C8.97294 16.8425 7.62226 31.1838 17.0179 40.9661L39.6332 64.5159C41.2487 66.1972 42.1585 68.419 42.1811 70.7368C42.2036 73.1184 41.2867 75.4139 39.6247 77.1411L17.0179 100.614C7.62366 110.397 8.97435 124.738 19.2869 133.093C21.2841 134.711 23.8024 135.574 26.3854 135.574L70.6132 135.581C73.199 135.581 75.7187 134.719 77.7159 133.1C88.0313 124.741 89.3778 110.395 79.9736 100.613L57.3499 77.1022C55.7119 75.3973 54.7978 73.1393 54.7978 70.7896Z" fill="white" stroke="#7C49BE" stroke-width="3" stroke-miterlimit="10"/>
<path d="M71.354 40.3839C70.9103 39.364 69.792 38.7846 68.6709 38.8791C50.2289 40.4381 39.7092 23.1287 28.1967 24.4377C22.6179 25.0727 19.1207 30.7948 21.0939 35.9819C23.7376 42.9309 32.0797 49.9286 35.1375 53.1134L45.8064 64.1921V82.7896H45.8233C45.8021 82.8007 45.7923 82.8048 45.8064 82.7896V102.672C45.8064 103.248 46.2782 103.713 46.8613 103.713H47.9683C48.5514 103.713 49.0232 103.248 49.0232 102.672V96.9725C49.0232 96.3972 49.4951 95.9317 50.0781 95.9317C50.6612 95.9317 51.1331 95.4662 51.1331 94.891V82.7896L51.1429 64.1921L61.7921 53.1148C65.5611 49.1963 72.8751 43.8814 71.354 40.3839Z" fill="#7C49BE"/>
<path d="M47.4035 113.07C46.5866 113.07 45.9247 112.417 45.9247 111.611V107.72C45.9247 106.915 46.5866 106.261 47.4035 106.261C48.2204 106.261 48.8824 106.915 48.8824 107.72V111.611C48.8824 112.417 48.2204 113.07 47.4035 113.07Z" fill="#7C49BE"/>
<path d="M61.6992 135.351H41.5585L31.9347 135.581C48.4599 110.198 56.3499 129.033 64.5189 135.579L61.6992 135.351Z" fill="#7C49BE"/>
<path d="M89.1989 136.312H7.79974V149.052H89.1989V136.312Z" fill="#FFBC00"/>
<path d="M89.1989 142.701H7.79974V149.052H89.1989V142.701Z" fill="#B78300"/>
<path d="M92.0214 153.15H4.97861C3.1575 153.15 1.68005 151.692 1.68005 149.896V149.391C1.68005 147.595 3.1575 146.137 4.97861 146.137H92.0214C93.8425 146.137 95.3199 147.595 95.3199 149.391V149.896C95.3199 151.694 93.8425 153.15 92.0214 153.15Z" fill="#FFBC00"/>
</g>
<defs>
<clipPath id="clip0_114_195">
<rect width="97" height="153" fill="white"/>
</clipPath>
</defs>
</svg>
