<svg width="145" height="127" viewBox="0 0 145 127" fill="none" xmlns="http://www.w3.org/2000/svg">
<g clip-path="url(#clip0_111_116)">
<path d="M22.3696 99.1982C23.2172 97.3636 23.8734 95.4901 24.351 93.5993C9.88325 84.7791 0.215149 68.7938 0.215149 50.5369C0.215149 22.7459 22.6192 0.216309 50.2552 0.216309C77.8913 0.216309 100.295 22.7459 100.295 50.5369C100.295 78.3279 77.8913 100.857 50.2552 100.857C46.4796 100.857 42.8051 100.433 39.2683 99.6373C32.7519 107.8 22.6364 112.157 12.3982 111.428C16.5631 108.367 20.0397 104.235 22.3696 99.1982Z" fill="#7C49BE" stroke="#1A2E35" stroke-width="2" stroke-miterlimit="10"/>
<path d="M9.13029 55.4587C9.13029 30.9171 28.914 11.0203 53.3209 11.0203C67.5864 11.0203 80.2707 17.8199 88.3489 28.3686C80.7181 15.0486 66.416 6.0813 50.0293 6.0813C25.6246 6.0813 5.83875 25.9759 5.83875 50.5196C5.83875 60.7157 9.25722 70.1092 14.9991 77.6075C11.2666 71.087 9.13029 63.5238 9.13029 55.4587Z" fill="#C3ACEA"/>
<path d="M100.272 48.9511C100.269 48.9187 100.269 48.8884 100.267 48.8581C99.6757 31.4774 90.3045 16.3423 76.4778 7.78821C81.4539 15.5981 84.3388 24.8855 84.3388 34.8501C84.3388 62.5978 61.9714 85.0907 34.3783 85.0907C24.7963 85.0907 15.8446 82.3756 8.23962 77.6724C12.3186 84.0739 17.8023 89.4802 24.252 93.4609C24.2391 93.4782 24.2283 93.4976 24.2154 93.5149C24.2628 93.5431 24.3058 93.5733 24.3531 93.6015C23.8755 95.4923 23.2194 97.3658 22.3717 99.2003C20.0419 104.235 16.5653 108.367 12.4025 111.43C22.6407 112.159 32.7562 107.802 39.2726 99.6395C39.2985 99.646 39.3221 99.6503 39.3479 99.6547C39.3458 99.6438 39.3436 99.6352 39.3415 99.6244C42.8804 100.425 46.5614 100.849 50.3391 100.849C60.0223 100.849 69.6022 97.9715 77.6933 92.6258C84.8315 87.9117 90.7283 81.3588 94.6717 73.7393C97.7739 67.7489 99.6413 61.1419 100.153 54.4072C100.287 52.6462 100.33 50.7619 100.272 48.9511Z" fill="#572F96"/>
<path d="M122.63 114.474C121.783 112.639 121.127 110.766 120.649 108.875C135.117 100.055 144.785 84.0696 144.785 65.8127C144.785 38.0217 122.381 15.4921 94.7448 15.4921C67.1088 15.4921 44.7048 38.0217 44.7048 65.8127C44.7048 93.6036 67.1088 116.133 94.7448 116.133C98.5204 116.133 102.195 115.709 105.732 114.913C112.248 123.076 122.364 127.433 132.602 126.704C128.437 123.642 124.96 119.51 122.63 114.474Z" fill="#7C49BE" stroke="#1A2E35" stroke-width="2" stroke-miterlimit="10"/>
<path d="M122.63 114.474C121.787 112.65 121.133 110.785 120.656 108.905C135.119 100.103 144.785 84.1345 144.785 65.8927C144.785 47.7829 135.255 31.9123 120.963 23.0726C125.939 30.8825 128.824 40.17 128.824 50.1346C128.824 77.8823 106.457 100.375 78.8637 100.375C69.2816 100.375 60.3299 97.66 52.725 92.9568C61.6035 106.896 77.1426 116.135 94.8245 116.135C98.5742 116.135 102.227 115.716 105.74 114.928C112.257 123.082 122.368 127.435 132.6 126.706C128.437 123.642 124.96 119.51 122.63 114.474Z" fill="#572F96"/>
<path d="M53.6178 70.7431C53.6178 46.2015 73.4014 26.3048 97.8083 26.3048C112.074 26.3048 124.758 33.1043 132.836 43.653C125.206 30.333 110.904 21.3657 94.5189 21.3657C70.1142 21.3657 50.3284 41.2603 50.3284 65.804C50.3284 76.0001 53.7468 85.3936 59.4888 92.8919C55.754 86.3714 53.6178 78.8082 53.6178 70.7431Z" fill="#C3ACEA"/>
<path d="M76.3272 71.695C78.9222 71.695 81.0258 69.5796 81.0258 66.9701C81.0258 64.3606 78.9222 62.2452 76.3272 62.2452C73.7323 62.2452 71.6287 64.3606 71.6287 66.9701C71.6287 69.5796 73.7323 71.695 76.3272 71.695Z" fill="white"/>
<path d="M94.7448 71.695C97.3398 71.695 99.4434 69.5796 99.4434 66.9701C99.4434 64.3606 97.3398 62.2452 94.7448 62.2452C92.1499 62.2452 90.0463 64.3606 90.0463 66.9701C90.0463 69.5796 92.1499 71.695 94.7448 71.695Z" fill="white"/>
<path d="M112.711 71.695C115.306 71.695 117.409 69.5796 117.409 66.9701C117.409 64.3606 115.306 62.2452 112.711 62.2452C110.116 62.2452 108.012 64.3606 108.012 66.9701C108.012 69.5796 110.116 71.695 112.711 71.695Z" fill="white"/>
</g>
<defs>
<clipPath id="clip0_111_116">
<rect width="145" height="127" fill="white"/>
</clipPath>
</defs>
</svg>
