<svg width="1919" height="169" viewBox="0 0 1919 169" fill="none" xmlns="http://www.w3.org/2000/svg">
<g clip-path="url(#clip0_103_401)">
<path fill-rule="evenodd" clip-rule="evenodd" d="M1919 169V26.5172C1856.18 8.84278 1791.64 -6.09849e-06 1727.1 -6.09849e-06C1662.56 -6.09849e-06 1598.02 8.84278 1535.2 26.5172L1533.5 26.9967C1408.94 61.7211 1277.66 61.7211 1153.1 26.9967L1151.4 26.5172L1147.99 25.5805C1024.51 -8.51386 894.49 -8.51386 771.01 25.5805L767.6 26.5172L765.9 26.9967C641.34 61.7211 510.06 61.7211 385.5 26.9967L383.8 26.5172C320.98 8.84278 256.44 -6.09849e-06 191.9 -6.09849e-06C127.36 -6.09849e-06 62.82 8.84278 0 26.5172V169H1919Z" fill="#00C3B7"/>
</g>
<defs>
<clipPath id="clip0_103_401">
<rect width="1919" height="169" fill="white" transform="matrix(1 0 0 -1 0 169)"/>
</clipPath>
</defs>
</svg>
