<svg width="28" height="27" viewBox="0 0 28 27" fill="none" xmlns="http://www.w3.org/2000/svg">
<g clip-path="url(#clip0_898_406)">
<path d="M5.75886 8.19174V10.2129C5.75886 10.8104 6.24495 11.2965 6.84245 11.2965H8.8637C9.4612 11.2965 9.9473 10.8104 9.9473 10.2129V8.9383L11.1431 7.85314C11.2238 7.77859 11.2718 7.67518 11.2767 7.56541C11.2815 7.45564 11.2428 7.34839 11.1689 7.26703C11.0951 7.18566 10.9921 7.13675 10.8824 7.13095C10.7727 7.12515 10.6651 7.16293 10.5831 7.23606L9.89506 7.86043C9.75469 7.42455 9.34568 7.10814 8.86376 7.10814H6.8424C6.24495 7.10809 5.75886 7.59418 5.75886 8.19174ZM9.11391 8.19174V8.56923L8.4935 9.13226L7.79287 8.43158C7.71473 8.35344 7.60875 8.30954 7.49824 8.30954C7.38773 8.30954 7.28174 8.35344 7.2036 8.43158C7.12546 8.50972 7.08156 8.61571 7.08156 8.72621C7.08156 8.83672 7.12546 8.94271 7.2036 9.02085L8.18495 10.0022C8.22362 10.0409 8.26956 10.0717 8.32013 10.0926C8.3707 10.1136 8.42491 10.1243 8.47964 10.1242C8.58318 10.1244 8.68302 10.0858 8.75959 10.0161L9.11397 9.69455V10.2129C9.11397 10.3486 8.99938 10.4632 8.8637 10.4632H6.8424C6.70678 10.4632 6.59214 10.3486 6.59214 10.2129V8.19174C6.59214 8.05611 6.70673 7.94142 6.8424 7.94142H8.86365C8.99928 7.94142 9.11391 8.05611 9.11391 8.19174ZM10.583 12.9049L9.89501 13.5293C9.75464 13.0934 9.34563 12.777 8.8637 12.777H6.8424C6.2449 12.777 5.75881 13.2631 5.75881 13.8606V15.8818C5.75881 16.4794 6.2449 16.9655 6.8424 16.9655H8.86365C9.46115 16.9655 9.94725 16.4794 9.94725 15.8818V14.6072L11.143 13.522C11.1835 13.4853 11.2164 13.4409 11.2398 13.3914C11.2632 13.3419 11.2766 13.2883 11.2792 13.2337C11.2819 13.179 11.2737 13.1244 11.2552 13.0729C11.2368 13.0214 11.2083 12.974 11.1716 12.9335C11.0973 12.8517 10.9936 12.8027 10.8832 12.7973C10.7728 12.792 10.6649 12.8307 10.583 12.9049ZM9.11391 15.8818C9.11391 16.0175 8.99933 16.1322 8.86365 16.1322H6.8424C6.70678 16.1322 6.59214 16.0175 6.59214 15.8818V13.8606C6.59214 13.725 6.70673 13.6103 6.8424 13.6103H8.86365C8.99928 13.6103 9.11391 13.725 9.11391 13.8606V14.2381L8.4935 14.8012L7.79287 14.1005C7.75418 14.0618 7.70824 14.0311 7.65769 14.0102C7.60714 13.9892 7.55296 13.9784 7.49824 13.9784C7.44352 13.9784 7.38933 13.9892 7.33878 14.0102C7.28823 14.0311 7.24229 14.0618 7.2036 14.1005C7.16491 14.1392 7.13422 14.1851 7.11328 14.2357C7.09234 14.2862 7.08156 14.3404 7.08156 14.3951C7.08156 14.4498 7.09234 14.504 7.11328 14.5546C7.13422 14.6051 7.16491 14.6511 7.2036 14.6898L8.18495 15.6711C8.22362 15.7099 8.26956 15.7406 8.32013 15.7615C8.3707 15.7825 8.42491 15.7932 8.47964 15.7931C8.58318 15.7933 8.68302 15.7547 8.75959 15.685L9.11397 15.3635V15.8818H9.11391ZM10.583 18.5738L9.89501 19.1982C9.75464 18.7623 9.34563 18.4459 8.8637 18.4459H6.8424C6.2449 18.4459 5.75881 18.932 5.75881 19.5295V21.5507C5.75881 22.1482 6.2449 22.6343 6.8424 22.6343H8.86365C9.46115 22.6343 9.94725 22.1482 9.94725 21.5507V20.2761L11.143 19.191C11.1835 19.1542 11.2164 19.1098 11.2398 19.0603C11.2632 19.0108 11.2766 18.9572 11.2792 18.9026C11.2819 18.8479 11.2737 18.7933 11.2552 18.7418C11.2368 18.6903 11.2083 18.6429 11.1716 18.6024C11.1348 18.5619 11.0904 18.529 11.0409 18.5056C10.9915 18.4822 10.9379 18.4688 10.8832 18.4662C10.8286 18.4635 10.7739 18.4717 10.7224 18.4901C10.6709 18.5086 10.6235 18.537 10.583 18.5738ZM9.11391 21.5507C9.11391 21.6863 8.99933 21.801 8.86365 21.801H6.8424C6.70678 21.801 6.59214 21.6864 6.59214 21.5507V19.5295C6.59214 19.3939 6.70673 19.2792 6.8424 19.2792H8.86365C8.99928 19.2792 9.11391 19.3938 9.11391 19.5295V19.907L8.4935 20.47L7.79287 19.7693C7.71473 19.6912 7.60875 19.6473 7.49824 19.6473C7.38773 19.6473 7.28174 19.6912 7.2036 19.7693C7.12546 19.8475 7.08156 19.9535 7.08156 20.064C7.08156 20.1745 7.12546 20.2805 7.2036 20.3586L8.18495 21.34C8.22362 21.3787 8.26956 21.4094 8.32013 21.4304C8.3707 21.4513 8.42491 21.4621 8.47964 21.462C8.58318 21.4621 8.68302 21.4236 8.75959 21.3539L9.11397 21.0323V21.5507H9.11391ZM12.5779 2.03054C12.5779 2.31741 12.3439 2.55137 12.0571 2.55137C11.7702 2.55137 11.5363 2.31741 11.5363 2.03054C11.5363 1.74366 11.7703 1.5097 12.0571 1.5097C12.3439 1.5097 12.5779 1.74366 12.5779 2.03054ZM25.6669 4.91611L25.2777 4.69142C24.5422 4.26674 23.5984 4.51965 23.1739 5.25512L22.5502 6.33538V3.78038C22.5502 2.912 21.8437 2.20554 20.9753 2.20554H16.9328V1.92215C16.9328 1.81164 16.8889 1.70566 16.8108 1.62752C16.7326 1.54938 16.6267 1.50549 16.5162 1.50549H14.2754C13.9204 0.604495 13.0502 -0.000244141 12.057 -0.000244141C11.0639 -0.000244141 10.1938 0.604495 9.83876 1.50543H7.59798C7.48747 1.50543 7.38149 1.54933 7.30335 1.62747C7.22521 1.70561 7.18131 1.81159 7.18131 1.9221V2.20549H3.13886C2.27042 2.20549 1.56396 2.91194 1.56396 3.78033V25.0915C1.56396 25.9599 2.27042 26.6664 3.13886 26.6664H20.9753C21.8438 26.6664 22.5502 25.9599 22.5502 25.0915V13.3945L26.2306 7.01991C26.6553 6.28444 26.4024 5.34069 25.6669 4.91611ZM23.8955 5.67174C24.0572 5.39184 24.3824 5.26496 24.6812 5.34054L18.8425 15.4536L18.3966 15.1962L23.8955 5.67174ZM18.2441 16.0703L19.3292 16.6968L18.2441 17.3233V16.0703ZM20.9753 3.03887C21.3842 3.03887 21.7169 3.37153 21.7169 3.78038V7.77871L20.939 9.12606V4.2334C20.939 4.1229 20.8951 4.01691 20.8169 3.93877C20.7388 3.86063 20.6328 3.81674 20.5223 3.81674H16.9328V3.03887H20.9753ZM8.01459 2.33877H10.1431C10.2366 2.33877 10.3274 2.30731 10.4009 2.24946C10.4743 2.1916 10.5262 2.11071 10.5481 2.01981C10.7167 1.32106 11.3371 0.833089 12.057 0.833089C12.777 0.833089 13.3975 1.32106 13.566 2.01981C13.5879 2.11071 13.6398 2.1916 13.7133 2.24946C13.7867 2.30731 13.8775 2.33877 13.971 2.33877H16.0995V4.51674H8.01459V2.33877ZM16.5162 5.35012C16.6267 5.35012 16.7327 5.30622 16.8108 5.22808C16.889 5.14994 16.9329 5.04396 16.9329 4.93345V4.65012H20.1057V10.5695L17.4667 15.1404C17.4301 15.2037 17.4108 15.2756 17.4108 15.3487V18.0451C17.4108 18.1182 17.43 18.1901 17.4666 18.2534C17.5032 18.3168 17.5558 18.3694 17.6191 18.406C17.6825 18.4426 17.7543 18.4618 17.8275 18.4618C17.9006 18.4618 17.9725 18.4425 18.0358 18.4059L20.1057 17.2109V24.2219H4.0085V4.65007H7.18126V4.9334C7.18126 5.04391 7.22516 5.14989 7.3033 5.22803C7.38144 5.30617 7.48742 5.35007 7.59792 5.35007L16.5162 5.35012ZM21.7169 25.0916C21.7169 25.5005 21.3842 25.8331 20.9753 25.8331H3.13886C2.72995 25.8331 2.3973 25.5004 2.3973 25.0916V3.78038C2.3973 3.37147 2.73001 3.03887 3.13886 3.03887H7.18126V3.81679H3.59183C3.48132 3.81679 3.37534 3.86069 3.2972 3.93883C3.21906 4.01697 3.17516 4.12295 3.17516 4.23345V24.6386C3.17516 24.7491 3.21906 24.855 3.2972 24.9332C3.37534 25.0113 3.48132 25.0552 3.59183 25.0552H20.5223C20.6328 25.0552 20.7388 25.0113 20.8169 24.9332C20.8951 24.855 20.939 24.7491 20.939 24.6386V16.1853L21.7169 14.838V25.0916ZM25.509 6.60325L20.0101 16.1277L19.5641 15.8702L25.4029 5.75726C25.6178 5.9783 25.6705 6.3234 25.509 6.60325ZM11.8951 10.1105C11.8951 10 11.939 9.89405 12.0171 9.81591C12.0952 9.73777 12.2012 9.69387 12.3117 9.69387H14.6945C14.805 9.69387 14.911 9.73777 14.9892 9.81591C15.0673 9.89405 15.1112 10 15.1112 10.1105C15.1112 10.221 15.0673 10.327 14.9892 10.4052C14.911 10.4833 14.805 10.5272 14.6945 10.5272H12.3117C12.2012 10.5272 12.0952 10.4833 12.0171 10.4052C11.939 10.327 11.8951 10.221 11.8951 10.1105ZM11.8951 8.29413C11.8951 8.18362 11.939 8.07764 12.0171 7.9995C12.0952 7.92136 12.2012 7.87746 12.3117 7.87746H17.0774C17.1879 7.87746 17.2938 7.92136 17.372 7.9995C17.4501 8.07764 17.494 8.18362 17.494 8.29413C17.494 8.40464 17.4501 8.51062 17.372 8.58876C17.2938 8.6669 17.1879 8.7108 17.0774 8.7108H12.3117C12.2012 8.7108 12.0952 8.6669 12.0171 8.58876C11.939 8.51062 11.8951 8.40464 11.8951 8.29413ZM11.8951 15.2032C11.8951 15.0927 11.939 14.9867 12.0171 14.9086C12.0952 14.8304 12.2012 14.7865 12.3117 14.7865H14.6945C14.805 14.7865 14.911 14.8304 14.9892 14.9086C15.0673 14.9867 15.1112 15.0927 15.1112 15.2032C15.1112 15.3137 15.0673 15.4197 14.9892 15.4978C14.911 15.576 14.805 15.6199 14.6945 15.6199H12.3117C12.2012 15.6199 12.0952 15.576 12.0171 15.4978C11.939 15.4197 11.8951 15.3137 11.8951 15.2032ZM11.8951 13.3868C11.8951 13.2763 11.939 13.1703 12.0171 13.0922C12.0952 13.014 12.2012 12.9701 12.3117 12.9701H17.0774C17.1879 12.9701 17.2938 13.014 17.372 13.0922C17.4501 13.1703 17.494 13.2763 17.494 13.3868C17.494 13.4973 17.4501 13.6033 17.372 13.6814C17.2938 13.7596 17.1879 13.8035 17.0774 13.8035H12.3117C12.2012 13.8035 12.0952 13.7596 12.0171 13.6814C11.939 13.6033 11.8951 13.4973 11.8951 13.3868ZM11.8951 21.4484C11.8951 21.3378 11.939 21.2319 12.0171 21.1537C12.0952 21.0756 12.2012 21.0317 12.3117 21.0317H14.6945C14.805 21.0317 14.911 21.0756 14.9892 21.1537C15.0673 21.2319 15.1112 21.3378 15.1112 21.4484C15.1112 21.5589 15.0673 21.6648 14.9892 21.743C14.911 21.8211 14.805 21.865 14.6945 21.865H12.3117C12.0816 21.865 11.8951 21.6784 11.8951 21.4484ZM11.8951 19.6319C11.8951 19.5214 11.939 19.4155 12.0171 19.3373C12.0952 19.2592 12.2012 19.2153 12.3117 19.2153H17.0774C17.1879 19.2153 17.2938 19.2592 17.372 19.3373C17.4501 19.4155 17.494 19.5214 17.494 19.6319C17.494 19.7425 17.4501 19.8484 17.372 19.9266C17.2938 20.0047 17.1879 20.0486 17.0774 20.0486H12.3117C12.0816 20.0486 11.8951 19.862 11.8951 19.6319Z" fill="#00A79D"/>
</g>
<defs>
<clipPath id="clip0_898_406">
<rect width="26.6667" height="26.6667" fill="white" transform="translate(0.666992 -0.000244141)"/>
</clipPath>
</defs>
</svg>
