<svg width="28" height="28" viewBox="0 0 28 28" fill="none" xmlns="http://www.w3.org/2000/svg">
<g clip-path="url(#clip0_898_415)">
<path d="M15.1875 16.3172C15.3646 16.0724 15.4688 15.7756 15.4688 15.4526C15.4688 14.6401 14.8125 13.9839 14 13.9839C13.1875 13.9839 12.5312 14.6401 12.5312 15.4526C12.5312 15.7756 12.6354 16.0724 12.8125 16.3172C12.8125 16.3172 14.3125 18.9422 12.8125 22.1297H14H15.1875C13.6875 18.9422 15.1875 16.3172 15.1875 16.3172Z" fill="#FABD3B"/>
<path d="M18.8863 1.39502H13.98H9.07375C9.07375 1.39502 7.7925 15.3846 13.98 15.3846C20.3758 15.3846 18.8863 1.39502 18.8863 1.39502Z" fill="#FFD759"/>
<path d="M16.6554 22.5515C16.6554 22.7807 16.4679 22.9682 16.2388 22.9682H11.7648C11.5356 22.9682 11.3481 22.7807 11.3481 22.5515C11.3481 22.3224 11.5356 22.1349 11.7648 22.1349H16.2388C16.4679 22.1297 16.6554 22.3172 16.6554 22.5515Z" fill="#FAB72F"/>
<path d="M17.1095 22.968H10.896V25.7284H17.1095V22.968Z" fill="#FFD759"/>
<path d="M17.1045 25.7288H14.0003H10.8962L10.2295 27.0204H14.0003H17.7712L17.1045 25.7288Z" fill="#FFD759"/>
<path d="M19.3226 1.39567C19.3226 1.62484 19.1351 1.81234 18.9059 1.81234H9.09342C8.86426 1.81234 8.67676 1.62484 8.67676 1.39567C8.67676 1.1665 8.86426 0.979004 9.09342 0.979004H18.9059C19.1351 0.979004 19.3226 1.1665 19.3226 1.39567Z" fill="#FAB72F"/>
<path d="M16.6562 23.4114H11.3438V25.3853H16.6562V23.4114Z" fill="#FAB72F"/>
<path d="M13.9992 10.1715C15.8258 10.1715 17.3065 8.69074 17.3065 6.86418C17.3065 5.03761 15.8258 3.55688 13.9992 3.55688C12.1726 3.55688 10.6919 5.03761 10.6919 6.86418C10.6919 8.69074 12.1726 10.1715 13.9992 10.1715Z" fill="#FAB72F"/>
<path d="M13.6922 8.94165V6.21248C13.6922 6.07186 13.6974 5.93644 13.7235 5.79061L12.8172 6.02498L12.7183 5.45207L13.6922 5.06665H14.5464V8.94165H13.6922ZM9.83805 10.8583C7.62451 9.50415 5.33805 6.15519 5.22347 4.10832C5.19222 3.57707 5.33805 3.10832 5.60889 2.89478C6.04639 2.55623 6.44222 2.55103 6.8641 2.63436C7.5568 2.77498 8.14535 3.23853 8.5568 3.69165C8.54118 3.69165 8.53076 3.68644 8.51514 3.68644C8.2443 3.68644 8.02555 3.90519 8.02555 4.17603C8.02555 4.44686 8.2443 4.66561 8.51514 4.66561C8.75472 4.66561 8.95784 4.48853 8.9943 4.25936C9.06722 4.37394 9.12451 4.47811 9.16097 4.55623L9.21305 4.2229C9.1818 4.14478 8.3693 2.36353 7.01514 2.02498C6.57764 1.91561 6.15055 1.92082 5.72347 2.0979C5.69743 1.70207 5.3693 1.39478 4.97347 1.39478C4.5568 1.39478 4.21826 1.73332 4.21826 2.14998C4.21826 2.51457 4.47868 2.82186 4.82243 2.89478C4.66618 3.19686 4.56201 3.60832 4.59326 4.13957C4.70785 6.18644 6.59326 8.92082 9.0516 10.5979C8.75472 10.6292 8.52035 10.8844 8.52035 11.1917C8.52035 11.5198 8.78597 11.7854 9.11409 11.7854C9.44222 11.7854 9.70785 11.5198 9.70785 11.1917C9.70785 11.1239 9.69743 11.0562 9.67139 10.9937C9.72347 11.025 9.78076 11.0562 9.83285 11.0875V10.8583H9.83805ZM23.7808 2.14998C23.7808 1.73332 23.4422 1.39478 23.0256 1.39478C22.6245 1.39478 22.2964 1.70728 22.2703 2.10311C21.8328 1.9104 21.3953 1.90519 20.9474 2.01457C19.5933 2.35311 18.7808 4.13957 18.7495 4.21248L18.8016 4.54582C18.8381 4.46769 18.8953 4.36873 18.9683 4.24894C19.0047 4.47811 19.2078 4.65519 19.4474 4.65519C19.7183 4.65519 19.937 4.43644 19.937 4.16561C19.937 3.89478 19.7183 3.67603 19.4474 3.67603C19.4318 3.67603 19.4214 3.68123 19.4058 3.68123C19.8172 3.22811 20.4058 2.76978 21.0985 2.62394C21.5203 2.5354 21.9162 2.54061 22.3537 2.88436C22.6297 3.0979 22.7703 3.56665 22.7391 4.0979C22.6245 6.14998 20.3433 9.49373 18.1245 10.8479V11.0771C18.1766 11.0458 18.2339 11.0146 18.286 10.9833C18.2651 11.0458 18.2495 11.1135 18.2495 11.1812C18.2495 11.5094 18.5151 11.775 18.8433 11.775C19.1714 11.775 19.437 11.5094 19.437 11.1812C19.437 10.8739 19.2026 10.6239 18.9058 10.5875C21.3641 8.9104 23.2547 6.18123 23.3641 4.12915C23.3953 3.60311 23.286 3.19165 23.1349 2.88957C23.5047 2.84269 23.7808 2.53019 23.7808 2.14998Z" fill="#FFD759"/>
</g>
<defs>
<clipPath id="clip0_898_415">
<rect width="26.6667" height="26.6667" fill="white" transform="translate(0.666504 0.666504)"/>
</clipPath>
</defs>
</svg>
