<svg width="33" height="33" viewBox="0 0 33 33" fill="none" xmlns="http://www.w3.org/2000/svg">
<path d="M-0.000652313 20.4316C-0.000652313 22.2591 1.48615 23.7454 3.31268 23.7454L11.6375 23.7454C11.0257 25.7451 10.2991 29.5578 12.6591 31.8818C13.3712 32.5827 14.2775 32.9794 15.2113 32.999C16.1521 33.0214 16.972 32.684 17.5829 32.0311C17.9175 31.6715 18.1024 31.1979 18.0999 30.7067V30.3749C18.0999 26.9636 19.6544 23.8042 22.2579 21.925C23.0276 21.3691 23.8733 20.9271 24.7691 20.6127C24.7903 21.0137 24.9643 21.3913 25.2553 21.668C25.5463 21.9447 25.9323 22.0994 26.3338 22.1004H31.0929C31.5099 22.0999 31.9096 21.9341 32.2045 21.6393C32.4994 21.3445 32.6654 20.9447 32.666 20.5278L32.666 2.48174C32.6655 2.06468 32.4996 1.66483 32.2047 1.36992C31.9098 1.07501 31.51 0.909103 31.0929 0.908611H26.3329C25.916 0.909229 25.5163 1.07512 25.2215 1.36992C24.9267 1.66472 24.7608 2.06437 24.7602 2.48128V3.12201C21.9859 2.65348 19.1238 2.41781 16.188 2.41781C12.9059 2.41781 9.53242 2.71088 6.09122 3.29701C5.25348 3.32033 4.45782 3.66924 3.87316 4.26966C3.2885 4.87009 2.96089 5.67476 2.95988 6.51281C2.95988 7.05182 3.09475 7.55955 3.32995 8.00615C1.98735 8.41681 1.00735 9.66748 1.00735 11.1426C1.00735 11.8333 1.22295 12.4726 1.58835 13.0018C1.10526 13.2848 0.704494 13.6891 0.425777 14.1747C0.14706 14.6602 6.10352e-05 15.2102 -0.000652313 15.7701C-0.000652313 16.6764 0.377346 17.4939 0.982615 18.0791C0.671026 18.3866 0.423641 18.7528 0.254845 19.1567C0.0860443 19.5605 -0.000804901 19.9939 -0.000652313 20.4316ZM26.6269 2.77528H30.7993L30.7993 20.2337H26.6269L26.6269 2.77528ZM3.21375 17.1173C2.47081 17.1173 1.86601 16.513 1.86601 15.7696C1.86601 15.0262 2.47081 14.4223 3.21375 14.4223H8.73675C8.98428 14.4223 9.22168 14.324 9.39672 14.149C9.57175 13.9739 9.67008 13.7366 9.67008 13.489C9.67008 13.2415 9.57175 13.0041 9.39672 12.8291C9.22168 12.654 8.98428 12.5557 8.73675 12.5557H4.28708C3.91235 12.5553 3.55307 12.4063 3.28813 12.1412C3.0232 11.8762 2.87426 11.5169 2.87402 11.1421C2.87451 10.7676 3.02356 10.4085 3.28847 10.1437C3.55337 9.87885 3.91251 9.72992 4.28708 9.72955H7.52901C7.77655 9.72955 8.01395 9.63121 8.18898 9.45618C8.36401 9.28115 8.46235 9.04375 8.46235 8.79622C8.46235 8.54868 8.36401 8.31128 8.18898 8.13625C8.01395 7.96121 7.77655 7.86288 7.52901 7.86288H6.17661C5.81859 7.86251 5.47534 7.72009 5.22222 7.46688C4.9691 7.21367 4.8268 6.87037 4.82655 6.51235C4.82704 6.15444 4.96944 5.81133 5.22252 5.55825C5.4756 5.30517 5.8187 5.16278 6.17661 5.16228C6.22981 5.16228 6.28255 5.15762 6.33435 5.14875C12.7869 4.04228 18.9815 4.00075 24.7602 5.01808L24.7602 18.6522C23.4694 19.0274 22.2529 19.6226 21.1645 20.4116C18.0766 22.6408 16.2328 26.3653 16.2328 30.3749V30.7067C16.2333 30.7241 16.2284 30.7412 16.2188 30.7557C15.9738 31.018 15.6532 31.143 15.2495 31.1328C14.7941 31.1234 14.3395 30.9167 13.9685 30.5513C11.6735 28.2917 13.7399 23.366 13.8145 23.1924C13.8612 23.0888 13.8873 22.9754 13.8929 22.8564C13.8929 22.8443 13.8962 22.8321 13.8967 22.8205L13.8971 22.8121C13.8971 22.7803 13.8911 22.75 13.8878 22.7188C13.885 22.6908 13.8845 22.6628 13.8794 22.6362C13.8733 22.6035 13.8621 22.5727 13.8528 22.5414C13.8444 22.5143 13.8383 22.4868 13.8276 22.4612C13.8173 22.435 13.8029 22.4117 13.7903 22.387C13.7749 22.3571 13.7609 22.3263 13.7422 22.2983C13.7315 22.2819 13.7179 22.268 13.7063 22.2526C13.6815 22.219 13.6563 22.1858 13.6269 22.1559C13.6185 22.1475 13.6083 22.1406 13.5999 22.1326C13.5644 22.099 13.528 22.0673 13.4869 22.0393C13.4823 22.036 13.4776 22.0346 13.4729 22.0314C13.43 22.0034 13.3866 21.9763 13.3381 21.9553C13.2093 21.8983 13.0749 21.8759 12.9428 21.8787L3.31268 21.8787C2.51468 21.8787 1.86555 21.2301 1.86555 20.4321C1.86555 19.6341 2.51421 18.9845 3.31221 18.9845H9.34108C9.58862 18.9845 9.82601 18.8861 10.001 18.7111C10.1761 18.5361 10.2744 18.2987 10.2744 18.0512C10.2744 17.8036 10.1761 17.5662 10.001 17.3912C9.82601 17.2162 9.58862 17.1178 9.34108 17.1178H3.21421L3.21375 17.1173Z" fill="#A6A6A6"/>
</svg>
