<svg width="34" height="33" viewBox="0 0 34 33" fill="none" xmlns="http://www.w3.org/2000/svg">
<path d="M33.3327 12.5689C33.3327 10.7414 31.8459 9.25507 30.0194 9.25507H21.6945C22.3063 7.2554 23.0329 3.44274 20.673 1.11874C19.9608 0.417802 19.0546 0.0211355 18.1208 0.00153554C17.18 -0.0208645 16.36 0.316536 15.7491 0.969402C15.4146 1.329 15.2296 1.80263 15.2321 2.2938V2.6256C15.2321 6.03694 13.6776 9.19627 11.0741 11.0755C10.3045 11.6314 9.45871 12.0733 8.56295 12.3878C8.54172 11.9868 8.36772 11.6092 8.07671 11.3325C7.7857 11.0558 7.39977 10.9011 6.99822 10.9001H2.23915C1.82216 10.9006 1.42239 11.0664 1.12749 11.3612C0.832587 11.656 0.666633 12.0557 0.666016 12.4727V30.5187C0.66651 30.9358 0.832409 31.3357 1.12732 31.6306C1.42223 31.9255 1.82208 32.0914 2.23915 32.0919H6.99915C7.41606 32.0913 7.81571 31.9254 8.11051 31.6306C8.40531 31.3358 8.5712 30.9361 8.57182 30.5192V29.8785C11.3461 30.347 14.2082 30.5827 17.144 30.5827C20.4261 30.5827 23.7996 30.2896 27.2408 29.7035C28.0785 29.6802 28.8742 29.3313 29.4589 28.7308C30.0435 28.1304 30.3711 27.3257 30.3722 26.4877C30.3722 25.9487 30.2373 25.4409 30.0021 24.9943C31.3447 24.5837 32.3247 23.333 32.3247 21.8579C32.3247 21.1672 32.1091 20.5279 31.7437 19.9987C32.2268 19.7157 32.6275 19.3114 32.9063 18.8258C33.185 18.3402 33.332 17.7903 33.3327 17.2304C33.3327 16.3241 32.9547 15.5065 32.3494 14.9213C32.661 14.6139 32.9084 14.2477 33.0772 13.8438C33.246 13.44 33.3328 13.0066 33.3327 12.5689ZM6.70515 30.2252H2.53268V12.7667H6.70515V30.2252ZM30.1183 15.8831C30.8612 15.8831 31.466 16.4875 31.466 17.2309C31.466 17.9743 30.8612 18.5781 30.1183 18.5781H24.5953C24.3477 18.5781 24.1104 18.6765 23.9353 18.8515C23.7603 19.0265 23.662 19.2639 23.662 19.5115C23.662 19.759 23.7603 19.9964 23.9353 20.1714C24.1104 20.3465 24.3477 20.4448 24.5953 20.4448H29.0449C29.4197 20.4452 29.779 20.5942 30.0439 20.8593C30.3088 21.1243 30.4578 21.4836 30.458 21.8583C30.4575 22.2329 30.3085 22.592 30.0436 22.8568C29.7787 23.1216 29.4195 23.2706 29.0449 23.2709H25.803C25.5555 23.2709 25.3181 23.3693 25.1431 23.5443C24.968 23.7193 24.8697 23.9567 24.8697 24.2043C24.8697 24.4518 24.968 24.6892 25.1431 24.8642C25.3181 25.0393 25.5555 25.1376 25.803 25.1376H27.1554C27.5134 25.138 27.8567 25.2804 28.1098 25.5336C28.3629 25.7868 28.5052 26.1301 28.5055 26.4881C28.505 26.846 28.3626 27.1892 28.1095 27.4422C27.8564 27.6953 27.5133 27.8377 27.1554 27.8382C27.1022 27.8382 27.0495 27.8429 26.9977 27.8517C20.5451 28.9582 14.3506 28.9997 8.57182 27.9824V14.3483C9.86267 13.9731 11.0791 13.3779 12.1675 12.5889C15.2554 10.3597 17.0992 6.6352 17.0992 2.6256V2.2938C17.0987 2.27641 17.1036 2.25929 17.1132 2.2448C17.3582 1.98254 17.6788 1.85747 18.0825 1.86774C18.5379 1.87707 18.9925 2.0838 19.3635 2.4492C21.6586 4.7088 19.5922 9.63447 19.5175 9.80807C19.4708 9.91167 19.4447 10.0251 19.4391 10.1441C19.4391 10.1562 19.4358 10.1683 19.4354 10.18L19.4349 10.1884C19.4349 10.2201 19.4409 10.2505 19.4442 10.2817C19.447 10.3097 19.4475 10.3377 19.4526 10.3643C19.4587 10.397 19.4699 10.4278 19.4792 10.4591C19.4876 10.4861 19.4937 10.5137 19.5044 10.5393C19.5147 10.5655 19.5292 10.5888 19.5418 10.6135C19.5572 10.6434 19.5711 10.6742 19.5898 10.7022C19.6005 10.7185 19.6141 10.7325 19.6257 10.7479C19.6505 10.7815 19.6757 10.8147 19.7051 10.8445C19.7135 10.8529 19.7237 10.8599 19.7321 10.8679C19.7676 10.9015 19.804 10.9332 19.8451 10.9612C19.8498 10.9645 19.8544 10.9659 19.8591 10.9691C19.902 10.9971 19.9454 11.0242 19.994 11.0452C20.1228 11.1021 20.2572 11.1245 20.3892 11.1217H30.0194C30.8174 11.1217 31.4665 11.7704 31.4665 12.5684C31.4665 13.3664 30.8178 14.016 30.0198 14.016H23.9909C23.7434 14.016 23.506 14.1143 23.331 14.2894C23.156 14.4644 23.0576 14.7018 23.0576 14.9493C23.0576 15.1969 23.156 15.4343 23.331 15.6093C23.506 15.7843 23.7434 15.8827 23.9909 15.8827H30.1178L30.1183 15.8831Z" fill="#A6A6A6"/>
</svg>
