<svg width="32" height="33" viewBox="0 0 32 33" fill="none" xmlns="http://www.w3.org/2000/svg">
<g clip-path="url(#clip0_898_683)">
<path d="M18.4852 26.693L19.8938 28.1016L20.5981 27.3973L31.252 16.7434L20.5981 6.09037L19.8938 5.38608L18.4852 6.79373L19.1895 7.49802L28.4349 16.7434L19.1895 25.9887L18.4852 26.693ZM0.57666 20.7228L1.98431 22.1314L2.6886 21.4271L7.3733 16.7434L2.6886 12.0596L1.98431 11.3553L0.57666 12.7639L1.28095 13.4682L4.55707 16.7434L1.28095 20.0195L0.57666 20.7228Z" fill="white"/>
<path d="M9.03418 23.7079L10.4418 25.1165L11.1461 24.4122L18.815 16.7433L11.1461 9.07541L10.4418 8.37112L9.03418 9.77877L9.73847 10.4831L15.9997 16.7433L9.73847 23.0045L9.03418 23.7079Z" fill="white"/>
</g>
<defs>
<clipPath id="clip0_898_683">
<rect width="32" height="32" fill="white" transform="matrix(0 -1 1 0 -0.000488281 32.6667)"/>
</clipPath>
</defs>
</svg>
