<svg width="32" height="33" viewBox="0 0 32 33" fill="none" xmlns="http://www.w3.org/2000/svg">
<path d="M13.5138 6.63929L12.1052 5.23071L11.4009 5.935L0.74699 16.5889L11.4009 27.2419L12.1052 27.9462L13.5138 26.5385L12.8095 25.8343L3.56416 16.5889L12.8095 7.34359L13.5138 6.63929ZM31.4224 12.6094L30.0147 11.2009L29.3104 11.9052L24.6257 16.5889L29.3104 21.2727L30.0147 21.977L31.4224 20.5684L30.7181 19.8641L27.442 16.5889L30.7181 13.3128L31.4224 12.6094Z" fill="white"/>
<path d="M22.9653 9.62513L21.5577 8.21655L20.8534 8.92084L13.1845 16.5897L20.8534 24.2576L21.5577 24.9619L22.9653 23.5542L22.261 22.8499L15.9998 16.5897L22.261 10.3285L22.9653 9.62513Z" fill="white"/>
</svg>
