<svg width="29" height="33" viewBox="0 0 29 33" fill="none" xmlns="http://www.w3.org/2000/svg">
<path d="M0.895227 12.3091L11.569 22.9828C12.0645 23.4784 12.8651 23.1353 12.8651 22.4491V17.036C13.0938 17.036 13.3225 16.9979 13.5131 16.9979C18.3926 16.9979 22.3571 20.9243 22.3571 25.7275C22.3571 27.7098 21.6709 29.4252 20.2986 31.0644C19.7649 31.6743 20.4892 32.6273 21.2135 32.2461C26.0167 29.8064 28.8757 25.2701 28.8757 20.1238C28.8757 12.4234 22.5096 6.20979 14.6567 6.20979C14.0468 6.20979 13.3988 6.24791 12.8651 6.32415V1.10163C12.8651 0.415464 12.0645 0.0723796 11.569 0.567947L0.895227 11.2417C0.590263 11.5467 0.590263 12.0041 0.895227 12.3091ZM2.49629 11.7754L11.3403 2.93142V7.20092C11.3403 7.65837 11.7596 8.03957 12.2551 7.96333C12.8651 7.84897 13.78 7.69649 14.6949 7.69649C21.6709 7.69649 27.3509 13.2621 27.3509 20.1238C27.3509 23.5928 25.8642 26.7949 23.272 29.044C23.6532 28.0147 23.8819 26.9092 23.8819 25.7656C23.8819 20.0857 19.2312 15.5112 13.5131 15.5112C12.3314 15.5112 11.3403 15.5112 11.3403 16.3498V20.6193L2.49629 11.7754Z" fill="#A6A6A6" fill-opacity="0.8"/>
</svg>
