<svg width="38" height="38" viewBox="0 0 38 38" fill="none" xmlns="http://www.w3.org/2000/svg">
<g clip-path="url(#clip0_898_717)">
<path d="M25.2205 3.77856H12.776C10.1998 3.78141 8.11222 5.86903 8.10938 8.44523V34.1119C8.10956 34.2474 8.14517 34.3806 8.21258 34.4981C8.42668 34.8714 8.90282 35.0004 9.27604 34.7864L18.9983 29.187L28.7205 34.7864C28.8391 34.8537 28.973 34.8893 29.1094 34.8897C29.5386 34.8889 29.8864 34.5411 29.8872 34.1119V8.44523C29.8843 5.86903 27.7967 3.78141 25.2205 3.77856ZM28.3316 32.766L19.3872 27.6147C19.2686 27.5474 19.1346 27.5118 18.9983 27.5114C18.8619 27.5118 18.728 27.5474 18.6094 27.6147L9.66493 32.766V8.44523C9.66711 6.72789 11.0587 5.3363 12.776 5.33412H25.2205C26.9378 5.3363 28.3294 6.72789 28.3316 8.44523V32.766Z" fill="#A6A6A6" fill-opacity="0.8"/>
<ellipse cx="7.70143" cy="18.8433" rx="7.36842" ry="7.36842" fill="#A6A6A6" fill-opacity="0.8"/>
<path d="M6.72269 20.803H3.77335V18.9364H6.72269V15.6137H8.90669V18.9364H11.8747V20.803H8.90669V24.0884H6.72269V20.803Z" fill="white"/>
</g>
<defs>
<clipPath id="clip0_898_717">
<rect width="37.3333" height="37.3333" fill="white" transform="translate(0.33252 0.66748)"/>
</clipPath>
</defs>
</svg>
