<svg width="32" height="32" viewBox="0 0 32 32" fill="none" xmlns="http://www.w3.org/2000/svg">
<path d="M1.71018 17.0667L29.7102 31.0667C30.1768 31.3779 30.9546 31.2223 31.4213 30.9112C31.888 30.4445 32.0435 29.8223 31.7324 29.2001L27.3768 15.6667L31.888 2.13341C32.0435 1.51118 31.888 0.888966 31.4213 0.422298C31.1102 0.266743 30.6435 0.111187 30.3324 0.111187C30.0213 0.111187 29.8657 0.111187 29.7102 0.266743L1.71018 14.2667C1.24351 14.5779 0.776846 15.0445 0.776846 15.6667C0.776846 16.289 1.08796 16.7556 1.71018 17.0667ZM27.688 26.5556L8.86574 17.2223L24.4213 17.2223L27.688 26.5556ZM24.5768 14.1112L9.02129 14.1112L27.688 4.77785L24.5768 14.1112Z" fill="url(#paint0_linear_898_713)"/>
<defs>
<linearGradient id="paint0_linear_898_713" x1="34.9913" y1="15.6667" x2="-1.6296" y2="15.6667" gradientUnits="userSpaceOnUse">
<stop stop-color="#00A79D"/>
<stop offset="0.951042" stop-color="#3847FF"/>
</linearGradient>
</defs>
</svg>
