<svg width="23" height="23" viewBox="0 0 23 23" fill="none" xmlns="http://www.w3.org/2000/svg">
<g clip-path="url(#clip0_102_11799)">
<path d="M3.6181 7.06558V8.80887C3.6181 9.32421 4.03735 9.74346 4.5527 9.74346H6.29603C6.81137 9.74346 7.23063 9.32421 7.23063 8.80887V7.70949L8.26199 6.77355C8.33161 6.70925 8.37302 6.62005 8.3772 6.52538C8.38137 6.4307 8.34799 6.3382 8.2843 6.26802C8.22061 6.19784 8.13178 6.15566 8.03714 6.15066C7.9425 6.14565 7.84972 6.17824 7.77899 6.24131L7.18557 6.77983C7.0645 6.40388 6.71173 6.13098 6.29607 6.13098H4.55265C4.03735 6.13094 3.6181 6.55019 3.6181 7.06558ZM6.51183 7.06558V7.39118L5.97672 7.87678L5.37243 7.27245C5.30503 7.20505 5.21362 7.16719 5.11831 7.16719C5.02299 7.16719 4.93158 7.20505 4.86419 7.27245C4.79679 7.33985 4.75892 7.43126 4.75892 7.52657C4.75892 7.62189 4.79679 7.7133 4.86419 7.78069L5.7106 8.62711C5.74395 8.66053 5.78357 8.68702 5.82719 8.70509C5.87081 8.72315 5.91756 8.73242 5.96477 8.73236C6.05407 8.73248 6.14019 8.69922 6.20623 8.63911L6.51188 8.36176V8.80887C6.51188 8.92584 6.41305 9.02471 6.29603 9.02471H4.55265C4.43568 9.02471 4.3368 8.92589 4.3368 8.80887V7.06558C4.3368 6.94861 4.43563 6.84969 4.55265 6.84969H6.29598C6.41296 6.84969 6.51183 6.94861 6.51183 7.06558ZM7.77894 11.1307L7.18552 11.6692C7.06446 11.2933 6.71169 11.0204 6.29603 11.0204H4.55265C4.03731 11.0204 3.61805 11.4396 3.61805 11.955V13.6983C3.61805 14.2137 4.03731 14.6329 4.55265 14.6329H6.29598C6.81133 14.6329 7.23058 14.2137 7.23058 13.6983V12.5989L8.26194 11.663C8.29689 11.6313 8.32525 11.593 8.34541 11.5503C8.36556 11.5076 8.37711 11.4614 8.37939 11.4143C8.38168 11.3671 8.37466 11.32 8.35873 11.2756C8.3428 11.2312 8.31828 11.1903 8.28656 11.1554C8.22251 11.0848 8.13305 11.0425 8.03786 11.0379C7.94266 11.0333 7.84953 11.0667 7.77894 11.1307ZM6.51183 13.6983C6.51183 13.8153 6.413 13.9142 6.29598 13.9142H4.55265C4.43568 13.9142 4.3368 13.8153 4.3368 13.6983V11.955C4.3368 11.838 4.43563 11.7391 4.55265 11.7391H6.29598C6.41296 11.7391 6.51183 11.838 6.51183 11.955V12.2806L5.97672 12.7662L5.37243 12.1619C5.33906 12.1285 5.29944 12.102 5.25584 12.084C5.21224 12.0659 5.1655 12.0566 5.11831 12.0566C5.07111 12.0566 5.02438 12.0659 4.98078 12.084C4.93718 12.102 4.89756 12.1285 4.86419 12.1619C4.83081 12.1953 4.80434 12.2349 4.78628 12.2785C4.76822 12.3221 4.75892 12.3688 4.75892 12.416C4.75892 12.4632 4.76822 12.5099 4.78628 12.5535C4.80434 12.5971 4.83081 12.6368 4.86419 12.6701L5.7106 13.5165C5.74395 13.55 5.78357 13.5765 5.82719 13.5945C5.87081 13.6126 5.91756 13.6218 5.96477 13.6218C6.05407 13.6219 6.14019 13.5886 6.20623 13.5285L6.51188 13.2512V13.6983H6.51183ZM7.77894 16.0201L7.18552 16.5587C7.06446 16.1827 6.71169 15.9098 6.29603 15.9098H4.55265C4.03731 15.9098 3.61805 16.3291 3.61805 16.8444V18.5877C3.61805 19.1031 4.03731 19.5223 4.55265 19.5223H6.29598C6.81133 19.5223 7.23058 19.1031 7.23058 18.5877V17.4884L8.26194 16.5524C8.29689 16.5207 8.32525 16.4824 8.34541 16.4397C8.36556 16.3971 8.37711 16.3508 8.37939 16.3037C8.38168 16.2566 8.37466 16.2094 8.35873 16.165C8.3428 16.1206 8.31828 16.0797 8.28656 16.0448C8.25485 16.0098 8.21657 15.9815 8.1739 15.9613C8.13123 15.9411 8.085 15.9296 8.03786 15.9273C7.99072 15.925 7.94359 15.932 7.89917 15.948C7.85474 15.9639 7.81389 15.9884 7.77894 16.0201ZM6.51183 18.5877C6.51183 18.7047 6.413 18.8035 6.29598 18.8035H4.55265C4.43568 18.8035 4.3368 18.7047 4.3368 18.5877V16.8444C4.3368 16.7274 4.43563 16.6285 4.55265 16.6285H6.29598C6.41296 16.6285 6.51183 16.7274 6.51183 16.8444V17.17L5.97672 17.6556L5.37243 17.0513C5.30503 16.9839 5.21362 16.946 5.11831 16.946C5.02299 16.946 4.93158 16.9839 4.86419 17.0513C4.79679 17.1187 4.75892 17.2101 4.75892 17.3054C4.75892 17.4007 4.79679 17.4921 4.86419 17.5595L5.7106 18.4059C5.74395 18.4393 5.78357 18.4658 5.82719 18.4839C5.87081 18.502 5.91756 18.5112 5.96477 18.5112C6.05407 18.5113 6.14019 18.478 6.20623 18.4179L6.51188 18.1406V18.5877H6.51183ZM9.49954 1.75155C9.49954 1.99898 9.29771 2.20077 9.05032 2.20077C8.80289 2.20077 8.6011 1.99898 8.6011 1.75155C8.6011 1.50412 8.80294 1.30233 9.05032 1.30233C9.29771 1.30233 9.49954 1.50412 9.49954 1.75155ZM20.7888 4.24036L20.4531 4.04656C19.8188 3.68027 19.0047 3.89841 18.6385 4.53275L18.1006 5.46448V3.26079C18.1006 2.51181 17.4913 1.90249 16.7422 1.90249H13.2556V1.65807C13.2556 1.56275 13.2178 1.47135 13.1504 1.40395C13.083 1.33655 12.9916 1.29869 12.8963 1.29869H10.9636C10.6574 0.521588 9.90689 0 9.05028 0C8.19366 0 7.44324 0.521588 7.13701 1.29865H5.20433C5.10902 1.29865 5.01761 1.33651 4.95022 1.4039C4.88282 1.4713 4.84496 1.56271 4.84496 1.65802V1.90244H1.35835C0.60932 1.90244 0 2.51176 0 3.26074V21.6417C0 22.3906 0.60932 23 1.35835 23H16.7423C17.4913 23 18.1006 22.3906 18.1006 21.6417V11.553L21.275 6.05488C21.6412 5.42054 21.4231 4.60656 20.7888 4.24036ZM19.261 4.89208C19.4004 4.65067 19.6809 4.54124 19.9386 4.60642L14.9027 13.3289L14.5181 13.1069L19.261 4.89208ZM14.3866 13.8609L15.3225 14.4012L14.3866 14.9416V13.8609ZM16.7423 2.62124C17.095 2.62124 17.3819 2.90815 17.3819 3.26079V6.70935L16.7109 7.87144V3.65152C16.7109 3.55621 16.6731 3.4648 16.6057 3.3974C16.5383 3.33001 16.4469 3.29214 16.3516 3.29214H13.2556V2.62124H16.7423ZM5.56366 2.0174H7.39949C7.48014 2.0174 7.55845 1.99027 7.62182 1.94037C7.68519 1.89047 7.72993 1.8207 7.74884 1.74229C7.89421 1.13962 8.42937 0.71875 9.05028 0.71875C9.67123 0.71875 10.2064 1.13962 10.3518 1.74229C10.3707 1.8207 10.4154 1.89047 10.4788 1.94037C10.5421 1.99027 10.6205 2.0174 10.7011 2.0174H12.5369V3.89589H5.56366V2.0174ZM12.8963 4.61469C12.9916 4.61469 13.083 4.57683 13.1504 4.50943C13.2178 4.44204 13.2557 4.35063 13.2557 4.25531V4.01094H15.9922V9.1164L13.7161 13.0588C13.6845 13.1134 13.6679 13.1754 13.6679 13.2385V15.5641C13.6679 15.6272 13.6845 15.6892 13.716 15.7438C13.7476 15.7985 13.7929 15.8438 13.8476 15.8754C13.9022 15.9069 13.9642 15.9235 14.0273 15.9235C14.0904 15.9235 14.1524 15.9069 14.207 15.8753L15.9922 14.8446V20.8916H2.10841V4.01089H4.84491V4.25527C4.84491 4.35058 4.88278 4.44199 4.95017 4.50939C5.01757 4.57678 5.10898 4.61464 5.20429 4.61464L12.8963 4.61469ZM17.3819 21.6417C17.3819 21.9944 17.0949 22.2812 16.7423 22.2812H1.35835C1.00567 22.2812 0.71875 21.9943 0.71875 21.6417V3.26079C0.71875 2.90811 1.00571 2.62124 1.35835 2.62124H4.84491V3.29219H1.74903C1.65372 3.29219 1.56231 3.33005 1.49492 3.39745C1.42752 3.46484 1.38966 3.55625 1.38966 3.65156V21.251C1.38966 21.3463 1.42752 21.4377 1.49492 21.5051C1.56231 21.5725 1.65372 21.6103 1.74903 21.6103H16.3516C16.4469 21.6103 16.5383 21.5725 16.6057 21.5051C16.6731 21.4377 16.7109 21.3463 16.7109 21.251V13.9601L17.3819 12.798V21.6417ZM20.6526 5.69551L15.9098 13.9103L15.5251 13.6883L20.5611 4.96584C20.7465 5.15649 20.7919 5.45414 20.6526 5.69551ZM8.91057 8.72055C8.91057 8.62524 8.94843 8.53383 9.01583 8.46643C9.08322 8.39904 9.17463 8.36117 9.26994 8.36117H11.3251C11.4204 8.36117 11.5118 8.39904 11.5792 8.46643C11.6466 8.53383 11.6845 8.62524 11.6845 8.72055C11.6845 8.81586 11.6466 8.90727 11.5792 8.97467C11.5118 9.04206 11.4204 9.07992 11.3251 9.07992H9.26994C9.17463 9.07992 9.08322 9.04206 9.01583 8.97467C8.94843 8.90727 8.91057 8.81586 8.91057 8.72055ZM8.91057 7.1539C8.91057 7.05859 8.94843 6.96718 9.01583 6.89978C9.08322 6.83239 9.17463 6.79452 9.26994 6.79452H13.3803C13.4756 6.79452 13.567 6.83239 13.6344 6.89978C13.7018 6.96718 13.7397 7.05859 13.7397 7.1539C13.7397 7.24921 13.7018 7.34062 13.6344 7.40802C13.567 7.47541 13.4756 7.51327 13.3803 7.51327H9.26994C9.17463 7.51327 9.08322 7.47541 9.01583 7.40802C8.94843 7.34062 8.91057 7.24921 8.91057 7.1539ZM8.91057 13.113C8.91057 13.0177 8.94843 12.9262 9.01583 12.8588C9.08322 12.7915 9.17463 12.7536 9.26994 12.7536H11.3251C11.4204 12.7536 11.5118 12.7915 11.5792 12.8588C11.6466 12.9262 11.6845 13.0177 11.6845 13.113C11.6845 13.2083 11.6466 13.2997 11.5792 13.3671C11.5118 13.4345 11.4204 13.4723 11.3251 13.4723H9.26994C9.17463 13.4723 9.08322 13.4345 9.01583 13.3671C8.94843 13.2997 8.91057 13.2083 8.91057 13.113ZM8.91057 11.5463C8.91057 11.451 8.94843 11.3596 9.01583 11.2922C9.08322 11.2248 9.17463 11.1869 9.26994 11.1869H13.3803C13.4756 11.1869 13.567 11.2248 13.6344 11.2922C13.7018 11.3596 13.7397 11.451 13.7397 11.5463C13.7397 11.6416 13.7018 11.733 13.6344 11.8004C13.567 11.8678 13.4756 11.9057 13.3803 11.9057H9.26994C9.17463 11.9057 9.08322 11.8678 9.01583 11.8004C8.94843 11.733 8.91057 11.6416 8.91057 11.5463ZM8.91057 18.4994C8.91057 18.4041 8.94843 18.3127 9.01583 18.2453C9.08322 18.1779 9.17463 18.14 9.26994 18.14H11.3251C11.4204 18.14 11.5118 18.1779 11.5792 18.2453C11.6466 18.3127 11.6845 18.4041 11.6845 18.4994C11.6845 18.5947 11.6466 18.6861 11.5792 18.7535C11.5118 18.8209 11.4204 18.8588 11.3251 18.8588H9.26994C9.07148 18.8588 8.91057 18.6978 8.91057 18.4994ZM8.91057 16.9328C8.91057 16.8374 8.94843 16.746 9.01583 16.6786C9.08322 16.6112 9.17463 16.5734 9.26994 16.5734H13.3803C13.4756 16.5734 13.567 16.6112 13.6344 16.6786C13.7018 16.746 13.7397 16.8374 13.7397 16.9328C13.7397 17.0281 13.7018 17.1195 13.6344 17.1869C13.567 17.2543 13.4756 17.2921 13.3803 17.2921H9.26994C9.07148 17.2921 8.91057 17.1312 8.91057 16.9328Z" fill="#00A79D"/>
</g>
<defs>
<clipPath id="clip0_102_11799">
<rect width="23" height="23" fill="white"/>
</clipPath>
</defs>
</svg>
