<svg width="20" height="20" viewBox="0 0 20 20" fill="none" xmlns="http://www.w3.org/2000/svg">
<g clip-path="url(#clip0_102_11943)">
<path d="M10 0C8.02219 0 6.08879 0.58649 4.4443 1.6853C2.79981 2.78412 1.51809 4.34591 0.761209 6.17317C0.00433286 8.00043 -0.193701 10.0111 0.192152 11.9509C0.578004 13.8907 1.53041 15.6725 2.92894 17.0711C4.32746 18.4696 6.10929 19.422 8.0491 19.8079C9.98891 20.1937 11.9996 19.9957 13.8268 19.2388C15.6541 18.4819 17.2159 17.2002 18.3147 15.5557C19.4135 13.9112 20 11.9778 20 10C19.9971 7.34872 18.9426 4.80684 17.0679 2.9321C15.1932 1.05736 12.6513 0.00286757 10 0ZM10 18.3333C8.35183 18.3333 6.74066 17.8446 5.37025 16.9289C3.99984 16.0132 2.93174 14.7117 2.30101 13.189C1.67028 11.6663 1.50525 9.99076 1.82679 8.37425C2.14834 6.75774 2.94201 5.27288 4.10745 4.10744C5.27289 2.94201 6.75774 2.14833 8.37425 1.82679C9.99076 1.50525 11.6663 1.67027 13.189 2.301C14.7118 2.93173 16.0132 3.99984 16.9289 5.37025C17.8446 6.74066 18.3333 8.35182 18.3333 10C18.3309 12.2094 17.4522 14.3276 15.8899 15.8899C14.3276 17.4522 12.2094 18.3309 10 18.3333Z" fill="#00A79D"/>
<path d="M14.5957 11.7858L10.8332 9.52829V4.99996C10.8332 4.77895 10.7454 4.56698 10.5891 4.4107C10.4328 4.25442 10.2209 4.16663 9.99984 4.16663C9.77882 4.16663 9.56686 4.25442 9.41058 4.4107C9.2543 4.56698 9.1665 4.77895 9.1665 4.99996V9.99996C9.1721 10.1426 9.2117 10.2818 9.28201 10.406C9.35231 10.5303 9.45128 10.6359 9.57067 10.7141L13.7373 13.2141C13.8312 13.2729 13.9358 13.3123 14.045 13.3301C14.1543 13.348 14.266 13.3439 14.3736 13.3181C14.4813 13.2923 14.5827 13.2453 14.672 13.1798C14.7613 13.1144 14.8367 13.0318 14.8937 12.9369C14.9507 12.8421 14.9882 12.7368 15.0041 12.6272C15.02 12.5176 15.0139 12.406 14.9861 12.2989C14.9584 12.1917 14.9096 12.0911 14.8425 12.003C14.7755 11.9149 14.6916 11.8411 14.5957 11.7858Z" fill="#00A79D"/>
</g>
<defs>
<clipPath id="clip0_102_11943">
<rect width="20" height="20" fill="white"/>
</clipPath>
</defs>
</svg>
