<svg width="26" height="22" viewBox="0 0 26 22" fill="none" xmlns="http://www.w3.org/2000/svg">
<g clip-path="url(#clip0_102_11971)">
<path d="M16.8145 8.04653L11.1335 3.08278C10.8386 2.82484 10.4386 2.67976 10.0214 2.67944H1.01462C0.597245 2.67944 0.196969 2.82431 -0.0981568 3.08217C-0.393282 3.34003 -0.559082 3.68977 -0.559082 4.05444V6.34611C-0.559082 6.46767 -0.503815 6.58425 -0.40544 6.6702C-0.307065 6.75616 -0.17364 6.80444 -0.0345163 6.80444C0.104607 6.80444 0.238032 6.75616 0.336408 6.6702C0.434783 6.58425 0.490049 6.46767 0.490049 6.34611V4.05444C0.490049 3.93289 0.545316 3.81631 0.643691 3.73035C0.742066 3.6444 0.875492 3.59611 1.01462 3.59611H9.93223V7.72111C9.93223 8.08578 10.098 8.43552 10.3932 8.69338C10.6883 8.95125 11.0886 9.09611 11.5059 9.09611H16.227V19.6378C16.227 19.7593 16.1718 19.8759 16.0734 19.9619C15.975 20.0478 15.8416 20.0961 15.7025 20.0961H1.01462C0.875492 20.0961 0.742066 20.0478 0.643691 19.9619C0.545316 19.8759 0.490049 19.7593 0.490049 19.6378V8.17944C0.490049 8.05789 0.434783 7.94131 0.336408 7.85535C0.238032 7.7694 0.104607 7.72111 -0.0345163 7.72111C-0.17364 7.72111 -0.307065 7.7694 -0.40544 7.85535C-0.503815 7.94131 -0.559082 8.05789 -0.559082 8.17944V19.6378C-0.559082 20.0025 -0.393282 20.3522 -0.0981568 20.6101C0.196969 20.8679 0.597245 21.0128 1.01462 21.0128H15.7025C16.1198 21.0128 16.5201 20.8679 16.8152 20.6101C17.1104 20.3522 17.2762 20.0025 17.2762 19.6378V9.01819C17.2758 8.65364 17.1097 8.30414 16.8145 8.04653ZM10.9814 7.72111V4.24236L15.4874 8.17944H11.5059C11.3668 8.17944 11.2334 8.13116 11.135 8.0452C11.0366 7.95925 10.9814 7.84267 10.9814 7.72111ZM11.3538 14.729C11.403 14.7716 11.442 14.8223 11.4686 14.8782C11.4953 14.934 11.509 14.9939 11.509 15.0544C11.509 15.115 11.4953 15.1749 11.4686 15.2307C11.442 15.2866 11.403 15.3373 11.3538 15.3799L8.73098 17.6715C8.68221 17.7145 8.62419 17.7486 8.56027 17.7719C8.49635 17.7951 8.42778 17.8071 8.35853 17.8071C8.28929 17.8071 8.22072 17.7951 8.1568 17.7719C8.09288 17.7486 8.03486 17.7145 7.98609 17.6715L5.36327 15.3799C5.31436 15.3371 5.27556 15.2864 5.24909 15.2306C5.22262 15.1747 5.20899 15.1149 5.20899 15.0544C5.20899 14.994 5.22262 14.9342 5.24909 14.8783C5.27556 14.8225 5.31436 14.7718 5.36327 14.729C5.41217 14.6863 5.47024 14.6524 5.53414 14.6293C5.59805 14.6061 5.66654 14.5942 5.73571 14.5942C5.80488 14.5942 5.87337 14.6061 5.93727 14.6293C6.00117 14.6524 6.05924 14.6863 6.10815 14.729L7.83397 16.2415V10.9294C7.83397 10.8079 7.88924 10.6913 7.98761 10.6054C8.08599 10.5194 8.21941 10.4711 8.35853 10.4711C8.49766 10.4711 8.63108 10.5194 8.72946 10.6054C8.82783 10.6913 8.8831 10.8079 8.8831 10.9294V16.2415L10.6089 14.729C10.6577 14.6861 10.7157 14.652 10.7796 14.6287C10.8436 14.6054 10.9121 14.5935 10.9814 14.5935C11.0506 14.5935 11.1192 14.6054 11.1831 14.6287C11.247 14.652 11.305 14.6861 11.3538 14.729Z" fill="#DE8276"/>
</g>
<defs>
<clipPath id="clip0_102_11971">
<rect width="25.1792" height="22" fill="white"/>
</clipPath>
</defs>
</svg>
