<svg width="20" height="20" viewBox="0 0 20 20" fill="none" xmlns="http://www.w3.org/2000/svg">
<path fill-rule="evenodd" clip-rule="evenodd" d="M11.875 5.91996C11.875 5.62871 11.8075 5.34183 11.6763 5.08183C11.304 4.3363 10.9315 3.59088 10.5588 2.84558C10.5069 2.74174 10.4271 2.65441 10.3283 2.59337C10.2296 2.53233 10.1158 2.5 9.99969 2.5C9.8836 2.5 9.76981 2.53233 9.67106 2.59337C9.57232 2.65441 9.49252 2.74174 9.44063 2.84558C9.44063 2.84558 8.64375 4.43871 8.32313 5.08183C8.19188 5.34183 8.125 5.62871 8.125 5.91996V11.25C8.12475 11.4963 8.17308 11.7402 8.26722 11.9678C8.36136 12.1954 8.49947 12.4022 8.67363 12.5763C8.84778 12.7505 9.05458 12.8886 9.28218 12.9827C9.50977 13.0769 9.7537 13.1252 10 13.125C10.2463 13.1251 10.4902 13.0767 10.7177 12.9826C10.9453 12.8884 11.152 12.7503 11.3262 12.5761C11.5003 12.402 11.6384 12.1952 11.7326 11.9677C11.8268 11.7401 11.8752 11.4962 11.875 11.25V5.91996ZM10 4.52246L9.44063 5.64058C9.39688 5.72746 9.375 5.82308 9.375 5.91996V11.25C9.37484 11.3321 9.39089 11.4134 9.42224 11.4893C9.45359 11.5652 9.49962 11.6342 9.55769 11.6923C9.61576 11.7503 9.68473 11.7964 9.76063 11.8277C9.83653 11.8591 9.91788 11.8751 10 11.875C10.0821 11.8751 10.1635 11.8591 10.2394 11.8277C10.3153 11.7964 10.3842 11.7503 10.4423 11.6923C10.5004 11.6342 10.5464 11.5652 10.5778 11.4893C10.6091 11.4134 10.6252 11.3321 10.625 11.25V5.91996C10.625 5.82308 10.6025 5.72746 10.5588 5.64058L10 4.52246Z" fill="#3847FF"/>
<path fill-rule="evenodd" clip-rule="evenodd" d="M8.75 6.875H11.25C11.4158 6.875 11.5747 6.80915 11.6919 6.69194C11.8092 6.57473 11.875 6.41576 11.875 6.25C11.875 6.08424 11.8092 5.92527 11.6919 5.80806C11.5747 5.69085 11.4158 5.625 11.25 5.625H8.75C8.58424 5.625 8.42527 5.69085 8.30806 5.80806C8.19085 5.92527 8.125 6.08424 8.125 6.25C8.125 6.41576 8.19085 6.57473 8.30806 6.69194C8.42527 6.80915 8.58424 6.875 8.75 6.875Z" fill="#3847FF"/>
<path fill-rule="evenodd" clip-rule="evenodd" d="M6.875 15C6.875 15.1658 6.94085 15.3247 7.05806 15.4419C7.17527 15.5592 7.33424 15.625 7.5 15.625H12.5219C12.6874 15.6247 12.8461 15.5587 12.963 15.4415C13.0799 15.3243 13.1456 15.1655 13.1456 15C13.1456 13.8881 13.6269 12.8312 14.465 12.1012C15.2214 11.4568 15.8288 10.6556 16.2449 9.75323C16.661 8.85082 16.876 7.86874 16.875 6.875C16.875 3.08063 13.7944 0 10 0C6.20562 0 3.125 3.08063 3.125 6.875C3.125 8.97062 4.06437 10.8481 5.55812 12.0944C5.97222 12.4567 6.30397 12.9035 6.53111 13.4046C6.75825 13.9058 6.8755 14.4498 6.875 15ZM11.9344 14.375C12.0887 13.1265 12.6996 11.9793 13.6494 11.1544C14.2692 10.627 14.767 9.97104 15.1081 9.2321C15.4493 8.49317 15.6256 7.68888 15.625 6.875C15.625 3.77063 13.1044 1.25 10 1.25C6.89562 1.25 4.375 3.77063 4.375 6.875C4.37287 7.68929 4.55045 8.49402 4.89508 9.23179C5.23971 9.96955 5.7429 10.6222 6.36875 11.1431C7.32059 11.9715 7.93235 13.1226 8.08625 14.375H11.9344ZM11.25 17.5C11.25 17.8315 11.1183 18.1495 10.8839 18.3839C10.6495 18.6183 10.3315 18.75 10 18.75C9.66848 18.75 9.35054 18.6183 9.11612 18.3839C8.8817 18.1495 8.75 17.8315 8.75 17.5C8.75 17.3342 8.68415 17.1753 8.56694 17.0581C8.44973 16.9408 8.29076 16.875 8.125 16.875C7.95924 16.875 7.80027 16.9408 7.68306 17.0581C7.56585 17.1753 7.5 17.3342 7.5 17.5C7.5 18.88 8.62 20 10 20C11.38 20 12.5 18.88 12.5 17.5C12.5 17.3342 12.4342 17.1753 12.3169 17.0581C12.1997 16.9408 12.0408 16.875 11.875 16.875C11.7092 16.875 11.5503 16.9408 11.4331 17.0581C11.3158 17.1753 11.25 17.3342 11.25 17.5Z" fill="#3847FF"/>
<path fill-rule="evenodd" clip-rule="evenodd" d="M14.375 16.25C14.375 15.7527 14.1775 15.2758 13.8258 14.9242C13.4742 14.5725 12.9973 14.375 12.5 14.375H7.5C7.00272 14.375 6.52581 14.5725 6.17417 14.9242C5.82254 15.2758 5.625 15.7527 5.625 16.25C5.625 16.7473 5.82254 17.2242 6.17417 17.5758C6.52581 17.9275 7.00272 18.125 7.5 18.125H12.5C12.9973 18.125 13.4742 17.9275 13.8258 17.5758C14.1775 17.2242 14.375 16.7473 14.375 16.25ZM13.125 16.25C13.125 16.4158 13.0592 16.5747 12.9419 16.6919C12.8247 16.8092 12.6658 16.875 12.5 16.875H7.5C7.33424 16.875 7.17527 16.8092 7.05806 16.6919C6.94085 16.5747 6.875 16.4158 6.875 16.25C6.875 16.0842 6.94085 15.9253 7.05806 15.8081C7.17527 15.6908 7.33424 15.625 7.5 15.625H12.5C12.6658 15.625 12.8247 15.6908 12.9419 15.8081C13.0592 15.9253 13.125 16.0842 13.125 16.25Z" fill="#3847FF"/>
</svg>
