<svg width="20" height="20" viewBox="0 0 20 20" fill="none" xmlns="http://www.w3.org/2000/svg">
<g clip-path="url(#clip0_102_11982)">
<path d="M13.6166 1.45837C11.1416 1.45837 9.1333 3.46671 9.1333 5.94171C9.1333 8.41671 11.1416 10.425 13.6166 10.425C16.0916 10.425 18.1 8.41671 18.1 5.94171C18.1 3.46671 16.0916 1.45837 13.6166 1.45837Z" fill="#00A79D"/>
<path d="M5.9249 10.8583C4.3999 10.8583 3.1499 12.0999 3.1499 13.6333C3.1499 15.1666 4.39157 16.4083 5.9249 16.4083C7.4499 16.4083 8.6999 15.1666 8.6999 13.6333C8.6999 12.0999 7.4499 10.8583 5.9249 10.8583Z" fill="#00A79D"/>
<path d="M14.475 13.85C13.1833 13.85 12.1333 14.9 12.1333 16.1916C12.1333 17.4833 13.1833 18.5333 14.475 18.5333C15.7666 18.5333 16.8166 17.4833 16.8166 16.1916C16.8166 14.9 15.7666 13.85 14.475 13.85Z" fill="#00A79D"/>
</g>
<defs>
<clipPath id="clip0_102_11982">
<rect width="20" height="20" fill="white"/>
</clipPath>
</defs>
</svg>
