<svg width="33" height="32" viewBox="0 0 33 32" fill="none" xmlns="http://www.w3.org/2000/svg">
<path d="M17.3069 28.5H15.2866V30H17.3069V28.5Z" fill="#FFFCE9"/>
<path d="M16.2969 14C17.6916 14 18.8222 12.8807 18.8222 11.5C18.8222 10.1193 17.6916 9 16.2969 9C14.9021 9 13.7715 10.1193 13.7715 11.5C13.7715 12.8807 14.9021 14 16.2969 14Z" fill="#C7C7C7"/>
<path d="M12.2559 27.5H20.3371V25H12.2559V27.5ZM18.3168 26H19.3269V27H18.3168V26ZM16.2965 26H17.3066V27H16.2965V26Z" fill="#FFFCE9"/>
<path d="M16.2968 2.00001C13.9599 1.99831 11.7027 2.84082 9.94871 4.36947C8.19468 5.89812 7.06438 8.00785 6.76989 10.3028C6.47539 12.5978 7.03694 14.9203 8.34917 16.8345C9.66141 18.7488 11.6341 20.1232 13.8972 20.7C14.0059 20.7277 14.1022 20.7903 14.1708 20.8782C14.2395 20.966 14.2767 21.0739 14.2765 21.185V24H18.3171V21.185C18.3172 21.0741 18.3545 20.9664 18.4232 20.8788C18.4918 20.7911 18.588 20.7286 18.6964 20.701C20.9605 20.125 22.9342 18.7507 24.2473 16.8362C25.5603 14.9217 26.1223 12.5985 25.8277 10.3029C25.5332 8.00723 24.4023 5.89695 22.6475 4.3682C20.8926 2.83945 18.6344 1.99736 16.2968 2.00001ZM23.3679 10.5V12.5C23.3679 12.6326 23.3147 12.7598 23.22 12.8536C23.1252 12.9473 22.9968 13 22.8628 13H21.642C21.5244 13.411 21.3579 13.8068 21.1461 14.179L22.0107 15.0355C22.1054 15.1293 22.1586 15.2564 22.1586 15.389C22.1586 15.5216 22.1054 15.6487 22.0107 15.7425L20.5824 17.1565C20.4877 17.2502 20.3592 17.3029 20.2253 17.3029C20.0914 17.3029 19.9629 17.2502 19.8682 17.1565L19.003 16.3C18.6271 16.5099 18.2273 16.6749 17.8121 16.7915V18C17.8121 18.1326 17.7589 18.2598 17.6641 18.3536C17.5694 18.4473 17.4409 18.5 17.307 18.5H15.2867C15.1527 18.5 15.0243 18.4473 14.9295 18.3536C14.8348 18.2598 14.7816 18.1326 14.7816 18V16.7915C14.3664 16.6751 13.9666 16.5102 13.5906 16.3005L12.7255 17.1565C12.6307 17.2502 12.5023 17.3029 12.3684 17.3029C12.2344 17.3029 12.106 17.2502 12.0113 17.1565L10.5829 15.7425C10.4882 15.6487 10.435 15.5216 10.435 15.389C10.435 15.2564 10.4882 15.1293 10.5829 15.0355L11.4481 14.179C11.2361 13.8068 11.0694 13.4111 10.9516 13H9.73087C9.59691 13 9.46845 12.9473 9.37373 12.8536C9.27901 12.7598 9.22579 12.6326 9.22579 12.5V10.5C9.22579 10.3674 9.27901 10.2402 9.37373 10.1465C9.46845 10.0527 9.59691 10 9.73087 10H10.9516C11.0693 9.58897 11.2358 9.1932 11.4476 8.82101L10.5829 7.96451C10.4882 7.87074 10.435 7.74359 10.435 7.61101C10.435 7.47842 10.4882 7.35127 10.5829 7.25751L12.0113 5.84351C12.106 5.74977 12.2344 5.69711 12.3684 5.69711C12.5023 5.69711 12.6307 5.74977 12.7255 5.84351L13.5906 6.70001C13.9666 6.4901 14.3664 6.32512 14.7816 6.20851V5.00001C14.7816 4.8674 14.8348 4.74022 14.9295 4.64645C15.0243 4.55268 15.1527 4.50001 15.2867 4.50001H17.307C17.4409 4.50001 17.5694 4.55268 17.6641 4.64645C17.7589 4.74022 17.8121 4.8674 17.8121 5.00001V6.20851C18.2273 6.32496 18.6271 6.48978 19.003 6.69951L19.8682 5.84351C19.9629 5.74977 20.0914 5.69711 20.2253 5.69711C20.3592 5.69711 20.4877 5.74977 20.5824 5.84351L22.0107 7.25751C22.1054 7.35127 22.1586 7.47842 22.1586 7.61101C22.1586 7.74359 22.1054 7.87074 22.0107 7.96451L21.1456 8.82101C21.3576 9.19318 21.5242 9.58894 21.642 10H22.8628C22.9968 10 23.1252 10.0527 23.22 10.1465C23.3147 10.2402 23.3679 10.3674 23.3679 10.5Z" fill="#C7C7C7"/>
<path d="M20.7505 10.6C20.6338 10.0363 20.4077 9.50041 20.0848 9.022C20.0203 8.92585 19.9915 8.81059 20.0031 8.69576C20.0147 8.58093 20.066 8.47361 20.1484 8.392L20.9374 7.611L20.2232 6.904L19.4363 7.685C19.3538 7.76659 19.2454 7.81744 19.1294 7.82892C19.0134 7.8404 18.897 7.81181 18.7999 7.748C18.3165 7.42901 17.7751 7.20589 17.2059 7.091C17.0918 7.06795 16.9893 7.00658 16.9156 6.91729C16.842 6.828 16.8018 6.71627 16.8018 6.601V5.5H15.7917V6.6C15.7917 6.71527 15.7515 6.827 15.6778 6.91629C15.6042 7.00558 15.5017 7.06695 15.3876 7.09C14.8181 7.2058 14.2768 7.42995 13.7936 7.75C13.6965 7.81381 13.58 7.8424 13.464 7.83092C13.348 7.81944 13.2396 7.76859 13.1572 7.687L12.3683 6.906L11.6541 7.613L12.443 8.394C12.5254 8.47561 12.5768 8.58293 12.5884 8.69776C12.6 8.81258 12.5711 8.92785 12.5067 9.024C12.1847 9.50196 11.9593 10.0372 11.843 10.6C11.8197 10.7129 11.7577 10.8144 11.6675 10.8873C11.5773 10.9602 11.4644 11 11.348 11H10.2358V12H11.347C11.4634 12 11.5763 12.0398 11.6665 12.1127C11.7567 12.1856 11.8187 12.2871 11.842 12.4C11.959 12.9638 12.1854 13.4997 12.5087 13.978C12.5731 14.0742 12.602 14.1894 12.5904 14.3042C12.5788 14.4191 12.5275 14.5264 12.445 14.608L11.6561 15.389L12.3703 16.096L13.1592 15.315C13.2417 15.2334 13.3501 15.1826 13.4661 15.1711C13.582 15.1596 13.6985 15.1882 13.7956 15.252C14.2784 15.5708 14.819 15.7939 15.3876 15.909C15.5017 15.9321 15.6042 15.9934 15.6778 16.0827C15.7515 16.172 15.7917 16.2837 15.7917 16.399V17.5H16.8018V16.4C16.8018 16.2847 16.842 16.173 16.9156 16.0837C16.9893 15.9944 17.0918 15.9331 17.2059 15.91C17.7753 15.7942 18.3167 15.5701 18.7999 15.25C18.897 15.1862 19.0134 15.1576 19.1294 15.1691C19.2454 15.1806 19.3538 15.2314 19.4363 15.313L20.2252 16.094L20.9394 15.387L20.1505 14.608C20.068 14.5264 20.0167 14.4191 20.0051 14.3042C19.9935 14.1894 20.0224 14.0742 20.0868 13.978C20.409 13.4994 20.6344 12.9635 20.7505 12.4C20.7738 12.2871 20.8358 12.1856 20.926 12.1127C21.0162 12.0398 21.129 12 21.2455 12H22.3576V11H21.2465C21.1299 11.0003 21.0168 10.9606 20.9263 10.8876C20.8359 10.8147 20.7738 10.7131 20.7505 10.6ZM16.2967 15C15.5975 15 14.9139 14.7947 14.3325 14.4101C13.7511 14.0256 13.2979 13.4789 13.0303 12.8394C12.7627 12.1999 12.6927 11.4961 12.8291 10.8172C12.9656 10.1382 13.3023 9.51461 13.7967 9.02513C14.2912 8.53564 14.9212 8.2023 15.607 8.06725C16.2928 7.9322 17.0037 8.00151 17.6497 8.26642C18.2958 8.53133 18.8479 8.97993 19.2364 9.5555C19.6249 10.1311 19.8323 10.8078 19.8323 11.5C19.8312 12.4279 19.4584 13.3176 18.7955 13.9737C18.1327 14.6299 17.2341 14.9989 16.2967 15Z" fill="#00A79D"/>
<path d="M16.2969 1C13.7476 0.997825 11.2827 1.9047 9.35363 3.5546C7.42454 5.20449 6.16026 7.48703 5.79227 9.98431C5.42427 12.4816 5.97717 15.0266 7.34974 17.1533C8.72232 19.28 10.8227 20.8461 13.2665 21.565V24H11.7512C11.6173 24 11.4888 24.0527 11.3941 24.1465C11.2994 24.2402 11.2462 24.3674 11.2462 24.5V27.5H9.73093V28.5H14.2766V30.5C14.2766 30.6326 14.3298 30.7598 14.4245 30.8536C14.5193 30.9473 14.6477 31 14.7817 31H17.8121C17.9461 31 18.0745 30.9473 18.1693 30.8536C18.264 30.7598 18.3172 30.6326 18.3172 30.5V28.5H22.8629V27.5H21.3477V24.5C21.3477 24.3674 21.2944 24.2402 21.1997 24.1465C21.105 24.0527 20.9765 24 20.8426 24H19.3274V21.565C21.7711 20.8461 23.8715 19.28 25.2441 17.1533C26.6166 15.0266 27.1695 12.4816 26.8015 9.98431C26.4335 7.48703 25.1693 5.20449 23.2402 3.5546C21.3111 1.9047 18.8462 0.997825 16.2969 1ZM17.3071 30H15.2868V28.5H17.3071V30ZM20.3375 27.5H12.2563V25H20.3375V27.5ZM18.6965 20.7C18.5879 20.7277 18.4916 20.7903 18.4229 20.8782C18.3542 20.966 18.317 21.0739 18.3172 21.185V24H14.2766V21.185C14.2765 21.0741 14.2393 20.9664 14.1706 20.8788C14.1019 20.7911 14.0058 20.7286 13.8973 20.701C11.6358 20.1229 9.66482 18.7482 8.35392 16.8345C7.04302 14.9208 6.48216 12.5994 6.77646 10.3056C7.07077 8.01182 8.20005 5.90301 9.95261 4.37449C11.7052 2.84597 13.9607 2.00267 16.2964 2.00267C18.6321 2.00267 20.8876 2.84597 22.6402 4.37449C24.3927 5.90301 25.522 8.01182 25.8163 10.3056C26.1106 12.5994 25.5498 14.9208 24.2389 16.8345C22.928 18.7482 20.957 20.1229 18.6955 20.701L18.6965 20.7Z" fill="#231F20"/>
<path d="M16.2968 8C15.5975 8 14.9139 8.20527 14.3325 8.58986C13.7511 8.97444 13.298 9.52107 13.0304 10.1606C12.7628 10.8001 12.6927 11.5039 12.8292 12.1828C12.9656 12.8618 13.3023 13.4854 13.7968 13.9749C14.2912 14.4644 14.9212 14.7977 15.607 14.9327C16.2928 15.0678 17.0037 14.9985 17.6497 14.7336C18.2958 14.4687 18.8479 14.0201 19.2364 13.4445C19.6249 12.8689 19.8323 12.1922 19.8323 11.5C19.8312 10.5721 19.4584 9.68244 18.7956 9.0263C18.1328 8.37015 17.2341 8.00106 16.2968 8ZM16.2968 14C15.7973 14 15.309 13.8534 14.8937 13.5787C14.4784 13.304 14.1548 12.9135 13.9636 12.4567C13.7725 11.9999 13.7225 11.4972 13.8199 11.0123C13.9173 10.5273 14.1579 10.0819 14.511 9.73223C14.8642 9.3826 15.3142 9.1445 15.8041 9.04804C16.294 8.95157 16.8017 9.00108 17.2632 9.1903C17.7246 9.37952 18.119 9.69995 18.3965 10.1111C18.674 10.5222 18.8221 11.0055 18.8221 11.5C18.8213 12.1628 18.555 12.7982 18.0816 13.2669C17.6082 13.7356 16.9663 13.9992 16.2968 14Z" fill="#231F20"/>
<path d="M21.6418 10C21.5242 9.58896 21.3577 9.19319 21.1459 8.821L22.0105 7.9645C22.1052 7.87074 22.1584 7.74358 22.1584 7.611C22.1584 7.47842 22.1052 7.35126 22.0105 7.2575L20.5822 5.8435C20.4875 5.74976 20.359 5.69711 20.2251 5.69711C20.0912 5.69711 19.9627 5.74976 19.868 5.8435L19.0028 6.7C18.6269 6.4901 18.2271 6.32511 17.8119 6.2085V5C17.8119 4.86739 17.7586 4.74021 17.6639 4.64645C17.5692 4.55268 17.4407 4.5 17.3068 4.5H15.2865C15.1525 4.5 15.0241 4.55268 14.9293 4.64645C14.8346 4.74021 14.7814 4.86739 14.7814 5V6.2085C14.3662 6.32495 13.9664 6.48977 13.5904 6.6995L12.7252 5.8435C12.6305 5.74976 12.5021 5.69711 12.3682 5.69711C12.2342 5.69711 12.1058 5.74976 12.0111 5.8435L10.5827 7.2575C10.488 7.35126 10.4348 7.47842 10.4348 7.611C10.4348 7.74358 10.488 7.87074 10.5827 7.9645L11.4479 8.821C11.2359 9.19317 11.0692 9.58894 10.9514 10H9.73066C9.59671 10 9.46824 10.0527 9.37352 10.1464C9.2788 10.2402 9.22559 10.3674 9.22559 10.5V12.5C9.22559 12.6326 9.2788 12.7598 9.37352 12.8536C9.46824 12.9473 9.59671 13 9.73066 13H10.9514C11.0691 13.411 11.2356 13.8068 11.4474 14.179L10.5827 15.0355C10.488 15.1293 10.4348 15.2564 10.4348 15.389C10.4348 15.5216 10.488 15.6487 10.5827 15.7425L12.0111 17.1565C12.1058 17.2502 12.2342 17.3029 12.3682 17.3029C12.5021 17.3029 12.6305 17.2502 12.7252 17.1565L13.5904 16.3C13.9664 16.5099 14.3662 16.6749 14.7814 16.7915V18C14.7814 18.1326 14.8346 18.2598 14.9293 18.3536C15.0241 18.4473 15.1525 18.5 15.2865 18.5H17.3068C17.4407 18.5 17.5692 18.4473 17.6639 18.3536C17.7586 18.2598 17.8119 18.1326 17.8119 18V16.7915C18.2271 16.675 18.6269 16.5102 19.0028 16.3005L19.868 17.1565C19.9627 17.2502 20.0912 17.3029 20.2251 17.3029C20.359 17.3029 20.4875 17.2502 20.5822 17.1565L22.0105 15.7425C22.1052 15.6487 22.1584 15.5216 22.1584 15.389C22.1584 15.2564 22.1052 15.1293 22.0105 15.0355L21.1453 14.179C21.3574 13.8068 21.524 13.4111 21.6418 13H22.8626C22.9966 13 23.125 12.9473 23.2197 12.8536C23.3145 12.7598 23.3677 12.6326 23.3677 12.5V10.5C23.3677 10.3674 23.3145 10.2402 23.2197 10.1464C23.125 10.0527 22.9966 10 22.8626 10H21.6418ZM22.3575 12H21.2464C21.1299 12 21.0171 12.0398 20.9269 12.1127C20.8367 12.1856 20.7747 12.2871 20.7514 12.4C20.6344 12.9638 20.408 13.4997 20.0847 13.978C20.0202 14.0742 19.9914 14.1894 20.0029 14.3042C20.0145 14.4191 20.0659 14.5264 20.1483 14.608L20.9373 15.389L20.2231 16.096L19.4362 15.315C19.3537 15.2334 19.2453 15.1826 19.1293 15.1711C19.0133 15.1596 18.8969 15.1882 18.7998 15.252C18.3164 15.571 17.775 15.7941 17.2058 15.909C17.0917 15.9321 16.9891 15.9934 16.9155 16.0827C16.8419 16.172 16.8017 16.2837 16.8017 16.399V17.5H15.7916V16.4C15.7916 16.2847 15.7514 16.173 15.6777 16.0837C15.6041 15.9944 15.5016 15.9331 15.3875 15.91C14.818 15.7942 14.2767 15.5701 13.7935 15.25C13.6964 15.1862 13.5799 15.1576 13.4639 15.1691C13.3479 15.1806 13.2395 15.2314 13.1571 15.313L12.3682 16.094L11.654 15.387L12.4429 14.606C12.5253 14.5244 12.5767 14.4171 12.5883 14.3022C12.5999 14.1874 12.571 14.0722 12.5066 13.976C12.1846 13.498 11.9592 12.9628 11.8429 12.4C11.8196 12.2871 11.7576 12.1856 11.6674 12.1127C11.5772 12.0398 11.4643 12 11.3479 12H10.2357V11H11.3469C11.4633 11 11.5762 10.9602 11.6664 10.8873C11.7566 10.8144 11.8186 10.7129 11.8419 10.6C11.9589 10.0362 12.1853 9.50033 12.5086 9.022C12.573 8.92585 12.6019 8.81059 12.5903 8.69576C12.5787 8.58093 12.5274 8.47361 12.4449 8.392L11.656 7.611L12.3702 6.904L13.1591 7.685C13.2415 7.76659 13.35 7.81744 13.4659 7.82892C13.5819 7.8404 13.6984 7.81181 13.7955 7.748C14.2783 7.42924 14.8189 7.20613 15.3875 7.091C15.5016 7.06795 15.6041 7.00658 15.6777 6.91729C15.7514 6.828 15.7916 6.71627 15.7916 6.601V5.5H16.8017V6.6C16.8017 6.71527 16.8419 6.827 16.9155 6.91629C16.9891 7.00558 17.0917 7.06695 17.2058 7.09C17.7752 7.2058 18.3166 7.42995 18.7998 7.75C18.8969 7.81381 19.0133 7.8424 19.1293 7.83092C19.2453 7.81944 19.3537 7.76859 19.4362 7.687L20.2251 6.906L20.9393 7.613L20.1504 8.392C20.0679 8.47361 20.0166 8.58093 20.005 8.69576C19.9934 8.81059 20.0223 8.92585 20.0867 9.022C20.4089 9.50056 20.6343 10.0365 20.7504 10.6C20.7737 10.7129 20.8357 10.8144 20.9259 10.8873C21.0161 10.9602 21.1289 11 21.2454 11H22.3575V12Z" fill="#231F20"/>
<path d="M19.327 26H18.3169V27H19.327V26Z" fill="#231F20"/>
<path d="M17.307 26H16.2969V27H17.307V26Z" fill="#231F20"/>
<path d="M27.9135 2H26.9033V3H27.9135V2Z" fill="#231F20"/>
<path d="M28.9237 3H27.9136V4H28.9237V3Z" fill="#231F20"/>
<path d="M26.9032 3H25.8931V4H26.9032V3Z" fill="#231F20"/>
<path d="M27.9135 4H26.9033V5H27.9135V4Z" fill="#231F20"/>
<path d="M29.4286 11H28.4185V12H29.4286V11Z" fill="#231F20"/>
<path d="M30.4389 12H29.4287V13H30.4389V12Z" fill="#231F20"/>
<path d="M28.4184 12H27.4082V13H28.4184V12Z" fill="#231F20"/>
<path d="M29.4286 13H28.4185V14H29.4286V13Z" fill="#231F20"/>
<path d="M5.18495 21H4.1748V22H5.18495V21Z" fill="#231F20"/>
<path d="M6.19521 22H5.18506V23H6.19521V22Z" fill="#231F20"/>
<path d="M4.1747 22H3.16455V23H4.1747V22Z" fill="#231F20"/>
<path d="M5.18495 23H4.1748V24H5.18495V23Z" fill="#231F20"/>
<path d="M4.68007 2H3.66992V3H4.68007V2Z" fill="#231F20"/>
<path d="M5.69033 3H4.68018V4H5.69033V3Z" fill="#231F20"/>
<path d="M3.66982 3H2.65967V4H3.66982V3Z" fill="#231F20"/>
<path d="M4.68007 4H3.66992V5H4.68007V4Z" fill="#231F20"/>
</svg>
