<svg width="23" height="23" viewBox="0 0 23 23" fill="none" xmlns="http://www.w3.org/2000/svg">
<g clip-path="url(#clip0_102_11782)">
<path d="M13.3021 14.1939C12.6861 14.1939 12.0839 14.0112 11.5717 13.669C11.0595 13.3268 10.6603 12.8403 10.4246 12.2712C10.1888 11.7021 10.1272 11.0759 10.2473 10.4717C10.3675 9.86751 10.6642 9.31255 11.0997 8.87696C11.5353 8.44138 12.0903 8.14475 12.6945 8.02457C13.2986 7.90439 13.9249 7.96607 14.494 8.20181C15.0631 8.43754 15.5495 8.83675 15.8918 9.34894C16.234 9.86113 16.4167 10.4633 16.4167 11.0793C16.4157 11.905 16.0872 12.6967 15.5033 13.2805C14.9194 13.8644 14.1278 14.1929 13.3021 14.1939ZM13.3021 9.40222C12.9704 9.40222 12.6461 9.50058 12.3703 9.68486C12.0946 9.86914 11.8796 10.1311 11.7527 10.4375C11.6257 10.744 11.5925 11.0812 11.6572 11.4065C11.7219 11.7318 11.8817 12.0306 12.1162 12.2652C12.3508 12.4997 12.6496 12.6595 12.9749 12.7242C13.3002 12.7889 13.6374 12.7557 13.9439 12.6287C14.2503 12.5018 14.5122 12.2868 14.6965 12.011C14.8808 11.7352 14.9792 11.411 14.9792 11.0793C14.9787 10.6347 14.8018 10.2084 14.4874 9.89399C14.173 9.57959 13.7467 9.40273 13.3021 9.40222Z" fill="#4D615C"/>
<path d="M20.6719 17.9218C20.5353 17.922 20.4015 17.8832 20.2862 17.81C20.171 17.7369 20.0789 17.6323 20.021 17.5086C19.963 17.385 19.9415 17.2474 19.9591 17.1119C19.9766 16.9765 20.0324 16.8489 20.1199 16.744C21.4416 15.1521 22.1656 13.1484 22.1669 11.0793C22.1724 9.15682 21.5468 7.28562 20.3863 5.75291C20.3297 5.6774 20.2885 5.59147 20.265 5.50004C20.2416 5.4086 20.2364 5.31345 20.2498 5.22001C20.2631 5.12657 20.2948 5.03668 20.3428 4.95546C20.3909 4.87424 20.4546 4.80329 20.5301 4.74666C20.6056 4.69002 20.6915 4.64882 20.7829 4.62539C20.8744 4.60197 20.9695 4.59678 21.063 4.61013C21.1564 4.62348 21.2463 4.6551 21.3275 4.70319C21.4087 4.75128 21.4797 4.81489 21.5363 4.89041C22.8848 6.67125 23.6113 8.84555 23.6044 11.0793C23.603 13.4842 22.7613 15.813 21.2249 17.6631C21.1573 17.7441 21.0728 17.8094 20.9772 17.8541C20.8816 17.8988 20.7774 17.9219 20.6719 17.9218Z" fill="#00A79D"/>
<path d="M18.8308 14.673C18.7067 14.6736 18.5846 14.6419 18.4763 14.5812C18.3681 14.5205 18.2775 14.4328 18.2133 14.3266C18.1491 14.2204 18.1135 14.0994 18.11 13.9753C18.1066 13.8513 18.1353 13.7285 18.1935 13.6189C18.6733 12.6941 18.8811 11.6522 18.7927 10.6141C18.7043 9.57598 18.3234 8.58421 17.6942 7.75385C17.5785 7.60224 17.5278 7.4109 17.5533 7.22192C17.5787 7.03294 17.6782 6.86181 17.8298 6.74616C17.9814 6.63052 18.1727 6.57984 18.3617 6.60527C18.5507 6.6307 18.7218 6.73016 18.8375 6.88177C19.6318 7.92891 20.1128 9.17984 20.2248 10.4894C20.3367 11.7989 20.075 13.1133 19.47 14.2801C19.4099 14.398 19.3184 14.4971 19.2056 14.5664C19.0928 14.6358 18.9631 14.6726 18.8308 14.673ZM5.93351 17.9218C5.82784 17.9219 5.72344 17.8989 5.62771 17.8541C5.53197 17.8094 5.44726 17.7442 5.37959 17.663C3.84301 15.813 3.0013 13.4842 3.00005 11.0793C2.99329 8.84418 3.72091 6.66874 5.07101 4.88748C5.12764 4.81197 5.19859 4.74835 5.27981 4.70026C5.36102 4.65217 5.45092 4.62055 5.54436 4.6072C5.6378 4.59385 5.73295 4.59904 5.82439 4.62246C5.91582 4.64589 6.00174 4.68709 6.07726 4.74373C6.15277 4.80036 6.21638 4.87131 6.26447 4.95253C6.31256 5.03375 6.34418 5.12364 6.35753 5.21708C6.37088 5.31052 6.36569 5.40567 6.34227 5.49711C6.31884 5.58854 6.27764 5.67447 6.22101 5.74998C5.01983 7.34404 4.39237 9.29714 4.44038 11.2925C4.48839 13.2879 5.20906 15.2086 6.48551 16.743C6.57291 16.848 6.62861 16.9756 6.64608 17.1111C6.66355 17.2465 6.64207 17.3842 6.58415 17.5078C6.52623 17.6315 6.43427 17.7361 6.31904 17.8094C6.20381 17.8828 6.07008 17.9217 5.93351 17.9218Z" fill="#00A79D"/>
<path d="M8.49112 15.7656C8.38434 15.7657 8.27885 15.7421 8.18236 15.6963C8.08588 15.6506 8.00081 15.5839 7.93337 15.5011C6.90899 14.2555 6.35054 12.692 6.35404 11.0793C6.349 9.56456 6.84534 8.0907 7.76567 6.88757C7.88106 6.73583 8.052 6.63615 8.24089 6.61045C8.42978 6.58475 8.62114 6.63513 8.77288 6.75053C8.92461 6.86592 9.02429 7.03686 9.05 7.22575C9.0757 7.41464 9.02531 7.606 8.90992 7.75773C8.18055 8.71105 7.7873 9.879 7.79154 11.0793C7.7895 12.3612 8.23409 13.6038 9.04887 14.5935C9.13495 14.6988 9.18934 14.8264 9.20569 14.9615C9.22204 15.0965 9.1997 15.2334 9.14125 15.3562C9.0828 15.479 8.99066 15.5827 8.87556 15.6552C8.76046 15.7277 8.62714 15.7659 8.49112 15.7656Z" fill="#00A79D"/>
</g>
<defs>
<clipPath id="clip0_102_11782">
<rect width="23" height="23" fill="white"/>
</clipPath>
</defs>
</svg>
