<svg width="20" height="20" viewBox="0 0 20 20" fill="none" xmlns="http://www.w3.org/2000/svg">
<path d="M7.89062 18.75C7.97351 18.75 8.05299 18.717 8.1116 18.6584C8.1702 18.5998 8.20312 18.5203 8.20312 18.4375C8.20312 18.3546 8.1702 18.2751 8.1116 18.2165C8.05299 18.1579 7.97351 18.125 7.89062 18.125H5.07812C4.99524 18.125 4.91576 18.1579 4.85715 18.2165C4.79855 18.2751 4.76562 18.3546 4.76562 18.4375C4.76562 18.5203 4.79855 18.5998 4.85715 18.6584C4.91576 18.717 4.99524 18.75 5.07812 18.75H7.89062ZM12.4219 8.8148V9.56261C12.4245 9.56323 12.4269 9.56417 12.4295 9.56464C13.0232 9.21803 13.4859 8.68533 13.7462 8.04906C14.0064 7.41279 14.0495 6.70846 13.8688 6.04521C13.6882 5.38195 13.2938 4.79678 12.7469 4.38036C12.1999 3.96394 11.5309 3.73951 10.8435 3.74184C10.1561 3.74417 9.48863 3.97313 8.94453 4.39326C8.40043 4.81338 8.01007 5.40121 7.83391 6.06568C7.65775 6.73014 7.70564 7.43416 7.97016 8.06865C8.23467 8.70314 8.70105 9.23269 9.29703 9.57526V8.8223C8.89201 8.49957 8.59722 8.05901 8.4534 7.5615C8.30959 7.06399 8.32384 6.5341 8.4942 6.04505C8.66456 5.55599 8.98261 5.13192 9.4044 4.83144C9.82619 4.53095 10.3309 4.36889 10.8488 4.36765C11.3666 4.36641 11.8721 4.52604 12.2954 4.8245C12.7186 5.12295 13.0387 5.54549 13.2114 6.03372C13.3841 6.52196 13.4009 7.05177 13.2594 7.54997C13.118 8.04816 12.8253 8.49013 12.4219 8.8148Z" fill="#00A79D"/>
<path d="M17.6562 2.5H3.59375C3.3452 2.50029 3.10691 2.59915 2.93116 2.77491C2.7554 2.95066 2.65654 3.18895 2.65625 3.4375V10.3125C2.65654 10.5611 2.7554 10.7993 2.93116 10.9751C3.10691 11.1508 3.3452 11.2497 3.59375 11.25H9.29703V10.625H5.76281C5.69104 9.99158 5.40653 9.40124 4.95577 8.95048C4.50501 8.49972 3.91467 8.21521 3.28125 8.14344V5.60656C3.91467 5.53479 4.50501 5.25028 4.95577 4.79952C5.40653 4.34876 5.69104 3.75842 5.76281 3.125H15.4872C15.559 3.75842 15.8435 4.34876 16.2942 4.79952C16.745 5.25028 17.3353 5.53479 17.9688 5.60656V8.14344C17.3353 8.21521 16.745 8.49972 16.2942 8.95048C15.8435 9.40124 15.559 9.99158 15.4872 10.625H14.0391C14.3209 10.7609 14.5552 10.9787 14.7113 11.25H17.6562C17.9048 11.2497 18.1431 11.1508 18.3188 10.9751C18.4946 10.7993 18.5935 10.5611 18.5938 10.3125V3.4375C18.5935 3.18895 18.4946 2.95066 18.3188 2.77491C18.1431 2.59915 17.9048 2.50029 17.6562 2.5ZM5.13125 10.625H3.59375C3.51091 10.6249 3.43149 10.5919 3.37292 10.5333C3.31434 10.4748 3.28137 10.3953 3.28125 10.3125V8.775C3.74772 8.84302 4.17976 9.05983 4.51309 9.39316C4.84642 9.72649 5.06323 10.1585 5.13125 10.625ZM3.28125 4.975V3.4375C3.28137 3.35466 3.31434 3.27524 3.37292 3.21667C3.43149 3.15809 3.51091 3.12512 3.59375 3.125H5.13125C5.06323 3.59147 4.84642 4.02351 4.51309 4.35684C4.17976 4.69017 3.74772 4.90698 3.28125 4.975ZM17.9688 10.3125C17.9686 10.3953 17.9357 10.4748 17.8771 10.5333C17.8185 10.5919 17.7391 10.6249 17.6562 10.625H16.1188C16.1868 10.1585 16.4036 9.72649 16.7369 9.39316C17.0702 9.05983 17.5023 8.84302 17.9688 8.775V10.3125ZM17.9688 4.975C17.5023 4.90698 17.0702 4.69017 16.7369 4.35684C16.4036 4.02351 16.1868 3.59147 16.1188 3.125H17.6562C17.7391 3.12512 17.8185 3.15809 17.8771 3.21667C17.9357 3.27524 17.9686 3.35466 17.9688 3.4375V4.975Z" fill="#00A79D"/>
<path d="M10.8808 5.00503C10.8288 5.00515 10.779 5.02577 10.7422 5.0624C10.7054 5.09903 10.6846 5.14872 10.6842 5.20065V5.43752C10.1373 5.49581 9.89795 5.81565 9.89795 6.18565C9.89795 6.59971 10.1644 6.79487 10.4767 6.9244C10.7301 6.85868 10.9961 6.85857 11.2496 6.92407C11.5031 6.98956 11.7357 7.11852 11.9256 7.29878C11.7209 6.5119 10.3937 6.68831 10.3937 6.18565C10.3937 6.01956 10.5259 5.85737 10.8808 5.85737C11.1004 5.85498 11.3132 5.93339 11.4787 6.07768C11.5265 6.12987 11.592 6.16245 11.6625 6.16909C11.7222 6.1703 11.78 6.14781 11.8233 6.10653C11.8665 6.06524 11.8916 6.00852 11.8931 5.94877C11.8926 5.90109 11.8777 5.85467 11.8503 5.81565C11.7535 5.7053 11.6356 5.61537 11.5036 5.55114C11.3716 5.48691 11.2281 5.44967 11.0815 5.44159V5.20065C11.0812 5.17461 11.0758 5.14889 11.0655 5.12496C11.0553 5.10102 11.0404 5.07935 11.0217 5.06118C11.0031 5.04301 10.981 5.02869 10.9568 5.01906C10.9327 5.00942 10.9068 5.00465 10.8808 5.00503Z" fill="#00A79D"/>
<path d="M9.76562 19.375H2.65625C2.49049 19.375 2.33152 19.3092 2.21431 19.1919C2.0971 19.0747 2.03125 18.9158 2.03125 18.75V1.25C2.03125 1.08424 2.0971 0.925268 2.21431 0.808058C2.33152 0.690848 2.49049 0.625 2.65625 0.625H4.73531L5.31969 1.71062C5.34646 1.76036 5.38622 1.80191 5.43472 1.83086C5.48323 1.8598 5.53867 1.87506 5.59516 1.875H8.62391C8.68034 1.875 8.73572 1.85972 8.78416 1.83078C8.83261 1.80183 8.87231 1.76031 8.89906 1.71062L9.48344 0.625H11.4062C11.572 0.625 11.731 0.690848 11.8482 0.808058C11.9654 0.925268 12.0312 1.08424 12.0312 1.25V1.875H12.6562V1.25C12.6559 0.918594 12.5241 0.600867 12.2897 0.366528C12.0554 0.132188 11.7377 0.000372204 11.4062 0L2.65625 0C2.32484 0.000372204 2.00712 0.132188 1.77278 0.366528C1.53844 0.600867 1.40662 0.918594 1.40625 1.25V18.75C1.40666 19.0814 1.53849 19.3991 1.77282 19.6334C2.00715 19.8678 2.32486 19.9996 2.65625 20H9.82031C9.78434 19.8997 9.76585 19.794 9.76562 19.6875V19.375ZM8.77359 0.625L8.43719 1.25H5.78156L5.44516 0.625H8.77359Z" fill="#00A79D"/>
<path d="M14.6094 11.875C14.5009 11.8753 14.3933 11.8945 14.2914 11.9317C14.2768 11.7908 14.2303 11.6551 14.1555 11.5348C14.0807 11.4145 13.9796 11.3128 13.8597 11.2374C13.7398 11.1619 13.6044 11.1147 13.4635 11.0993C13.3227 11.0839 13.1803 11.1007 13.0469 11.1485V11.0938C13.0473 10.9437 13.0116 10.7957 12.9428 10.6623C12.8739 10.5289 12.774 10.4141 12.6514 10.3275C12.5288 10.2409 12.3871 10.1851 12.2384 10.1648C12.0897 10.1445 11.9382 10.1604 11.7969 10.211V8.43752C11.7985 8.3134 11.7755 8.19019 11.7291 8.07505C11.6827 7.95991 11.6139 7.85513 11.5267 7.7668C11.4395 7.67846 11.3356 7.60831 11.221 7.56044C11.1065 7.51257 10.9836 7.48792 10.8595 7.48792C10.7354 7.48792 10.6125 7.51257 10.4979 7.56044C10.3834 7.60831 10.2795 7.67846 10.1923 7.7668C10.1051 7.85513 10.0363 7.95991 9.98992 8.07505C9.94353 8.19019 9.92047 8.3134 9.92207 8.43752V13.0463C9.63369 12.7717 9.34686 12.4955 9.0616 12.2177C8.88248 12.0509 8.64697 11.9579 8.40222 11.9574C8.24323 11.9585 8.08689 11.9982 7.94664 12.0731C7.80639 12.148 7.68643 12.2559 7.59707 12.3874C7.47272 12.5783 7.41281 12.8041 7.42614 13.0316C7.43947 13.2591 7.52533 13.4763 7.67113 13.6514L9.68691 15.9891C9.87004 16.2191 10.0304 16.4663 10.1658 16.7272C10.3952 17.1682 10.5537 17.6425 10.6353 18.1328C10.566 18.1482 10.504 18.1868 10.4595 18.2422C10.415 18.2976 10.3907 18.3665 10.3907 18.4375V19.6875C10.3907 19.7704 10.4236 19.8499 10.4822 19.9085C10.5408 19.9671 10.6203 20 10.7032 20H14.7657C14.8485 20 14.928 19.9671 14.9866 19.9085C15.0452 19.8499 15.0782 19.7704 15.0782 19.6875V18.4375C15.0782 18.3546 15.0452 18.2752 14.9866 18.2165C14.928 18.1579 14.8485 18.125 14.7657 18.125H14.6397C14.7011 17.7996 14.817 17.4869 14.9825 17.2002C14.9934 17.1836 15.0033 17.1665 15.0124 17.1489C15.486 16.3406 15.5469 15.3261 15.5469 14.5313V12.8125C15.5466 12.564 15.4478 12.3257 15.272 12.1499C15.0963 11.9742 14.858 11.8753 14.6094 11.875ZM14.4532 19.375H11.0157V18.75H14.4532V19.375ZM14.9219 14.5313C14.9219 15.2494 14.8703 16.1608 14.4628 16.8531C14.4578 16.8597 14.4535 16.8667 14.4493 16.8739C14.2262 17.2603 14.0758 17.6844 14.0055 18.125H11.2661C11.1792 17.5362 10.9945 16.966 10.7199 16.438C10.564 16.1379 10.3791 15.8539 10.1678 15.5899L8.15222 13.2527C8.09231 13.1829 8.0561 13.0958 8.04883 13.0041C8.04156 12.9124 8.06359 12.8207 8.11176 12.7424C8.14335 12.6939 8.18638 12.6539 8.23707 12.626C8.28775 12.5981 8.34453 12.5831 8.40238 12.5824C8.4873 12.5821 8.56919 12.6139 8.63176 12.6713C10.1333 14.133 10.1333 14.1325 10.3557 14.0391C10.4124 14.0149 10.4607 13.9747 10.4947 13.9233C10.5288 13.8719 10.547 13.8116 10.5471 13.75V8.43752C10.5461 8.3959 10.5535 8.35452 10.5688 8.3158C10.5841 8.27708 10.607 8.24181 10.6361 8.21204C10.6652 8.18228 10.6999 8.15864 10.7383 8.14249C10.7767 8.12635 10.8179 8.11803 10.8595 8.11803C10.9011 8.11803 10.9423 8.12635 10.9807 8.14249C11.0191 8.15864 11.0538 8.18228 11.0829 8.21204C11.112 8.24181 11.1349 8.27708 11.1502 8.3158C11.1654 8.35452 11.1728 8.3959 11.1719 8.43752V13.9063C11.1719 13.9891 11.2048 14.0686 11.2634 14.1272C11.322 14.1858 11.4015 14.2188 11.4844 14.2188C11.5673 14.2188 11.6468 14.1858 11.7054 14.1272C11.764 14.0686 11.7969 13.9891 11.7969 13.9063V11.0938C11.7969 11.0109 11.8298 10.9314 11.8884 10.8728C11.947 10.8142 12.0265 10.7813 12.1094 10.7813C12.1923 10.7813 12.2718 10.8142 12.3304 10.8728C12.389 10.9314 12.4219 11.0109 12.4219 11.0938V13.9063C12.4219 13.9891 12.4548 14.0686 12.5134 14.1272C12.572 14.1858 12.6515 14.2188 12.7344 14.2188C12.8173 14.2188 12.8968 14.1858 12.9554 14.1272C13.014 14.0686 13.0469 13.9891 13.0469 13.9063V12.0313C13.0469 11.9484 13.0798 11.8689 13.1384 11.8103C13.197 11.7517 13.2765 11.7188 13.3594 11.7188C13.4423 11.7188 13.5218 11.7517 13.5804 11.8103C13.639 11.8689 13.6719 11.9484 13.6719 12.0313V13.9063C13.6719 13.9891 13.7048 14.0686 13.7634 14.1272C13.822 14.1858 13.9015 14.2188 13.9844 14.2188C14.0673 14.2188 14.1468 14.1858 14.2054 14.1272C14.264 14.0686 14.2969 13.9891 14.2969 13.9063V12.8125C14.2969 12.7296 14.3298 12.6502 14.3884 12.5915C14.447 12.5329 14.5265 12.5 14.6094 12.5C14.6923 12.5 14.7718 12.5329 14.8304 12.5915C14.889 12.6502 14.9219 12.7296 14.9219 12.8125V14.5313Z" fill="#00A79D"/>
</svg>
