<svg width="14" height="14" viewBox="0 0 14 14" fill="none" xmlns="http://www.w3.org/2000/svg">
<g clip-path="url(#clip0_102_11788)">
<path d="M11.4024 6.44766V2.13008C11.4033 1.92933 11.3248 1.73637 11.1839 1.5934C11.0429 1.45043 10.8511 1.36909 10.6504 1.36719H10.0078V0.6125C10.0078 0.462109 9.88751 0.328125 9.73438 0.328125H8.05001C7.9753 0.330383 7.90427 0.361068 7.85142 0.413918C7.79857 0.466767 7.76789 0.537794 7.76563 0.6125V1.36719H3.96485V0.6125C3.96321 0.538064 3.93309 0.467089 3.8807 0.414189C3.82831 0.361288 3.75763 0.330486 3.68321 0.328125H1.99883C1.92484 0.33026 1.8546 0.361161 1.80303 0.414262C1.75146 0.467363 1.72263 0.538479 1.72266 0.6125V1.36719H1.08282C0.881796 1.36898 0.689637 1.45019 0.548257 1.5931C0.406877 1.73602 0.327748 1.92905 0.328132 2.13008V10.448C0.327287 10.6492 0.406267 10.8425 0.547746 10.9855C0.689225 11.1285 0.881652 11.2096 1.08282 11.2109H6.38477C6.91798 12.6328 8.2961 13.6637 9.91212 13.6637C11.9848 13.6637 13.6691 11.9766 13.6691 9.90117C13.6703 9.16696 13.4562 8.44853 13.0533 7.83473C12.6504 7.22093 12.0764 6.73869 11.4024 6.44766ZM9.91212 6.13594C9.7918 6.13594 9.67423 6.15234 9.55665 6.15234H8.85938V4.53906H10.8555V6.15234H10.2676C10.1527 6.15234 10.0324 6.13594 9.91212 6.13594ZM3.41798 8.3125V6.69922H5.60548V8.3125H3.41798ZM5.60548 8.85938V10.6641H3.41798V8.85938H5.60548ZM8.31251 4.53906V6.15234H6.15235V4.53906H8.31251ZM5.60548 6.15234H3.41798V4.53906H5.60548V6.15234ZM2.8711 6.15234H0.875007V4.53906H2.8711V6.15234ZM2.8711 6.69922V8.3125H0.875007V6.69922H2.8711ZM6.15235 6.69922H7.93516C7.31458 7.08984 6.81844 7.64954 6.50508 8.3125H6.15235V6.69922ZM8.31251 0.875H9.46094V2.57031H8.31251V0.875ZM2.26954 0.875H3.41798V2.57031H2.26954V0.875ZM1.08282 1.91406H1.72266V2.83555C1.72271 2.90929 1.75165 2.98007 1.80328 3.03272C1.85491 3.08537 1.92511 3.11569 1.99883 3.11719H3.68321C3.7575 3.1159 3.8284 3.08582 3.88094 3.03327C3.93348 2.98073 3.96356 2.90984 3.96485 2.83555V1.91406H7.76563V2.83555C7.76799 2.90996 7.79879 2.98064 7.8517 3.03304C7.9046 3.08543 7.97557 3.11555 8.05001 3.11719H9.73438C9.80782 3.11557 9.87767 3.08512 9.92884 3.03242C9.98 2.97972 10.0084 2.909 10.0078 2.83555V1.91406H10.6504C10.7062 1.91555 10.7592 1.93914 10.7976 1.97964C10.8361 2.02014 10.8569 2.07425 10.8555 2.13008V3.99219H0.875007V2.13008C0.874677 2.0741 0.896211 2.02019 0.935024 1.97985C0.973838 1.9395 1.02687 1.9159 1.08282 1.91406ZM0.875007 10.448V8.85938H2.8711V10.6641H1.08282C1.02671 10.6627 0.97342 10.6392 0.934511 10.5988C0.895602 10.5583 0.874219 10.5042 0.875007 10.448ZM6.15235 10.6641V8.85938H6.30001C6.20184 9.19886 6.15213 9.55051 6.15235 9.90391C6.15276 10.1592 6.17841 10.4138 6.22891 10.6641H6.15235ZM9.91212 13.1141C8.14024 13.1141 6.69923 11.6703 6.69923 9.89844C6.69923 8.23867 7.96524 6.86328 9.58399 6.69922H10.2457C11.8645 6.86328 13.1305 8.23867 13.1305 9.89844C13.1277 11.6703 11.6867 13.1141 9.91212 13.1141Z" fill="#4D615C"/>
<path d="M11.457 10.3688V9.80001C11.4582 9.49312 11.3691 9.19267 11.2009 8.93599C11.0327 8.67931 10.7928 8.47772 10.5109 8.35626C10.5427 8.27997 10.5594 8.19826 10.5602 8.11563C10.5612 8.01953 10.5409 7.92441 10.5006 7.83715C10.4603 7.74988 10.4012 7.67267 10.3274 7.61109C10.2536 7.54951 10.1671 7.50511 10.074 7.48111C9.98095 7.45711 9.88372 7.4541 9.78935 7.47231C9.69499 7.49052 9.60586 7.52949 9.52842 7.5864C9.45098 7.6433 9.38716 7.71672 9.34159 7.80133C9.29602 7.88594 9.26984 7.97963 9.26494 8.0756C9.26005 8.17158 9.27656 8.26745 9.31328 8.35626C9.03146 8.47772 8.79154 8.67931 8.62333 8.93599C8.45513 9.19267 8.36606 9.49312 8.36719 9.80001V10.3688C8.24123 10.4277 8.13456 10.5212 8.05954 10.6383C7.98453 10.7554 7.94425 10.8914 7.94336 11.0305C7.94282 11.2221 8.01815 11.4062 8.1529 11.5425C8.28765 11.6788 8.47086 11.7562 8.6625 11.7578H9.10274C9.16207 11.9264 9.2718 12.0728 9.41706 12.1769C9.56232 12.2811 9.7361 12.3381 9.91485 12.3402C10.2922 12.3402 10.6094 12.0859 10.7242 11.7578H11.1645C11.3562 11.7567 11.5397 11.6794 11.6746 11.543C11.8094 11.4066 11.8846 11.2223 11.8836 11.0305C11.8812 10.8914 11.8401 10.7557 11.7647 10.6388C11.6893 10.5219 11.5828 10.4283 11.457 10.3688ZM9.91211 8.01719C9.93882 8.0176 9.96432 8.02838 9.98321 8.04727C10.0021 8.06616 10.0129 8.09166 10.0133 8.11836C10.0133 8.1452 10.0026 8.17093 9.98365 8.1899C9.96468 8.20888 9.93894 8.21954 9.91211 8.21954C9.88528 8.21954 9.85955 8.20888 9.84057 8.1899C9.8216 8.17093 9.81094 8.1452 9.81094 8.11836C9.81134 8.09166 9.82212 8.06615 9.84101 8.04726C9.8599 8.02837 9.8854 8.01759 9.91211 8.01719ZM9.91211 8.78008C10.4672 8.78008 10.9102 9.23672 10.9102 9.80001V10.3086H8.91407V9.80001C8.91407 9.23946 9.35703 8.78008 9.91211 8.78008ZM9.91211 11.7934C9.85742 11.7934 9.80821 11.7578 9.76446 11.7578H10.057C10.016 11.7578 9.9668 11.7934 9.91211 11.7934ZM11.1645 11.2109H8.66524C8.6181 11.2109 8.57289 11.1922 8.53956 11.1589C8.50623 11.1256 8.4875 11.0803 8.4875 11.0332C8.4875 10.9861 8.50623 10.9409 8.53956 10.9075C8.57289 10.8742 8.6181 10.8555 8.66524 10.8555H11.1645C11.2116 10.8555 11.2568 10.8742 11.2901 10.9075C11.3235 10.9409 11.3422 10.9861 11.3422 11.0332C11.3422 11.0803 11.3235 11.1256 11.2901 11.1589C11.2568 11.1922 11.2116 11.2109 11.1645 11.2109Z" fill="#4D615C"/>
</g>
<defs>
<clipPath id="clip0_102_11788">
<rect width="14" height="14" fill="white"/>
</clipPath>
</defs>
</svg>
