<svg width="14" height="14" viewBox="0 0 14 14" fill="none" xmlns="http://www.w3.org/2000/svg">
<g clip-path="url(#clip0_102_11774)">
<path d="M7 13.7812C10.7452 13.7812 13.7812 10.7452 13.7812 7C13.7812 3.25482 10.7452 0.21875 7 0.21875C3.25482 0.21875 0.21875 3.25482 0.21875 7C0.21875 10.7452 3.25482 13.7812 7 13.7812Z" stroke="#4D615C" stroke-linecap="round" stroke-linejoin="round"/>
<path d="M7.00074 2.83665L6.99987 6.99995M10.3306 6.99995H7.00643M6.99987 12.9031V12.0281M1.09668 6.99995H1.97168M7.0038 1.09937V1.97437M12.9044 7.00695H12.0294M1.89074 9.9526L2.64849 9.5151M4.05155 1.8886L4.48905 2.64637M12.1151 4.05425L11.3574 4.49175M9.94949 12.1178L9.51199 11.3601M1.89162 4.05292L2.64937 4.49042M9.95561 1.89212L9.51811 2.64984M12.1121 9.95831L11.3539 9.52081M4.04587 12.1147L4.48337 11.357" stroke="#4D615C" stroke-linecap="round" stroke-linejoin="round"/>
</g>
<defs>
<clipPath id="clip0_102_11774">
<rect width="14" height="14" fill="white"/>
</clipPath>
</defs>
</svg>
