<svg width="20" height="20" viewBox="0 0 20 20" fill="none" xmlns="http://www.w3.org/2000/svg">
<path d="M18.5312 3.9375L10.0938 0.8125C10.0312 0.78125 9.9375 0.78125 9.875 0.8125L1.4375 3.9375C1.34375 3.96875 1.25 4.09375 1.25 4.21875C1.25 4.34375 1.34375 4.46875 1.46875 4.5L4.375 5.59375V7.34375C4.375 7.40625 4.375 7.4375 4.40625 7.5C4.4375 7.53125 4.59375 7.84375 5 8.21875C5 8.25 4.96875 8.28125 4.96875 8.3125V8.34375C4.09375 8.5 3.40625 9.25 3.40625 10.1875C3.40625 11.125 4.09375 11.875 4.96875 12.0312V12.125C4.96875 12.1562 5.21875 13.7188 6.375 14.9688C4.71875 15.7812 3.375 17.1562 2.59375 18.8438C2.5625 18.9375 2.5625 19.0625 2.625 19.1562C2.6875 19.25 2.78125 19.3125 2.875 19.3125H17.0625C17.1562 19.3125 17.2812 19.25 17.3125 19.1562C17.3438 19.0625 17.375 18.9688 17.3438 18.8438C16.5625 17.1562 15.2188 15.8125 13.5625 14.9688C14.6875 13.7188 14.9688 12.1562 14.9688 12.125V12.0312C15.8438 11.875 16.5312 11.125 16.5312 10.1875C16.5312 9.25 15.8438 8.5 14.9688 8.34375V8.3125C14.9688 8.28125 14.9688 8.25 14.9375 8.21875C15.3438 7.84375 15.5312 7.5625 15.5312 7.5C15.5625 7.4375 15.5625 7.40625 15.5625 7.34375V5.59375L16.8125 5.125V7.71875C16.4375 7.84375 16.1875 8.1875 16.1875 8.59375C16.1875 9.125 16.5938 9.53125 17.125 9.53125C17.6562 9.53125 18.0625 9.125 18.0625 8.59375C18.0625 8.1875 17.8125 7.84375 17.4375 7.71875V4.90625L18.4688 4.53125C18.5938 4.5 18.6875 4.375 18.6875 4.25C18.6875 4.125 18.6562 3.96875 18.5312 3.9375ZM17.1875 8.90625C17 8.90625 16.875 8.78125 16.875 8.59375C16.875 8.40625 17 8.28125 17.1875 8.28125C17.375 8.28125 17.5 8.40625 17.5 8.59375C17.5 8.78125 17.375 8.90625 17.1875 8.90625ZM5.625 8.6875C6 8.9375 6.4375 9.1875 7 9.375C6.78125 9.65625 6.3125 10.0313 5.625 10.125V8.6875ZM4.0625 10.1562C4.0625 9.5625 4.46875 9.09375 5 8.9375V11.3437C4.46875 11.2187 4.0625 10.75 4.0625 10.1562ZM6.875 15.375C7.375 15.7812 8 16.125 8.78125 16.2812L10.0625 18.5938H3.375C4.1875 17.1562 5.40625 16.0312 6.875 15.375ZM9.59375 16.4062H10.4062L10 17.0938L9.59375 16.4062ZM16.5938 18.5938H10.8125L10.3125 17.7188L11.1875 16.2812C11.9688 16.125 12.5938 15.7812 13.0938 15.375C14.5938 16.0312 15.8125 17.1562 16.5938 18.5938ZM14.375 12C14.3125 12.3438 13.6562 15.7812 10 15.7812C6.375 15.7812 5.6875 12.3438 5.625 12V10.75C6.78125 10.625 7.40625 9.90625 7.65625 9.5625C7.9375 9.625 8.21875 9.6875 8.53125 9.75C8.6875 10 9.625 11.25 11.1875 11.5312C11.4062 11.5625 11.625 11.5937 11.8438 11.5937H11.875V11.75C11.875 11.9375 12 12.0625 12.1875 12.0625C12.375 12.0625 12.5 11.9375 12.5 11.75V11.5312C13.125 11.4375 13.75 11.1562 14.375 10.7812V12ZM14.375 10C13.3125 10.7812 12.25 11.0938 11.3125 10.9062C10.4375 10.75 9.78125 10.2188 9.40625 9.8125C9.59375 9.8125 9.8125 9.84375 10 9.84375C12.125 9.84375 13.5 9.28125 14.375 8.6875V10ZM15.9375 10.1562C15.9375 10.75 15.5312 11.2188 15 11.375V8.96875C15.5312 9.09375 15.9375 9.5625 15.9375 10.1562ZM15 7.25C14.75 7.59375 13.4688 9.21875 10 9.21875C6.53125 9.21875 5.25 7.59375 5 7.25V5.8125L9.90625 7.625C9.9375 7.625 9.96875 7.65625 10 7.65625C10.0312 7.65625 10.0625 7.65625 10.0938 7.625L15 5.8125V7.25ZM10 7L2.46875 4.21875L10 1.4375L17.5312 4.21875L10 7Z" fill="#00A79D"/>
<path d="M7.8125 10.7812C7.625 10.7812 7.5 10.9062 7.5 11.0938V11.7188C7.5 11.9062 7.625 12.0312 7.8125 12.0312C8 12.0312 8.125 11.9062 8.125 11.7188V11.0938C8.125 10.9062 8 10.7812 7.8125 10.7812ZM11.6562 13.625C11.5 13.5625 11.3125 13.6563 11.25 13.8125C11.25 13.8125 11 14.5312 9.96875 14.5312C8.96875 14.5312 8.71875 13.8438 8.6875 13.8125C8.625 13.6563 8.46875 13.5625 8.28125 13.625C8.125 13.6875 8.03125 13.8438 8.09375 14.0313C8.125 14.0938 8.5 15.1875 9.9375 15.1875C11.375 15.1875 11.7812 14.0938 11.7812 14.0313C11.9063 13.8438 11.8125 13.6562 11.6562 13.625Z" fill="#00A79D"/>
</svg>
