<svg width="28" height="28" viewBox="0 0 28 28" fill="none" xmlns="http://www.w3.org/2000/svg">
<g clip-path="url(#clip0_102_11967)">
<path fill-rule="evenodd" clip-rule="evenodd" d="M27.4143 14.5734V14.5857C27.4143 14.7723 27.321 14.9316 27.1839 15.0383L16.1361 26.0861C16.0282 26.1874 15.8851 26.2428 15.7371 26.2404C15.5891 26.2381 15.4477 26.1783 15.3431 26.0736C15.2384 25.9689 15.1785 25.8276 15.1762 25.6796C15.1739 25.5316 15.2292 25.3884 15.3306 25.2805L26.2476 14.3634V10.5023C26.2544 10.3521 26.3188 10.2103 26.4274 10.1064C26.5361 10.0025 26.6806 9.94451 26.831 9.94451C26.9813 9.94451 27.1259 10.0025 27.2345 10.1064C27.3432 10.2103 27.4076 10.3521 27.4143 10.5023V14.5734ZM11.5535 27.1688C11.5348 27.1968 11.5226 27.2283 11.4981 27.2528C11.4433 27.3069 11.378 27.3493 11.3063 27.3775C11.2346 27.4057 11.158 27.419 11.081 27.4167C11.004 27.419 10.9273 27.4057 10.8556 27.3775C10.7839 27.3493 10.7187 27.3069 10.6639 27.2528C10.6394 27.2283 10.6277 27.1968 10.6085 27.1688L0.831227 17.3909C0.803227 17.3722 0.77231 17.36 0.747227 17.3355C0.693072 17.2808 0.650611 17.2157 0.622431 17.1441C0.59425 17.0725 0.58094 16.9959 0.58331 16.919C0.580791 16.842 0.594031 16.7653 0.622218 16.6935C0.650404 16.6218 0.692943 16.5566 0.747227 16.5019C0.77231 16.4774 0.803227 16.4658 0.831227 16.4465L14.1289 3.14883C14.1815 3.07828 14.2496 3.0208 14.328 2.98084C14.4064 2.94088 14.493 2.91952 14.581 2.91842H16.947C17.0246 2.04225 17.3821 1.27342 17.9211 0.77L17.9305 0.7805C17.9869 0.71936 18.0552 0.670463 18.1313 0.636846C18.2073 0.60323 18.2895 0.58561 18.3726 0.585083C18.718 0.585083 18.998 0.88375 18.998 1.25183C18.998 1.47058 18.893 1.65492 18.7407 1.77625C18.4613 2.03408 18.2624 2.44067 18.1959 2.91842H20.9976C21.1843 2.91842 21.3441 3.01175 21.4497 3.14883L24.8506 6.54967C24.9211 6.60238 24.9786 6.67063 25.0186 6.74913C25.0585 6.82762 25.0799 6.91426 25.081 7.00233V13.419C25.081 13.6057 24.9876 13.7649 24.8506 13.8711L11.5535 27.1688ZM23.9143 7.22458L20.7754 4.08567H18.3178C18.4205 4.34467 18.5651 4.56517 18.7407 4.72733C18.7646 4.74658 18.7944 4.75825 18.8148 4.781L18.8253 4.7705C19.4326 5.33808 19.8316 6.2335 19.8316 7.252C19.8316 7.2765 19.8257 7.29808 19.8246 7.322C20.5228 7.72508 20.9982 8.47117 20.9982 9.33567C20.9982 9.9545 20.7524 10.548 20.3148 10.9856C19.8772 11.4232 19.2837 11.669 18.6649 11.669C18.0461 11.669 17.4526 11.4232 17.015 10.9856C16.5774 10.548 16.3316 9.9545 16.3316 9.33567C16.3324 8.73603 16.5645 8.15982 16.9796 7.7271C17.3947 7.29438 17.9608 7.03853 18.5599 7.01283C18.5074 6.49483 18.3026 6.0515 18.0063 5.77733C17.9824 5.75808 17.9526 5.74642 17.9311 5.72367L17.9217 5.73417C17.4877 5.32875 17.1675 4.75125 17.0158 4.08567H14.8032L1.96989 16.919L11.081 26.0301L23.9143 13.1967V7.22458ZM18.0057 8.72725C18.1504 8.59367 18.2688 8.414 18.3656 8.21217C17.8669 8.34517 17.4976 8.7955 17.4976 9.33508C17.4976 9.6445 17.6206 9.94125 17.8394 10.16C18.0581 10.3788 18.3549 10.5017 18.6643 10.5017C18.9737 10.5017 19.2705 10.3788 19.4893 10.16C19.7081 9.94125 19.831 9.6445 19.831 9.33508C19.831 9.05917 19.7318 8.8095 19.5714 8.60942C19.2126 9.51067 18.8148 9.723 18.8148 9.723C18.7586 9.78426 18.6902 9.83319 18.6141 9.86673C18.538 9.90026 18.4558 9.91766 18.3726 9.91783C18.0273 9.91783 17.7485 9.61917 17.7485 9.25108C17.7485 9.0335 17.8529 8.84917 18.0057 8.72725ZM7.16448 15.9186C7.27134 15.8118 7.41622 15.7519 7.56727 15.7519C7.71832 15.7519 7.8632 15.8118 7.97006 15.9186L12.082 20.0305C12.1833 20.1384 12.2387 20.2816 12.2363 20.4296C12.234 20.5776 12.1742 20.7189 12.0695 20.8236C11.9648 20.9283 11.8235 20.9881 11.6755 20.9904C11.5274 20.9928 11.3843 20.9374 11.2764 20.8361L7.16448 16.7242C7.05772 16.6173 6.99775 16.4724 6.99775 16.3214C6.99775 16.1703 7.05772 16.0254 7.16448 15.9186ZM9.49781 13.5852C9.60467 13.4785 9.74955 13.4185 9.9006 13.4185C10.0517 13.4185 10.1965 13.4785 10.3034 13.5852L14.4153 17.6972C14.5166 17.8051 14.572 17.9482 14.5697 18.0962C14.5673 18.2443 14.5075 18.3856 14.4028 18.4902C14.2981 18.5949 14.1568 18.6548 14.0088 18.6571C13.8608 18.6594 13.7177 18.6041 13.6097 18.5028L9.49781 14.3908C9.39105 14.284 9.33109 14.1391 9.33109 13.988C9.33109 13.837 9.39105 13.6921 9.49781 13.5852Z" fill="#3847FF"/>
</g>
<defs>
<clipPath id="clip0_102_11967">
<rect width="28" height="28" fill="white"/>
</clipPath>
</defs>
</svg>
