<svg width="401" height="400" viewBox="0 0 401 400" fill="none" xmlns="http://www.w3.org/2000/svg">
<path d="M361.366 39.2097L354.926 38.9386C351.521 35.0474 346.779 32.566 341.633 31.982C336.486 31.398 331.306 32.7537 327.111 35.7826C322.916 38.8115 320.009 43.2946 318.962 48.3509C317.915 53.4072 318.803 58.671 321.451 63.1079C324.1 67.5448 328.318 70.8339 333.276 72.3289C338.235 73.8239 343.575 73.4166 348.247 71.187C352.919 68.9575 356.586 65.067 358.526 60.28C360.467 55.4931 360.541 50.1559 358.734 45.3173L361.366 39.2097Z" fill="#F5F5F5"/>
<path d="M354.82 293.224L351.94 291.534C351.493 289.605 350.512 287.84 349.108 286.439C347.4 284.723 345.158 283.634 342.749 283.349C340.34 283.065 337.906 283.602 335.842 284.873C333.779 286.144 332.208 288.074 331.386 290.349C330.564 292.624 330.539 295.109 331.315 297.4C332.091 299.69 333.623 301.651 335.661 302.963C337.699 304.275 340.122 304.86 342.536 304.624C344.95 304.388 347.213 303.343 348.956 301.661C350.698 299.979 351.818 297.759 352.132 295.361L354.82 293.224Z" fill="#F5F5F5"/>
<path d="M296.5 128.75C297.273 128.258 298.11 127.874 298.988 127.61L299.46 125.114L303.652 124.955L304.332 127.443C305.229 127.645 306.095 127.964 306.908 128.391L308.996 126.964L312.084 129.811L310.812 131.995C311.301 132.771 311.686 133.608 311.956 134.483L314.452 134.946L314.612 139.132L312.156 139.785C311.955 140.677 311.635 141.538 311.204 142.345L312.644 144.434L309.788 147.504L307.532 146.196C306.758 146.685 305.921 147.068 305.044 147.336L304.572 149.824L300.372 149.983L299.724 147.535C298.827 147.336 297.96 147.017 297.148 146.587L295.06 148.022L291.972 145.175L293.244 142.983C292.754 142.211 292.369 141.377 292.1 140.503L289.604 140.041L289.444 135.855L291.9 135.201C292.099 134.308 292.419 133.447 292.852 132.641L291.412 130.552L294.268 127.483L296.468 128.75H296.5ZM298.852 134.276C298.249 134.929 297.853 135.746 297.714 136.623C297.576 137.5 297.701 138.399 298.074 139.205C298.447 140.011 299.051 140.69 299.811 141.154C300.57 141.619 301.45 141.849 302.341 141.816C303.231 141.783 304.091 141.487 304.814 140.967C305.536 140.447 306.087 139.726 306.399 138.894C306.71 138.062 306.768 137.157 306.564 136.292C306.359 135.428 305.903 134.643 305.252 134.037C304.817 133.631 304.306 133.316 303.749 133.109C303.191 132.901 302.597 132.806 302.002 132.828C301.407 132.85 300.823 132.99 300.282 133.238C299.742 133.487 299.256 133.839 298.852 134.276Z" fill="#EBEBEB"/>
<path d="M78.1168 28.7408C78.8063 28.3013 79.5515 27.9554 80.3328 27.7122L80.7488 25.4637L84.5408 25.3202L85.1328 27.5288C85.9385 27.7081 86.7162 27.9951 87.4448 28.3819L89.3408 27.0903L92.1168 29.6577L90.9728 31.6351C91.4148 32.3331 91.7618 33.0865 92.0048 33.8756L94.2528 34.2982L94.4048 38.0696L92.1888 38.6596C92.0052 39.4641 91.7175 40.2413 91.3328 40.9718L92.6208 42.8536L90.0448 45.6283L88.1008 44.52C87.4004 44.9605 86.6445 45.3064 85.8528 45.5485L85.4288 47.797L81.6448 47.9405L81.0528 45.7319C80.2421 45.5413 79.4615 45.2409 78.7328 44.8389L76.8448 46.1146L74.0608 43.5632L75.2048 41.5858C74.7627 40.8878 74.4157 40.1344 74.1728 39.3453L71.9248 38.9386L71.7808 35.1673L73.9968 34.5772C74.1767 33.7717 74.4646 32.9939 74.8528 32.265L73.5568 30.3833L76.1328 27.6085L78.1168 28.7567V28.7408ZM80.2368 33.7321C79.6922 34.3206 79.3349 35.0567 79.2099 35.8476C79.0849 36.6384 79.1979 37.4484 79.5345 38.1752C79.8711 38.9021 80.4162 39.5133 81.1011 39.9316C81.786 40.3498 82.5799 40.5564 83.3826 40.5253C84.1852 40.4941 84.9606 40.2266 85.6107 39.7565C86.2609 39.2864 86.7568 38.6349 87.0356 37.8841C87.3145 37.1333 87.3639 36.317 87.1776 35.5383C86.9912 34.7596 86.5776 34.0534 85.9888 33.5088C85.1961 32.7786 84.145 32.3919 83.0664 32.4338C81.9878 32.4757 80.97 32.9426 80.2368 33.7321Z" fill="#F5F5F5"/>
<path d="M37.2132 309.817C37.9878 309.328 38.8246 308.944 39.7012 308.676L40.1732 306.189L44.3732 306.029L45.0292 308.477C45.9238 308.678 46.7875 308.997 47.5972 309.426L49.6932 307.991L52.7732 310.829L51.5332 313.03C52.0238 313.802 52.4085 314.636 52.6772 315.51L55.1732 315.972L55.3332 320.158L52.8772 320.812C52.6786 321.704 52.3582 322.565 51.9252 323.371L53.3652 325.46L50.5092 328.538L48.3092 327.27C47.5329 327.756 46.6965 328.139 45.8212 328.41L45.3572 330.898L41.1572 331.058L40.5012 328.61C39.6068 328.408 38.7433 328.089 37.9332 327.661L35.8372 329.096L32.7492 326.242L34.0212 324.057C33.5338 323.283 33.1493 322.45 32.8772 321.577L30.3812 321.107L30.2212 316.921L32.6772 316.267C32.8821 315.376 33.2021 314.516 33.6292 313.708L32.1652 311.627L35.0212 308.549L37.2132 309.817ZM39.5732 315.35C38.9724 316.003 38.5787 316.818 38.4417 317.693C38.3047 318.568 38.4306 319.464 38.8034 320.268C39.1762 321.072 39.7794 321.748 40.537 322.212C41.2945 322.675 42.1726 322.904 43.0607 322.871C43.9487 322.838 44.8071 322.543 45.5277 322.025C46.2484 321.507 46.799 320.787 47.1104 319.958C47.4218 319.128 47.4799 318.225 47.2776 317.363C47.0752 316.5 46.6214 315.717 45.9732 315.111C45.5388 314.705 45.0278 314.389 44.4699 314.181C43.9121 313.973 43.3183 313.877 42.7231 313.899C42.1279 313.921 41.543 314.061 41.0023 314.31C40.4616 314.559 39.9759 314.913 39.5732 315.35Z" fill="#F5F5F5"/>
<path d="M48.4127 52.7404C50.1062 51.6724 51.9359 50.8357 53.8527 50.2528L54.8767 44.807L64.0527 44.4641L65.4847 49.8062C67.4349 50.2484 69.3178 50.9455 71.0847 51.8793L75.6607 48.7538L82.4047 54.973L79.6207 59.757C80.6947 61.4475 81.5368 63.2736 82.1247 65.1868L87.5807 66.1994L87.9327 75.3528L82.5647 76.78C82.1253 78.7249 81.4257 80.6021 80.4847 82.3614L83.6207 86.9301L77.3807 93.6436L72.5807 90.8689C70.8873 91.9391 69.0577 92.7785 67.1407 93.3646L66.1167 98.8024L56.9407 99.1532L55.5327 93.827C53.5822 93.3899 51.699 92.6954 49.9327 91.7619L45.3567 94.8875L38.6127 88.6603L41.3967 83.8763C40.3243 82.185 39.4823 80.359 38.8927 78.4465L33.4367 77.4338L33.0527 68.2805L38.4207 66.8453C38.8602 64.9004 39.5598 63.0232 40.5007 61.2639L37.3647 56.6952L43.6047 49.9817L48.4047 52.7484L48.4127 52.7404ZM53.5567 64.836C52.2315 66.2608 51.3599 68.0453 51.0523 69.9638C50.7446 71.8823 51.0147 73.8487 51.8283 75.6142C52.642 77.3798 53.9627 78.8652 55.6233 79.8826C57.284 80.9 59.2102 81.4038 61.1581 81.3302C63.1061 81.2566 64.9884 80.609 66.567 79.4691C68.1457 78.3293 69.3497 76.7485 70.0269 74.9266C70.7041 73.1048 70.824 71.1237 70.3715 69.2339C69.919 67.3441 68.9144 65.6305 67.4847 64.3097C65.5677 62.5388 63.0234 61.5993 60.4114 61.698C57.7994 61.7967 55.3337 62.9255 53.5567 64.836Z" fill="#F5F5F5"/>
<path d="M285.821 163.107C287.12 162.287 288.525 161.645 289.997 161.202L290.797 157.024L297.837 156.753L298.941 160.859C300.443 161.199 301.893 161.736 303.253 162.454L306.765 160.062L311.941 164.846L309.805 168.521C310.627 169.821 311.273 171.223 311.725 172.691L315.917 173.489L316.181 180.513L312.061 181.614C311.723 183.111 311.185 184.556 310.461 185.911L312.861 189.411L308.061 194.57L304.373 192.441C303.073 193.262 301.669 193.905 300.197 194.355L299.397 198.525L292.349 198.796L291.253 194.69C289.752 194.351 288.302 193.815 286.941 193.095L283.421 195.487L278.253 190.703L280.389 187.027C279.563 185.733 278.917 184.333 278.469 182.865L274.277 182.068L274.005 175.044L278.125 173.943C278.464 172.448 279.002 171.006 279.725 169.654L277.325 166.145L282.125 160.995L285.813 163.115L285.821 163.107ZM289.765 172.396C288.748 173.491 288.08 174.861 287.844 176.334C287.608 177.807 287.816 179.317 288.441 180.673C289.066 182.028 290.081 183.168 291.356 183.949C292.631 184.73 294.11 185.116 295.606 185.06C297.101 185.003 298.547 184.505 299.759 183.63C300.97 182.754 301.895 181.54 302.414 180.141C302.934 178.742 303.026 177.221 302.678 175.77C302.331 174.319 301.559 173.004 300.461 171.99C299.733 171.315 298.878 170.791 297.946 170.446C297.014 170.102 296.022 169.944 295.029 169.982C294.035 170.019 293.059 170.252 292.156 170.666C291.253 171.081 290.44 171.669 289.765 172.396Z" fill="#EBEBEB"/>
<path d="M70.3569 316.275C72.1007 315.175 73.984 314.311 75.9569 313.708L77.0049 308.126L86.4609 307.768L87.9409 313.277C89.9549 313.729 91.8999 314.445 93.7249 315.406L98.4369 312.217L105.381 318.595L102.517 323.531C103.623 325.268 104.489 327.145 105.093 329.112L110.693 330.165L111.053 339.589L105.525 341.056C105.073 343.064 104.355 345.003 103.389 346.821L106.589 351.525L100.189 358.446L95.2369 355.592C93.4914 356.689 91.6085 357.552 89.6369 358.159L88.5889 363.74L79.1329 364.099L77.6609 358.598C75.6431 358.147 73.695 357.428 71.8689 356.461L67.1569 359.65L60.2129 353.271L63.1009 348.304C61.997 346.566 61.1307 344.689 60.5249 342.723L54.9249 341.678L54.5649 332.254L60.0929 330.779C60.5453 328.77 61.2664 326.831 62.2369 325.014L59.0369 320.31L65.4369 313.397L70.3809 316.251L70.3569 316.275ZM75.6609 328.729C74.2965 330.198 73.3995 332.036 73.0835 334.013C72.7675 335.989 73.0467 338.015 73.8858 339.833C74.7248 341.651 76.0861 343.18 77.7973 344.228C79.5085 345.275 81.4929 345.793 83.4994 345.716C85.506 345.639 87.4445 344.97 89.07 343.795C90.6954 342.62 91.9347 340.991 92.631 339.114C93.3274 337.237 93.4496 335.196 92.9821 333.25C92.5147 331.303 91.4786 329.539 90.0049 328.179C88.0294 326.357 85.4085 325.391 82.7186 325.494C80.0288 325.597 77.4901 326.761 75.6609 328.729Z" fill="#F5F5F5"/>
<path d="M373.806 373.819C373.806 373.93 296.134 374.026 200.342 374.026C104.55 374.026 26.8623 373.946 26.8623 373.819C26.8623 373.691 104.518 373.611 200.342 373.611C296.166 373.611 373.806 373.715 373.806 373.819Z" fill="#263238"/>
<path d="M349.253 80.0652L342.853 82.1861C338.048 79.6647 332.469 79.0262 327.216 80.3959C321.962 81.7657 317.412 85.0447 314.461 89.5884C311.509 94.132 310.37 99.6116 311.267 104.95C312.164 110.288 315.032 115.099 319.307 118.437C323.582 121.774 328.956 123.397 334.371 122.987C339.786 122.576 344.851 120.161 348.57 116.217C352.29 112.273 354.394 107.085 354.47 101.673C354.546 96.261 352.588 91.0163 348.981 86.9701L349.253 80.0652Z" fill="white"/>
<path d="M349.253 80.0651V80.4957C349.253 80.8067 349.253 81.2452 349.253 81.8113C349.253 83.0073 349.165 84.7535 349.093 87.0099C349.093 87.0332 349.084 87.0555 349.067 87.0719C349.051 87.0884 349.028 87.0976 349.005 87.0976H348.957L349.069 86.97C350.989 89.126 352.459 91.6409 353.395 94.3686C354.33 97.0962 354.712 99.982 354.517 102.858C354.323 105.734 353.557 108.543 352.263 111.121C350.969 113.699 349.174 115.995 346.981 117.875C344.584 119.933 341.771 121.453 338.733 122.332C335.489 123.268 332.07 123.438 328.749 122.826C325.263 122.212 321.984 120.746 319.205 118.56L318.149 117.715L317.133 116.782L316.653 116.32L316.213 115.81L315.349 114.805C312.174 110.705 310.534 105.629 310.709 100.453C310.943 94.8445 313.333 89.5408 317.385 85.6413C321.436 81.7417 326.837 79.5452 332.469 79.507C336.097 79.4787 339.674 80.3617 342.869 82.0744H342.797L347.597 80.5356L348.821 80.1529L349.221 80.0332L348.789 80.1927L347.557 80.6153L342.829 82.21H342.757C338.387 79.9261 333.364 79.2023 328.524 80.1589C323.684 81.1155 319.319 83.6948 316.154 87.4677C312.989 91.2407 311.216 95.9799 311.129 100.897C311.042 105.814 312.647 110.612 315.677 114.494L316.525 115.483L316.957 115.977L317.429 116.432L318.381 117.348L319.413 118.146C322.457 120.512 326.082 122.019 329.911 122.509C333.739 122.999 337.629 122.454 341.174 120.931C344.719 119.408 347.787 116.964 350.059 113.854C352.33 110.743 353.721 107.081 354.085 103.252C354.326 100.956 354.185 98.6366 353.669 96.3866C352.87 92.9021 351.222 89.6678 348.869 86.97C348.861 86.9626 348.854 86.9534 348.849 86.9431C348.844 86.9327 348.842 86.9216 348.842 86.9103C348.842 86.8989 348.844 86.8878 348.849 86.8774C348.854 86.8671 348.861 86.8579 348.869 86.8504C348.885 86.8375 348.905 86.8304 348.925 86.8304C348.945 86.8304 348.965 86.8375 348.981 86.8504L348.845 86.9142C348.965 84.6897 349.053 82.9276 349.109 81.7794C349.109 81.2053 349.173 80.7668 349.189 80.4399C349.205 80.113 349.253 80.0651 349.253 80.0651Z" fill="#263238"/>
<path d="M328.141 92.0969H322.741V108.913H328.141V92.0969Z" fill="#3847FF"/>
<path d="M336.207 95.9399H330.807V108.913H336.207V95.9399Z" fill="#3847FF"/>
<path d="M343.67 101.21H338.27V108.913H343.67V101.21Z" fill="#3847FF"/>
<path d="M359.741 260.661L359.189 251.356C363.105 247.169 365.724 241.945 366.733 236.31C367.939 229.677 366.863 222.833 363.68 216.885C360.498 210.937 355.394 206.234 349.196 203.536C342.998 200.839 336.068 200.305 329.527 202.021C322.987 203.736 317.218 207.602 313.156 212.992C309.094 218.381 306.975 224.979 307.144 231.718C307.312 238.457 309.756 244.942 314.082 250.124C318.408 255.305 324.362 258.881 330.98 260.271C337.598 261.66 344.493 260.784 350.549 257.783L359.741 260.661Z" fill="white"/>
<path d="M359.741 260.661L359.157 260.486L357.405 259.959L350.517 257.862L350.389 257.822L350.493 257.735L350.581 257.854C344.699 260.808 338.002 261.739 331.533 260.502C329.9 260.172 328.295 259.716 326.733 259.138C319.426 256.471 313.448 251.071 310.069 244.084C308.161 240.163 307.124 235.876 307.029 231.518C306.938 226.884 307.933 222.292 309.933 218.107C311.993 213.697 315.115 209.862 319.021 206.945L319.773 206.387L321.373 205.366L322.973 204.425L323.773 204.026L325.429 203.229C325.989 202.99 326.573 202.807 327.141 202.591C327.706 202.37 328.283 202.181 328.869 202.025C330.021 201.681 331.194 201.415 332.381 201.228C338.892 200.166 345.572 201.263 351.397 204.35C357.222 207.436 361.871 212.342 364.629 218.315C366.17 221.642 367.084 225.223 367.325 228.879C367.435 230.547 367.416 232.221 367.269 233.887C367.09 235.429 366.822 236.959 366.469 238.471C365.209 243.289 362.759 247.716 359.341 251.348V251.284C359.501 254.322 359.621 256.65 359.701 258.237C359.741 259.034 359.765 259.601 359.789 260.007V260.597C359.789 260.597 359.789 260.382 359.741 259.975C359.693 259.569 359.669 258.971 359.613 258.189C359.509 256.595 359.365 254.306 359.165 251.3C362.531 247.669 364.939 243.26 366.173 238.471C366.526 236.967 366.793 235.445 366.973 233.91C367.115 232.261 367.128 230.603 367.013 228.951C366.769 225.335 365.861 221.795 364.333 218.506C362.57 214.728 360.034 211.358 356.889 208.612C353.744 205.866 350.059 203.805 346.069 202.559C341.646 201.224 336.975 200.913 332.413 201.65C331.24 201.842 330.08 202.108 328.941 202.448C328.363 202.605 327.794 202.794 327.237 203.014C326.677 203.221 326.101 203.405 325.549 203.644L323.909 204.441L323.109 204.84L322.309 205.31L320.709 206.243C320.205 206.594 319.717 206.969 319.221 207.327C315.365 210.204 312.279 213.983 310.237 218.331C308.256 222.462 307.268 226.996 307.349 231.574C307.441 235.884 308.461 240.123 310.341 244.005C313.683 250.921 319.584 256.276 326.805 258.947C328.368 259.526 329.972 259.984 331.605 260.318C338.031 261.562 344.69 260.668 350.557 257.775L351.061 257.527L350.645 257.902V257.775L357.453 259.943L359.213 260.51C359.533 260.597 359.741 260.661 359.741 260.661Z" fill="#263238"/>
<path d="M324.894 235.13C325.401 235.138 325.903 235.035 326.366 234.827C326.521 234.757 326.685 234.708 326.854 234.684V242.059C326.854 242.319 326.957 242.569 327.142 242.753C327.326 242.937 327.577 243.04 327.838 243.04H335.534V242.171C335.534 241.971 335.493 241.773 335.414 241.589C335.234 241.151 335.153 240.679 335.175 240.206C335.197 239.734 335.322 239.271 335.541 238.852C335.761 238.432 336.069 238.065 336.445 237.776C336.821 237.487 337.255 237.283 337.718 237.178C338.181 237.073 338.661 237.07 339.125 237.168C339.59 237.267 340.027 237.465 340.407 237.749C340.787 238.033 341.1 238.396 341.325 238.812C341.55 239.229 341.681 239.689 341.71 240.162C341.748 240.71 341.643 241.26 341.406 241.756C341.305 241.971 341.25 242.205 341.246 242.442V243.056L349.038 243.104C349.359 243.104 349.667 242.977 349.895 242.752C350.123 242.526 350.252 242.22 350.254 241.9V235.067H350.966C351.56 235.495 352.261 235.752 352.992 235.81C353.723 235.868 354.456 235.725 355.111 235.396C355.766 235.067 356.318 234.564 356.705 233.944C357.093 233.323 357.302 232.608 357.31 231.877C357.308 231.183 357.124 230.501 356.776 229.9C356.429 229.298 355.93 228.797 355.329 228.447C354.727 228.097 354.045 227.909 353.348 227.902C352.652 227.895 351.966 228.07 351.358 228.409C351.251 228.421 351.144 228.421 351.038 228.409H350.35V220.778C350.35 220.458 350.223 220.151 349.996 219.924C349.77 219.697 349.463 219.569 349.142 219.566L327.854 219.503C327.592 219.503 327.341 219.606 327.155 219.789C326.969 219.973 326.864 220.223 326.862 220.483V228.249C326.73 228.215 326.602 228.17 326.478 228.114C325.794 227.777 325.021 227.665 324.27 227.795C323.368 227.954 322.558 228.442 321.999 229.165C321.44 229.889 321.172 230.794 321.249 231.703C321.325 232.613 321.739 233.461 322.411 234.082C323.082 234.703 323.962 235.051 324.878 235.059L324.894 235.13Z" fill="#3847FF"/>
<path d="M194.781 45.0222C168.333 33.8755 135.333 33.3572 108.437 43.3637C35.6367 70.5289 42.6847 156.473 42.6847 156.473C42.6847 156.473 22.4607 208.587 18.4687 216.808C18.0346 217.697 17.8076 218.673 17.8047 219.662C17.8036 220.516 17.9719 221.361 18.2999 222.15C18.6279 222.938 19.1091 223.654 19.7158 224.257C20.3225 224.859 21.0427 225.336 21.8351 225.66C22.6275 225.984 23.4763 226.149 24.3327 226.144H45.6447C45.6447 226.144 45.0527 260.98 45.6447 276.337C46.2367 291.693 64.6047 292.865 64.6047 292.865L103.109 290.473L92.3327 373.819H243.109L226.733 259.314L251.669 176.877C254.763 167.143 256.702 157.081 257.445 146.897C261.533 87.3207 222.501 56.7031 194.781 45.0222Z" fill="#E0E0E0"/>
<path d="M194.78 45.0223L195.82 45.4608C196.508 45.7559 197.54 46.1944 198.876 46.8323C202.82 48.6815 206.651 50.7608 210.348 53.0594C211.572 53.793 212.82 54.6541 214.156 55.5312C215.492 56.4082 216.852 57.3889 218.252 58.4653C221.324 60.7585 224.262 63.2235 227.052 65.8487C234.046 72.3419 240.048 79.8204 244.868 88.0464C250.81 98.3199 254.771 109.61 256.548 121.335C258.601 135.17 258.205 149.257 255.38 162.956C254.644 166.624 253.738 170.31 252.66 174.015C251.583 177.72 250.452 181.467 249.268 185.257C246.964 192.864 244.599 200.686 242.172 208.723C237.308 224.786 232.199 241.669 226.844 259.369V259.29C231.844 294.149 237.396 332.844 243.276 373.803V374.034H92.0764V373.803C92.4204 371.124 92.7964 368.221 93.1724 365.311C96.4524 339.884 99.6764 314.888 102.828 290.473L103.044 290.705L64.5404 293.097C61.1713 292.775 57.8873 291.855 54.8444 290.378C51.8038 288.923 49.2606 286.607 47.5324 283.72C46.6945 282.271 46.1076 280.691 45.7964 279.048C45.5364 277.418 45.4107 275.77 45.4204 274.12C45.3244 270.851 45.2764 267.59 45.2524 264.345C45.1644 251.372 45.3004 238.623 45.4924 226.121L45.6844 226.312H24.3324C23.777 226.314 23.2234 226.247 22.6844 226.113C21.6034 225.858 20.6062 225.331 19.7884 224.582C18.7588 223.66 18.0435 222.441 17.7423 221.094C17.4411 219.748 17.5691 218.341 18.1084 217.071L18.7644 215.62C19.2124 214.663 19.6204 213.69 20.0364 212.717C21.6844 208.842 23.2364 204.975 24.8364 201.124C31.0444 185.744 36.8924 170.786 42.5084 156.386V156.466C42.1015 148.038 42.4738 139.59 43.6204 131.23C44.1564 127.14 44.9084 123.137 45.7324 119.206C46.5564 115.275 47.6044 111.432 48.8284 107.701C51.1061 100.418 54.1021 93.3773 57.7724 86.683C61.2395 80.3627 65.4098 74.4518 70.2044 69.0619C74.7093 64.0247 79.7404 59.4807 85.2124 55.5072L89.2124 52.7883C89.8684 52.3179 90.5644 51.9352 91.2524 51.5365L93.3004 50.3485L95.3244 49.1684C95.9964 48.7777 96.7084 48.4668 97.3964 48.116L101.508 46.1147C102.884 45.5007 104.276 44.9585 105.644 44.3924C107.012 43.8263 108.348 43.2363 109.724 42.7977C111.1 42.3592 112.444 41.8489 113.788 41.4184L117.788 40.2543C119.116 39.8476 120.46 39.6004 121.788 39.2735C123.116 38.9466 124.396 38.6436 125.692 38.4284L129.532 37.7187L133.292 37.2005L135.14 36.9453L136.964 36.7779L140.548 36.451L144.036 36.2835C145.18 36.2277 146.308 36.156 147.42 36.1799C149.644 36.1799 151.804 36.1241 153.884 36.2516L156.948 36.3792C157.956 36.435 158.932 36.5467 159.9 36.6184C166.438 37.1727 172.922 38.2391 179.292 39.8077C183.22 40.8308 187.092 42.055 190.892 43.4755C193.452 44.4801 194.764 45.0143 194.764 45.0143L190.868 43.5233C187.062 42.1257 183.188 40.9202 179.26 39.9114C172.897 38.3591 166.421 37.306 159.892 36.7619C158.924 36.6902 157.94 36.5785 156.94 36.5307L153.932 36.4191C151.852 36.2915 149.7 36.3473 147.484 36.3553C146.372 36.3553 145.244 36.4031 144.1 36.4589L140.62 36.6344L137.044 36.9692L135.22 37.1367L133.372 37.3918L129.62 37.9181L125.788 38.6357C124.492 38.8509 123.196 39.1619 121.892 39.4808C120.588 39.7998 119.236 40.0549 117.892 40.4695L113.892 41.6257C112.548 42.0642 111.204 42.5426 109.836 43.013C108.468 43.4835 107.132 44.0496 105.764 44.6077C104.396 45.1658 103.012 45.716 101.636 46.3299L97.5484 48.3552C96.8604 48.706 96.1564 49.0169 95.4844 49.3997L93.4604 50.5797L91.4204 51.7677C90.7404 52.1664 90.0444 52.5651 89.3964 53.0196L85.3964 55.7305C79.9365 59.6919 74.9137 64.2195 70.4124 69.2373C65.6431 74.6075 61.4894 80.491 58.0284 86.7787C54.3764 93.484 51.3966 100.532 49.1324 107.82C47.9164 111.536 46.9644 115.387 46.0604 119.294C45.1564 123.201 44.4604 127.219 43.9564 131.294C42.8159 139.63 42.449 148.054 42.8604 156.458V156.497V156.537C37.2604 170.943 31.3778 185.861 25.2124 201.292C23.6604 205.135 22.0764 209.01 20.4124 212.893C19.9964 213.858 19.6124 214.838 19.1404 215.795C18.6385 216.712 18.2771 217.698 18.0684 218.721C17.9142 219.745 18.0168 220.79 18.3673 221.764C18.7177 222.738 19.3049 223.61 20.0764 224.303C20.8495 225.009 21.7915 225.506 22.8124 225.746C23.8674 225.939 24.9423 226.001 26.0124 225.929H45.8444V226.129C45.6524 238.631 45.5244 251.38 45.6124 264.345C45.6124 267.59 45.6844 270.843 45.7804 274.112C45.7701 275.741 45.8932 277.367 46.1484 278.976C46.4585 280.574 47.0316 282.109 47.8444 283.521C49.5574 286.328 52.0614 288.572 55.0444 289.971C58.0397 291.424 61.2723 292.328 64.5884 292.642L103.1 290.25H103.348V290.497C100.196 314.912 96.9484 339.932 93.7004 365.343C93.3244 368.253 92.9484 371.148 92.6044 373.827L92.3964 373.595H243.108L242.916 373.819C237.052 332.86 231.516 294.165 226.524 259.306V259.266V259.226L241.876 208.587C244.314 200.55 246.684 192.731 248.988 185.13L252.396 173.895C253.463 170.174 254.37 166.496 255.116 162.86C257.944 149.194 258.35 135.141 256.316 121.335C254.561 109.635 250.624 98.3661 244.708 88.1102C239.905 79.909 233.931 72.4476 226.972 65.9603C224.18 63.3348 221.242 60.8672 218.172 58.569C216.78 57.4926 215.388 56.5517 214.092 55.6268C212.796 54.7019 211.516 53.8887 210.284 53.1551C206.599 50.8544 202.782 48.7698 198.852 46.912C197.524 46.2661 196.452 45.8196 195.812 45.5167L194.78 45.0223Z" fill="#263238"/>
<path d="M197.429 373.819C197.429 373.819 188.077 308.015 186.653 301.126C183.229 284.597 173.853 283.585 168.253 277.931C162.653 272.278 156.077 267.383 152.253 260.43C150.194 256.678 149.058 252.493 148.937 248.218C148.816 243.944 149.715 239.701 151.558 235.84C153.402 231.978 156.138 228.608 159.542 226.005C162.946 223.402 166.922 221.641 171.141 220.866C184.813 218.355 200.021 226.232 212.253 219.662C219.581 215.731 223.533 207.646 226.581 199.936C235.285 177.954 240.589 154.233 238.533 130.696C236.477 107.159 226.493 83.7887 208.533 68.3683C189.701 52.1984 163.309 46.0429 138.733 49.6549C114.157 53.2668 95.6532 63.656 77.9332 81.022C69.3652 89.4019 58.7332 109.726 60.7572 121.503C64.5092 143.581 97.2772 142.871 101.229 164.917C103.717 178.847 91.6932 190.36 81.4212 200.128C71.6532 209.409 69.7732 217.095 69.7732 217.095C67.6673 222.219 66.6336 227.717 66.7354 233.254C66.8371 238.79 68.0723 244.247 70.3651 249.291C72.6578 254.334 75.96 258.858 80.069 262.585C84.1781 266.311 89.0075 269.162 94.2612 270.963C102.853 273.921 110.261 273.291 118.789 276.44C127.317 279.59 131.341 287.029 131.485 296.095C131.629 304.985 129.005 374.752 129.005 374.752L197.429 373.819Z" fill="#FAFAFA"/>
<path d="M145.325 300.464C146.536 299.285 147.9 298.274 149.381 297.458L149.269 292.786L156.789 290.904L158.917 295.066C160.609 295.089 162.29 295.336 163.917 295.8L167.117 292.419L173.773 296.406L172.333 300.855C173.515 302.062 174.53 303.421 175.349 304.897L180.037 304.786L181.925 312.28L177.749 314.393C177.726 316.082 177.479 317.761 177.013 319.385L180.405 322.574L176.405 329.208L171.957 327.757C170.752 328.928 169.4 329.939 167.933 330.763L168.045 335.427L160.525 337.317L158.397 333.155C156.705 333.138 155.024 332.894 153.397 332.429L150.197 335.81L143.541 331.823L144.997 327.39C143.817 326.178 142.803 324.816 141.981 323.339L137.293 323.451L135.405 315.956L139.581 313.843C139.605 312.157 139.852 310.481 140.317 308.86L136.925 305.671L140.925 299.037L145.381 300.488L145.325 300.464ZM151.725 309.554C150.881 310.961 150.474 312.587 150.556 314.225C150.639 315.863 151.207 317.44 152.189 318.757C153.17 320.073 154.522 321.069 156.072 321.62C157.622 322.171 159.301 322.251 160.897 321.851C162.493 321.45 163.934 320.587 165.037 319.371C166.141 318.154 166.858 316.638 167.097 315.016C167.337 313.393 167.088 311.736 166.382 310.254C165.677 308.772 164.546 307.532 163.133 306.691C162.193 306.129 161.15 305.758 160.066 305.6C158.981 305.441 157.876 305.498 156.813 305.767C155.75 306.036 154.752 306.512 153.874 307.167C152.997 307.823 152.259 308.644 151.701 309.585L151.725 309.554Z" fill="#E0E0E0"/>
<path d="M91.7486 225.467C92.9701 223.87 94.3985 222.44 95.9966 221.217L95.0446 215.739L103.573 212.207L106.773 216.744C108.771 216.473 110.798 216.473 112.797 216.744L115.997 212.199L124.533 215.708L123.597 221.185C125.199 222.403 126.63 223.83 127.853 225.427L133.357 224.478L136.901 232.97L132.349 236.159C132.617 238.149 132.617 240.165 132.349 242.155L136.909 245.344L133.389 253.852L127.893 252.919C126.668 254.517 125.237 255.946 123.637 257.169L124.589 262.647L116.109 266.179L112.909 261.642C110.912 261.909 108.889 261.909 106.893 261.642L103.693 266.187L95.1646 262.678L96.1006 257.201C94.4958 255.983 93.0618 254.556 91.8366 252.959L86.3406 253.908L82.7326 245.448L87.2846 242.259C87.0125 240.269 87.0125 238.252 87.2846 236.263L82.7246 233.073L86.2446 224.574L91.7406 225.507L91.7486 225.467ZM100.845 235.035C100.097 236.84 99.9027 238.825 100.287 240.74C100.671 242.654 101.617 244.412 103.004 245.791C104.391 247.17 106.157 248.108 108.079 248.487C110.001 248.865 111.992 248.667 113.801 247.917C115.61 247.168 117.156 245.9 118.242 244.275C119.328 242.65 119.906 240.74 119.903 238.787C119.899 236.835 119.315 234.927 118.224 233.305C117.133 231.684 115.584 230.421 113.773 229.677C112.568 229.183 111.277 228.932 109.975 228.937C108.672 228.941 107.384 229.202 106.182 229.705C104.981 230.207 103.892 230.94 102.976 231.863C102.06 232.786 101.335 233.88 100.845 235.083V235.035Z" fill="#E0E0E0"/>
<path d="M131.261 264.584C131.832 263.829 132.505 263.155 133.261 262.583L132.813 259.999L136.813 258.333L138.333 260.478C139.275 260.35 140.23 260.35 141.173 260.478L142.685 258.333L146.685 259.991L146.245 262.575C146.998 263.146 147.671 263.817 148.245 264.568L150.837 264.122L152.509 268.108L150.365 269.623C150.488 270.563 150.488 271.514 150.365 272.454L152.509 273.961L150.853 277.947L148.261 277.509C147.682 278.261 147.007 278.934 146.253 279.51L146.733 282.125L142.733 283.792L141.213 281.655C140.273 281.782 139.32 281.782 138.381 281.655L136.861 283.792L132.861 282.141L133.301 279.558C132.544 278.986 131.869 278.316 131.293 277.565L128.701 278.011L127.029 274.024L129.173 272.501C129.048 271.565 129.048 270.616 129.173 269.679L127.021 268.172L128.685 264.185L131.277 264.624L131.261 264.584ZM135.541 269.105C135.187 269.956 135.096 270.893 135.277 271.796C135.458 272.7 135.904 273.529 136.559 274.18C137.213 274.83 138.046 275.273 138.953 275.451C139.86 275.63 140.799 275.536 141.653 275.183C142.506 274.829 143.235 274.23 143.747 273.464C144.26 272.697 144.532 271.796 144.53 270.874C144.529 269.953 144.253 269.053 143.738 268.288C143.222 267.523 142.491 266.928 141.637 266.577C141.069 266.344 140.461 266.224 139.847 266.224C139.234 266.225 138.626 266.346 138.059 266.58C137.492 266.815 136.977 267.159 136.544 267.592C136.11 268.025 135.767 268.539 135.533 269.105H135.541Z" fill="#E0E0E0"/>
<path d="M188.524 362.823L182.42 363.884C181.059 362.111 179.466 360.526 177.684 359.172L178.732 353.088L169.252 349.189L165.684 354.236C163.465 353.941 161.216 353.941 158.996 354.236L155.412 349.197L145.932 353.128L146.988 359.219C145.214 360.576 143.627 362.161 142.268 363.932L136.164 362.903L132.252 372.344L134.364 373.835L152.892 373.516C155.204 367.934 162.356 366.977 166.74 368.636C167.969 369.071 169.091 369.758 170.036 370.654C170.98 371.55 171.724 372.633 172.22 373.835H191.132L192.46 372.24L188.524 362.823Z" fill="#E0E0E0"/>
<path d="M138.596 213.172C139.077 212.543 139.639 211.98 140.268 211.497L139.9 209.337L143.26 207.949L144.532 209.735C145.329 209.625 146.136 209.625 146.932 209.735L148.172 207.973L151.532 209.353L151.164 211.513C151.796 211.995 152.361 212.558 152.844 213.188L155.012 212.813L156.412 216.162L154.612 217.43C154.723 218.223 154.723 219.028 154.612 219.822L156.412 221.081L155.02 224.438L152.852 224.071C152.372 224.701 151.809 225.264 151.18 225.746L151.548 227.907L148.188 229.294L146.916 227.508C146.12 227.618 145.313 227.618 144.516 227.508L143.244 229.302L139.884 227.915L140.252 225.762C139.621 225.28 139.056 224.717 138.572 224.087L136.404 224.462L135.004 221.113L136.804 219.846C136.694 219.052 136.694 218.247 136.804 217.454L135.004 216.194L136.396 212.837L138.564 213.204L138.596 213.172ZM142.18 216.959C141.886 217.67 141.811 218.453 141.963 219.207C142.114 219.961 142.487 220.653 143.034 221.196C143.58 221.74 144.276 222.109 145.033 222.258C145.79 222.407 146.575 222.329 147.288 222.034C148.001 221.739 148.61 221.24 149.038 220.6C149.466 219.96 149.695 219.208 149.694 218.439C149.694 217.67 149.465 216.918 149.036 216.279C148.607 215.639 147.997 215.141 147.284 214.846C146.81 214.65 146.302 214.55 145.788 214.55C145.275 214.55 144.767 214.651 144.293 214.848C143.819 215.044 143.388 215.331 143.026 215.694C142.663 216.056 142.376 216.486 142.18 216.959Z" fill="#E0E0E0"/>
<path d="M99.301 177.914C93.957 186.987 85.237 195.096 77.021 204.226H137.061C137.061 204.226 110.613 180.417 99.301 177.914Z" fill="#EBEBEB"/>
<path d="M227.925 196.013C227.869 195.447 208.789 177.85 199.253 179.963C189.717 182.076 162.349 204.066 162.349 204.066L224.573 204.202L227.925 196.013Z" fill="#EBEBEB"/>
<path d="M77.021 204.234C77.021 204.122 110.053 204.026 150.789 204.026C191.525 204.026 224.573 204.122 224.573 204.234C224.573 204.345 191.549 204.441 150.789 204.441C110.029 204.441 77.021 204.345 77.021 204.234Z" fill="#263238"/>
<path d="M77.9326 80.4798C77.4606 80.9342 76.9886 81.4286 76.5166 81.9548C75.7966 82.7522 75.1486 83.5495 74.5886 84.2193C73.7886 85.2478 72.9886 86.3481 72.1406 87.5122L134.605 129.524L143.621 122.109L102.637 61.3916C93.6181 66.6771 85.3159 73.092 77.9326 80.4798Z" fill="#3847FF"/>
<path opacity="0.6" d="M77.9326 80.4798C77.4606 80.9342 76.9886 81.4286 76.5166 81.9548C75.7966 82.7522 75.1486 83.5495 74.5886 84.2193C73.7886 85.2478 72.9886 86.3481 72.1406 87.5122L134.605 129.524L143.621 122.109L102.637 61.3916C93.6181 66.6771 85.3159 73.092 77.9326 80.4798Z" fill="white"/>
<path d="M60.748 120.96C62.836 133.215 73.86 138.454 83.9481 144.45L130.428 145.247L131.972 131.916L61.0841 112.293C60.4645 115.14 60.3508 118.074 60.748 120.96Z" fill="#3847FF"/>
<path opacity="0.6" d="M60.748 120.96C62.836 133.215 73.86 138.454 83.9481 144.45L130.428 145.247L131.972 131.916L61.0841 112.293C60.4645 115.14 60.3508 118.074 60.748 120.96Z" fill="white"/>
<path d="M142.533 48.6581C141.277 48.7936 140.021 48.9451 138.773 49.1285C136.741 49.4235 134.773 49.7903 132.805 50.181L144.205 112.373L160.333 114.869L173.461 51.1777C163.925 47.7651 151.205 47.9564 142.533 48.6581Z" fill="#3847FF"/>
<path opacity="0.6" d="M142.533 48.6581C141.277 48.7936 140.021 48.9451 138.773 49.1285C136.741 49.4235 134.773 49.7903 132.805 50.181L144.205 112.373L160.333 114.869L173.461 51.1777C163.925 47.7651 151.205 47.9564 142.533 48.6581Z" fill="white"/>
<path d="M176.029 118.592L232.629 103.443C227.829 90.3587 220.245 78.3668 209.917 69.0619L172.669 113.258L176.029 118.592Z" fill="#3847FF"/>
<path opacity="0.6" d="M176.029 118.592L232.629 103.443C227.829 90.3587 220.245 78.3668 209.917 69.0619L172.669 113.258L176.029 118.592Z" fill="white"/>
<path d="M238.572 130.17C238.171 125.611 237.473 121.083 236.484 116.615L173.932 136.07L168.124 149.983L238.356 153.021C239.128 145.426 239.2 137.777 238.572 130.17Z" fill="#3847FF"/>
<path opacity="0.6" d="M238.572 130.17C238.171 125.611 237.473 121.083 236.484 116.615L173.932 136.07L168.124 149.983L238.356 153.021C239.128 145.426 239.2 137.777 238.572 130.17Z" fill="white"/>
<path d="M197.428 373.819L129.196 373.922H129.084V373.819C129.46 362.377 129.884 349.572 130.34 335.547C130.548 328.52 130.764 321.197 130.988 313.58C131.084 309.769 131.178 305.886 131.268 301.931C131.268 297.984 131.612 293.918 130.676 289.931C129.841 285.85 127.692 282.152 124.556 279.398C121.356 276.608 117.116 275.3 112.892 274.343C108.668 273.387 104.188 273.004 99.7642 272.063C90.5603 270.249 82.2524 265.361 76.2122 258.205C73.0706 254.532 70.6304 250.316 69.0122 245.767C65.6405 236.269 65.8538 225.873 69.6122 216.521C70.2262 214.571 71.0637 212.698 72.1083 210.939C73.126 209.131 74.2702 207.397 75.5322 205.749C76.8136 204.105 78.1864 202.535 79.6442 201.045C81.1162 199.554 82.6522 198.126 84.1642 196.659C87.2482 193.748 90.1649 190.665 92.9002 187.426C95.6884 184.146 97.9647 180.467 99.6522 176.511C100.037 175.503 100.361 174.472 100.62 173.425C100.74 172.899 100.884 172.372 100.988 171.83L101.188 170.236C101.188 169.964 101.26 169.693 101.284 169.438V168.641V167.046L101.092 165.452C101.048 164.914 100.959 164.38 100.828 163.857C99.896 159.514 97.6645 155.555 94.4282 152.503C91.2282 149.353 87.4202 146.922 83.5322 144.609C79.6442 142.297 75.6042 140.088 71.8442 137.433C69.9441 136.097 68.1713 134.589 66.5482 132.928C64.9152 131.244 63.5452 129.325 62.4843 127.235C61.437 125.124 60.7426 122.856 60.4283 120.522C60.3723 119.932 60.3003 119.342 60.2603 118.752V116.982C60.2658 116.392 60.3112 115.803 60.3963 115.22C60.4683 114.638 60.5082 114.04 60.6122 113.457C61.4767 108.779 62.9225 104.225 64.9163 99.9028C66.8788 95.5312 69.2407 91.3488 71.9723 87.4086C73.3389 85.4139 74.8439 83.5169 76.4762 81.7316L77.7322 80.416L79.0522 79.1641C79.9402 78.3668 80.7882 77.4738 81.7082 76.6765C85.3263 73.3279 89.141 70.1968 93.1322 67.2998C97.1213 64.4128 101.304 61.802 105.652 59.486C110.055 57.1882 114.625 55.2238 119.324 53.6096C121.284 52.892 123.324 52.3419 125.292 51.7359L128.316 50.9386L129.836 50.5558L131.356 50.2369C135.405 49.3688 139.5 48.7246 143.62 48.3074C145.676 48.1798 147.732 47.9486 149.788 47.9486L152.868 47.8848L155.948 47.9725L157.484 48.0123L159.012 48.1319L162.076 48.3632L165.108 48.7539L166.628 48.9452L168.132 49.2083L171.132 49.7426C172.124 49.9499 173.116 50.197 174.1 50.4203C176.092 50.8269 178.012 51.4648 179.964 52.015C183.795 53.2186 187.538 54.6866 191.164 56.4083C194.771 58.1092 198.247 60.0733 201.564 62.2846L203.964 64.0068C204.364 64.3019 204.764 64.573 205.164 64.8759L206.324 65.8088L208.628 67.6666L210.812 69.6599L211.908 70.6566L212.94 71.7091L214.996 73.814L216.924 76.0227L217.932 77.1389L218.828 78.2871L220.628 80.5914L222.3 82.9834L223.1 84.1794C223.372 84.578 223.62 84.9767 223.9 85.4073L225.436 87.8631C229.302 94.4647 232.379 101.494 234.604 108.809C236.759 115.974 238.154 123.344 238.764 130.799C239.333 138.084 239.269 145.404 238.572 152.678C237.861 159.768 236.666 166.8 234.996 173.728C233.369 180.464 231.368 187.105 229.004 193.621C226.604 200 224.324 206.427 220.46 211.888C219.499 213.241 218.429 214.512 217.26 215.692C216.076 216.845 214.77 217.866 213.364 218.737C210.54 220.387 207.396 221.42 204.14 221.767C200.947 222.082 197.728 222.055 194.54 221.688C191.388 221.385 188.292 220.89 185.212 220.563C182.173 220.168 179.109 219.99 176.044 220.029L173.788 220.157L171.556 220.468C170.085 220.705 168.638 221.079 167.236 221.584C161.717 223.544 156.968 227.206 153.676 232.037C152.093 234.361 150.901 236.928 150.148 239.635C148.707 244.898 148.857 250.468 150.58 255.646C151.421 258.125 152.617 260.469 154.132 262.607C157.116 266.84 160.924 270.229 164.532 273.594C165.436 274.431 166.316 275.276 167.188 276.121C168.06 276.967 168.884 277.836 169.796 278.593C171.636 280.1 173.652 281.32 175.548 282.66C177.447 283.944 179.176 285.463 180.692 287.18C182.131 288.875 183.338 290.752 184.284 292.762C185.91 296.623 186.988 300.691 187.484 304.849C188.116 308.836 188.692 312.647 189.236 316.315C190.3 323.65 191.276 330.356 192.156 336.384C193.868 348.448 195.196 357.816 196.1 364.171C196.54 367.36 196.9 369.752 197.1 371.403C197.3 373.053 197.412 373.723 197.428 373.867C197.348 373.3 195.484 360.487 191.996 336.392C191.106 330.364 190.119 323.677 189.036 316.331C188.503 312.663 187.914 308.841 187.268 304.865C186.773 300.728 185.696 296.68 184.068 292.842C183.129 290.862 181.935 289.013 180.516 287.34C179.008 285.638 177.291 284.132 175.404 282.859C173.516 281.527 171.492 280.315 169.636 278.785C168.708 277.987 167.86 277.15 167.004 276.305C166.148 275.46 165.252 274.622 164.356 273.785C160.78 270.428 156.956 267.04 153.956 262.766C152.43 260.607 151.22 258.241 150.364 255.742C148.613 250.509 148.457 244.877 149.916 239.556C150.673 236.814 151.876 234.215 153.476 231.861C156.801 226.974 161.601 223.268 167.18 221.281C168.601 220.77 170.066 220.391 171.556 220.149L173.812 219.838L176.092 219.702C179.173 219.663 182.252 219.839 185.308 220.228C191.46 220.914 197.748 222.142 204.124 221.424C207.306 221.066 210.376 220.042 213.132 218.418C214.517 217.564 215.802 216.558 216.964 215.42C218.131 214.26 219.201 213.006 220.164 211.673C223.98 206.259 226.284 199.857 228.652 193.478C231.02 186.977 233.029 180.352 234.668 173.632C236.33 166.723 237.516 159.709 238.22 152.638C238.913 145.386 238.977 138.087 238.412 130.823C237.795 123.398 236.401 116.057 234.252 108.921C232.041 101.637 228.98 94.636 225.132 88.0624L223.604 85.6146C223.34 85.2079 223.092 84.8172 222.804 84.3947L222.004 83.2066L220.34 80.8146L218.556 78.5263L217.652 77.3781L216.7 76.2858L214.732 74.1011L212.692 72.0121L211.66 70.9596L210.58 69.9709L208.404 67.9935L206.108 66.1437L204.988 65.2507C204.604 64.9477 204.188 64.6766 203.796 64.3816L201.396 62.6753C198.092 60.4734 194.629 58.5173 191.036 56.8229C187.412 55.1049 183.669 53.6474 179.836 52.4615C177.9 51.9272 175.988 51.2894 174.004 50.8668C173.02 50.6435 172.036 50.4043 171.052 50.197L168.06 49.6628L166.564 49.3997L165.052 49.2083L162.028 48.8256L158.988 48.5944L157.46 48.4748H155.932L152.868 48.3871L149.804 48.4509C147.748 48.4509 145.708 48.6821 143.66 48.8097C139.555 49.221 135.477 49.8626 131.444 50.7312L129.924 51.0502L128.42 51.4249L125.404 52.2223C123.42 52.8203 121.404 53.3624 119.46 54.08C114.785 55.6852 110.239 57.6416 105.86 59.9325C101.525 62.2144 97.3528 64.7905 93.3722 67.6427C89.4314 70.495 85.6598 73.5726 82.0762 76.8599C81.1562 77.6572 80.3083 78.5183 79.4283 79.3396L78.1163 80.5914L76.8682 81.891C75.2521 83.6629 73.7606 85.5437 72.4042 87.5202C69.6805 91.4372 67.329 95.5987 65.3802 99.9506C63.4095 104.227 61.9825 108.733 61.1323 113.362C61.0283 113.944 60.9883 114.526 60.9163 115.1C60.8312 115.676 60.7858 116.256 60.7802 116.838V118.584C60.8202 119.158 60.8922 119.732 60.9482 120.307C61.254 122.597 61.935 124.822 62.9643 126.893C64.006 128.944 65.3548 130.826 66.9643 132.474C68.5709 134.116 70.3249 135.608 72.2042 136.931C75.9322 139.602 79.9483 141.795 83.8603 144.107C87.7723 146.419 91.6282 148.891 94.8362 152.08C98.1185 155.191 100.38 159.219 101.324 163.634C101.457 164.173 101.545 164.722 101.588 165.276L101.78 166.927V169.422C101.78 169.693 101.716 169.964 101.684 170.22L101.476 171.862C101.372 172.396 101.228 172.931 101.108 173.457C100.843 174.523 100.512 175.573 100.116 176.598C98.4214 180.594 96.1228 184.307 93.3002 187.609C90.5479 190.864 87.6097 193.957 84.5002 196.874C82.9882 198.342 81.4522 199.777 79.9882 201.252C78.5365 202.73 77.1716 204.29 75.9002 205.924C74.6361 207.539 73.4892 209.242 72.4682 211.019C71.4037 212.77 70.5524 214.641 69.9322 216.593C66.2047 225.862 65.9886 236.167 69.3242 245.584C70.9304 250.091 73.3487 254.268 76.4603 257.91C82.4441 265.039 90.6861 269.924 99.8282 271.76C104.228 272.693 108.628 273.092 112.956 274.048C115.091 274.505 117.188 275.123 119.228 275.898C122.22 277.03 124.871 278.908 126.927 281.352C128.983 283.797 130.376 286.726 130.972 289.86C131.916 293.902 131.588 297.984 131.564 301.923C131.54 305.862 131.364 309.769 131.268 313.58C131.039 321.192 130.818 328.514 130.604 335.547C130.124 349.588 129.692 362.393 129.3 373.819L129.196 373.715L197.428 373.819Z" fill="#263238"/>
<path d="M185.638 129.691C185.815 123.608 184.35 117.589 181.395 112.264C178.441 106.938 174.106 102.501 168.843 99.4151C163.581 96.3296 157.583 94.7093 151.477 94.7234C145.371 94.7374 139.381 96.3853 134.133 99.495C128.885 102.605 124.57 107.062 121.641 112.401C118.711 117.741 117.274 123.766 117.479 129.848C117.684 135.93 119.525 141.845 122.807 146.976C126.09 152.108 130.695 156.266 136.142 159.017C136.022 163.044 135.894 167.588 135.894 167.588L165.766 168.449C165.766 168.449 166.086 163.665 166.278 159.352C171.927 156.658 176.723 152.464 180.138 147.232C183.553 141.999 185.456 135.931 185.638 129.691Z" fill="#3847FF"/>
<path d="M161.291 168.314C161.291 168.314 161.291 168.17 161.243 167.891C161.195 167.612 161.187 167.19 161.139 166.655C161.051 165.563 160.939 163.953 160.827 161.871C160.603 157.717 160.371 151.705 160.515 144.274C160.515 142.417 160.603 140.463 160.691 138.438C160.739 137.425 160.795 136.397 160.843 135.336C160.845 134.254 161.012 133.179 161.339 132.147C161.534 131.611 161.855 131.13 162.275 130.744C162.487 130.539 162.738 130.38 163.013 130.274C163.287 130.169 163.581 130.12 163.875 130.13C164.175 130.164 164.463 130.263 164.72 130.42C164.977 130.577 165.197 130.788 165.363 131.039C165.706 131.536 165.903 132.118 165.931 132.721C165.93 133.33 165.788 133.93 165.518 134.476C165.248 135.022 164.855 135.499 164.371 135.87C163.4 136.651 162.209 137.111 160.963 137.186C159.688 137.267 158.417 136.973 157.307 136.341C156.182 135.674 155.271 134.7 154.683 133.534C154.073 132.36 153.759 131.054 153.771 129.731C153.767 129.056 153.875 128.385 154.091 127.746C154.296 127.077 154.744 126.508 155.347 126.151C155.669 125.984 156.035 125.92 156.395 125.968C156.751 126.017 157.091 126.148 157.387 126.35C157.974 126.75 158.41 127.334 158.627 128.009C158.85 128.667 158.974 129.355 158.995 130.05C158.995 130.736 158.995 131.429 158.995 132.123C158.932 133.526 158.663 134.912 158.195 136.237C157.734 137.595 156.903 138.799 155.795 139.714C155.227 140.16 154.585 140.505 153.899 140.734C153.21 140.965 152.475 141.03 151.755 140.926C151.042 140.813 150.369 140.525 149.795 140.088C149.229 139.649 148.748 139.108 148.379 138.494C147.672 137.301 147.166 135.999 146.883 134.643C146.723 133.981 146.595 133.311 146.483 132.649C146.353 131.981 146.278 131.304 146.259 130.624C146.241 129.93 146.439 129.247 146.827 128.671C147.03 128.375 147.305 128.136 147.627 127.977C147.951 127.813 148.324 127.774 148.675 127.865C149.015 127.961 149.319 128.155 149.547 128.423C149.765 128.683 149.948 128.97 150.091 129.277C150.353 129.881 150.529 130.52 150.611 131.174C151.065 133.697 150.65 136.299 149.435 138.557C148.776 139.643 147.844 140.539 146.731 141.157C145.686 141.783 144.463 142.047 143.251 141.906C142.1 141.717 141.06 141.109 140.331 140.2C139.589 139.333 139.143 138.252 139.059 137.114C139.018 136.56 139.083 136.002 139.251 135.472C139.405 134.934 139.738 134.464 140.195 134.14C140.436 133.998 140.716 133.934 140.995 133.957C141.275 133.99 141.536 134.113 141.739 134.308C142.106 134.695 142.361 135.175 142.475 135.695C142.688 136.674 142.777 137.676 142.739 138.677C142.739 139.65 142.787 140.599 142.803 141.532C142.955 148.963 142.971 154.975 142.907 159.129C142.907 161.21 142.819 162.82 142.779 163.913C142.779 164.455 142.731 164.869 142.715 165.157V165.579C142.715 165.579 142.715 165.436 142.715 165.157C142.715 164.877 142.715 164.455 142.755 163.913C142.755 162.82 142.819 161.21 142.835 159.129C142.835 154.975 142.835 148.963 142.651 141.532C142.651 140.607 142.611 139.658 142.587 138.685C142.617 137.7 142.525 136.714 142.315 135.751C142.21 135.264 141.975 134.815 141.635 134.451C141.461 134.282 141.234 134.175 140.992 134.149C140.75 134.123 140.506 134.179 140.299 134.308C139.883 134.611 139.58 135.042 139.435 135.536C139.279 136.052 139.222 136.593 139.267 137.13C139.348 138.224 139.777 139.263 140.491 140.096C141.2 140.985 142.221 141.572 143.347 141.739C144.509 141.874 145.683 141.618 146.683 141.013C147.717 140.4 148.579 139.536 149.187 138.502C150.375 136.285 150.778 133.735 150.331 131.262C150.253 130.632 150.083 130.017 149.827 129.436C149.722 129.144 149.554 128.878 149.336 128.656C149.118 128.435 148.854 128.263 148.563 128.152C148.256 128.085 147.934 128.118 147.647 128.246C147.359 128.374 147.12 128.589 146.963 128.862C146.606 129.399 146.427 130.035 146.451 130.68C146.465 131.347 146.537 132.011 146.667 132.665C146.779 133.327 146.907 133.989 147.059 134.643C147.346 135.972 147.843 137.248 148.531 138.422C148.885 139.003 149.344 139.514 149.883 139.929C150.429 140.339 151.066 140.612 151.739 140.726C152.427 140.8 153.122 140.733 153.783 140.532C154.445 140.331 155.058 139.998 155.587 139.554C156.673 138.676 157.489 137.509 157.939 136.189C158.408 134.889 158.677 133.527 158.739 132.147C158.871 130.809 158.757 129.458 158.403 128.16C158.201 127.536 157.799 126.996 157.259 126.621C157.006 126.43 156.705 126.312 156.389 126.28C156.073 126.248 155.754 126.302 155.467 126.438C154.917 126.769 154.509 127.292 154.323 127.905C154.114 128.519 154.011 129.163 154.019 129.811C154.005 131.097 154.308 132.367 154.899 133.51C155.466 134.635 156.343 135.576 157.427 136.221C158.5 136.825 159.726 137.103 160.955 137.019C162.156 136.949 163.305 136.508 164.243 135.759C164.702 135.411 165.075 134.963 165.332 134.448C165.588 133.934 165.722 133.367 165.723 132.793C165.702 132.222 165.519 131.669 165.195 131.198C165.044 130.978 164.848 130.793 164.618 130.655C164.389 130.518 164.133 130.431 163.867 130.401C163.599 130.393 163.332 130.44 163.082 130.537C162.832 130.634 162.604 130.78 162.411 130.967C162.016 131.328 161.714 131.78 161.531 132.282C161.21 133.299 161.046 134.358 161.043 135.424C160.987 136.476 160.939 137.505 160.883 138.518C160.787 140.543 160.723 142.486 160.691 144.346C160.523 151.777 160.691 157.789 160.923 161.935C161.019 164.008 161.123 165.619 161.187 166.719C161.227 167.261 161.251 167.676 161.267 167.963L161.291 168.314Z" fill="white"/>
<path d="M139.604 158.012C139.468 157.978 139.337 157.93 139.212 157.869C138.956 157.765 138.572 157.63 138.1 157.398C136.752 156.792 135.453 156.086 134.212 155.286C130.092 152.638 126.64 149.078 124.126 144.884C121.612 140.689 120.103 135.973 119.716 131.102C119.605 129.635 119.605 128.161 119.716 126.693C119.716 126.167 119.804 125.768 119.828 125.497C119.832 125.357 119.854 125.218 119.892 125.083C119.901 125.221 119.901 125.359 119.892 125.497C119.892 125.776 119.836 126.175 119.828 126.693C119.539 133.026 121.104 139.306 124.332 144.769C126.847 148.919 130.258 152.46 134.316 155.134C135.545 155.942 136.825 156.672 138.148 157.319C138.612 157.55 138.988 157.701 139.236 157.821L139.604 158.012Z" fill="#263238"/>
<path d="M121.492 118.672C121.337 119.84 121.019 120.98 120.548 122.061C120.582 121.47 120.701 120.888 120.9 120.33C121.021 119.753 121.22 119.195 121.492 118.672Z" fill="#263238"/>
<path d="M181.637 137.473C181.648 137.352 181.67 137.232 181.701 137.114C181.765 136.859 181.837 136.524 181.941 136.11C181.989 135.886 182.045 135.647 182.109 135.384C182.173 135.121 182.205 134.818 182.261 134.507C182.357 133.877 182.509 133.168 182.557 132.362C182.6 131.964 182.64 131.549 182.677 131.118C182.677 130.68 182.677 130.225 182.677 129.755C182.704 128.752 182.68 127.749 182.605 126.749C182.417 124.461 182.007 122.197 181.381 119.988C180.722 117.781 179.846 115.644 178.765 113.609C178.237 112.692 177.757 111.807 177.165 111.042C176.901 110.651 176.661 110.244 176.365 109.917L175.565 108.921C175.093 108.275 174.581 107.757 174.165 107.278C173.949 107.039 173.757 106.816 173.565 106.616C173.373 106.417 173.189 106.258 173.029 106.098L172.285 105.372C172.196 105.291 172.114 105.203 172.037 105.109C172.139 105.175 172.233 105.253 172.317 105.341C172.517 105.516 172.773 105.739 173.117 106.034L173.669 106.537C173.869 106.728 174.069 106.951 174.285 107.182C174.794 107.687 175.275 108.22 175.725 108.777C175.981 109.096 176.245 109.423 176.525 109.774C176.805 110.125 177.037 110.507 177.325 110.898C177.903 111.728 178.437 112.588 178.925 113.473C180.024 115.505 180.913 117.642 181.581 119.852C182.213 122.079 182.62 124.362 182.797 126.669C182.797 127.738 182.901 128.75 182.845 129.691C182.845 130.17 182.845 130.624 182.789 131.063C182.733 131.501 182.693 131.924 182.653 132.322C182.589 133.12 182.421 133.837 182.317 134.467C182.253 134.778 182.205 135.073 182.149 135.344C182.093 135.615 182.013 135.847 181.949 136.07C181.837 136.484 181.741 136.811 181.669 137.066C181.672 137.203 181.661 137.339 181.637 137.473Z" fill="#263238"/>
<g opacity="0.2">
<path d="M150.938 104.264C150.386 102.821 148.834 101.737 146.938 101.123C144.257 100.275 141.349 100.513 138.842 101.784C131.426 105.428 127.146 109.941 124.354 118.098C123.41 120.857 122.85 125.449 124.138 128.224C124.449 128.919 124.898 129.544 125.459 130.059C126.021 130.575 126.682 130.97 127.402 131.222C131.218 132.442 134.378 128.83 135.674 125.274C136.882 121.989 137.394 118.249 139.834 115.706C141.842 113.633 144.786 112.804 147.258 111.313C149.73 109.822 151.962 106.959 150.938 104.264Z" fill="white"/>
</g>
<g opacity="0.2">
<path d="M164.646 103.331C163.454 101.123 160.318 100.142 158.454 100.939C157.69 101.285 157.013 101.798 156.474 102.44C155.936 103.082 155.549 103.836 155.342 104.647C155.125 105.633 155.21 106.661 155.585 107.599C155.96 108.537 156.608 109.342 157.446 109.909C158.301 110.44 159.302 110.69 160.307 110.623C161.312 110.555 162.27 110.175 163.046 109.535C164.59 108.179 165.598 105.117 164.646 103.331Z" fill="white"/>
</g>
<path d="M143.716 185.098C144.43 185.6 145.071 186.199 145.62 186.876C145.802 187.119 146.037 187.317 146.307 187.456C146.578 187.594 146.876 187.668 147.18 187.673L153.196 187.849C153.525 187.862 153.852 187.796 154.15 187.658C154.448 187.519 154.708 187.311 154.908 187.051C155.398 186.303 156.142 185.756 157.004 185.512L143.716 185.098Z" fill="#455A64"/>
<path d="M137.685 168.234C137.685 168.354 138.805 177.746 139.245 181.342C139.324 182.073 139.585 182.772 140.004 183.376C140.423 183.98 140.987 184.471 141.645 184.803C142.175 185.066 142.757 185.21 143.349 185.225L156.493 185.592C156.493 185.592 159.933 185.696 160.789 183.001C161.693 180.162 163.557 168.96 163.557 168.96L137.685 168.234Z" fill="#263238"/>
<path d="M137.451 179.641L137.449 179.72C137.442 180.077 137.727 180.372 138.085 180.379L161.005 180.836C161.362 180.843 161.658 180.56 161.665 180.203L161.667 180.123C161.674 179.767 161.39 179.472 161.032 179.464L138.112 179.008C137.754 179 137.458 179.284 137.451 179.641Z" fill="#E0E0E0"/>
<path d="M161.644 181.765C161.811 181.757 161.97 181.689 162.092 181.574C162.162 181.503 162.216 181.418 162.249 181.324C162.282 181.23 162.294 181.13 162.284 181.031C162.275 180.9 162.226 180.774 162.143 180.671C162.06 180.568 161.947 180.493 161.82 180.457C160.572 180.41 158.724 180.402 156.46 180.346L138.764 179.947C138.674 179.944 138.585 179.964 138.506 180.004C138.426 180.044 138.358 180.104 138.308 180.178C138.258 180.252 138.228 180.337 138.22 180.425C138.204 180.515 138.204 180.607 138.22 180.697C138.244 180.782 138.289 180.86 138.35 180.924C138.411 180.987 138.487 181.035 138.572 181.063C138.77 181.094 138.971 181.108 139.172 181.103L141.652 181.167L146.356 181.287L154.308 181.51L159.668 181.677L161.132 181.733H161.508H161.636H159.668L154.308 181.629L146.348 181.462L141.652 181.35L139.164 181.295H138.852C138.735 181.313 138.616 181.313 138.5 181.295C138.384 181.252 138.279 181.183 138.194 181.093C138.11 181.003 138.047 180.894 138.012 180.776C137.988 180.658 137.988 180.536 138.012 180.417C138.026 180.292 138.07 180.172 138.14 180.067C138.214 179.965 138.312 179.883 138.424 179.826C138.537 179.769 138.661 179.739 138.788 179.74L156.484 180.202C158.748 180.282 160.572 180.306 161.852 180.394C161.996 180.433 162.124 180.518 162.216 180.636C162.309 180.754 162.36 180.898 162.364 181.047C162.371 181.154 162.355 181.26 162.317 181.36C162.278 181.459 162.217 181.548 162.14 181.621C162.075 181.683 161.996 181.729 161.909 181.754C161.823 181.779 161.732 181.782 161.644 181.765Z" fill="#263238"/>
<path d="M137.694 177.497L137.692 177.577C137.683 177.934 137.966 178.23 138.324 178.239L162.213 178.825C162.571 178.833 162.868 178.551 162.877 178.195L162.879 178.115C162.887 177.759 162.604 177.462 162.247 177.454L138.358 176.868C138 176.859 137.703 177.141 137.694 177.497Z" fill="#E0E0E0"/>
<path d="M162.212 178.831C162.388 178.822 162.553 178.748 162.676 178.623C162.746 178.548 162.797 178.458 162.826 178.36C162.855 178.262 162.861 178.158 162.844 178.057C162.831 177.92 162.772 177.791 162.676 177.691C162.58 177.591 162.453 177.526 162.316 177.507L156.716 177.404L138.316 176.989C138.223 176.986 138.13 177.008 138.048 177.051C137.965 177.094 137.895 177.158 137.844 177.236C137.799 177.314 137.771 177.401 137.764 177.491C137.743 177.586 137.743 177.684 137.764 177.778C137.793 177.865 137.845 177.942 137.914 178.002C137.983 178.062 138.066 178.103 138.156 178.121C138.34 178.121 138.588 178.121 138.796 178.121L141.38 178.185L146.26 178.313L154.524 178.544L160.124 178.711L161.636 178.775H162.028H162.164C162.164 178.775 162.116 178.775 162.028 178.775H161.636H160.124L154.524 178.671L146.26 178.496L141.38 178.384L138.796 178.321C138.572 178.332 138.348 178.332 138.124 178.321C137.996 178.295 137.877 178.237 137.779 178.152C137.681 178.067 137.607 177.957 137.564 177.834C137.521 177.717 137.505 177.592 137.516 177.467C137.525 177.337 137.567 177.211 137.636 177.101C137.71 176.992 137.809 176.904 137.924 176.843C138.04 176.781 138.169 176.75 138.3 176.75L156.7 177.228C159.052 177.3 160.948 177.356 162.3 177.412C162.455 177.433 162.598 177.506 162.706 177.619C162.813 177.732 162.879 177.878 162.892 178.033C162.906 178.144 162.895 178.256 162.859 178.361C162.823 178.466 162.763 178.561 162.684 178.639C162.626 178.705 162.552 178.757 162.471 178.79C162.389 178.823 162.3 178.837 162.212 178.831Z" fill="#263238"/>
<path d="M162.605 175.889L138.109 175.283C138.023 175.281 137.938 175.262 137.86 175.227C137.781 175.192 137.71 175.142 137.65 175.08C137.591 175.018 137.544 174.944 137.513 174.864C137.482 174.784 137.467 174.699 137.469 174.613V174.541C137.472 174.456 137.49 174.373 137.525 174.295C137.559 174.218 137.609 174.148 137.67 174.089C137.732 174.031 137.805 173.985 137.884 173.954C137.964 173.924 138.048 173.909 138.133 173.911L162.629 174.517C162.802 174.521 162.966 174.593 163.086 174.717C163.206 174.841 163.272 175.007 163.269 175.179V175.283C163.257 175.449 163.182 175.604 163.058 175.717C162.935 175.83 162.773 175.891 162.605 175.889Z" fill="#E0E0E0"/>
<path d="M162.605 175.889C162.695 175.887 162.783 175.867 162.864 175.83C162.945 175.793 163.018 175.74 163.077 175.673C163.146 175.594 163.196 175.501 163.223 175.4C163.251 175.3 163.256 175.194 163.237 175.091C163.217 174.951 163.149 174.821 163.044 174.725C162.939 174.63 162.803 174.573 162.661 174.565L156.957 174.461L138.141 174.031C138.045 174.028 137.949 174.05 137.865 174.097C137.78 174.143 137.71 174.211 137.661 174.294C137.613 174.373 137.588 174.464 137.589 174.557C137.577 174.655 137.59 174.754 137.629 174.844C137.664 174.931 137.722 175.008 137.796 175.065C137.871 175.123 137.96 175.159 138.053 175.171C138.253 175.171 138.493 175.171 138.717 175.171L141.357 175.235L146.357 175.362L154.813 175.602L160.517 175.777L162.069 175.833H162.469H162.605C162.605 175.833 162.557 175.833 162.469 175.833H162.069H160.517L154.813 175.729L146.349 175.546L141.349 175.426L138.709 175.37H138.021C137.891 175.349 137.767 175.295 137.663 175.214C137.558 175.134 137.475 175.028 137.421 174.908C137.373 174.789 137.353 174.661 137.365 174.533C137.366 174.398 137.404 174.265 137.477 174.15C137.546 174.035 137.645 173.94 137.763 173.875C137.881 173.811 138.014 173.779 138.149 173.784L156.965 174.278L162.669 174.453C162.828 174.467 162.978 174.534 163.093 174.645C163.208 174.755 163.282 174.901 163.301 175.059C163.32 175.171 163.312 175.285 163.279 175.393C163.246 175.501 163.188 175.6 163.109 175.681C163.05 175.756 162.973 175.815 162.885 175.851C162.796 175.888 162.7 175.9 162.605 175.889Z" fill="#263238"/>
<path d="M137.052 171.576L137.05 171.656C137.041 172.012 137.324 172.308 137.681 172.317L163.178 172.943C163.536 172.951 163.833 172.669 163.842 172.313L163.843 172.233C163.852 171.876 163.569 171.58 163.212 171.572L137.715 170.946C137.358 170.937 137.06 171.219 137.052 171.576Z" fill="#E0E0E0"/>
<path d="M163.189 172.954C163.28 172.951 163.369 172.93 163.452 172.892C163.534 172.853 163.608 172.799 163.669 172.731C163.739 172.647 163.789 172.548 163.814 172.441C163.839 172.335 163.838 172.224 163.813 172.117C163.782 171.972 163.699 171.842 163.58 171.753C163.461 171.663 163.313 171.62 163.165 171.631L157.253 171.519L137.725 171.073C137.625 171.069 137.527 171.094 137.441 171.143C137.355 171.192 137.284 171.265 137.237 171.352C137.195 171.442 137.173 171.54 137.173 171.639C137.173 171.738 137.195 171.836 137.237 171.926C137.281 172.013 137.349 172.086 137.432 172.138C137.515 172.19 137.61 172.219 137.709 172.221H138.413L141.149 172.293L146.333 172.428L155.133 172.667L161.053 172.843L162.653 172.906H163.069H163.213H162.653H161.053L155.141 172.795L146.341 172.603L141.157 172.484L138.413 172.42H137.717C137.578 172.415 137.443 172.374 137.326 172.301C137.208 172.229 137.111 172.127 137.045 172.005C136.987 171.881 136.959 171.744 136.965 171.607C136.962 171.471 136.996 171.336 137.061 171.216C137.131 171.097 137.232 170.998 137.353 170.93C137.473 170.861 137.61 170.825 137.749 170.825L157.269 171.336L163.189 171.519C163.353 171.514 163.514 171.567 163.643 171.67C163.772 171.772 163.86 171.916 163.893 172.077C163.913 172.192 163.908 172.311 163.878 172.424C163.847 172.537 163.792 172.642 163.717 172.731C163.621 172.838 163.491 172.908 163.349 172.93C163.298 172.952 163.243 172.96 163.189 172.954Z" fill="#263238"/>
<path d="M134.597 160.062C134.597 160.301 134.973 166.05 135.165 169C135.201 169.534 135.358 170.053 135.624 170.519C135.89 170.984 136.258 171.383 136.701 171.687L138.021 172.588L163.445 173.305L164.789 172.508C165.255 172.229 165.65 171.846 165.942 171.389C166.235 170.933 166.418 170.415 166.477 169.877L167.485 161.002L134.597 160.062Z" fill="#3847FF"/>
<g opacity="0.3">
<path d="M139.588 181.167C142.069 181.721 144.606 181.989 147.148 181.964C149.324 182.012 151.444 182.132 153.804 182.148C155.532 182.148 157.124 182.148 158.844 182.092C159.536 182.115 160.224 181.988 160.86 181.717L139.588 181.167Z" fill="black"/>
</g>
<g opacity="0.3">
<path d="M138.733 178.185C141.413 178.744 144.147 179.011 146.885 178.982C149.229 179.038 151.517 179.166 154.085 179.19C155.949 179.19 157.661 179.19 159.517 179.142C160.257 179.169 160.995 179.044 161.685 178.775L138.733 178.185Z" fill="black"/>
</g>
<g opacity="0.3">
<path d="M138.845 175.283C141.528 175.841 144.264 176.109 147.005 176.08C149.341 176.136 151.637 176.263 154.205 176.287C156.069 176.287 157.781 176.287 159.645 176.24C160.385 176.266 161.123 176.141 161.813 175.873L138.845 175.283Z" fill="black"/>
</g>
<g opacity="0.3">
<path d="M138.931 172.333C141.612 172.891 144.345 173.159 147.083 173.13C149.419 173.186 151.715 173.313 154.283 173.337C156.139 173.337 157.859 173.337 159.715 173.289C160.455 173.316 161.193 173.191 161.883 172.923L138.931 172.333Z" fill="black"/>
</g>
<g opacity="0.3">
<path d="M134.597 160.062C134.597 160.301 134.973 166.05 135.165 169C135.201 169.534 135.357 170.053 135.623 170.519C135.89 170.984 136.258 171.383 136.701 171.687L138.021 172.588L163.445 173.305L164.789 172.508C165.254 172.229 165.649 171.846 165.942 171.389C166.235 170.933 166.418 170.415 166.477 169.877L167.485 161.002L134.597 160.062Z" fill="black"/>
</g>
<path d="M165.821 171.057C165.821 171.113 159.021 170.977 150.621 170.738C142.221 170.499 135.421 170.259 135.421 170.204C135.421 170.148 142.221 170.283 150.621 170.515C159.021 170.746 165.821 170.993 165.821 171.057Z" fill="#263238"/>
<path d="M167.309 160.811C167.309 160.875 159.925 160.755 150.813 160.532C141.701 160.309 134.309 160.078 134.309 160.014C134.309 159.95 141.693 160.07 150.813 160.285C159.933 160.5 167.309 160.739 167.309 160.811Z" fill="#263238"/>
<path d="M230.277 183.878C229.477 175.984 228.301 168.043 225.405 160.652C222.509 153.26 217.749 146.395 211.045 142.121L209.317 143.716C208.719 142.009 207.666 140.496 206.27 139.341C204.875 138.185 203.19 137.43 201.397 137.156C199.603 136.882 197.769 137.1 196.09 137.787C194.412 138.474 192.953 139.603 191.869 141.053C189.932 140.531 187.881 140.61 185.99 141.28C184.099 141.95 182.458 143.179 181.286 144.802C180.114 146.426 179.467 148.368 179.431 150.367C179.395 152.367 179.972 154.331 181.085 155.995C179.272 156.228 177.572 157.003 176.209 158.219C174.846 159.434 173.885 161.032 173.452 162.803C173.019 164.574 173.134 166.434 173.783 168.137C174.431 169.841 175.583 171.31 177.085 172.348C175.084 174.07 173.65 176.352 172.969 178.898C172.289 181.443 172.393 184.134 173.268 186.62C174.143 189.106 175.75 191.271 177.877 192.834C180.005 194.397 182.556 195.286 185.197 195.383C184.598 197.679 184.807 200.11 185.789 202.271C186.771 204.432 188.468 206.192 190.595 207.256C192.722 208.321 195.151 208.626 197.476 208.121C199.802 207.616 201.883 206.331 203.373 204.481C203.005 209.209 206.797 213.682 211.421 214.806C216.045 215.931 221.077 214.073 224.445 210.724C227.813 207.375 229.669 202.751 230.389 198.062C231.109 193.374 230.733 188.598 230.277 183.878Z" fill="#263238"/>
<path d="M208.941 148.891C204.333 150.374 203.389 154.097 202.429 157.199C200.373 163.873 202.693 173.752 206.429 179.652C210.165 185.552 214.285 188.55 221.221 189.547C221.451 178.974 221.688 168.372 221.933 157.741L208.941 148.891Z" fill="#3847FF"/>
<path d="M206.341 167.134C204.824 165.044 204.092 162.489 204.272 159.916C204.452 157.342 205.532 154.913 207.325 153.053C205.301 150.525 206.029 146.634 208.077 144.131C210.125 141.627 213.181 140.192 216.117 138.837C217.717 131.445 226.061 126.247 233.445 128.017C237.293 122.388 245.485 121.503 252.045 123.408C253.61 123.991 255.251 124.348 256.917 124.469C258.14 124.381 259.356 124.213 260.557 123.966C267.237 123.073 273.861 127.754 276.461 133.949C276.807 134.969 277.286 135.939 277.885 136.835C278.749 137.944 280.061 138.597 281.181 139.459C282.39 140.399 283.381 141.588 284.087 142.944C284.792 144.301 285.195 145.794 285.269 147.32C285.373 149.904 284.549 152.646 285.645 154.991C286.189 156.171 287.181 157.119 287.605 158.347C288.837 161.895 284.893 165.523 285.621 169.215C285.773 169.964 286.109 170.666 286.325 171.4C286.75 172.927 286.605 174.556 285.917 175.984C285.397 177.077 284.541 178.073 284.469 179.285C284.537 180.2 284.72 181.103 285.013 181.972C285.461 184.173 280.701 192.657 278.789 193.853L221.781 194.363C219.625 193.879 217.672 192.74 216.194 191.101C214.716 189.462 213.786 187.406 213.533 185.217C213.559 184.485 213.376 183.761 213.005 183.128C212.559 182.691 212.028 182.349 211.445 182.124C207.773 180.154 207.333 175.131 207.717 170.961C207.821 170.386 207.821 169.798 207.717 169.223C207.404 168.442 206.936 167.731 206.341 167.134Z" fill="#263238"/>
<path d="M222.677 167.214C222.509 157.159 228.837 145.606 238.861 140.686C245.173 137.585 250.109 137.569 253.429 137.178C258.092 136.735 262.779 137.717 266.869 139.993C270.013 140.726 281.533 151.235 282.133 162.637C282.797 175.307 283.101 190.799 281.493 200.231C278.293 219.192 263.629 221.456 263.629 221.456L264.997 252.975L236.869 275.946L225.933 239.46L222.677 167.214Z" fill="#FFBF9D"/>
<path d="M263.629 221.456C254.626 221.505 245.786 219.062 238.093 214.4C238.093 214.4 244.749 227.907 263.845 226.312L263.629 221.456Z" fill="#FF9A6C"/>
<path d="M225.55 185.249C225.55 183.838 223.95 180.465 222.558 180.25C218.822 179.628 212.07 179.859 211.91 189.332C211.686 202.28 224.774 199.832 224.806 199.466C224.838 199.099 225.51 190.137 225.55 185.249Z" fill="#FFBF9D"/>
<path d="M221.302 194.674C221.246 194.626 221.07 194.825 220.686 194.993C220.145 195.212 219.539 195.212 218.998 194.993C217.63 194.466 216.51 192.274 216.494 189.938C216.481 188.837 216.716 187.747 217.182 186.748C217.31 186.347 217.535 185.982 217.836 185.687C218.137 185.391 218.505 185.172 218.91 185.05C219.171 184.983 219.448 185.011 219.691 185.127C219.934 185.244 220.127 185.443 220.238 185.688C220.406 186.055 220.318 186.31 220.39 186.334C220.462 186.358 220.67 186.126 220.574 185.584C220.503 185.27 220.329 184.989 220.078 184.787C219.723 184.513 219.276 184.387 218.83 184.436C218.295 184.534 217.794 184.766 217.374 185.111C216.954 185.455 216.629 185.901 216.43 186.405C215.862 187.519 215.571 188.752 215.582 190.001C215.622 192.609 216.918 195.08 218.782 195.655C219.128 195.762 219.495 195.79 219.854 195.736C220.213 195.682 220.555 195.548 220.854 195.344C221.278 194.985 221.35 194.698 221.302 194.674Z" fill="#FF9A6C"/>
<path d="M284.918 160.723C284.502 156.019 282.622 151.554 280.35 147.416C278.872 144.49 276.884 141.85 274.478 139.618C272.341 137.902 269.981 136.483 267.462 135.4C260.95 132.322 253.694 129.707 246.662 131.286C242.886 132.139 239.462 134.132 236.19 136.134C233.601 137.581 231.186 139.317 228.99 141.308C227.161 143.157 225.587 145.241 224.31 147.504C221.061 152.787 219.079 158.746 218.518 164.917C218.094 171.081 213.414 176.534 217.046 181.542C217.326 181.932 223.782 183.264 224.246 183.439C225.294 183.862 226.446 182.722 226.438 181.597C226.379 181.038 226.207 180.497 225.932 180.006C225.657 179.516 225.285 179.086 224.838 178.743C226.438 178.687 227.55 176.909 227.446 175.307C227.342 173.704 226.398 172.301 225.446 171.009C225.306 170.85 225.21 170.658 225.166 170.451C225.094 169.909 225.718 169.566 226.19 169.287C226.735 168.915 227.189 168.425 227.517 167.853C227.845 167.282 228.039 166.643 228.084 165.986C228.128 165.329 228.023 164.671 227.775 164.06C227.528 163.45 227.144 162.903 226.654 162.461C227.411 162.249 228.118 161.887 228.732 161.397C229.346 160.906 229.855 160.298 230.229 159.607C230.602 158.917 230.832 158.159 230.905 157.378C230.978 156.597 230.893 155.81 230.654 155.062C230.527 154.845 230.444 154.605 230.411 154.356C230.378 154.107 230.395 153.854 230.462 153.611C230.678 153.181 231.214 153.045 231.678 152.909C233.381 152.348 234.824 151.193 235.741 149.656C236.658 148.12 236.988 146.305 236.67 144.545C238.469 144.73 240.286 144.65 242.062 144.306C242.95 144.132 243.79 143.77 244.524 143.243C245.259 142.716 245.871 142.037 246.318 141.252C246.897 142.289 247.731 143.163 248.742 143.791C249.752 144.42 250.906 144.782 252.095 144.845C253.285 144.908 254.47 144.669 255.542 144.151C256.613 143.633 257.535 142.852 258.222 141.882C261.263 142.173 264.33 141.702 267.142 140.511C267.501 141.917 268.209 143.21 269.2 144.273C270.191 145.336 271.433 146.134 272.814 146.595C273.35 146.77 273.966 146.937 274.222 147.44C274.359 147.773 274.4 148.137 274.342 148.492C274.246 150.294 275.486 151.068 276.486 152.583C277.486 154.097 279.23 156.338 280.974 155.844C280.782 158.921 282.438 161.162 285.046 162.828L284.918 160.723Z" fill="#263238"/>
<path d="M287.606 158.347C287.452 157.849 287.22 157.378 286.918 156.952C286.646 156.513 286.262 156.011 285.902 155.357C285.503 154.618 285.263 153.803 285.198 152.965C285.136 151.902 285.163 150.835 285.278 149.776C285.431 148.495 285.41 147.2 285.214 145.925C284.947 144.447 284.375 143.041 283.534 141.795C283.073 141.119 282.536 140.499 281.934 139.945C281.295 139.38 280.613 138.865 279.894 138.406C279.152 137.945 278.489 137.366 277.934 136.692C277.429 135.93 277.023 135.108 276.726 134.244C275.182 130.393 272.304 127.222 268.614 125.306C267.62 124.795 266.574 124.392 265.494 124.102C264.379 123.827 263.235 123.688 262.086 123.687C261.5 123.698 260.915 123.741 260.334 123.815C259.75 123.894 259.174 124.014 258.598 124.11C257.454 124.353 256.271 124.353 255.126 124.11C253.966 123.871 252.83 123.44 251.63 123.137C250.425 122.807 249.194 122.577 247.95 122.451C246.685 122.326 245.411 122.305 244.142 122.388C242.851 122.484 241.573 122.709 240.326 123.057C237.743 123.752 235.443 125.235 233.75 127.299L233.262 127.937L233.47 127.857C229.693 127.101 225.768 127.816 222.503 129.855C219.239 131.894 216.882 135.103 215.918 138.821L216.022 138.693C214.446 139.391 212.918 140.19 211.446 141.085C210.003 141.941 208.731 143.054 207.694 144.37C206.72 145.67 206.123 147.212 205.966 148.827C205.79 150.389 206.222 151.959 207.174 153.212V152.957C205.417 154.746 204.339 157.089 204.126 159.583C203.893 161.813 204.348 164.06 205.43 166.026C205.68 166.477 205.963 166.908 206.278 167.317C206.59 167.716 206.91 168.115 207.166 168.481C207.418 168.864 207.572 169.302 207.614 169.757C207.638 170.204 207.622 170.652 207.566 171.097C207.407 172.735 207.439 174.386 207.662 176.016C207.836 177.333 208.259 178.605 208.91 179.764C209.404 180.617 210.092 181.344 210.918 181.885C211.582 182.331 212.174 182.506 212.518 182.754C212.686 182.871 212.844 183.002 212.99 183.144C212.875 182.972 212.725 182.826 212.55 182.714C212.222 182.451 211.63 182.259 210.95 181.805C210.155 181.255 209.496 180.532 209.022 179.692C208.392 178.546 207.987 177.29 207.83 175.992C207.629 174.375 207.611 172.741 207.774 171.121C207.836 170.661 207.857 170.197 207.838 169.733C207.794 169.241 207.629 168.767 207.358 168.354C207.08 167.94 206.781 167.541 206.462 167.158C204.819 165.003 204.081 162.295 204.406 159.607C204.629 157.2 205.684 154.946 207.39 153.228L207.494 153.125L207.406 153.013C206.507 151.822 206.103 150.331 206.278 148.851C206.438 147.301 207.019 145.823 207.958 144.577C208.97 143.3 210.21 142.219 211.614 141.388C213.077 140.52 214.592 139.743 216.15 139.06H216.238V138.964C217.178 135.327 219.481 132.188 222.673 130.193C225.866 128.198 229.704 127.499 233.398 128.24H233.526L233.606 128.128C233.766 127.929 233.918 127.722 234.078 127.514C235.73 125.512 237.967 124.074 240.478 123.4C241.7 123.064 242.951 122.845 244.214 122.746C245.459 122.664 246.709 122.685 247.95 122.81C249.161 122.926 250.359 123.142 251.534 123.456C252.71 123.751 253.854 124.182 255.054 124.429C255.651 124.555 256.26 124.622 256.87 124.628C257.471 124.618 258.071 124.56 258.662 124.453C259.246 124.349 259.814 124.229 260.382 124.15C260.95 124.07 261.518 124.022 262.086 124.022C263.205 124.021 264.32 124.155 265.406 124.421C266.461 124.699 267.483 125.089 268.454 125.585C272.084 127.466 274.92 130.576 276.454 134.355C276.76 135.244 277.183 136.088 277.71 136.867C278.286 137.563 278.973 138.161 279.742 138.637C280.456 139.082 281.133 139.584 281.766 140.136C282.348 140.676 282.868 141.278 283.318 141.93C284.139 143.133 284.705 144.489 284.982 145.917C285.184 147.172 285.216 148.448 285.078 149.712C284.967 150.785 284.951 151.866 285.03 152.941C285.1 153.81 285.356 154.653 285.782 155.413C286.158 156.067 286.582 156.561 286.838 157.008C287.059 157.324 287.254 157.657 287.422 158.004C287.534 158.22 287.598 158.347 287.606 158.347Z" fill="#455A64"/>
<path d="M239.533 125.226C239.533 125.226 239.885 125.027 240.517 124.724C241.412 124.299 242.372 124.029 243.357 123.926C244.812 123.762 246.284 123.987 247.621 124.58C249.25 125.324 250.6 126.563 251.477 128.12C251.748 128.582 251.963 129.075 252.117 129.587C252.201 129.809 252.235 130.046 252.215 130.282C252.196 130.517 252.124 130.746 252.005 130.951L251.685 131.389L252.213 131.246C253.562 130.892 254.997 131.075 256.213 131.756C257.18 132.299 257.946 133.138 258.397 134.148C258.7 134.821 258.866 135.548 258.885 136.285C258.885 136.803 258.885 137.082 258.885 137.082C258.885 137.082 258.885 137.018 258.949 136.883C258.989 136.683 259.013 136.481 259.021 136.277C259.053 135.309 258.826 134.35 258.362 133.499C257.897 132.648 257.214 131.936 256.381 131.437C255.086 130.683 253.545 130.471 252.093 130.847L252.301 131.142C252.455 130.893 252.55 130.612 252.581 130.321C252.611 130.03 252.576 129.736 252.477 129.46C252.316 128.904 252.09 128.369 251.805 127.865C250.888 126.235 249.465 124.945 247.749 124.189C246.583 123.689 245.319 123.459 244.051 123.517C242.782 123.575 241.544 123.919 240.429 124.524C240.187 124.656 239.954 124.805 239.733 124.971C239.637 125.146 239.533 125.21 239.533 125.226Z" fill="#455A64"/>
<path d="M218.365 139.929C218.365 139.929 218.501 140.112 218.813 140.391C219.264 140.783 219.755 141.128 220.277 141.42C221.069 141.871 221.951 142.143 222.861 142.217C224.009 142.309 225.15 141.971 226.061 141.268L225.773 141.221L226.149 141.755C226.285 141.93 226.437 142.098 226.589 142.273C227.473 143.202 228.572 143.903 229.789 144.314C230.781 144.65 231.831 144.788 232.877 144.721C233.58 144.673 234.273 144.523 234.933 144.274C235.177 144.191 235.406 144.07 235.613 143.915C234.724 144.206 233.802 144.385 232.869 144.45C231.859 144.47 230.853 144.308 229.901 143.971C228.74 143.565 227.693 142.89 226.845 142.002C226.701 141.842 226.557 141.683 226.429 141.523L226.069 141.021L225.941 140.838L225.781 140.973C224.936 141.626 223.879 141.947 222.813 141.874C221.946 141.821 221.099 141.59 220.325 141.197C219.077 140.511 218.405 139.873 218.365 139.929Z" fill="#455A64"/>
<path d="M211.406 151.881C211.406 151.881 211.406 151.969 211.406 152.12C211.464 152.344 211.558 152.557 211.686 152.75C212.181 153.459 212.922 153.959 213.766 154.153C215.017 154.387 216.308 154.257 217.486 153.779C218.186 153.551 218.873 153.285 219.542 152.981C220.313 152.675 220.952 152.111 221.35 151.387C221.35 151.315 221.406 151.243 221.43 151.179L221.126 151.267C222.279 152.233 223.571 153.02 224.958 153.603C226.113 154.073 227.376 154.214 228.606 154.01C229.433 153.877 230.211 153.53 230.862 153.005C231.042 152.869 231.201 152.708 231.334 152.527C231.43 152.407 231.478 152.343 231.462 152.335C231.446 152.327 231.23 152.559 230.774 152.886C230.118 153.344 229.361 153.636 228.566 153.739C227.388 153.895 226.188 153.733 225.094 153.268C223.747 152.683 222.491 151.906 221.366 150.964L221.166 150.797L221.062 151.052L220.99 151.227C220.638 151.872 220.073 152.376 219.39 152.654C218.726 152.973 218.03 153.212 217.382 153.452C216.267 153.921 215.043 154.073 213.846 153.89C213.05 153.735 212.336 153.303 211.83 152.67C211.664 152.421 211.522 152.157 211.406 151.881Z" fill="#455A64"/>
<path d="M253.366 178.871C253.394 179.496 253.176 180.108 252.757 180.574C252.338 181.041 251.753 181.325 251.126 181.366C250.819 181.399 250.51 181.371 250.214 181.283C249.919 181.195 249.645 181.049 249.407 180.853C249.169 180.658 248.973 180.417 248.83 180.145C248.687 179.873 248.6 179.575 248.574 179.269C248.545 178.644 248.764 178.032 249.183 177.566C249.601 177.099 250.187 176.815 250.814 176.774C251.12 176.741 251.43 176.769 251.725 176.857C252.02 176.945 252.295 177.091 252.533 177.287C252.77 177.482 252.967 177.723 253.11 177.995C253.253 178.267 253.34 178.565 253.366 178.871Z" fill="#263238"/>
<path d="M275.974 177.547C276 178.171 275.781 178.781 275.362 179.246C274.943 179.71 274.359 179.994 273.734 180.035C273.429 180.069 273.12 180.042 272.826 179.955C272.532 179.868 272.258 179.723 272.021 179.529C271.784 179.335 271.588 179.096 271.445 178.825C271.302 178.555 271.216 178.258 271.19 177.954C271.163 177.331 271.382 176.722 271.798 176.258C272.215 175.793 272.798 175.509 273.422 175.466C273.727 175.432 274.036 175.459 274.331 175.546C274.625 175.632 274.9 175.777 275.137 175.971C275.375 176.165 275.572 176.404 275.715 176.675C275.859 176.945 275.947 177.242 275.974 177.547Z" fill="#263238"/>
<path d="M277.597 169.598C277.309 169.924 275.445 168.633 272.861 168.728C270.277 168.824 268.421 170.164 268.133 169.861C267.989 169.725 268.277 169.151 269.085 168.521C270.178 167.714 271.494 167.263 272.853 167.229C274.198 167.18 275.524 167.56 276.637 168.314C277.453 168.904 277.741 169.454 277.597 169.598Z" fill="#263238"/>
<path d="M251.886 170.881C251.566 171.176 249.838 169.709 247.262 169.534C244.686 169.358 242.702 170.507 242.462 170.172C242.342 170.028 242.678 169.486 243.55 168.944C244.721 168.249 246.08 167.934 247.438 168.043C248.78 168.132 250.058 168.646 251.086 169.51C251.814 170.172 252.038 170.754 251.886 170.881Z" fill="#263238"/>
<path d="M261.525 190.233C261.525 190.089 263.125 189.754 265.701 189.34C266.357 189.252 266.981 189.1 267.077 188.646C267.113 187.966 266.937 187.292 266.573 186.716L264.461 181.765C261.517 174.717 259.365 168.912 259.661 168.8C259.957 168.689 262.565 174.302 265.501 181.35C266.21 183.089 266.888 184.747 267.533 186.326C267.978 187.106 268.131 188.019 267.965 188.901C267.875 189.135 267.733 189.346 267.55 189.519C267.368 189.691 267.148 189.821 266.909 189.898C266.545 190.008 266.169 190.073 265.789 190.089C263.165 190.312 261.541 190.376 261.525 190.233Z" fill="#263238"/>
<path d="M257.526 194.06C257.033 194.121 256.557 194.28 256.127 194.528C255.697 194.776 255.321 195.108 255.022 195.503C254.454 196.3 254.046 198.206 254.606 198.94C255.166 199.673 257.222 199.561 258.694 199.378C259.028 199.337 259.343 199.203 259.603 198.991C259.864 198.78 260.059 198.499 260.166 198.182L260.75 196.516C260.831 196.29 260.865 196.051 260.852 195.812C260.839 195.573 260.778 195.339 260.673 195.124C260.568 194.908 260.421 194.716 260.24 194.558C260.06 194.4 259.85 194.28 259.622 194.203C258.942 194.007 258.227 193.958 257.526 194.06Z" fill="#FF9A6C"/>
<path d="M252.973 160.62C252.589 161.266 250.117 160.444 247.069 160.221C244.021 159.998 241.469 160.349 241.173 159.655C241.053 159.32 241.605 158.754 242.701 158.276C244.158 157.711 245.725 157.485 247.283 157.613C248.841 157.742 250.349 158.222 251.693 159.017C252.701 159.671 253.133 160.317 252.973 160.62Z" fill="#263238"/>
<path d="M277.133 164.415C276.709 165.077 274.573 164.806 272.117 165.164C269.661 165.523 267.653 166.281 267.077 165.754C266.821 165.499 267.077 164.861 267.877 164.16C269.011 163.284 270.364 162.732 271.789 162.565C273.206 162.352 274.654 162.534 275.973 163.091C276.925 163.546 277.309 164.12 277.133 164.415Z" fill="#263238"/>
<path d="M260.485 199.083C260.429 199.083 260.485 198.908 260.565 198.668C260.701 198.362 260.79 198.037 260.829 197.704C260.829 197.329 260.693 196.866 260.317 196.787C260.051 196.75 259.782 196.75 259.517 196.787C259.197 196.787 258.861 196.787 258.517 196.843C255.757 197.05 253.589 197.759 253.501 197.536C253.413 197.313 255.541 196.237 258.453 196.013C258.813 196.013 259.165 195.973 259.501 195.973C259.868 195.948 260.237 195.991 260.589 196.101C260.773 196.166 260.94 196.272 261.079 196.41C261.217 196.548 261.323 196.715 261.389 196.898C261.487 197.191 261.503 197.506 261.437 197.807C261.34 198.2 261.141 198.56 260.861 198.852C260.653 199.035 260.533 199.115 260.485 199.083Z" fill="#263238"/>
<path d="M194.429 284.517L215.669 341.59L204.245 373.819H311.093C311.093 373.819 304.533 343.887 304.133 337.141C303.733 330.396 304.133 291.996 300.933 278.816C297.733 265.636 288.509 237.355 288.509 237.355L261.429 233.073C249.013 239.723 239.261 238.607 225.909 230.897L201.357 242.92L194.429 284.517Z" fill="#3847FF"/>
<path d="M287.829 237.379C287.829 237.379 296.045 239.125 301.933 251.029C307.725 262.814 330.109 314.728 330.981 323.435C331.853 332.142 324.765 343.863 318.589 345.481L299.533 317.646L300.117 313.58L284.157 260.541L287.829 237.379Z" fill="#3847FF"/>
<path d="M291.982 257.113L292.094 257.233L292.406 257.591C292.662 257.926 293.086 258.389 293.55 259.034C294.895 260.844 296.079 262.767 297.086 264.783C298.578 267.775 299.75 270.915 300.582 274.152C301.595 278.121 302.208 282.181 302.414 286.271C302.66 293.69 302.17 301.115 300.95 308.437C300.526 311.252 300.15 313.524 299.862 315.087C299.726 315.884 299.614 316.458 299.542 316.897C299.502 317.08 299.47 317.24 299.446 317.359C299.439 317.415 299.422 317.469 299.398 317.519C299.394 317.466 299.394 317.413 299.398 317.359C299.398 317.232 299.398 317.072 299.454 316.881L299.718 315.071C299.95 313.476 300.286 311.196 300.694 308.405C301.454 302.776 302.486 294.938 302.054 286.271C301.853 282.204 301.252 278.166 300.262 274.216C299.452 270.992 298.31 267.86 296.854 264.871C295.873 262.85 294.725 260.914 293.422 259.082C292.982 258.421 292.574 257.958 292.334 257.615L292.054 257.233C292.006 257.161 291.974 257.121 291.982 257.113Z" fill="#263238"/>
<path d="M320.613 315.542C320.339 315.508 320.071 315.441 319.813 315.342L317.717 314.696C315.437 313.946 313.086 313.428 310.701 313.15C308.316 312.893 305.904 313.165 303.637 313.947C302.716 314.316 301.825 314.756 300.973 315.262C301.156 315.061 301.369 314.889 301.605 314.752C302.214 314.34 302.866 313.995 303.549 313.724C305.842 312.85 308.31 312.533 310.749 312.799C313.16 313.072 315.531 313.626 317.813 314.449C318.685 314.752 319.413 315.015 319.869 315.199C320.129 315.285 320.379 315.4 320.613 315.542Z" fill="#263238"/>
<path d="M318.301 303.199C318.046 303.327 317.778 303.426 317.501 303.494C316.989 303.653 316.261 303.908 315.381 304.251C310.744 306.04 306.542 308.791 303.053 312.32C302.381 312.998 301.861 313.556 301.509 313.955C301.339 314.174 301.145 314.374 300.933 314.553C301.059 314.307 301.218 314.079 301.405 313.875C301.725 313.444 302.205 312.854 302.877 312.153C306.302 308.491 310.56 305.705 315.293 304.028C316.003 303.769 316.727 303.548 317.461 303.366C317.734 303.28 318.015 303.224 318.301 303.199Z" fill="#263238"/>
<g opacity="0.3">
<path d="M298.813 269.368C303.343 281.135 304.605 293.902 302.469 306.324L312.709 302.513C309.903 306.365 306.268 309.541 302.069 311.81C304.829 311.013 307.669 310.215 310.525 310.399C313.381 310.582 316.357 311.993 317.645 314.521C314.301 313.915 310.893 313.301 307.517 313.724C304.141 314.146 300.725 315.669 298.909 318.508C301.434 307.634 302.401 296.459 301.781 285.315" fill="black"/>
</g>
<g opacity="0.3">
<path d="M303.061 341.128L226.733 348.623C232.237 348.511 236.469 353.152 241.229 355.895C250.029 360.982 261.037 359.554 271.101 357.976L296.117 354.061C298.221 353.726 300.461 353.335 302.013 351.876C304.797 349.269 304.029 344.764 303.061 341.128Z" fill="black"/>
</g>
<path d="M244.765 334.837L231.965 322.534C231.35 321.95 230.616 321.505 229.812 321.229C229.009 320.954 228.155 320.855 227.309 320.939C223.661 321.282 217.477 321.92 216.205 322.415C214.381 323.124 212.653 324.137 212.149 325.046C211.199 327.379 210.419 329.777 209.813 332.222C209.808 333.09 209.874 333.956 210.013 334.813C210.048 335.105 210.154 335.384 210.322 335.626C210.49 335.867 210.715 336.065 210.977 336.2C211.239 336.335 211.53 336.404 211.825 336.402C212.12 336.399 212.41 336.324 212.669 336.184C213.168 335.927 213.584 335.534 213.869 335.052C214.669 333.537 214.581 332.923 214.581 332.923C214.581 332.923 214.173 338.393 218.645 338.505C218.645 338.505 216.589 343.161 222.341 345.083C222.341 345.083 222.125 348.121 226.933 348.519C229.987 348.76 233.055 348.76 236.109 348.519C236.109 348.519 244.909 354.818 251.101 355.225C257.293 355.631 271.165 352.928 271.165 352.928L272.837 327.47L244.765 334.837Z" fill="#FFBF9D"/>
<path d="M227.453 327.031C226.797 327.374 226.111 327.66 225.405 327.884C224.117 328.363 222.333 329.001 220.309 329.543C219.301 329.822 218.293 329.981 217.453 330.212C216.713 330.454 216.091 330.963 215.709 331.64C215.429 332.101 215.122 332.546 214.789 332.971C214.533 333.266 214.357 333.394 214.341 333.378C214.444 333.21 214.557 333.048 214.677 332.892C214.901 332.581 215.149 332.094 215.477 331.504C215.675 331.175 215.912 330.87 216.181 330.595C216.504 330.279 216.899 330.046 217.333 329.917C218.229 329.654 219.189 329.495 220.197 329.208C222.205 328.674 223.997 328.076 225.301 327.661C226.002 327.397 226.721 327.186 227.453 327.031Z" fill="#FF9A6C"/>
<path d="M229.133 334.837C228.689 335.11 228.214 335.329 227.717 335.491C226.821 335.85 225.565 336.288 224.173 336.782C222.781 337.277 221.493 337.628 220.557 337.875C220.062 338.043 219.55 338.156 219.029 338.21C219.492 337.968 219.98 337.778 220.485 337.644L224.061 336.456L227.629 335.267C228.114 335.07 228.618 334.926 229.133 334.837Z" fill="#FF9A6C"/>
<path d="M232.252 342.093C232.252 342.196 230.028 342.428 227.372 343.153C224.716 343.879 222.66 344.748 222.612 344.684C223.014 344.398 223.452 344.167 223.916 343.998C225.007 343.52 226.133 343.126 227.284 342.818C228.432 342.512 229.6 342.288 230.78 342.149C231.266 342.065 231.761 342.047 232.252 342.093Z" fill="#FF9A6C"/>
<path d="M261.854 354.523L318.398 344.732C318.398 344.732 311.742 317.152 301.798 317.152C300.342 317.152 251.126 335.491 251.126 335.491L261.854 354.523Z" fill="#FFBF9D"/>
<path d="M251.934 342.18C251.461 341.81 251.018 341.405 250.606 340.968L247.534 337.939C246.334 336.751 245.254 335.65 244.502 334.829C244.07 334.411 243.684 333.949 243.35 333.45C243.823 333.82 244.267 334.225 244.678 334.662L247.774 337.699C248.982 338.887 250.054 339.988 250.806 340.809C251.232 341.223 251.61 341.683 251.934 342.18Z" fill="#FF9A6C"/>
<path d="M202.493 242.259C202.493 242.259 183.533 253.286 188.429 273.602C193.933 296.477 245.133 330.691 245.133 330.691C242.733 316.546 244.605 303.007 252.381 290.322L225.909 265.884" fill="#3847FF"/>
<path d="M225.87 265.884C225.87 265.884 226.038 266.019 226.35 266.306C226.662 266.593 227.15 267.016 227.75 267.566L233.078 272.438L252.43 290.226L252.51 290.298L252.454 290.394C249.047 295.948 246.645 302.055 245.358 308.437C243.971 315.785 243.939 323.323 245.262 330.683L245.326 331.066L244.998 330.85C239.614 327.183 234.158 323.188 228.678 318.938C217.974 310.574 208.182 302.059 200.334 293.24C199.334 292.156 198.43 291.016 197.502 289.923C196.574 288.831 195.718 287.707 194.918 286.558C193.302 284.387 191.866 282.088 190.622 279.685C188.339 275.36 187.272 270.5 187.534 265.62C187.77 261.61 188.93 257.709 190.926 254.219C192.422 251.582 194.28 249.167 196.446 247.043C197.8 245.697 199.26 244.462 200.814 243.351C201.35 242.968 201.774 242.697 202.054 242.554C202.334 242.41 202.494 242.298 202.494 242.298L202.078 242.586C201.798 242.769 201.382 243.048 200.862 243.439C199.323 244.567 197.875 245.814 196.534 247.17C194.396 249.3 192.566 251.715 191.094 254.346C189.129 257.824 187.995 261.707 187.782 265.692C187.545 270.531 188.623 275.343 190.902 279.622C192.144 282.008 193.578 284.291 195.19 286.447C195.99 287.587 196.894 288.663 197.766 289.796C198.638 290.928 199.598 292.012 200.59 293.097C208.406 301.867 218.19 310.375 228.886 318.715C234.358 322.957 239.814 326.959 245.19 330.619L244.926 330.787C243.601 323.386 243.644 315.806 245.054 308.421C246.371 302.014 248.808 295.888 252.254 290.322V290.481L232.982 272.557L227.702 267.63L226.326 266.338L225.87 265.884Z" fill="#263238"/>
<path d="M245.133 329.965C245.133 329.965 257.133 339.693 269.349 333.888C271.309 332.963 273.773 330.531 275.261 326.481C283.061 305.168 283.973 248.908 283.973 248.908L262.597 247.465L252.333 290.322C244.989 300.831 242.677 314.09 245.133 329.965Z" fill="#FFBF9D"/>
<path d="M278.069 316.411C278.075 316.547 278.062 316.684 278.029 316.817C277.989 317.08 277.933 317.471 277.837 317.965C277.653 318.97 277.365 320.405 276.877 322.159C276.323 324.223 275.556 326.225 274.589 328.131C273.442 330.518 271.664 332.547 269.445 334C267.136 335.302 264.522 335.97 261.869 335.937C259.722 335.938 257.587 335.621 255.533 334.996C254.152 334.592 252.813 334.058 251.533 333.402C251.077 333.187 250.733 332.963 250.509 332.836C250.386 332.775 250.271 332.7 250.165 332.612C250.165 332.612 250.677 332.852 251.597 333.282C252.886 333.888 254.224 334.384 255.597 334.765C257.636 335.347 259.748 335.635 261.869 335.618C264.461 335.636 267.012 334.976 269.269 333.705C271.436 332.284 273.177 330.306 274.309 327.98C275.281 326.101 276.064 324.129 276.645 322.096C277.157 320.357 277.485 318.906 277.701 317.942C277.813 317.471 277.893 317.096 277.957 316.801C277.981 316.668 278.018 316.537 278.069 316.411Z" fill="#FF9A6C"/>
<path d="M251.654 290.633C250.495 290.851 249.355 291.163 248.246 291.566C245.613 292.655 243.259 294.32 241.358 296.437C239.475 298.574 237.819 300.899 236.414 303.374L235.094 305.607C234.949 305.89 234.775 306.157 234.574 306.404C234.687 306.105 234.82 305.815 234.974 305.535C235.254 304.993 235.67 304.203 236.198 303.247C237.559 300.717 239.207 298.352 241.11 296.198C243.038 294.04 245.454 292.37 248.158 291.327C248.98 291.029 249.829 290.815 250.694 290.689C250.93 290.654 251.168 290.632 251.406 290.625L251.654 290.633Z" fill="#263238"/>
<path d="M263.334 241.86C262.862 240.265 260.198 225.762 259.118 222.389C257.59 217.605 245.174 209.106 245.174 209.106C245.174 209.106 247.118 204.632 252.374 206.961C258.638 209.712 261.726 214.344 263.302 213.403C264.878 212.462 274.718 202.48 277.398 202.799C280.078 203.118 280.67 205.852 279.718 206.953C278.98 207.876 278.309 208.852 277.71 209.871C277.71 209.871 283.39 208.165 282.286 214.36C282.286 214.36 288.75 210.373 288.118 218.825C288.118 218.825 292.382 217.103 293.326 220.085C294.27 223.067 291.462 226.527 290.046 228.855C288.63 231.184 284.022 244.89 284.022 244.89L283.534 253.286L261.406 252.345L263.334 241.86Z" fill="#FFBF9D"/>
<path d="M283.814 254.083C283.814 254.083 283.814 253.876 283.814 253.477C283.814 253.079 283.814 252.481 283.814 251.715C283.814 250.12 283.886 247.864 283.95 244.914C285.118 241.485 286.598 237.028 288.606 231.854C289.089 230.489 289.722 229.181 290.494 227.955C291.37 226.694 292.136 225.36 292.782 223.968C293.101 223.245 293.298 222.474 293.366 221.688C293.443 220.891 293.252 220.091 292.822 219.415C292.705 219.257 292.567 219.115 292.414 218.993C292.249 218.879 292.072 218.786 291.886 218.713C291.503 218.566 291.096 218.493 290.686 218.498C289.828 218.506 288.979 218.671 288.182 218.985L287.966 219.064V218.833C288.024 218.036 288.008 217.235 287.918 216.441C287.849 215.635 287.527 214.87 286.998 214.256C286.7 213.98 286.338 213.78 285.945 213.674C285.552 213.568 285.139 213.56 284.742 213.65C283.893 213.793 283.079 214.093 282.342 214.535L282.054 214.703V214.376L282.174 213.419C282.174 213.092 282.174 212.773 282.174 212.446C282.126 211.802 281.883 211.188 281.478 210.684C281.012 210.213 280.388 209.929 279.726 209.887C279.04 209.824 278.349 209.886 277.686 210.07L277.286 210.174L277.494 209.823C277.886 209.169 278.294 208.524 278.742 207.894C278.974 207.575 279.206 207.264 279.454 206.961C279.695 206.693 279.844 206.355 279.878 205.996C279.919 205.63 279.882 205.259 279.771 204.907C279.659 204.555 279.475 204.231 279.23 203.955C278.715 203.396 278.005 203.056 277.246 203.006C276.869 203.017 276.5 203.112 276.166 203.285C275.808 203.449 275.46 203.635 275.126 203.843C274.437 204.266 273.772 204.727 273.134 205.223C271.838 206.203 270.582 207.264 269.334 208.356L266.422 210.939C265.454 211.801 264.534 212.678 263.502 213.467C263.36 213.584 263.193 213.667 263.014 213.708C262.835 213.75 262.649 213.749 262.47 213.706C262.143 213.607 261.837 213.451 261.566 213.244C261.046 212.861 260.582 212.446 260.11 212.016C259.182 211.171 258.254 210.357 257.27 209.624C256.294 208.896 255.264 208.243 254.19 207.67C253.162 207.083 252.042 206.67 250.878 206.45C249.746 206.238 248.577 206.394 247.542 206.897C246.546 207.412 245.734 208.219 245.214 209.209L245.158 209.018C248.53 211.261 251.73 213.751 254.734 216.465C256.112 217.712 257.344 219.111 258.406 220.635C258.658 221.012 258.872 221.412 259.046 221.831C259.126 222.038 259.23 222.238 259.294 222.453L259.47 223.083C259.686 223.92 259.878 224.749 260.062 225.555C261.502 232.061 262.462 237.626 263.438 241.836C262.79 245.209 262.294 247.832 261.95 249.61C261.782 250.487 261.646 251.157 261.558 251.627C261.47 252.098 261.406 252.305 261.406 252.305C261.406 252.305 261.406 252.074 261.51 251.619C261.614 251.165 261.71 250.479 261.862 249.594C262.19 247.808 262.662 245.185 263.27 241.804C262.262 237.57 261.27 232.029 259.806 225.539C259.398 223.944 259.174 222.166 258.206 220.707C257.148 219.206 255.927 217.826 254.566 216.593C251.607 213.89 248.455 211.406 245.134 209.161L245.014 209.082L245.078 208.962C245.616 207.882 246.496 207.008 247.581 206.475C248.667 205.942 249.898 205.779 251.086 206.012C252.287 206.235 253.442 206.658 254.502 207.264C255.591 207.839 256.634 208.497 257.622 209.233C258.619 209.982 259.577 210.78 260.494 211.625C260.958 212.04 261.422 212.47 261.918 212.837C262.414 213.204 262.998 213.467 263.454 213.052C264.446 212.295 265.382 211.402 266.35 210.549L269.262 207.965C270.51 206.873 271.774 205.805 273.078 204.816C273.726 204.318 274.399 203.852 275.094 203.421C275.443 203.203 275.807 203.009 276.182 202.839C276.566 202.643 276.99 202.537 277.422 202.528C278.268 202.586 279.06 202.969 279.63 203.596C279.909 203.908 280.12 204.275 280.246 204.673C280.373 205.072 280.414 205.493 280.366 205.908C280.318 206.328 280.142 206.723 279.862 207.04C279.622 207.328 279.39 207.638 279.174 207.949C278.734 208.571 278.318 209.209 277.934 209.855L277.742 209.616C278.447 209.422 279.181 209.357 279.91 209.425C280.652 209.473 281.351 209.794 281.87 210.326C282.329 210.88 282.608 211.562 282.67 212.279C282.67 212.622 282.67 212.965 282.67 213.3L282.55 214.296L282.302 214.129C283.074 213.667 283.926 213.353 284.814 213.204C285.26 213.13 285.717 213.143 286.158 213.244C286.602 213.35 287.009 213.576 287.334 213.898C287.916 214.567 288.266 215.406 288.334 216.29C288.417 217.114 288.417 217.945 288.334 218.769L288.126 218.618C288.961 218.299 289.847 218.129 290.742 218.115C291.19 218.111 291.636 218.192 292.054 218.355C292.263 218.437 292.462 218.544 292.646 218.674C292.823 218.813 292.979 218.977 293.11 219.16C293.577 219.889 293.786 220.754 293.702 221.616C293.632 222.442 293.424 223.25 293.086 224.008C292.429 225.399 291.656 226.733 290.774 227.994C289.998 229.199 289.365 230.488 288.886 231.838C286.854 236.996 285.35 241.406 284.158 244.858C284.062 247.8 283.99 250.089 283.942 251.651C283.942 252.449 283.894 253.007 283.878 253.421C283.862 253.836 283.814 254.083 283.814 254.083Z" fill="#FF9A6C"/>
<path d="M277.726 210.022C276.862 210.925 275.946 211.777 274.982 212.574C274.093 213.454 273.156 214.285 272.174 215.062C272.914 214.045 273.779 213.126 274.75 212.327C275.642 211.438 276.642 210.664 277.726 210.022Z" fill="#FF9A6C"/>
<path d="M282.781 214.025C282.113 215.848 280.891 217.417 279.285 218.514C279.221 218.434 280.157 217.565 281.117 216.329C282.077 215.093 282.685 213.977 282.781 214.025Z" fill="#FF9A6C"/>
<path d="M288.061 218.514C287.77 219.217 287.371 219.871 286.877 220.452C286.476 221.096 285.983 221.679 285.413 222.182C285.709 221.483 286.108 220.833 286.597 220.252C286.999 219.606 287.492 219.021 288.061 218.514Z" fill="#FF9A6C"/>
</svg>
