<svg width="25" height="18" viewBox="0 0 25 18" fill="none" xmlns="http://www.w3.org/2000/svg">
<path d="M22.3795 2.45459H8.25227C7.34545 2.45459 6.62955 3.1705 6.62955 4.07732V5.31823L2.71591 3.12277C2.57273 3.02732 2.38182 3.02732 2.23864 3.12277C2.09545 3.21823 2 3.36141 2 3.55232V14.7205C2 14.9114 2.09545 15.0546 2.23864 15.15C2.33409 15.1978 2.38182 15.1978 2.47727 15.1978C2.57273 15.1978 2.62045 15.1978 2.71591 15.15L6.62955 12.9546V14.2432C6.62955 15.15 7.34545 15.866 8.25227 15.866H22.3795C23.2864 15.866 24.0023 15.15 24.0023 14.2432V4.07732C23.9545 3.1705 23.2386 2.45459 22.3795 2.45459ZM10.2568 13.575H9.73182C9.44545 13.575 9.25455 13.3841 9.25455 13.0978C9.25455 12.8114 9.44545 12.6205 9.73182 12.6205H10.2568C10.5432 12.6205 10.7341 12.8114 10.7341 13.0978C10.7341 13.3841 10.5432 13.575 10.2568 13.575ZM21.1864 12.9546C21.1864 13.241 20.9955 13.4319 20.7091 13.4319H16.4614C16.175 13.4319 15.9841 13.241 15.9841 12.9546V9.80459C15.9841 9.51823 16.175 9.32732 16.4614 9.32732H20.7091C20.9955 9.32732 21.1864 9.51823 21.1864 9.80459V12.9546Z" fill="#00A79D"/>
</svg>
