<svg width="20" height="20" viewBox="0 0 20 20" fill="none" xmlns="http://www.w3.org/2000/svg">
<path fill-rule="evenodd" clip-rule="evenodd" d="M17.9165 17.5H2.08317C1.64114 17.5 1.21722 17.3244 0.904659 17.0118C0.592099 16.6993 0.416504 16.2754 0.416504 15.8333V4.16667C0.416504 3.72464 0.592099 3.30072 0.904659 2.98816C1.21722 2.67559 1.64114 2.5 2.08317 2.5H17.9165C18.3585 2.5 18.7825 2.67559 19.095 2.98816C19.4076 3.30072 19.5832 3.72464 19.5832 4.16667V15.8333C19.5832 16.2754 19.4076 16.6993 19.095 17.0118C18.7825 17.3244 18.3585 17.5 17.9165 17.5ZM4.99984 3.33333H2.08317C1.86216 3.33333 1.6502 3.42113 1.49391 3.57741C1.33763 3.73369 1.24984 3.94565 1.24984 4.16667V5H4.99984V3.33333ZM9.58317 3.33333H5.83317V5H9.58317V3.33333ZM14.1665 3.33333H10.4165V5H14.1665V3.33333ZM18.7498 4.16667C18.7498 3.94565 18.662 3.73369 18.5058 3.57741C18.3495 3.42113 18.1375 3.33333 17.9165 3.33333H14.9998V5H18.7498V4.16667ZM18.7498 5.83333H1.24984V14.1667H18.7498V5.83333ZM18.7498 15H14.9998V16.6667H14.1665V15H10.4165V16.6667H9.58317V15H5.83317V16.6667H4.99984V15H1.24984V15.8333C1.24984 16.0543 1.33763 16.2663 1.49391 16.4226C1.6502 16.5789 1.86216 16.6667 2.08317 16.6667H17.9165C18.1375 16.6667 18.3495 16.5789 18.5058 16.4226C18.662 16.2663 18.7498 16.0543 18.7498 15.8333V15ZM9.00859 12.4021C8.93623 12.4636 8.84481 12.4982 8.74984 12.5C8.63933 12.5 8.53335 12.4561 8.45521 12.378C8.37707 12.2998 8.33317 12.1938 8.33317 12.0833V7.91667C8.33317 7.80616 8.37707 7.70018 8.45521 7.62204C8.53335 7.5439 8.63933 7.5 8.74984 7.5C8.83859 7.5 8.9165 7.53417 8.98442 7.58167L12.2223 9.61167C12.3031 9.63965 12.3732 9.69205 12.423 9.76162C12.4727 9.83119 12.4995 9.91449 12.4998 10C12.4991 10.0638 12.4835 10.1265 12.4542 10.1831C12.4249 10.2398 12.3827 10.2888 12.3311 10.3263L9.00859 12.4021Z" fill="#00A79D"/>
</svg>
